<?xml version="1.0" standalone="no"?>
<!DOCTYPE svg PUBLIC "-//W3C//DTD SVG 1.1//EN" "http://www.w3.org/Graphics/SVG/1.1/DTD/svg11.dtd" >
<svg xmlns="http://www.w3.org/2000/svg" xmlns:xlink="http://www.w3.org/1999/xlink" version="1.1">
<metadata>
Created by FontForge 20170924 at Sun Nov 19 20:24:05 2017
 By www-data
Digital porting: Leonardo Di Lena, special thanks to: Romesh Naik (:Nike) that gave me hope to create this font from original scans.
</metadata>
<defs>
<font id="Semplicita-Bold" horiz-adv-x="770" >
  <font-face 
    font-family="Semplicita"
    font-weight="700"
    font-stretch="normal"
    units-per-em="1000"
    panose-1="2 11 3 2 2 1 2 2 3 4"
    ascent="750"
    descent="-250"
    x-height="470"
    cap-height="700"
    bbox="-148 -240 1150 1046"
    underline-thickness="50"
    underline-position="-100"
    stemh="168"
    stemv="195"
    unicode-range="U+0020-1F31D"
  />
<missing-glyph horiz-adv-x="610" 
d="M49 700h512c0 -19 -1 -85 -1 -120v-460c0 -35 1 -101 1 -120h-512c0 19 1 85 1 120v460c0 35 -1 101 -1 120zM95 656v-612h419v612h-419z" />
    <glyph glyph-name="f_f" unicode="ff" horiz-adv-x="720" 
d="M685 710v-138c-9 2 -20 4 -30 4c-50 0 -75 -30 -75 -86v-20c36 0 85 1 102 1v-126c-17 0 -66 1 -102 1v-446c0 -35 1 -101 1 -120h-177c0 19 1 85 1 120v550c0 46 4 84 12 117c-15 6 -39 13 -74 13c-62 0 -103 -24 -103 -90v-20c36 0 85 1 102 1v-126c-17 0 -66 1 -102 1
v-446c0 -35 1 -101 1 -120h-177c0 19 1 85 1 120v560c0 155 78 260 298 260c56 0 106 -13 146 -27c31 18 67 27 104 27c31 0 58 -4 72 -10z" />
    <glyph glyph-name="f_i" unicode="fi" horiz-adv-x="655" 
d="M585 668v-18c0 -35 1 -101 1 -120h-177v40c-10 2 -28 10 -66 10c-62 0 -103 -24 -103 -90v-20c36 0 85 1 102 1v-126c-17 0 -66 1 -102 1v-446c0 -35 1 -101 1 -120h-177c0 19 1 85 1 120v560c0 155 78 260 299 260c109 0 202 -39 221 -52zM586 470c0 -19 -1 -85 -1 -120
v-230c0 -35 1 -101 1 -120h-177c0 19 1 85 1 120v230c0 35 -1 101 -1 120h177z" />
    <glyph glyph-name="f_l" unicode="fl" horiz-adv-x="655" 
d="M410 570c-10 2 -29 10 -67 10c-62 0 -103 -24 -103 -90v-20c36 0 85 1 102 1v-126c-17 0 -66 1 -102 1v-446c0 -35 1 -101 1 -120h-177c0 19 1 85 1 120v560c0 155 78 260 299 260c109 0 202 -39 221 -52v-548c0 -35 1 -101 1 -120h-177c0 19 1 85 1 120v450z" />
    <glyph glyph-name="f_f_i" unicode="ffi" horiz-adv-x="995" 
d="M925 668v-18c0 -35 1 -101 1 -120h-177v40c-10 2 -28 10 -66 10c-62 0 -103 -24 -103 -90v-20c36 0 85 1 102 1v-126c-17 0 -66 1 -102 1v-446c0 -35 1 -101 1 -120h-177c0 19 1 85 1 120v560c0 38 4 74 15 106c-13 5 -39 14 -77 14c-62 0 -103 -24 -103 -90v-20
c36 0 85 1 102 1v-126c-17 0 -66 1 -102 1v-446c0 -35 1 -101 1 -120h-177c0 19 1 85 1 120v560c0 155 78 260 298 260c65 0 123 -17 164 -34c45 22 103 34 177 34c109 0 202 -39 221 -52zM926 470c0 -19 -1 -85 -1 -120v-230c0 -35 1 -101 1 -120h-177c0 19 1 85 1 120v230
c0 35 -1 101 -1 120h177z" />
    <glyph glyph-name="f_f_l" unicode="ffl" horiz-adv-x="995" 
d="M750 570c-10 2 -29 10 -67 10c-62 0 -103 -24 -103 -90v-20c36 0 85 1 102 1v-126c-17 0 -66 1 -102 1v-446c0 -35 1 -101 1 -120h-177c0 19 1 85 1 120v560c0 38 4 74 15 106c-13 5 -39 14 -77 14c-62 0 -103 -24 -103 -90v-20c36 0 85 1 102 1v-126c-17 0 -66 1 -102 1
v-446c0 -35 1 -101 1 -120h-177c0 19 1 85 1 120v560c0 155 78 260 298 260c65 0 123 -17 164 -34c45 22 103 34 177 34c109 0 202 -39 221 -52v-548c0 -35 1 -101 1 -120h-177c0 19 1 85 1 120v450z" />
    <glyph glyph-name="f_j" unicode="fj" horiz-adv-x="655" 
d="M585 668v-18c0 -35 1 -101 1 -120h-177v40c-10 2 -28 10 -66 10c-62 0 -103 -24 -103 -90v-20c36 0 85 1 102 1v-126c-17 0 -66 1 -102 1v-446c0 -35 1 -101 1 -120h-177c0 19 1 85 1 120v560c0 155 78 260 299 260c109 0 202 -39 221 -52zM586 470c0 -19 -1 -85 -1 -120
v-450c0 -35 1 -101 1 -120h-177c0 19 1 85 1 120v450c0 35 -1 101 -1 120h177z" />
    <glyph glyph-name="f_f_j" unicode="ffj" horiz-adv-x="995" 
d="M925 668v-18c0 -35 1 -101 1 -120h-177v40c-10 2 -28 10 -66 10c-62 0 -103 -24 -103 -90v-20c36 0 85 1 102 1v-126c-17 0 -66 1 -102 1v-446c0 -35 1 -101 1 -120h-177c0 19 1 85 1 120v560c0 38 4 74 15 106c-13 5 -39 14 -77 14c-62 0 -103 -24 -103 -90v-20
c36 0 85 1 102 1v-126c-17 0 -66 1 -102 1v-446c0 -35 1 -101 1 -120h-177c0 19 1 85 1 120v560c0 155 78 260 298 260c65 0 123 -17 164 -34c45 22 103 34 177 34c109 0 202 -39 221 -52zM926 470c0 -19 -1 -85 -1 -120v-450c0 -35 1 -101 1 -120h-177c0 19 1 85 1 120v450
c0 35 -1 101 -1 120h177z" />
    <glyph glyph-name="longs_longs_j" unicode="&#x17f;&#x17f;j" horiz-adv-x="995" 
d="M925 668v-18c0 -35 1 -101 1 -120h-177v40c-10 2 -28 10 -66 10c-62 0 -103 -24 -103 -90v-590c0 -35 1 -101 1 -120h-177c0 19 1 85 1 120v560c0 38 4 74 15 106c-13 5 -39 14 -77 14c-62 0 -103 -24 -103 -90v-590c0 -35 1 -101 1 -120h-177c0 19 1 85 1 120v560
c0 155 78 260 298 260c65 0 123 -17 164 -34c45 22 103 34 177 34c109 0 202 -39 221 -52zM926 470c0 -19 -1 -85 -1 -120v-450c0 -35 1 -101 1 -120h-177c0 19 1 85 1 120v450c0 35 -1 101 -1 120h177z" />
    <glyph glyph-name="longs_j" unicode="&#x17f;j" horiz-adv-x="655" 
d="M585 668v-18c0 -35 1 -101 1 -120h-177v40c-10 2 -28 10 -66 10c-62 0 -103 -24 -103 -90v-590c0 -35 1 -101 1 -120h-177c0 19 1 85 1 120v560c0 155 78 260 299 260c109 0 202 -39 221 -52zM586 470c0 -19 -1 -85 -1 -120v-450c0 -35 1 -101 1 -120h-177
c0 19 1 85 1 120v450c0 35 -1 101 -1 120h177z" />
    <glyph glyph-name="longs_longs" unicode="&#x17f;&#x17f;" horiz-adv-x="720" 
d="M685 710v-138c-9 2 -20 4 -30 4c-50 0 -75 -30 -75 -86v-590c0 -35 1 -101 1 -120h-177c0 19 1 85 1 120v550c0 46 4 84 12 117c-15 6 -39 13 -74 13c-62 0 -103 -24 -103 -90v-590c0 -35 1 -101 1 -120h-177c0 19 1 85 1 120v560c0 155 78 260 298 260
c56 0 106 -13 146 -27c31 18 67 27 104 27c31 0 58 -4 72 -10z" />
    <glyph glyph-name="longs_i" unicode="&#x17f;i" horiz-adv-x="655" 
d="M585 668v-18c0 -35 1 -101 1 -120h-177v40c-10 2 -28 10 -66 10c-62 0 -103 -24 -103 -90v-590c0 -35 1 -101 1 -120h-177c0 19 1 85 1 120v560c0 155 78 260 299 260c109 0 202 -39 221 -52zM586 470c0 -19 -1 -85 -1 -120v-230c0 -35 1 -101 1 -120h-177
c0 19 1 85 1 120v230c0 35 -1 101 -1 120h177z" />
    <glyph glyph-name="longs_l" unicode="&#x17f;l" horiz-adv-x="655" 
d="M410 570c-10 2 -29 10 -67 10c-62 0 -103 -24 -103 -90v-590c0 -35 1 -101 1 -120h-177c0 19 1 85 1 120v560c0 155 78 260 299 260c109 0 202 -39 221 -52v-548c0 -35 1 -101 1 -120h-177c0 19 1 85 1 120v450z" />
    <glyph glyph-name="longs_longs_i" unicode="&#x17f;&#x17f;i" horiz-adv-x="995" 
d="M925 668v-18c0 -35 1 -101 1 -120h-177v40c-10 2 -28 10 -66 10c-62 0 -103 -24 -103 -90v-590c0 -35 1 -101 1 -120h-177c0 19 1 85 1 120v560c0 38 4 74 15 106c-13 5 -39 14 -77 14c-62 0 -103 -24 -103 -90v-590c0 -35 1 -101 1 -120h-177c0 19 1 85 1 120v560
c0 155 78 260 298 260c65 0 123 -17 164 -34c45 22 103 34 177 34c109 0 202 -39 221 -52zM926 470c0 -19 -1 -85 -1 -120v-230c0 -35 1 -101 1 -120h-177c0 19 1 85 1 120v230c0 35 -1 101 -1 120h177z" />
    <glyph glyph-name="longs_longs_l" unicode="&#x17f;&#x17f;l" horiz-adv-x="995" 
d="M750 570c-10 2 -29 10 -67 10c-62 0 -103 -24 -103 -90v-590c0 -35 1 -101 1 -120h-177c0 19 1 85 1 120v560c0 38 4 74 15 106c-13 5 -39 14 -77 14c-62 0 -103 -24 -103 -90v-590c0 -35 1 -101 1 -120h-177c0 19 1 85 1 120v560c0 155 78 260 298 260
c65 0 123 -17 164 -34c45 22 103 34 177 34c109 0 202 -39 221 -52v-548c0 -35 1 -101 1 -120h-177c0 19 1 85 1 120v450z" />
    <glyph glyph-name=".notdef" horiz-adv-x="610" 
d="M49 700h512c0 -19 -1 -85 -1 -120v-460c0 -35 1 -101 1 -120h-512c0 19 1 85 1 120v460c0 35 -1 101 -1 120zM95 656v-612h419v612h-419z" />
    <glyph glyph-name="space" unicode=" " horiz-adv-x="400" 
 />
    <glyph glyph-name="exclam" unicode="!" horiz-adv-x="314" 
d="M250 700c0 -19 -1 -85 -1 -120v-220c0 -35 1 -101 1 -120h-186c0 19 1 85 1 120v220c0 35 -1 101 -1 120h186zM159 200c62 0 112 -49 112 -110s-50 -110 -112 -110s-112 49 -112 110s50 110 112 110z" />
    <glyph glyph-name="quotedbl" unicode="&#x22;" horiz-adv-x="473" 
d="M203 770v-129c0 -45 -10 -98 -27 -135h-99c-17 37 -27 90 -27 135v129h153zM423 770v-129c0 -45 -10 -98 -27 -135h-99c-17 37 -27 90 -27 135v129h153z" />
    <glyph glyph-name="numbersign" unicode="#" horiz-adv-x="648" 
d="M628 547v-126c-19 0 -83 1 -118 1l-34 -126c35 0 77 1 92 1v-126c-19 0 -85 1 -120 1h-6l-24 -91l-30 -116l-105 28l32 116l17 63h-107l-24 -91l-30 -116l-105 28l32 116l17 63c-36 -1 -80 -1 -95 -1v126c19 0 85 -1 120 -1h8l34 126c-36 0 -86 -1 -102 -1v126
c19 0 85 -1 120 -1h16l22 82l30 116l105 -28l-32 -116l-15 -54h107l22 82l30 116l105 -28l-32 -116l-15 -54c34 0 71 1 85 1zM293 422l-34 -126h106l34 126h-106z" />
    <glyph glyph-name="dollar" unicode="$" horiz-adv-x="577" 
d="M232 820h142v-111c73 -21 125 -69 154 -102l-112 -104c-29 39 -65 73 -112 73c-26 0 -45 -18 -45 -38c0 -48 63 -77 110 -109c90 -62 176 -115 176 -233c0 -104 -68 -181 -171 -206v-110h-142v106c-93 17 -162 73 -204 144l145 85c26 -50 69 -89 124 -89
c38 0 64 24 64 54c0 44 -51 74 -111 113c-78 51 -171 114 -171 223c0 88 64 166 153 193v111z" />
    <glyph glyph-name="percent" unicode="%" horiz-adv-x="720" 
d="M601 722l85 -70c-13 -14 -56 -64 -78 -91l-413 -491c-22 -27 -64 -78 -76 -92l-85 70c13 14 56 64 78 91l413 491c23 27 64 77 76 92zM525 290c107 0 175 -72 175 -160s-68 -160 -175 -160s-175 72 -175 160s68 160 175 160zM525 194c-34 0 -61 -29 -61 -64
s27 -64 61 -64s61 29 61 64s-27 64 -61 64zM195 730c107 0 175 -72 175 -160s-68 -160 -175 -160s-175 72 -175 160s68 160 175 160zM195 634c-34 0 -61 -29 -61 -64s27 -64 61 -64s61 29 61 64s-27 64 -61 64z" />
    <glyph glyph-name="ampersand" unicode="&#x26;" horiz-adv-x="792" 
d="M782 0h-237l-55 59c-74 -47 -157 -79 -241 -79c-135 0 -219 100 -219 204c0 107 78 160 163 196c-36 41 -65 84 -65 142c0 102 92 184 222 184c127 0 214 -86 214 -190c0 -77 -55 -129 -125 -166l80 -82c38 37 72 74 95 103l109 -111c-28 -31 -62 -65 -99 -99zM296 144
c28 0 59 10 91 26l-104 112c-37 -19 -61 -41 -61 -76c0 -34 27 -62 74 -62zM300 526c0 -30 22 -56 51 -87c38 19 59 43 59 83c0 33 -24 58 -56 58c-29 0 -54 -22 -54 -54z" />
    <glyph glyph-name="quotesingle" unicode="'" horiz-adv-x="253" 
d="M203 770v-129c0 -45 -10 -98 -27 -135h-99c-17 37 -27 90 -27 135v129h153z" />
    <glyph glyph-name="parenleft" unicode="(" horiz-adv-x="284" 
d="M156 312c0 -161 30 -284 98 -427l-87 -47c-73 145 -111 293 -111 474s38 329 111 474l87 -47c-68 -143 -98 -266 -98 -427z" />
    <glyph glyph-name="parenright" unicode=")" horiz-adv-x="284" 
d="M128 312c0 161 -30 284 -98 427l87 47c73 -145 111 -293 111 -474s-38 -329 -111 -474l-87 47c68 143 98 266 98 427z" />
    <glyph glyph-name="asterisk" unicode="*" horiz-adv-x="398" 
d="M158 795h82v-49c0 -26 -6 -50 -9 -58l3 -2c5 7 22 24 45 38l41 25l41 -71l-42 -24c-23 -13 -47 -20 -55 -21v-4c8 -1 32 -7 55 -20l42 -24l-41 -71l-41 25c-23 14 -40 31 -45 38l-3 -2c3 -8 9 -32 9 -58v-49h-82v49c0 26 6 50 9 58l-3 2c-5 -7 -22 -24 -45 -38l-41 -25
l-41 71l42 24c23 13 47 19 55 20v4c-8 1 -32 8 -55 21l-42 24l41 71l41 -25c23 -14 40 -31 45 -38l3 2c-3 8 -9 32 -9 58v49z" />
    <glyph glyph-name="plus" unicode="+" horiz-adv-x="716" 
d="M434 639c0 -19 -1 -85 -1 -120v-83h83c35 0 101 1 120 1v-152c-19 0 -85 1 -120 1h-83v-83c0 -35 1 -101 1 -120h-152c0 19 1 85 1 120v83h-83c-35 0 -101 -1 -120 -1v152c19 0 85 -1 120 -1h83v83c0 35 -1 101 -1 120h152z" />
    <glyph glyph-name="comma" unicode="," horiz-adv-x="324" 
d="M-13 -120l118 315h178l-179 -315h-117z" />
    <glyph glyph-name="hyphen" unicode="-" horiz-adv-x="425" 
d="M40 323c9 0 43 -1 60 -1h225c17 0 51 1 60 1v-162c-9 0 -43 1 -60 1h-225c-17 0 -51 -1 -60 -1v162z" />
    <glyph glyph-name="period" unicode="." horiz-adv-x="324" 
d="M162 200c62 0 112 -49 112 -110s-50 -110 -112 -110s-112 49 -112 110s50 110 112 110z" />
    <glyph glyph-name="slash" unicode="/" horiz-adv-x="443" 
d="M355 803l124 -55c-8 -18 -35 -77 -50 -109l-274 -617c-14 -32 -40 -93 -48 -110l-124 55c8 18 35 77 50 109l274 617c14 32 40 93 48 110z" />
    <glyph glyph-name="zero" unicode="0" horiz-adv-x="716" 
d="M358 720c197 0 338 -166 338 -370s-141 -370 -338 -370s-338 166 -338 370s141 370 338 370zM358 564c-88 0 -152 -96 -152 -214c0 -116 64 -210 152 -210s152 94 152 210c0 118 -64 214 -152 214z" />
    <glyph glyph-name="one" unicode="1" horiz-adv-x="716" 
d="M466 700v-580c0 -35 1 -101 1 -120h-186c0 19 1 85 1 120v430h-94v150h278z" />
    <glyph glyph-name="two" unicode="2" horiz-adv-x="716" 
d="M496 0h-436c95 101 186 195 273 304c38 48 83 105 83 166c0 54 -24 94 -76 94c-60 0 -82 -47 -82 -112h-192c0 151 101 268 274 268c161 0 268 -110 268 -248c0 -85 -29 -136 -95 -202l-79 -80c-19 -19 -39 -38 -51 -45l2 -4c10 3 36 7 71 7h38c35 0 103 1 122 1v-150
c-19 0 -85 1 -120 1z" />
    <glyph glyph-name="three" unicode="3" horiz-adv-x="716" 
d="M358 720c140 0 230 -89 230 -202c0 -73 -32 -115 -71 -131v-5c67 -18 115 -82 115 -172c0 -145 -115 -230 -268 -230c-160 0 -276 113 -282 250h182c8 -53 38 -92 96 -92c62 0 92 40 92 90c0 47 -29 86 -102 86h-25v118h12c59 0 83 28 83 74c0 37 -26 66 -68 66
c-46 0 -74 -37 -74 -80h-166c0 122 99 228 246 228z" />
    <glyph glyph-name="four" unicode="4" horiz-adv-x="716" 
d="M562 700v-410c33 0 76 1 90 1v-152c-14 0 -57 0 -90 1c0 -36 1 -124 1 -140h-174c0 16 1 104 1 140h-341v130l273 430h240zM390 290v155c0 35 4 94 7 104l-4 2c-4 -10 -18 -41 -51 -90l-75 -111c-24 -35 -47 -58 -57 -63l2 -4c11 5 57 7 84 7h94z" />
    <glyph glyph-name="five" unicode="5" horiz-adv-x="716" 
d="M136 330l62 370h244c35 0 101 1 120 1v-155c-19 0 -85 1 -120 1h-120l-8 -37c-5 -25 -7 -32 -14 -43l3 -3c8 7 38 12 62 12c138 0 249 -102 249 -243c0 -156 -117 -253 -294 -253c-114 0 -196 42 -230 71l27 167c44 -40 109 -78 189 -78c73 0 118 46 118 102
c0 66 -65 116 -150 116c-61 0 -111 -16 -138 -28z" />
    <glyph glyph-name="six" unicode="6" horiz-adv-x="716" 
d="M534 700c-30 -41 -71 -85 -103 -123l-49 -58c-16 -19 -31 -38 -53 -54l2 -3c18 10 46 18 85 18c136 0 234 -105 234 -238c0 -138 -94 -262 -298 -262c-197 0 -292 121 -292 254c0 58 17 104 42 154c27 54 56 95 81 129l76 103c20 27 35 49 56 80h219zM350 344
c-61 0 -110 -47 -110 -111c0 -63 49 -109 110 -109s110 45 110 109s-49 111 -110 111z" />
    <glyph glyph-name="seven" unicode="7" horiz-adv-x="716" 
d="M668 672l-319 -569c-20 -35 -50 -90 -57 -103h-215c7 11 43 69 64 105l234 404c18 30 31 37 36 40l-2 4c-4 -2 -15 -7 -51 -7h-140c-35 0 -101 -1 -120 -1v156c19 0 85 -1 120 -1h450v-28z" />
    <glyph glyph-name="eight" unicode="8" horiz-adv-x="716" 
d="M208 684c38 23 83 36 150 36s112 -13 150 -36c62 -37 90 -99 90 -161c0 -69 -38 -132 -104 -150v-4c78 -20 132 -91 132 -172c0 -118 -83 -217 -268 -217s-268 99 -268 217c0 81 54 152 132 172v4c-66 18 -104 81 -104 150c0 62 28 124 90 161zM358 296
c-49 0 -84 -38 -84 -84s33 -86 84 -86s84 40 84 86s-35 84 -84 84zM358 446c41 0 72 34 72 77c0 39 -31 71 -72 71s-72 -32 -72 -71c0 -43 31 -77 72 -77z" />
    <glyph glyph-name="nine" unicode="9" horiz-adv-x="716" 
d="M58 460c0 144 125 260 300 260c182 0 294 -116 294 -260c0 -63 -33 -141 -61 -182l-123 -181c-23 -34 -47 -64 -70 -97h-211c11 15 58 70 80 96l76 91c15 21 22 29 44 45l-2 3c-9 -4 -39 -13 -75 -13c-165 0 -252 126 -252 238zM246 470c0 -61 51 -110 114 -110
s114 49 114 110c0 62 -51 112 -114 112s-114 -50 -114 -112z" />
    <glyph glyph-name="colon" unicode=":" horiz-adv-x="324" 
d="M162 200c62 0 112 -49 112 -110s-50 -110 -112 -110s-112 49 -112 110s50 110 112 110zM162 494c62 0 112 -49 112 -110s-50 -110 -112 -110s-112 49 -112 110s50 110 112 110z" />
    <glyph glyph-name="semicolon" unicode=";" horiz-adv-x="324" 
d="M270 180h-176l-104 -315h119zM162 494c62 0 112 -49 112 -110s-50 -110 -112 -110s-112 49 -112 110s50 110 112 110z" />
    <glyph glyph-name="less" unicode="&#x3c;" horiz-adv-x="536" 
d="M266 361v-4c18 -3 59 -21 87 -39l66 -43c29 -19 84 -53 99 -62l-82 -126c-16 11 -71 48 -101 67l-317 205l317 205c30 19 85 56 101 67l82 -126c-15 -9 -70 -43 -99 -62l-66 -43c-28 -18 -69 -36 -87 -39z" />
    <glyph glyph-name="equal" unicode="=" horiz-adv-x="716" 
d="M636 307v-152c-19 0 -85 1 -120 1h-316c-35 0 -101 -1 -120 -1v152c19 0 85 -1 120 -1h316c35 0 101 1 120 1zM636 567v-152c-19 0 -85 1 -120 1h-316c-35 0 -101 -1 -120 -1v152c19 0 85 -1 120 -1h316c35 0 101 1 120 1z" />
    <glyph glyph-name="greater" unicode="&#x3e;" horiz-adv-x="536" 
d="M270 361c-18 3 -59 21 -87 39l-66 43c-29 19 -84 53 -99 62l82 126c16 -11 71 -48 101 -67l317 -205l-317 -205c-30 -19 -85 -56 -101 -67l-82 126c15 9 70 43 99 62l66 43c28 18 69 36 87 39v4z" />
    <glyph glyph-name="question" unicode="?" horiz-adv-x="558" 
d="M182 414h45c54 0 105 36 105 84c0 36 -27 66 -62 66c-40 0 -62 -30 -62 -70h-186c0 145 113 226 248 226c143 0 248 -98 248 -218c0 -115 -88 -183 -160 -194h-1c0 -30 1 -62 1 -74h-177c0 19 1 85 1 120v60zM277 200c62 0 112 -49 112 -110s-50 -110 -112 -110
s-112 49 -112 110s50 110 112 110z" />
    <glyph glyph-name="at" unicode="@" horiz-adv-x="1130" 
d="M856 436l-28 -231c-2 -21 4 -39 24 -39c52 0 98 83 98 174c0 171 -137 288 -336 288c-250 0 -424 -176 -424 -393c0 -190 145 -343 362 -343c96 0 161 17 242 47l36 -122c-84 -32 -175 -49 -278 -49c-303 0 -502 209 -502 467c0 285 228 517 566 517
c285 0 474 -173 474 -412c0 -195 -135 -320 -296 -320c-72 0 -119 29 -146 61c-27 -28 -86 -61 -162 -61c-121 0 -210 75 -210 209c0 170 128 301 330 301c134 0 219 -58 250 -94zM655 220l15 125c-16 19 -46 39 -88 39c-69 0 -124 -54 -124 -123c0 -54 35 -95 92 -95
c48 0 83 24 105 54z" />
    <glyph glyph-name="A" unicode="A" 
d="M377 724h20l300 -615c15 -31 44 -88 55 -109h-199c-9 21 -24 52 -32 70l-6 14h-255l-6 -14c-7 -16 -22 -48 -31 -70h-205c8 17 40 78 55 109zM355 226h63c19 0 32 -3 35 -5l2 4c-2 1 -7 5 -16 25l-24 51c-20 43 -27 71 -27 76h-4c0 -5 -7 -33 -26 -76l-23 -51
c-7 -16 -15 -24 -17 -25l2 -4c2 2 17 5 35 5z" />
    <glyph glyph-name="B" unicode="B" horiz-adv-x="670" 
d="M74 700h306c122 0 208 -73 208 -188c0 -87 -54 -128 -110 -141v-4c83 -17 136 -81 136 -175c0 -101 -56 -192 -210 -192h-330v700zM259 294v-144h75c53 0 82 29 82 70c0 42 -29 74 -80 74h-77zM259 566v-140h55c58 0 82 24 82 70c0 39 -28 70 -82 70h-55z" />
    <glyph glyph-name="C" unicode="C" horiz-adv-x="764" 
d="M610 226l124 -129c-71 -74 -182 -117 -300 -117c-239 0 -384 168 -384 374s150 366 382 366c130 0 218 -45 284 -113l-120 -124c-49 49 -101 73 -164 73c-105 0 -190 -74 -190 -202c0 -126 90 -206 192 -206c82 0 128 33 176 78z" />
    <glyph glyph-name="D" unicode="D" horiz-adv-x="745" 
d="M75 700h279c203 0 341 -155 341 -350c0 -191 -135 -350 -363 -350h-257v700zM267 542v-382h64c96 0 172 84 172 190c0 109 -73 192 -176 192h-60z" />
    <glyph glyph-name="E" unicode="E" horiz-adv-x="518" 
d="M75 0v700h259c35 0 101 1 120 1v-166c-19 0 -85 1 -120 1h-82v-104h44c35 0 101 1 120 1v-166c-19 0 -85 1 -120 1h-44v-104h98c35 0 101 1 120 1v-166c-19 0 -85 1 -120 1h-275z" />
    <glyph glyph-name="F" unicode="F" horiz-adv-x="524" 
d="M75 120v580h275c35 0 101 1 120 1v-166c-19 0 -85 1 -120 1h-83v-104h48c35 0 101 1 120 1v-166c-19 0 -85 1 -120 1h-48v-148c0 -35 1 -101 1 -120h-194c0 19 1 85 1 120z" />
    <glyph glyph-name="G" unicode="G" horiz-adv-x="836" 
d="M566 216h-8c-35 0 -100 -1 -119 -1v158c19 0 85 -1 120 -1h225c1 -11 2 -41 2 -56c0 -178 -126 -336 -356 -336s-380 166 -380 370s160 370 380 370c126 0 225 -53 286 -134l-132 -122c-46 69 -100 88 -154 88c-112 0 -188 -91 -188 -202c0 -128 76 -214 188 -214
c86 0 121 24 150 53c13 13 17 27 20 29l-3 4c-3 -2 -14 -6 -31 -6z" />
    <glyph glyph-name="H" unicode="H" horiz-adv-x="792" 
d="M717 580v-460c0 -35 1 -101 1 -120h-194c0 19 1 85 1 120v160h-258v-160c0 -35 1 -101 1 -120h-194c0 19 1 85 1 120v460c0 35 -1 101 -1 120h194c0 -19 -1 -85 -1 -120v-150h258v150c0 35 -1 101 -1 120h194c0 -19 -1 -85 -1 -120z" />
    <glyph glyph-name="I" unicode="I" horiz-adv-x="352" 
d="M79 700h194c0 -19 -1 -85 -1 -120v-460c0 -35 1 -101 1 -120h-194c0 19 1 85 1 120v460c0 35 -1 101 -1 120z" />
    <glyph glyph-name="J" unicode="J" horiz-adv-x="512" 
d="M21 87l116 123c7 -20 31 -68 65 -68c24 0 43 23 43 54v384c0 35 -1 101 -1 120h194c0 -19 -1 -85 -1 -120v-396c0 -93 -82 -204 -227 -204c-95 0 -155 47 -189 107z" />
    <glyph glyph-name="K" unicode="K" horiz-adv-x="749" 
d="M485 700h234c-32 -40 -66 -78 -100 -118l-182 -219l199 -237l105 -126h-247c-12 14 -30 40 -51 68l-136 177c-20 26 -40 63 -41 65l-4 -2c1 -6 7 -40 5 -80v-108c0 -35 1 -101 1 -120h-194c0 19 1 85 1 120v460c0 35 -1 101 -1 120h194c0 -19 -1 -85 -1 -120v-101
c0 -34 -1 -70 -5 -77l4 -2c1 1 12 23 41 62l132 181c20 28 33 44 46 57z" />
    <glyph glyph-name="L" unicode="L" horiz-adv-x="514" 
d="M75 0v580c0 35 -1 101 -1 120h194c0 -19 -1 -85 -1 -120v-418h99c35 0 101 1 120 1v-164c-19 0 -85 1 -120 1h-291z" />
    <glyph glyph-name="M" unicode="M" horiz-adv-x="970" 
d="M491 -16h-15l-144 257c-18 31 -33 57 -36 70l-4 -1c1 -10 -7 -42 -17 -76l-40 -135c-8 -28 -18 -63 -27 -99h-194c13 43 29 95 35 117l175 613h15l203 -340c30 -50 39 -73 40 -83h4c1 11 13 36 40 83l196 340h15l182 -612c13 -44 37 -118 37 -118h-196
c-10 33 -20 67 -30 100l-40 129c-12 37 -19 63 -18 73l-4 1c-3 -13 -16 -40 -36 -74z" />
    <glyph glyph-name="N" unicode="N" horiz-adv-x="803" 
d="M75 718h18l390 -310c32 -26 36 -31 56 -59l4 1c-2 10 -7 36 -7 74v156c0 35 -1 101 -1 120h194c0 -19 -1 -85 -1 -120v-598h-18l-390 321c-32 26 -36 31 -56 59l-4 -1c2 -10 7 -36 7 -74v-167c0 -35 1 -101 1 -120h-194c0 19 1 85 1 120v598z" />
    <glyph glyph-name="O" unicode="O" horiz-adv-x="872" 
d="M436 720c219 0 386 -166 386 -370s-167 -370 -386 -370s-386 166 -386 370s167 370 386 370zM436 542c-108 0 -194 -86 -194 -192s86 -192 194 -192s194 86 194 192s-86 192 -194 192z" />
    <glyph glyph-name="P" unicode="P" horiz-adv-x="620" 
d="M340 230h-105v-110c0 -35 1 -101 1 -120h-194c0 19 1 85 1 120v580h305c147 0 227 -104 227 -238c0 -128 -61 -232 -235 -232zM235 376h66c55 0 87 36 87 86c0 52 -30 90 -87 90h-66v-176z" />
    <glyph glyph-name="Q" unicode="Q" horiz-adv-x="872" 
d="M822 120v-150c-83 0 -139 27 -184 63c-58 -33 -127 -53 -202 -53c-219 0 -386 166 -386 370s167 370 386 370s386 -166 386 -370c0 -80 -26 -154 -70 -215c21 -9 44 -15 70 -15zM436 542c-108 0 -194 -86 -194 -192s86 -192 194 -192c22 0 43 4 63 10
c-23 17 -49 28 -81 28v150c86 0 143 -38 190 -84c14 26 22 56 22 88c0 106 -86 192 -194 192z" />
    <glyph glyph-name="R" unicode="R" horiz-adv-x="638" 
d="M614 0h-201c-11 31 -22 59 -34 89l-67 171h-45v-140c0 -35 1 -101 1 -120h-194c0 19 1 85 1 120v580h301c137 0 226 -97 226 -232c0 -92 -40 -154 -104 -185l72 -174c17 -42 44 -109 44 -109zM331 546h-64v-152h60c45 0 80 33 80 74c0 43 -32 78 -76 78z" />
    <glyph glyph-name="S" unicode="S" horiz-adv-x="577" 
d="M528 607l-112 -104c-29 39 -65 73 -112 73c-26 0 -45 -18 -45 -38c0 -48 63 -77 110 -109c90 -62 176 -115 176 -233c0 -129 -104 -216 -250 -216c-125 0 -216 64 -267 150l145 85c26 -50 69 -89 124 -89c38 0 64 24 64 54c0 44 -51 74 -111 113
c-78 51 -171 114 -171 223s99 204 221 204c114 0 190 -69 228 -113z" />
    <glyph glyph-name="T" unicode="T" horiz-adv-x="536" 
d="M506 701v-166c-19 0 -85 1 -120 1h-22v-416c0 -35 1 -101 1 -120h-194c0 19 1 85 1 120v416h-22c-35 0 -101 -1 -120 -1v166c19 0 85 -1 120 -1h236c35 0 101 1 120 1z" />
    <glyph glyph-name="U" unicode="U" horiz-adv-x="771" 
d="M268 700c0 -19 -1 -85 -1 -120v-330c0 -34 15 -65 38 -83c23 -17 55 -25 94 -25c46 0 85 16 105 30v408c0 35 -1 101 -1 120h194c0 -19 -1 -85 -1 -120v-516c-40 -29 -120 -84 -297 -84c-108 0 -178 16 -231 53c-60 42 -93 109 -93 217v330c0 35 -1 101 -1 120h194z" />
    <glyph glyph-name="V" unicode="V" horiz-adv-x="784" 
d="M401 -15h-16l-297 585c-22 44 -45 87 -68 130h212c8 -18 28 -61 44 -93l79 -162c16 -33 37 -88 38 -100h4c1 12 15 59 34 100l76 163c15 32 34 74 41 92h216c-9 -19 -45 -86 -66 -127z" />
    <glyph glyph-name="W" unicode="W" horiz-adv-x="1072" 
d="M530 350c-1 -11 -17 -64 -34 -100l-126 -278h-18l-283 600c-15 32 -52 110 -59 128h191c13 -31 27 -64 43 -96l83 -170c15 -31 32 -90 33 -100h4c1 12 14 57 33 100l122 274h18l125 -274c20 -43 32 -88 33 -100h4c1 10 20 68 35 100l81 170c15 32 29 65 42 96h205
c-9 -18 -48 -96 -63 -128l-287 -600h-18l-129 278c-17 36 -32 89 -33 100h-2z" />
    <glyph glyph-name="X" unicode="X" horiz-adv-x="792" 
d="M726 700c-11 -16 -66 -96 -86 -125l-139 -201l178 -247c29 -40 62 -85 93 -127h-232c-9 16 -30 49 -49 78l-65 101c-20 31 -29 60 -29 65h-4c-1 -5 -10 -34 -30 -65l-67 -101c-19 -29 -40 -62 -49 -78h-227c30 42 63 87 91 127l173 247l-147 201c-21 28 -82 109 -94 125
h237c14 -25 30 -51 47 -76l33 -49c20 -29 30 -65 31 -69h4c0 4 10 39 29 69l31 49c15 24 31 51 46 76h225z" />
    <glyph glyph-name="Y" unicode="Y" horiz-adv-x="720" 
d="M271 0c0 19 1 85 1 120v218l-171 237c-21 29 -80 109 -91 125h227c16 -26 32 -51 50 -77l41 -60c18 -25 33 -58 35 -69h4c0 5 14 39 34 69l40 61c17 25 33 51 51 76h218c-27 -40 -58 -84 -86 -123l-166 -235v-222c0 -35 1 -101 1 -120h-188z" />
    <glyph glyph-name="Z" unicode="Z" horiz-adv-x="668" 
d="M411 156h77c35 0 101 1 120 1v-158c-19 0 -85 1 -120 1h-474l277 463c32 53 55 81 63 85l-2 4c-9 -4 -36 -6 -107 -6h-63c-35 0 -101 -1 -120 -1v156c19 0 85 -1 120 -1h456l-272 -461c-23 -39 -55 -81 -64 -85l2 -4c11 5 56 6 107 6z" />
    <glyph glyph-name="bracketleft" unicode="[" horiz-adv-x="320" 
d="M40 -30v760h157c35 0 51 1 70 1v-130c-19 0 -35 1 -70 1h-27v-504h37c35 0 51 1 70 1v-130c-19 0 -35 1 -70 1h-167z" />
    <glyph glyph-name="backslash" unicode="\" horiz-adv-x="443" 
d="M-17 748l124 55c8 -17 34 -78 48 -110l274 -617c15 -32 42 -91 50 -109l-124 -55c-8 17 -34 78 -48 110l-274 617c-15 32 -42 91 -50 109z" />
    <glyph glyph-name="bracketright" unicode="]" horiz-adv-x="320" 
d="M280 730v-760h-167c-35 0 -51 -1 -70 -1v130c19 0 35 -1 70 -1h37v504h-27c-35 0 -51 -1 -70 -1v130c19 0 35 -1 70 -1h157z" />
    <glyph glyph-name="asciicircum" unicode="^" horiz-adv-x="648" 
d="M326 431h-4c-3 -16 -24 -49 -53 -81l-17 -19l-79 -89l-123 111c14 15 59 63 84 91l190 211l190 -211c25 -28 70 -76 84 -91l-123 -111l-79 89l-17 19c-29 32 -50 65 -53 81z" />
    <glyph glyph-name="underscore" unicode="_" horiz-adv-x="690" 
d="M640 -41v-162c-19 0 -85 1 -120 1h-350c-35 0 -101 -1 -120 -1v162c19 0 85 -1 120 -1h350c35 0 101 1 120 1z" />
    <glyph glyph-name="grave" unicode="`" horiz-adv-x="320" 
d="M24 700l114 76l136 -168l-88 -58z" />
    <glyph glyph-name="a" unicode="a" horiz-adv-x="594" 
d="M287 494c97 0 192 -28 228 -101c12 -25 15 -58 15 -95v-252c-33 -23 -117 -70 -244 -70c-184 0 -244 87 -244 178c0 92 68 162 200 162c61 0 107 -21 123 -45l4 2c-3 9 -6 27 -7 38c-4 48 -45 73 -95 73c-60 0 -107 -21 -130 -34l-49 100c38 19 93 44 199 44zM282 220
c-44 0 -70 -27 -70 -62c0 -40 28 -72 78 -72c41 0 65 20 74 28v60c-11 20 -41 46 -82 46z" />
    <glyph glyph-name="b" unicode="b" horiz-adv-x="666" 
d="M64 715h177c0 -21 -1 -91 -1 -128v-101c0 -19 -2 -39 -5 -46l4 -2c24 27 83 52 145 52c132 0 238 -90 238 -248c0 -151 -108 -262 -295 -262c-134 0 -226 58 -262 94v513c0 37 -1 107 -1 128zM240 290v-125c18 -19 51 -39 93 -39c64 0 109 46 109 108
c0 61 -42 110 -104 110c-48 0 -80 -24 -98 -54z" />
    <glyph glyph-name="c" unicode="c" horiz-adv-x="610" 
d="M322 490c113 0 176 -51 219 -97l-125 -98c-19 28 -48 51 -90 51c-61 0 -101 -48 -101 -108c0 -59 45 -108 103 -108c45 0 77 26 96 56l138 -88c-35 -50 -108 -118 -238 -118c-158 0 -274 106 -274 256c0 143 115 254 272 254z" />
    <glyph glyph-name="d" unicode="d" horiz-adv-x="666" 
d="M425 715h177c0 -21 -1 -91 -1 -128v-513c-36 -36 -128 -94 -262 -94c-187 0 -295 111 -295 262c0 158 106 248 238 248c62 0 121 -25 145 -52l4 2c-3 7 -5 27 -5 46v101c0 37 -1 107 -1 128zM426 165v125c-18 30 -50 54 -98 54c-62 0 -104 -49 -104 -110
c0 -62 45 -108 109 -108c42 0 75 20 93 39z" />
    <glyph glyph-name="e" unicode="e" horiz-adv-x="610" 
d="M558 206h-342c3 -64 33 -102 90 -102s81 39 90 63l144 -81c-28 -50 -97 -106 -224 -106c-178 0 -268 118 -268 250c0 157 109 260 254 260c163 0 258 -114 258 -254c0 -16 -1 -25 -2 -30zM306 378c-39 0 -77 -24 -83 -74h169c1 31 -26 74 -86 74z" />
    <glyph glyph-name="f" unicode="f" horiz-adv-x="370" 
d="M345 710v-138c-9 2 -20 4 -30 4c-50 0 -75 -30 -75 -86v-20c36 0 85 1 102 1v-126c-17 0 -66 1 -102 1v-446c0 -35 1 -101 1 -120h-177c0 19 1 85 1 120v550c0 80 11 138 38 181c38 60 103 89 170 89c31 0 58 -4 72 -10z" />
    <glyph glyph-name="g" unicode="g" horiz-adv-x="666" 
d="M601 396v-416c0 -147 -118 -220 -273 -220c-123 0 -203 31 -253 69l91 116c33 -30 63 -53 139 -53c94 0 121 66 121 92c0 19 2 39 5 46l-4 2c-24 -27 -82 -52 -144 -52c-132 0 -239 90 -239 248c0 151 109 262 296 262c134 0 225 -58 261 -94zM426 180v125
c-18 19 -51 39 -93 39c-64 0 -109 -46 -109 -108c0 -61 42 -110 104 -110c48 0 80 24 98 54z" />
    <glyph glyph-name="h" unicode="h" horiz-adv-x="631" 
d="M241 770c0 -19 -1 -85 -1 -120v-142c0 -35 -11 -81 -13 -87l4 -2c22 35 81 71 155 71c99 0 181 -53 181 -186v-184c0 -35 1 -101 1 -120h-177c0 19 1 85 1 120v140c0 60 -29 88 -74 88c-39 0 -78 -21 -78 -91v-137c0 -35 1 -101 1 -120h-177c0 19 1 85 1 120v530
c0 35 -1 101 -1 120h177z" />
    <glyph glyph-name="i" unicode="i" horiz-adv-x="315" 
d="M246 470c0 -19 -1 -85 -1 -120v-230c0 -35 1 -101 1 -120h-177c0 19 1 85 1 120v230c0 35 -1 101 -1 120h177zM157 738c52 0 95 -43 95 -95s-43 -95 -95 -95s-95 43 -95 95s43 95 95 95z" />
    <glyph glyph-name="j" unicode="j" horiz-adv-x="315" 
d="M246 470c0 -19 -1 -85 -1 -120v-450c0 -35 1 -101 1 -120h-177c0 19 1 85 1 120v450c0 35 -1 101 -1 120h177zM157 738c52 0 95 -43 95 -95s-43 -95 -95 -95s-95 43 -95 95s43 95 95 95z" />
    <glyph glyph-name="k" unicode="k" horiz-adv-x="669" 
d="M63 770h177c0 -19 -1 -85 -1 -120v-354l116 116c20 20 37 39 55 58h228c-40 -38 -88 -85 -114 -109l-118 -113l128 -128c37 -37 85 -82 122 -120h-240c-18 21 -40 45 -59 66l-118 124v-70c0 -35 1 -101 1 -120h-177c0 19 1 85 1 120v530c0 35 -1 101 -1 120z" />
    <glyph glyph-name="l" unicode="l" horiz-adv-x="315" 
d="M69 770h177c0 -19 -1 -85 -1 -120v-530c0 -35 1 -101 1 -120h-177c0 19 1 85 1 120v530c0 35 -1 101 -1 120z" />
    <glyph glyph-name="m" unicode="m" horiz-adv-x="931" 
d="M233 413l4 -2c14 35 70 79 151 79c70 0 110 -33 130 -69c10 -19 12 -31 13 -36h4c5 16 13 32 24 45c32 38 84 60 138 60c98 0 169 -53 169 -186v-184c0 -35 1 -101 1 -120h-177c0 19 1 85 1 120v140c0 59 -21 90 -63 90c-34 0 -75 -18 -75 -84v-146c0 -35 1 -101 1 -120
h-177c0 19 1 85 1 120v140c0 60 -23 90 -66 90c-39 0 -72 -25 -72 -84v-146c0 -35 1 -101 1 -120h-177c0 19 1 85 1 120v230c0 35 -1 101 -1 120h174c-1 -23 -3 -51 -5 -57z" />
    <glyph glyph-name="n" unicode="n" horiz-adv-x="628" 
d="M233 413l4 -2c14 35 62 79 144 79c96 0 182 -53 182 -186v-184c0 -35 1 -101 1 -120h-177c0 19 1 85 1 120v140c0 59 -28 90 -71 90c-38 0 -77 -23 -77 -84v-146c0 -35 1 -101 1 -120h-177c0 19 1 85 1 120v230c0 35 -1 101 -1 120h174c-1 -23 -3 -51 -5 -57z" />
    <glyph glyph-name="o" unicode="o" horiz-adv-x="652" 
d="M326 490c168 0 286 -114 286 -255s-118 -255 -286 -255s-286 114 -286 255s118 255 286 255zM326 350c-64 0 -111 -52 -111 -115s47 -115 111 -115s111 52 111 115s-47 115 -111 115z" />
    <glyph glyph-name="p" unicode="p" horiz-adv-x="666" 
d="M241 -220h-177c0 21 1 91 1 128v488c36 36 128 94 262 94c187 0 295 -111 295 -262c0 -158 -106 -248 -238 -248c-62 0 -121 25 -145 52l-4 -2c3 -7 5 -27 5 -46v-76c0 -37 1 -107 1 -128zM240 305v-125c18 -30 50 -54 98 -54c62 0 104 49 104 110c0 62 -45 108 -109 108
c-42 0 -75 -20 -93 -39z" />
    <glyph glyph-name="q" unicode="q" horiz-adv-x="666" 
d="M602 -220h-177c0 21 1 91 1 128v76c0 19 2 39 5 46l-4 2c-24 -27 -83 -52 -145 -52c-132 0 -238 90 -238 248c0 151 108 262 295 262c134 0 226 -58 262 -94v-488c0 -37 1 -107 1 -128zM426 180v125c-18 19 -51 39 -93 39c-64 0 -109 -46 -109 -108
c0 -61 42 -110 104 -110c48 0 80 24 98 54z" />
    <glyph glyph-name="r" unicode="r" horiz-adv-x="440" 
d="M418 468v-157c-16 7 -38 13 -62 13c-73 0 -116 -45 -116 -108v-96c0 -35 1 -101 1 -120h-177c0 19 1 85 1 120v230c0 35 -1 101 -1 120h174c0 -20 0 -55 -3 -68l5 -2c19 44 74 74 135 74c20 0 35 -2 43 -6z" />
    <glyph glyph-name="s" unicode="s" horiz-adv-x="468" 
d="M440 428l-93 -103c-15 25 -51 61 -95 61c-33 0 -44 -17 -44 -30c0 -35 50 -45 103 -70c66 -31 139 -73 139 -156c0 -90 -67 -158 -208 -158c-119 0 -189 35 -236 81l119 107c18 -27 60 -74 115 -74c31 0 46 15 46 34c0 29 -41 43 -90 66c-69 33 -150 71 -150 162
c0 81 67 150 198 150c81 0 157 -30 196 -70z" />
    <glyph glyph-name="t" unicode="t" horiz-adv-x="359" 
d="M240 600c0 -19 -1 -85 -1 -120v-10c35 0 77 1 92 1v-150c-15 0 -57 0 -92 1v-202c0 -35 1 -101 1 -120h-177c0 19 1 85 1 120v360c0 35 -1 101 -1 120h177z" />
    <glyph glyph-name="u" unicode="u" horiz-adv-x="636" 
d="M572 470c0 -19 -1 -85 -1 -120v-310c-30 -20 -125 -60 -248 -60c-133 0 -258 39 -258 200v170c0 35 -1 101 -1 120h177c0 -19 -1 -85 -1 -120v-145c0 -47 26 -85 89 -85c32 0 56 10 67 16v214c0 35 -1 101 -1 120h177z" />
    <glyph glyph-name="v" unicode="v" horiz-adv-x="626" 
d="M262 0l-184 344c-17 32 -59 109 -68 126h196c14 -31 28 -62 42 -91l31 -63c18 -36 36 -87 37 -98h4c1 11 20 60 37 98l28 63c13 29 27 60 40 91h191c-9 -19 -48 -94 -64 -126l-176 -344h-114z" />
    <glyph glyph-name="w" unicode="w" horiz-adv-x="900" 
d="M457 258h-4c0 -12 -14 -59 -31 -100l-65 -158h-120l-165 344c-23 48 -41 83 -62 126h190c11 -30 23 -61 37 -91l30 -67c17 -38 37 -89 38 -100h4c1 11 20 68 34 100l68 158h84l72 -150c14 -30 37 -89 38 -100h4c1 11 18 60 34 100l24 59c12 30 23 61 35 91h189
c-21 -42 -39 -78 -61 -126l-160 -344h-110l-70 158c-18 42 -32 88 -33 100z" />
    <glyph glyph-name="x" unicode="x" horiz-adv-x="702" 
d="M428 470h229c-12 -15 -84 -91 -108 -118l-91 -100l115 -123c39 -41 83 -86 123 -129h-233c-12 15 -37 44 -60 70c-34 39 -54 71 -55 82h-4c-1 -12 -20 -44 -52 -82c-23 -27 -37 -46 -56 -70h-230c40 44 85 89 121 128l112 124l-90 97c-24 25 -101 106 -115 121h236
l38 -50c20 -27 32 -43 36 -61h4c1 13 15 34 38 61z" />
    <glyph glyph-name="y" unicode="y" horiz-adv-x="644" 
d="M634 470c-21 -43 -46 -87 -68 -130l-246 -473c-15 -30 -31 -61 -43 -87h-193c10 17 51 96 67 127l86 170l-152 265c-17 30 -66 111 -75 128h199c8 -17 25 -52 41 -82l42 -80c19 -36 34 -78 35 -90h4c1 10 18 55 36 90l37 73c16 31 33 72 42 89h188z" />
    <glyph glyph-name="z" unicode="z" horiz-adv-x="524" 
d="M341 134h35c35 0 101 1 120 1v-136c-19 0 -85 1 -120 1h-356l178 289c20 33 35 47 42 53l-3 4c-7 -5 -34 -10 -65 -10h-10c-35 0 -101 -1 -120 -1v136c19 0 85 -1 120 -1h328l-175 -288c-21 -34 -43 -48 -49 -53l3 -4c7 6 44 9 72 9z" />
    <glyph glyph-name="braceleft" unicode="{" horiz-adv-x="328" 
d="M186 354c64 -11 73 -88 73 -148v-124c0 -35 13 -52 47 -52h9v-134h-92c-70 0 -114 53 -114 140v141c0 53 -4 101 -75 107v144c71 6 75 54 75 107v129c0 87 44 140 114 140h92v-134h-9c-34 0 -47 -17 -47 -52v-112c0 -60 -9 -137 -73 -148v-4z" />
    <glyph glyph-name="bar" unicode="|" horiz-adv-x="294" 
d="M79 815h136c0 -19 -1 -85 -1 -120v-675c0 -35 1 -101 1 -120h-136c0 19 1 85 1 120v675c0 35 -1 101 -1 120z" />
    <glyph glyph-name="braceright" unicode="}" horiz-adv-x="328" 
d="M141 354v4c-64 11 -73 88 -73 148v112c0 35 -13 52 -47 52h-9v134h92c70 0 114 -53 114 -140v-129c0 -53 4 -101 75 -107v-144c-71 -6 -75 -54 -75 -107v-141c0 -87 -44 -140 -114 -140h-92v134h9c34 0 47 17 47 52v124c0 60 9 137 73 148z" />
    <glyph glyph-name="asciitilde" unicode="~" horiz-adv-x="726" 
d="M156 248l-136 24c21 115 131 195 246 180l212 -28c44 -6 85 25 92 71l136 -24c-21 -115 -131 -196 -246 -180l-211 29c-43 6 -86 -27 -93 -72z" />
    <glyph glyph-name="uni00A0" unicode="&#xa0;" horiz-adv-x="400" 
 />
    <glyph glyph-name="exclamdown" unicode="&#xa1;" horiz-adv-x="314" 
d="M250 -220h-186c0 19 1 85 1 120v220c0 35 -1 101 -1 120h186c0 -19 -1 -85 -1 -120v-220c0 -35 1 -101 1 -120zM159 280c-62 0 -112 49 -112 110s50 110 112 110s112 -49 112 -110s-50 -110 -112 -110z" />
    <glyph glyph-name="cent" unicode="&#xa2;" horiz-adv-x="610" 
d="M233 -102c0 15 0 59 1 94c-109 33 -184 131 -184 246c0 112 75 207 184 239c-1 36 -1 80 -1 95h177c0 -16 -1 -60 -1 -95c63 -19 111 -54 132 -84l-125 -98c-18 28 -46 51 -88 51c-62 0 -103 -48 -103 -108c0 -59 47 -108 105 -108c45 0 75 26 94 56l138 -87
c-26 -38 -74 -85 -153 -107c0 -35 1 -79 1 -94h-177z" />
    <glyph glyph-name="sterling" unicode="&#xa3;" horiz-adv-x="669" 
d="M611 526l-178 -36c-7 41 -38 76 -102 76c-36 0 -85 -22 -85 -75c0 -21 8 -45 18 -70h64c35 0 101 1 120 1v-146c-19 0 -85 1 -120 1h-22c-2 -52 -25 -91 -64 -110l1 -3c9 4 31 10 53 10c57 0 119 -36 170 -36c63 0 104 31 132 55l50 -148c-37 -26 -99 -65 -192 -65
c-80 0 -129 46 -201 46c-68 0 -109 -13 -177 -46l-57 157c75 23 105 81 105 127c0 4 0 8 -1 13c-36 0 -90 -1 -107 -1v146c10 0 34 -1 59 -1c-11 28 -19 57 -19 90c0 150 139 209 277 209c191 0 254 -84 276 -194z" />
    <glyph glyph-name="currency" unicode="&#xa4;" horiz-adv-x="760" 
d="M380 586c40 0 77 -9 109 -25l83 85l108 -108l-85 -83c16 -33 25 -70 25 -109c0 -40 -9 -77 -25 -110l85 -82l-108 -108c-13 14 -57 59 -83 84c-32 -15 -69 -24 -109 -24c-41 0 -78 9 -110 24l-82 -84l-108 108l84 82c-16 33 -24 70 -24 110c0 39 8 76 24 109
c-25 26 -70 70 -84 83l108 108l82 -85c32 16 69 25 110 25zM380 452c-55 0 -100 -47 -100 -106s45 -106 100 -106s100 47 100 106s-45 106 -100 106z" />
    <glyph glyph-name="yen" unicode="&#xa5;" horiz-adv-x="720" 
d="M623 447v-126c-19 0 -85 1 -120 1h-45v-72h45c35 0 101 1 120 1v-126c-19 0 -85 1 -120 1h-45v-6c0 -35 1 -101 1 -120h-188c0 19 1 85 1 120v6h-45c-35 0 -101 -1 -120 -1v126c19 0 85 -1 120 -1h45v72h-45c-35 0 -101 -1 -120 -1v126c14 0 53 -1 87 -1l-93 129
c-21 29 -80 109 -91 125h227c16 -26 32 -51 50 -77l41 -60c18 -25 33 -58 35 -69h4c0 5 14 39 34 69l40 61c17 25 33 51 51 76h218c-27 -40 -58 -84 -86 -123l-93 -131c35 0 77 1 92 1z" />
    <glyph glyph-name="brokenbar" unicode="&#xa6;" horiz-adv-x="294" 
d="M79 305h136c0 -19 -1 -85 -1 -120v-165c0 -35 1 -101 1 -120h-136c0 19 1 85 1 120v165c0 35 -1 101 -1 120zM79 815h136c0 -19 -1 -85 -1 -120v-165c0 -35 1 -101 1 -120h-136c0 19 1 85 1 120v165c0 35 -1 101 -1 120z" />
    <glyph glyph-name="section" unicode="&#xa7;" horiz-adv-x="632" 
d="M582 290c0 -83 -37 -134 -94 -162c39 -31 68 -73 68 -128c0 -109 -95 -192 -245 -192c-163 0 -247 84 -247 206h180c0 -37 26 -70 76 -70c38 0 66 24 66 58c0 59 -52 61 -135 77c-124 24 -201 75 -201 199c0 82 36 134 93 161c-39 31 -67 73 -67 129
c0 109 95 192 245 192c163 0 247 -84 247 -206h-180c0 37 -26 70 -76 70c-38 0 -66 -24 -66 -58c0 -59 52 -61 135 -77c124 -24 201 -75 201 -199zM406 284c0 50 -35 63 -86 78c-58 -5 -94 -27 -94 -78c0 -50 34 -64 86 -78c57 5 94 27 94 78z" />
    <glyph glyph-name="dieresis" unicode="&#xa8;" horiz-adv-x="540" 
d="M145 715c52 0 95 -43 95 -95s-43 -95 -95 -95s-95 43 -95 95s43 95 95 95zM395 715c52 0 95 -43 95 -95s-43 -95 -95 -95s-95 43 -95 95s43 95 95 95z" />
    <glyph glyph-name="copyright" unicode="&#xa9;" horiz-adv-x="820" 
d="M410 720c204 0 370 -166 370 -370s-166 -370 -370 -370s-370 166 -370 370s166 370 370 370zM410 620c-146 0 -264 -121 -264 -270s118 -270 264 -270s264 121 264 270s-118 270 -264 270zM412 540c64 0 112 -30 145 -67l-79 -67c-16 22 -42 34 -66 34
c-46 0 -84 -40 -84 -90s38 -90 84 -90c31 0 55 17 71 41l78 -69c-35 -43 -87 -72 -149 -72c-105 0 -190 85 -190 190s85 190 190 190z" />
    <glyph glyph-name="ordfeminine" unicode="&#xaa;" horiz-adv-x="342" 
d="M220 590l1 1c-1 5 -3 14 -3 19c-2 25 -28 38 -58 38c-37 0 -64 -11 -78 -18l-31 58c24 11 58 25 121 25c58 0 113 -16 136 -57c8 -13 9 -32 9 -53v-141c-20 -13 -70 -39 -146 -39c-110 0 -146 49 -146 101s41 91 120 91c36 0 65 -12 75 -26v1zM174 489c23 0 38 10 44 15
v30c-6 10 -24 24 -49 24c-26 0 -42 -14 -42 -32c0 -21 17 -37 47 -37z" />
    <glyph glyph-name="guillemotleft" unicode="&#xab;" horiz-adv-x="560" 
d="M356 122l-91 128l91 128c25 35 48 71 72 103l92 -67l-67 -95l-48 -69l48 -69l67 -95l-92 -67c-24 32 -47 68 -72 103zM129 122l-91 128l91 128c25 35 48 71 72 103l92 -67l-67 -95l-48 -69l48 -69l67 -95l-92 -67c-24 32 -47 68 -72 103z" />
    <glyph glyph-name="logicalnot" unicode="&#xac;" horiz-adv-x="716" 
d="M200 436h436v-142c0 -35 1 -101 1 -120h-158c0 15 0 77 1 112h-280c-35 0 -101 -1 -120 -1v152c19 0 85 -1 120 -1z" />
    <glyph glyph-name="uni00AD" unicode="&#xad;" horiz-adv-x="425" 
d="M40 323c9 0 43 -1 60 -1h225c17 0 51 1 60 1v-162c-9 0 -43 1 -60 1h-225c-17 0 -51 -1 -60 -1v162z" />
    <glyph glyph-name="registered" unicode="&#xae;" horiz-adv-x="820" 
d="M271 530h175c68 0 114 -53 114 -118c0 -50 -16 -84 -56 -102c-6 -3 -16 -6 -18 -5l-1 -2c4 -2 12 -8 15 -14l33 -61c7 -12 22 -38 34 -58h-112c-6 12 -17 31 -26 48l-40 77h-12v-60c0 -19 1 -55 1 -65h-108c0 10 1 46 1 65v295zM377 448v-71h43c19 0 34 16 34 35
c0 20 -15 36 -34 36h-43zM410 720c204 0 370 -166 370 -370s-166 -370 -370 -370s-370 166 -370 370s166 370 370 370zM410 620c-146 0 -264 -121 -264 -270s118 -270 264 -270s264 121 264 270s-118 270 -264 270z" />
    <glyph glyph-name="macron" unicode="&#xaf;" horiz-adv-x="470" 
d="M100 651c9 0 43 -1 60 -1h150c17 0 51 1 60 1v-122c-9 0 -43 1 -60 1h-150c-17 0 -51 -1 -60 -1v122z" />
    <glyph glyph-name="degree" unicode="&#xb0;" horiz-adv-x="358" 
d="M179 712c93 0 169 -74 169 -165s-76 -165 -169 -165s-169 74 -169 165s76 165 169 165zM179 620c-41 0 -75 -33 -75 -73s34 -73 75 -73s75 33 75 73s-34 73 -75 73z" />
    <glyph glyph-name="plusminus" unicode="&#xb1;" horiz-adv-x="716" 
d="M434 739c0 -19 -1 -85 -1 -120v-83h83c35 0 101 1 120 1v-152c-19 0 -85 1 -120 1h-83v-83c0 -35 1 -101 1 -120h-152c0 19 1 85 1 120v83h-83c-35 0 -101 -1 -120 -1v152c19 0 85 -1 120 -1h83v83c0 35 -1 101 -1 120h152zM636 107v-152c-19 0 -85 1 -120 1h-316
c-35 0 -101 -1 -120 -1v152c19 0 85 -1 120 -1h316c35 0 101 1 120 1z" />
    <glyph glyph-name="twosuperior" unicode="&#x2072;" horiz-adv-x="389" 
d="M31 420c70 69 111 110 151 156c19 23 42 50 42 78c0 23 -11 41 -36 41c-29 0 -42 -23 -42 -55h-104c0 79 53 140 146 140c87 0 144 -56 144 -125c0 -39 -11 -66 -45 -97l-43 -40c-5 -5 -11 -9 -16 -14c6 1 16 2 25 2h84v-86h-306z" />
    <glyph glyph-name="twosuperior" unicode="&#xb2;" horiz-adv-x="389" 
d="M31 420c70 69 111 110 151 156c19 23 42 50 42 78c0 23 -11 41 -36 41c-29 0 -42 -23 -42 -55h-104c0 79 53 140 146 140c87 0 144 -56 144 -125c0 -39 -11 -66 -45 -97l-43 -40c-5 -5 -11 -9 -16 -14c6 1 16 2 25 2h84v-86h-306z" />
    <glyph glyph-name="threesuperior" unicode="&#x2073;" horiz-adv-x="384" 
d="M192 780c75 0 124 -45 124 -103c0 -33 -16 -54 -34 -64c33 -11 57 -43 57 -86c0 -73 -62 -117 -144 -117c-89 0 -149 60 -152 132h101c5 -26 19 -46 49 -46c31 0 44 18 44 40c0 20 -14 38 -50 38h-13v66h7c28 0 39 12 39 31c0 16 -12 29 -31 29c-22 0 -36 -19 -36 -40
h-94c0 64 53 120 133 120z" />
    <glyph glyph-name="threesuperior" unicode="&#xb3;" horiz-adv-x="384" 
d="M192 780c75 0 124 -45 124 -103c0 -33 -16 -54 -34 -64c33 -11 57 -43 57 -86c0 -73 -62 -117 -144 -117c-89 0 -149 60 -152 132h101c5 -26 19 -46 49 -46c31 0 44 18 44 40c0 20 -14 38 -50 38h-13v66h7c28 0 39 12 39 31c0 16 -12 29 -31 29c-22 0 -36 -19 -36 -40
h-94c0 64 53 120 133 120z" />
    <glyph glyph-name="acute" unicode="&#xb4;" horiz-adv-x="320" 
d="M182 776l114 -76l-162 -150l-88 58z" />
    <glyph glyph-name="mu" unicode="&#xb5;" horiz-adv-x="636" 
d="M572 470c0 -19 -1 -85 -1 -120v-310c-30 -20 -124 -60 -247 -60c-39 0 -64 8 -85 20l-4 -2c3 -7 5 -27 5 -46v-44c0 -37 1 -107 1 -128h-177c0 21 1 91 1 128v442c0 35 -1 101 -1 120h177c0 -19 -1 -85 -1 -120v-145c0 -47 25 -85 90 -85c32 0 55 10 66 16v214
c0 35 -1 101 -1 120h177z" />
    <glyph glyph-name="paragraph" unicode="&#xb6;" horiz-adv-x="675" 
d="M5 525c0 97 83 175 185 175h337c32 0 67 1 80 1v-140c-11 0 -36 0 -62 1v-662c0 -35 1 -101 1 -120h-132c0 19 1 85 1 120v662h-95v-662c0 -35 1 -101 1 -120h-132c0 19 1 85 1 120v450c-102 0 -185 78 -185 175z" />
    <glyph glyph-name="periodcentered" unicode="&#xb7;" horiz-adv-x="536" 
d="M268 470c62 0 112 -49 112 -110s-50 -110 -112 -110s-112 49 -112 110s50 110 112 110z" />
    <glyph glyph-name="cedilla" unicode="&#xb8;" horiz-adv-x="300" 
d="M52 -160l107 128l81 -66l-122 -114z" />
    <glyph glyph-name="onesuperior" unicode="&#x2071;" horiz-adv-x="384" 
d="M252 770v-230c0 -35 1 -101 1 -120h-106c0 19 1 85 1 120v148h-49v82h153z" />
    <glyph glyph-name="onesuperior" unicode="&#xb9;" horiz-adv-x="384" 
d="M252 770v-230c0 -35 1 -101 1 -120h-106c0 19 1 85 1 120v148h-49v82h153z" />
    <glyph glyph-name="ordmasculine" unicode="&#xba;" horiz-adv-x="386" 
d="M195 712c101 0 171 -66 171 -145s-70 -145 -171 -145c-100 0 -171 66 -171 145s71 145 171 145zM195 628c-38 0 -66 -27 -66 -61c0 -33 28 -61 66 -61c39 0 67 28 67 61c0 34 -28 61 -67 61z" />
    <glyph glyph-name="guillemotright" unicode="&#xbb;" horiz-adv-x="560" 
d="M295 250l-91 -128c-25 -35 -48 -71 -72 -103l-92 67l67 95l48 69l-48 69l-67 95l92 67c24 -32 47 -68 72 -103zM522 250l-91 -128c-25 -35 -48 -71 -72 -103l-92 67l67 95l48 69l-48 69l-67 95l92 67c24 -32 47 -68 72 -103z" />
    <glyph glyph-name="onequarter" unicode="&#xbc;" horiz-adv-x="491" 
d="M168 379h156c35 0 101 1 120 1v-92c-19 0 -85 1 -120 1h-156c-35 0 -101 -1 -120 -1v92c19 0 85 -1 120 -1zM295 770v-230c0 -35 1 -101 1 -120h-106c0 19 1 85 1 120v148h-49v82h153zM352 240v-199h48v-82h-48c0 -11 1 -48 1 -69h-102c0 23 1 58 1 69h-176v69l145 212
h131zM253 148c-6 -11 -15 -25 -19 -31l-37 -54c-7 -10 -14 -18 -20 -24c10 1 23 2 32 2h43v71c0 10 0 25 1 36z" />
    <glyph glyph-name="onehalf" unicode="&#xbd;" horiz-adv-x="491" 
d="M168 379h156c35 0 101 1 120 1v-92c-19 0 -85 1 -120 1h-156c-35 0 -101 -1 -120 -1v92c19 0 85 -1 120 -1zM81 -110c70 69 111 110 151 156c19 23 42 50 42 78c0 23 -11 41 -36 41c-29 0 -42 -23 -42 -55h-104c0 79 53 140 146 140c87 0 144 -56 144 -125
c0 -39 -11 -66 -45 -97l-43 -40c-5 -5 -11 -9 -16 -14c6 1 16 2 25 2h84v-86h-306zM295 770v-230c0 -35 1 -101 1 -120h-106c0 19 1 85 1 120v148h-49v82h153z" />
    <glyph glyph-name="threequarters" unicode="&#xbe;" horiz-adv-x="491" 
d="M168 379h156c35 0 101 1 120 1v-92c-19 0 -85 1 -120 1h-156c-35 0 -101 -1 -120 -1v92c19 0 85 -1 120 -1zM248 780c75 0 124 -45 124 -103c0 -33 -16 -54 -34 -64c33 -11 57 -43 57 -86c0 -73 -62 -117 -144 -117c-89 0 -149 60 -152 132h101c5 -26 19 -46 49 -46
c31 0 44 18 44 40c0 20 -14 38 -50 38h-13v66h7c28 0 39 12 39 31c0 16 -12 29 -31 29c-22 0 -36 -19 -36 -40h-94c0 64 53 120 133 120zM352 240v-199h48v-82h-48c0 -11 1 -48 1 -69h-102c0 23 1 58 1 69h-176v69l145 212h131zM253 148c-6 -11 -15 -25 -19 -31l-37 -54
c-7 -10 -14 -18 -20 -24c10 1 23 2 32 2h43v71c0 10 0 25 1 36z" />
    <glyph glyph-name="questiondown" unicode="&#xbf;" horiz-adv-x="558" 
d="M376 66h-45c-54 0 -105 -36 -105 -84c0 -36 27 -66 62 -66c40 0 62 30 62 70h186c0 -145 -113 -226 -248 -226c-143 0 -248 98 -248 218c0 115 88 183 160 194h1c0 30 -1 62 -1 74h177c0 -19 -1 -85 -1 -120v-60zM281 500c62 0 112 -49 112 -110s-50 -110 -112 -110
s-112 49 -112 110s50 110 112 110z" />
    <glyph glyph-name="Agrave" unicode="&#xc0;" 
d="M377 724h20l300 -615c15 -31 44 -88 55 -109h-199c-9 21 -24 52 -32 70l-6 14h-255l-6 -14c-7 -16 -22 -48 -31 -70h-205c8 17 40 78 55 109zM355 226h63c19 0 32 -3 35 -5l2 4c-2 1 -7 5 -16 25l-24 51c-20 43 -27 71 -27 76h-4c0 -5 -7 -33 -26 -76l-23 -51
c-7 -16 -15 -24 -17 -25l2 -4c2 2 17 5 35 5zM122 882l114 76l136 -168l-88 -58z" />
    <glyph glyph-name="Aacute" unicode="&#xc1;" 
d="M377 724h20l300 -615c15 -31 44 -88 55 -109h-199c-9 21 -24 52 -32 70l-6 14h-255l-6 -14c-7 -16 -22 -48 -31 -70h-205c8 17 40 78 55 109zM355 226h63c19 0 32 -3 35 -5l2 4c-2 1 -7 5 -16 25l-24 51c-20 43 -27 71 -27 76h-4c0 -5 -7 -33 -26 -76l-23 -51
c-7 -16 -15 -24 -17 -25l2 -4c2 2 17 5 35 5zM534 958l114 -76l-162 -150l-88 58z" />
    <glyph glyph-name="Acircumflex" unicode="&#xc2;" 
d="M377 724h20l300 -615c15 -31 44 -88 55 -109h-199c-9 21 -24 52 -32 70l-6 14h-255l-6 -14c-7 -16 -22 -48 -31 -70h-205c8 17 40 78 55 109zM355 226h63c19 0 32 -3 35 -5l2 4c-2 1 -7 5 -16 25l-24 51c-20 43 -27 71 -27 76h-4c0 -5 -7 -33 -26 -76l-23 -51
c-7 -16 -15 -24 -17 -25l2 -4c2 2 17 5 35 5zM578 820l-65 -82l-127 68l-127 -68l-65 82l192 125z" />
    <glyph glyph-name="Atilde" unicode="&#xc3;" 
d="M377 724h20l300 -615c15 -31 44 -88 55 -109h-199c-9 21 -24 52 -32 70l-6 14h-255l-6 -14c-7 -16 -22 -48 -31 -70h-205c8 17 40 78 55 109zM355 226h63c19 0 32 -3 35 -5l2 4c-2 1 -7 5 -16 25l-24 51c-20 43 -27 71 -27 76h-4c0 -5 -7 -33 -26 -76l-23 -51
c-7 -16 -15 -24 -17 -25l2 -4c2 2 17 5 35 5zM491 955l118 -20c-15 -86 -107 -154 -196 -139l-76 13c-27 5 -53 -17 -58 -45l-118 20c15 86 107 155 196 139l75 -13c28 -5 54 17 59 45z" />
    <glyph glyph-name="Adieresis" unicode="&#xc4;" 
d="M377 724h20l300 -615c15 -31 44 -88 55 -109h-199c-9 21 -24 52 -32 70l-6 14h-255l-6 -14c-7 -16 -22 -48 -31 -70h-205c8 17 40 78 55 109zM355 226h63c19 0 32 -3 35 -5l2 4c-2 1 -7 5 -16 25l-24 51c-20 43 -27 71 -27 76h-4c0 -5 -7 -33 -26 -76l-23 -51
c-7 -16 -15 -24 -17 -25l2 -4c2 2 17 5 35 5zM262 960c52 0 95 -43 95 -95s-43 -95 -95 -95s-95 43 -95 95s43 95 95 95zM512 960c52 0 95 -43 95 -95s-43 -95 -95 -95s-95 43 -95 95s43 95 95 95z" />
    <glyph glyph-name="Aring" unicode="&#xc5;" 
d="M377 724h20l300 -615c15 -31 44 -88 55 -109h-199c-9 21 -24 52 -32 70l-6 14h-255l-6 -14c-7 -16 -22 -48 -31 -70h-205c8 17 40 78 55 109zM355 226h63c19 0 32 -3 35 -5l2 4c-2 1 -7 5 -16 25l-24 51c-20 43 -27 71 -27 76h-4c0 -5 -7 -33 -26 -76l-23 -51
c-7 -16 -15 -24 -17 -25l2 -4c2 2 17 5 35 5zM385 975c81 0 130 -52 130 -115s-48 -115 -130 -115s-130 52 -130 115s48 115 130 115zM385 891c-26 0 -40 -14 -40 -31s14 -31 40 -31c27 0 40 14 40 31s-14 31 -40 31z" />
    <glyph glyph-name="AE" unicode="&#xc6;" horiz-adv-x="909" 
d="M470 0v84h-194l-5 -8c-27 -42 -48 -76 -48 -76h-213s60 86 87 127l372 573h256c35 0 101 1 120 1v-166c-19 0 -85 1 -120 1h-78v-104h40c35 0 101 1 120 1v-166c-19 0 -85 1 -120 1h-40v-104h94c35 0 101 1 120 1v-166c-19 0 -85 1 -120 1h-271zM362 220c2 2 17 6 35 6
h73v91c0 35 0 62 8 80l-5 2c-6 -18 -7 -22 -32 -61l-57 -88c-8 -12 -21 -24 -24 -26z" />
    <glyph glyph-name="Ccedilla" unicode="&#xc7;" horiz-adv-x="764" 
d="M610 226l124 -129c-71 -74 -182 -117 -300 -117c-239 0 -384 168 -384 374s150 366 382 366c130 0 218 -45 284 -113l-120 -124c-49 49 -101 73 -164 73c-105 0 -190 -74 -190 -202c0 -126 90 -206 192 -206c82 0 128 33 176 78zM431 -32l-107 -128l66 -52l122 114z" />
    <glyph glyph-name="Egrave" unicode="&#xc8;" horiz-adv-x="518" 
d="M75 0v700h259c35 0 101 1 120 1v-166c-19 0 -85 1 -120 1h-82v-104h44c35 0 101 1 120 1v-166c-19 0 -85 1 -120 1h-44v-104h98c35 0 101 1 120 1v-166c-19 0 -85 1 -120 1h-275zM78 882l114 76l136 -168l-88 -58z" />
    <glyph glyph-name="Eacute" unicode="&#xc9;" horiz-adv-x="518" 
d="M75 0v700h259c35 0 101 1 120 1v-166c-19 0 -85 1 -120 1h-82v-104h44c35 0 101 1 120 1v-166c-19 0 -85 1 -120 1h-44v-104h98c35 0 101 1 120 1v-166c-19 0 -85 1 -120 1h-275zM276 958l114 -76l-162 -150l-88 58z" />
    <glyph glyph-name="Ecircumflex" unicode="&#xca;" horiz-adv-x="518" 
d="M75 0v700h259c35 0 101 1 120 1v-166c-19 0 -85 1 -120 1h-82v-104h44c35 0 101 1 120 1v-166c-19 0 -85 1 -120 1h-44v-104h98c35 0 101 1 120 1v-166c-19 0 -85 1 -120 1h-275zM451 820l-65 -82l-127 68l-127 -68l-65 82l192 125z" />
    <glyph glyph-name="Edieresis" unicode="&#xcb;" horiz-adv-x="518" 
d="M75 0v700h259c35 0 101 1 120 1v-166c-19 0 -85 1 -120 1h-82v-104h44c35 0 101 1 120 1v-166c-19 0 -85 1 -120 1h-44v-104h98c35 0 101 1 120 1v-166c-19 0 -85 1 -120 1h-275zM134 960c52 0 95 -43 95 -95s-43 -95 -95 -95s-95 43 -95 95s43 95 95 95zM384 960
c52 0 95 -43 95 -95s-43 -95 -95 -95s-95 43 -95 95s43 95 95 95z" />
    <glyph glyph-name="Igrave" unicode="&#xcc;" horiz-adv-x="352" 
d="M79 700h194c0 -19 -1 -85 -1 -120v-460c0 -35 1 -101 1 -120h-194c0 19 1 85 1 120v460c0 35 -1 101 -1 120zM-19 935l114 76l136 -168l-88 -58z" />
    <glyph glyph-name="Iacute" unicode="&#xcd;" horiz-adv-x="352" 
d="M79 700h194c0 -19 -1 -85 -1 -120v-460c0 -35 1 -101 1 -120h-194c0 19 1 85 1 120v460c0 35 -1 101 -1 120zM240 1011l114 -76l-162 -150l-88 58z" />
    <glyph glyph-name="Icircumflex" unicode="&#xce;" horiz-adv-x="352" 
d="M79 700h194c0 -19 -1 -85 -1 -120v-460c0 -35 1 -101 1 -120h-194c0 19 1 85 1 120v460c0 35 -1 101 -1 120zM368 820l-65 -82l-127 68l-127 -68l-65 82l192 125z" />
    <glyph glyph-name="Idieresis" unicode="&#xcf;" horiz-adv-x="352" 
d="M79 700h194c0 -19 -1 -85 -1 -120v-460c0 -35 1 -101 1 -120h-194c0 19 1 85 1 120v460c0 35 -1 101 -1 120zM51 960c52 0 95 -43 95 -95s-43 -95 -95 -95s-95 43 -95 95s43 95 95 95zM301 960c52 0 95 -43 95 -95s-43 -95 -95 -95s-95 43 -95 95s43 95 95 95z" />
    <glyph glyph-name="Eth" unicode="&#xd0;" horiz-adv-x="765" 
d="M20 429c9 0 43 -1 60 -1h15v272h279c203 0 341 -155 341 -350c0 -191 -135 -350 -363 -350h-257v268h-15c-17 0 -51 -1 -60 -1v162zM287 542v-114h38c17 0 51 1 60 1v-162c-9 0 -43 1 -60 1h-38v-108h64c96 0 172 84 172 190c0 109 -73 192 -176 192h-60z" />
    <glyph glyph-name="Ntilde" unicode="&#xd1;" horiz-adv-x="803" 
d="M75 718h18l390 -310c32 -26 36 -31 56 -59l4 1c-2 10 -7 36 -7 74v156c0 35 -1 101 -1 120h194c0 -19 -1 -85 -1 -120v-598h-18l-390 321c-32 26 -36 31 -56 59l-4 -1c2 -10 7 -36 7 -74v-167c0 -35 1 -101 1 -120h-194c0 19 1 85 1 120v598zM497 935l118 -20
c-15 -86 -107 -154 -196 -139l-76 13c-27 5 -53 -17 -58 -45l-118 20c15 86 107 155 196 139l75 -13c28 -5 54 17 59 45z" />
    <glyph glyph-name="Ograve" unicode="&#xd2;" horiz-adv-x="872" 
d="M434 720c219 0 386 -166 386 -370s-167 -370 -386 -370s-386 166 -386 370s167 370 386 370zM434 542c-108 0 -194 -86 -194 -192s86 -192 194 -192s194 86 194 192s-86 192 -194 192zM210 882l114 76l136 -168l-88 -58z" />
    <glyph glyph-name="Oacute" unicode="&#xd3;" horiz-adv-x="872" 
d="M434 720c219 0 386 -166 386 -370s-167 -370 -386 -370s-386 166 -386 370s167 370 386 370zM434 542c-108 0 -194 -86 -194 -192s86 -192 194 -192s194 86 194 192s-86 192 -194 192zM538 958l114 -76l-162 -150l-88 58z" />
    <glyph glyph-name="Ocircumflex" unicode="&#xd4;" horiz-adv-x="872" 
d="M434 720c219 0 386 -166 386 -370s-167 -370 -386 -370s-386 166 -386 370s167 370 386 370zM434 542c-108 0 -194 -86 -194 -192s86 -192 194 -192s194 86 194 192s-86 192 -194 192zM628 820l-65 -82l-127 68l-127 -68l-65 82l192 125z" />
    <glyph glyph-name="Otilde" unicode="&#xd5;" horiz-adv-x="872" 
d="M436 720c219 0 386 -166 386 -370s-167 -370 -386 -370s-386 166 -386 370s167 370 386 370zM436 542c-108 0 -194 -86 -194 -192s86 -192 194 -192s194 86 194 192s-86 192 -194 192zM532 935l118 -20c-15 -86 -107 -154 -196 -139l-76 13c-27 5 -53 -17 -58 -45
l-118 20c15 86 107 155 196 139l75 -13c28 -5 54 17 59 45z" />
    <glyph glyph-name="Odieresis" unicode="&#xd6;" horiz-adv-x="872" 
d="M434 720c219 0 386 -166 386 -370s-167 -370 -386 -370s-386 166 -386 370s167 370 386 370zM434 542c-108 0 -194 -86 -194 -192s86 -192 194 -192s194 86 194 192s-86 192 -194 192zM311 960c52 0 95 -43 95 -95s-43 -95 -95 -95s-95 43 -95 95s43 95 95 95zM561 960
c52 0 95 -43 95 -95s-43 -95 -95 -95s-95 43 -95 95s43 95 95 95z" />
    <glyph glyph-name="multiply" unicode="&#xd7;" horiz-adv-x="716" 
d="M358 467l59 59c24 25 70 72 84 85l107 -107c-13 -14 -60 -60 -85 -84l-59 -59l59 -59c25 -24 72 -70 85 -84l-107 -107c-14 13 -60 60 -84 85l-59 59l-59 -59c-24 -25 -70 -72 -84 -85l-107 107c13 14 60 60 85 84l59 59l-59 59c-25 24 -72 70 -85 84l107 107
c14 -13 60 -60 84 -85z" />
    <glyph glyph-name="Oslash" unicode="&#xd8;" horiz-adv-x="872" 
d="M436 720c81 0 155 -23 216 -62l56 57l93 -93l-53 -52c47 -62 74 -138 74 -220c0 -204 -167 -370 -386 -370c-81 0 -155 23 -216 62c-23 -23 -47 -47 -56 -57l-93 93l53 52c-47 61 -74 137 -74 220c0 204 167 370 386 370zM436 542c-108 0 -194 -86 -194 -192
c0 -30 7 -58 19 -83l257 257c-25 12 -53 18 -82 18zM611 433l-258 -258c25 -11 53 -17 83 -17c108 0 194 86 194 192c0 30 -7 58 -19 83z" />
    <glyph glyph-name="Ugrave" unicode="&#xd9;" horiz-adv-x="771" 
d="M268 700c0 -19 -1 -85 -1 -120v-330c0 -34 15 -65 38 -83c23 -17 55 -25 94 -25c46 0 85 16 105 30v408c0 35 -1 101 -1 120h194c0 -19 -1 -85 -1 -120v-516c-40 -29 -120 -84 -297 -84c-108 0 -178 16 -231 53c-60 42 -93 109 -93 217v330c0 35 -1 101 -1 120h194z
M205 882l114 76l136 -168l-88 -58z" />
    <glyph glyph-name="Uacute" unicode="&#xda;" horiz-adv-x="771" 
d="M268 700c0 -19 -1 -85 -1 -120v-330c0 -34 15 -65 38 -83c23 -17 55 -25 94 -25c46 0 85 16 105 30v408c0 35 -1 101 -1 120h194c0 -19 -1 -85 -1 -120v-516c-40 -29 -120 -84 -297 -84c-108 0 -178 16 -231 53c-60 42 -93 109 -93 217v330c0 35 -1 101 -1 120h194z
M433 958l114 -76l-162 -150l-88 58z" />
    <glyph glyph-name="Ucircumflex" unicode="&#xdb;" horiz-adv-x="771" 
d="M268 700c0 -19 -1 -85 -1 -120v-330c0 -34 15 -65 38 -83c23 -17 55 -25 94 -25c46 0 85 16 105 30v408c0 35 -1 101 -1 120h194c0 -19 -1 -85 -1 -120v-516c-40 -29 -120 -84 -297 -84c-108 0 -178 16 -231 53c-60 42 -93 109 -93 217v330c0 35 -1 101 -1 120h194z
M577 820l-65 -82l-127 68l-127 -68l-65 82l192 125z" />
    <glyph glyph-name="Udieresis" unicode="&#xdc;" horiz-adv-x="771" 
d="M268 700c0 -19 -1 -85 -1 -120v-330c0 -34 15 -65 38 -83c23 -17 55 -25 94 -25c46 0 85 16 105 30v408c0 35 -1 101 -1 120h194c0 -19 -1 -85 -1 -120v-516c-40 -29 -120 -84 -297 -84c-108 0 -178 16 -231 53c-60 42 -93 109 -93 217v330c0 35 -1 101 -1 120h194z
M260 960c52 0 95 -43 95 -95s-43 -95 -95 -95s-95 43 -95 95s43 95 95 95zM510 960c52 0 95 -43 95 -95s-43 -95 -95 -95s-95 43 -95 95s43 95 95 95z" />
    <glyph glyph-name="Yacute" unicode="&#xdd;" horiz-adv-x="720" 
d="M271 0c0 19 1 85 1 120v218l-171 237c-21 29 -80 109 -91 125h227c16 -26 32 -51 50 -77l41 -60c18 -25 33 -58 35 -69h4c0 5 14 39 34 69l40 61c17 25 33 51 51 76h218c-27 -40 -58 -84 -86 -123l-166 -235v-222c0 -35 1 -101 1 -120h-188zM422 958l114 -76l-162 -150
l-88 58z" />
    <glyph glyph-name="Thorn" unicode="&#xde;" horiz-adv-x="620" 
d="M42 700h194c0 -18 -1 -76 -1 -112h105c147 0 235 -106 235 -238c0 -128 -61 -232 -235 -232h-105c0 -36 1 -100 1 -118h-194c0 19 1 85 1 120v460c0 35 -1 101 -1 120zM235 264h66c55 0 87 39 87 86c0 50 -32 90 -87 90h-66v-176z" />
    <glyph glyph-name="germandbls" unicode="&#xdf;" horiz-adv-x="756" 
d="M241 -220h-177c0 19 1 85 1 120v490c0 194 87 330 285 330c160 0 264 -72 264 -182c0 -109 -124 -118 -124 -174c0 -35 56 -53 109 -78c66 -31 139 -73 139 -156c0 -90 -67 -158 -208 -158c-119 0 -189 35 -236 81l119 107c18 -27 60 -74 115 -74c31 0 46 15 46 34
c0 29 -41 43 -90 66c-69 33 -150 71 -150 162c0 100 118 113 118 177c0 34 -37 61 -92 61c-81 0 -120 -59 -120 -155v-531c0 -35 1 -101 1 -120z" />
    <glyph glyph-name="agrave" unicode="&#xe0;" horiz-adv-x="594" 
d="M287 494c97 0 192 -28 228 -101c12 -25 15 -58 15 -95v-252c-33 -23 -117 -70 -244 -70c-184 0 -244 87 -244 178c0 92 68 162 200 162c61 0 107 -21 123 -45l4 2c-3 9 -6 27 -7 38c-4 48 -45 73 -95 73c-60 0 -107 -21 -130 -34l-49 100c38 19 93 44 199 44zM282 220
c-44 0 -70 -27 -70 -62c0 -40 28 -72 78 -72c41 0 65 20 74 28v60c-11 20 -41 46 -82 46zM133 700l114 76l136 -168l-88 -58z" />
    <glyph glyph-name="aacute" unicode="&#xe1;" horiz-adv-x="594" 
d="M309 776l114 -76l-162 -150l-88 58zM287 494c97 0 192 -28 228 -101c12 -25 15 -58 15 -95v-252c-33 -23 -117 -70 -244 -70c-184 0 -244 87 -244 178c0 92 68 162 200 162c61 0 107 -21 123 -45l4 2c-3 9 -6 27 -7 38c-4 48 -45 73 -95 73c-60 0 -107 -21 -130 -34
l-49 100c38 19 93 44 199 44zM282 220c-44 0 -70 -27 -70 -62c0 -40 28 -72 78 -72c41 0 65 20 74 28v60c-11 20 -41 46 -82 46z" />
    <glyph glyph-name="acircumflex" unicode="&#xe2;" horiz-adv-x="594" 
d="M494 585l-65 -82l-127 68l-127 -68l-65 82l192 125zM287 494c97 0 192 -28 228 -101c12 -25 15 -58 15 -95v-252c-33 -23 -117 -70 -244 -70c-184 0 -244 87 -244 178c0 92 68 162 200 162c61 0 107 -21 123 -45l4 2c-3 9 -6 27 -7 38c-4 48 -45 73 -95 73
c-60 0 -107 -21 -130 -34l-49 100c38 19 93 44 199 44zM282 220c-44 0 -70 -27 -70 -62c0 -40 28 -72 78 -72c41 0 65 20 74 28v60c-11 20 -41 46 -82 46z" />
    <glyph glyph-name="atilde" unicode="&#xe3;" horiz-adv-x="594" 
d="M392 690l118 -20c-15 -86 -107 -154 -196 -139l-76 13c-27 5 -53 -17 -58 -45l-118 20c15 86 107 155 196 139l75 -13c28 -5 54 17 59 45zM287 494c97 0 192 -28 228 -101c12 -25 15 -58 15 -95v-252c-33 -23 -117 -70 -244 -70c-184 0 -244 87 -244 178
c0 92 68 162 200 162c61 0 107 -21 123 -45l4 2c-3 9 -6 27 -7 38c-4 48 -45 73 -95 73c-60 0 -107 -21 -130 -34l-49 100c38 19 93 44 199 44zM282 220c-44 0 -70 -27 -70 -62c0 -40 28 -72 78 -72c41 0 65 20 74 28v60c-11 20 -41 46 -82 46z" />
    <glyph glyph-name="adieresis" unicode="&#xe4;" horiz-adv-x="594" 
d="M171 715c52 0 95 -43 95 -95s-43 -95 -95 -95s-95 43 -95 95s43 95 95 95zM421 715c52 0 95 -43 95 -95s-43 -95 -95 -95s-95 43 -95 95s43 95 95 95zM287 494c97 0 192 -28 228 -101c12 -25 15 -58 15 -95v-252c-33 -23 -117 -70 -244 -70c-184 0 -244 87 -244 178
c0 92 68 162 200 162c61 0 107 -21 123 -45l4 2c-3 9 -6 27 -7 38c-4 48 -45 73 -95 73c-60 0 -107 -21 -130 -34l-49 100c38 19 93 44 199 44zM282 220c-44 0 -70 -27 -70 -62c0 -40 28 -72 78 -72c41 0 65 20 74 28v60c-11 20 -41 46 -82 46z" />
    <glyph glyph-name="aring" unicode="&#xe5;" horiz-adv-x="594" 
d="M287 494c97 0 192 -28 228 -101c12 -25 15 -58 15 -95v-252c-33 -23 -117 -70 -244 -70c-184 0 -244 87 -244 178c0 92 68 162 200 162c61 0 107 -21 123 -45l4 2c-3 9 -6 27 -7 38c-4 48 -45 73 -95 73c-60 0 -107 -21 -130 -34l-49 100c38 19 93 44 199 44zM282 220
c-44 0 -70 -27 -70 -62c0 -40 28 -72 78 -72c41 0 65 20 74 28v60c-11 20 -41 46 -82 46zM285 750c81 0 130 -52 130 -115s-48 -115 -130 -115s-130 52 -130 115s48 115 130 115zM285 666c-26 0 -40 -14 -40 -31s14 -31 40 -31c27 0 40 14 40 31s-14 31 -40 31z" />
    <glyph glyph-name="ae" unicode="&#xe6;" horiz-adv-x="924" 
d="M872 206h-342c3 -64 33 -102 90 -102s81 39 90 63l144 -81c-28 -50 -97 -106 -224 -106c-72 0 -129 19 -172 50c-30 -21 -93 -50 -172 -50c-174 0 -241 84 -241 174c0 91 67 162 199 162c58 0 106 -21 122 -47l4 2c-3 9 -6 29 -7 40c-4 48 -44 71 -94 71
c-59 0 -103 -20 -126 -33l-49 100c38 19 85 41 193 41c67 0 134 -12 180 -45c41 29 92 45 149 45c163 0 258 -114 258 -254c0 -16 -1 -25 -2 -30zM292 90c40 0 63 17 72 25v59c-11 20 -41 48 -82 48c-44 0 -67 -29 -67 -64c0 -38 30 -68 77 -68zM620 378
c-39 0 -77 -24 -83 -74h169c1 31 -26 74 -86 74z" />
    <glyph glyph-name="ccedilla" unicode="&#xe7;" horiz-adv-x="610" 
d="M322 490c113 0 176 -51 219 -97l-125 -98c-19 28 -48 51 -90 51c-61 0 -101 -48 -101 -108c0 -59 45 -108 103 -108c45 0 77 26 96 56l138 -88c-35 -50 -108 -118 -238 -118c-158 0 -274 106 -274 256c0 143 115 254 272 254zM307 -32l-107 -128l66 -52l122 114z" />
    <glyph glyph-name="egrave" unicode="&#xe8;" horiz-adv-x="610" 
d="M558 206h-342c3 -64 33 -102 90 -102s81 39 90 63l144 -81c-28 -50 -97 -106 -224 -106c-178 0 -268 118 -268 250c0 157 109 260 254 260c163 0 258 -114 258 -254c0 -16 -1 -25 -2 -30zM306 378c-39 0 -77 -24 -83 -74h169c1 31 -26 74 -86 74zM138 700l114 76
l136 -168l-88 -58z" />
    <glyph glyph-name="eacute" unicode="&#xe9;" horiz-adv-x="610" 
d="M558 206h-342c3 -64 33 -102 90 -102s81 39 90 63l144 -81c-28 -50 -97 -106 -224 -106c-178 0 -268 118 -268 250c0 157 109 260 254 260c163 0 258 -114 258 -254c0 -16 -1 -25 -2 -30zM306 378c-39 0 -77 -24 -83 -74h169c1 31 -26 74 -86 74zM366 776l114 -76
l-162 -150l-88 58z" />
    <glyph glyph-name="ecircumflex" unicode="&#xea;" horiz-adv-x="610" 
d="M558 206h-342c3 -64 33 -102 90 -102s81 39 90 63l144 -81c-28 -50 -97 -106 -224 -106c-178 0 -268 118 -268 250c0 157 109 260 254 260c163 0 258 -114 258 -254c0 -16 -1 -25 -2 -30zM306 378c-39 0 -77 -24 -83 -74h169c1 31 -26 74 -86 74zM498 585l-65 -82
l-127 68l-127 -68l-65 82l192 125z" />
    <glyph glyph-name="edieresis" unicode="&#xeb;" horiz-adv-x="610" 
d="M558 206h-342c3 -64 33 -102 90 -102s81 39 90 63l144 -81c-28 -50 -97 -106 -224 -106c-178 0 -268 118 -268 250c0 157 109 260 254 260c163 0 258 -114 258 -254c0 -16 -1 -25 -2 -30zM306 378c-39 0 -77 -24 -83 -74h169c1 31 -26 74 -86 74zM181 715
c52 0 95 -43 95 -95s-43 -95 -95 -95s-95 43 -95 95s43 95 95 95zM431 715c52 0 95 -43 95 -95s-43 -95 -95 -95s-95 43 -95 95s43 95 95 95z" />
    <glyph glyph-name="igrave" unicode="&#xec;" horiz-adv-x="295" 
d="M246 470c0 -19 -1 -85 -1 -120v-230c0 -35 1 -101 1 -120h-177c0 19 1 85 1 120v230c0 35 -1 101 -1 120h177zM-46 700l114 76l136 -168l-88 -58z" />
    <glyph glyph-name="iacute" unicode="&#xed;" horiz-adv-x="295" 
d="M246 470c0 -19 -1 -85 -1 -120v-230c0 -35 1 -101 1 -120h-177c0 19 1 85 1 120v230c0 35 -1 101 -1 120h177zM227 776l114 -76l-162 -150l-88 58z" />
    <glyph glyph-name="icircumflex" unicode="&#xee;" horiz-adv-x="295" 
d="M246 470c0 -19 -1 -85 -1 -120v-230c0 -35 1 -101 1 -120h-177c0 19 1 85 1 120v230c0 35 -1 101 -1 120h177zM339 585l-65 -82l-127 68l-127 -68l-65 82l192 125z" />
    <glyph glyph-name="idieresis" unicode="&#xef;" horiz-adv-x="315" 
d="M79 715c36 0 65 -43 65 -95s-29 -95 -65 -95s-65 43 -65 95s29 95 65 95zM234 715c36 0 65 -43 65 -95s-29 -95 -65 -95s-65 43 -65 95s29 95 65 95zM246 470c0 -19 -1 -85 -1 -120v-230c0 -35 1 -101 1 -120h-177c0 19 1 85 1 120v230c0 35 -1 101 -1 120h177z" />
    <glyph glyph-name="eth" unicode="&#xf0;" horiz-adv-x="652" 
d="M339 800c7 -15 24 -47 44 -85l42 21c22 11 42 23 62 33l38 -77c-8 -4 -48 -23 -63 -31l-39 -20l157 -286c16 -25 32 -73 32 -120c0 -141 -118 -255 -286 -255s-286 114 -286 255c0 146 117 237 240 252c30 4 43 -8 52 -13l2 3c-11 7 -22 16 -40 49l-22 40l-42 -21
c-22 -11 -41 -22 -62 -33l-38 77c8 4 48 23 63 31l39 19c-20 35 -45 78 -45 78zM326 350c-61 0 -111 -52 -111 -115s50 -115 111 -115c62 0 111 52 111 115s-49 115 -111 115z" />
    <glyph glyph-name="ntilde" unicode="&#xf1;" horiz-adv-x="628" 
d="M233 413l4 -2c14 35 62 79 144 79c96 0 182 -53 182 -186v-184c0 -35 1 -101 1 -120h-177c0 19 1 85 1 120v140c0 59 -28 90 -71 90c-38 0 -77 -23 -77 -84v-146c0 -35 1 -101 1 -120h-177c0 19 1 85 1 120v230c0 35 -1 101 -1 120h174c-1 -23 -3 -51 -5 -57zM418 690
l118 -20c-15 -86 -107 -154 -196 -139l-76 13c-27 5 -53 -17 -58 -45l-118 20c15 86 107 155 196 139l75 -13c28 -5 54 17 59 45z" />
    <glyph glyph-name="ograve" unicode="&#xf2;" horiz-adv-x="652" 
d="M326 490c168 0 286 -114 286 -255s-118 -255 -286 -255s-286 114 -286 255s118 255 286 255zM326 350c-64 0 -111 -52 -111 -115s47 -115 111 -115s111 52 111 115s-47 115 -111 115zM148 700l114 76l136 -168l-88 -58z" />
    <glyph glyph-name="oacute" unicode="&#xf3;" horiz-adv-x="652" 
d="M326 490c168 0 286 -114 286 -255s-118 -255 -286 -255s-286 114 -286 255s118 255 286 255zM326 350c-64 0 -111 -52 -111 -115s47 -115 111 -115s111 52 111 115s-47 115 -111 115zM373 776l114 -76l-162 -150l-88 58z" />
    <glyph glyph-name="ocircumflex" unicode="&#xf4;" horiz-adv-x="652" 
d="M326 490c168 0 286 -114 286 -255s-118 -255 -286 -255s-286 114 -286 255s118 255 286 255zM326 350c-64 0 -111 -52 -111 -115s47 -115 111 -115s111 52 111 115s-47 115 -111 115zM518 585l-65 -82l-127 68l-127 -68l-65 82l192 125z" />
    <glyph glyph-name="otilde" unicode="&#xf5;" horiz-adv-x="652" 
d="M326 490c168 0 286 -114 286 -255s-118 -255 -286 -255s-286 114 -286 255s118 255 286 255zM326 350c-64 0 -111 -52 -111 -115s47 -115 111 -115s111 52 111 115s-47 115 -111 115zM422 690l118 -20c-15 -86 -107 -154 -196 -139l-76 13c-27 5 -53 -17 -58 -45l-118 20
c15 86 107 155 196 139l75 -13c28 -5 54 17 59 45z" />
    <glyph glyph-name="odieresis" unicode="&#xf6;" horiz-adv-x="652" 
d="M326 490c168 0 286 -114 286 -255s-118 -255 -286 -255s-286 114 -286 255s118 255 286 255zM326 350c-64 0 -111 -52 -111 -115s47 -115 111 -115s111 52 111 115s-47 115 -111 115zM201 715c52 0 95 -43 95 -95s-43 -95 -95 -95s-95 43 -95 95s43 95 95 95zM451 715
c52 0 95 -43 95 -95s-43 -95 -95 -95s-95 43 -95 95s43 95 95 95z" />
    <glyph glyph-name="divide" unicode="&#xf7;" horiz-adv-x="716" 
d="M636 437v-152c-19 0 -85 1 -120 1h-316c-35 0 -101 -1 -120 -1v152c19 0 85 -1 120 -1h316c35 0 101 1 120 1zM358 230c62 0 112 -49 112 -110s-50 -110 -112 -110s-112 49 -112 110s50 110 112 110zM358 712c62 0 112 -49 112 -110s-50 -110 -112 -110s-112 49 -112 110
s50 110 112 110z" />
    <glyph glyph-name="oslash" unicode="&#xf8;" horiz-adv-x="652" 
d="M326 490c20 0 39 -2 57 -5c19 30 43 68 52 81l148 -97l-42 -63c45 -45 71 -105 71 -171c0 -141 -118 -255 -286 -255c-20 0 -40 2 -58 5c-19 -30 -43 -68 -52 -81l-148 97c6 10 25 37 42 63c-45 45 -70 105 -70 171c0 141 118 255 286 255zM326 350
c-64 0 -111 -52 -111 -115s47 -115 111 -115s111 52 111 115s-47 115 -111 115z" />
    <glyph glyph-name="ugrave" unicode="&#xf9;" horiz-adv-x="636" 
d="M572 470c0 -19 -1 -85 -1 -120v-310c-30 -20 -125 -60 -248 -60c-133 0 -258 39 -258 200v170c0 35 -1 101 -1 120h177c0 -19 -1 -85 -1 -120v-145c0 -47 26 -85 89 -85c32 0 56 10 67 16v214c0 35 -1 101 -1 120h177zM110 700l114 76l136 -168l-88 -58z" />
    <glyph glyph-name="uacute" unicode="&#xfa;" horiz-adv-x="636" 
d="M572 470c0 -19 -1 -85 -1 -120v-310c-30 -20 -125 -60 -248 -60c-133 0 -258 39 -258 200v170c0 35 -1 101 -1 120h177c0 -19 -1 -85 -1 -120v-145c0 -47 26 -85 89 -85c32 0 56 10 67 16v214c0 35 -1 101 -1 120h177zM338 776l114 -76l-162 -150l-88 58z" />
    <glyph glyph-name="ucircumflex" unicode="&#xfb;" horiz-adv-x="636" 
d="M572 470c0 -19 -1 -85 -1 -120v-310c-30 -20 -125 -60 -248 -60c-133 0 -258 39 -258 200v170c0 35 -1 101 -1 120h177c0 -19 -1 -85 -1 -120v-145c0 -47 26 -85 89 -85c32 0 56 10 67 16v214c0 35 -1 101 -1 120h177zM510 585l-65 -82l-127 68l-127 -68l-65 82l192 125z
" />
    <glyph glyph-name="udieresis" unicode="&#xfc;" horiz-adv-x="636" 
d="M572 470c0 -19 -1 -85 -1 -120v-310c-30 -20 -125 -60 -248 -60c-133 0 -258 39 -258 200v170c0 35 -1 101 -1 120h177c0 -19 -1 -85 -1 -120v-145c0 -47 26 -85 89 -85c32 0 56 10 67 16v214c0 35 -1 101 -1 120h177zM193 715c52 0 95 -43 95 -95s-43 -95 -95 -95
s-95 43 -95 95s43 95 95 95zM443 715c52 0 95 -43 95 -95s-43 -95 -95 -95s-95 43 -95 95s43 95 95 95z" />
    <glyph glyph-name="yacute" unicode="&#xfd;" horiz-adv-x="644" 
d="M634 470c-21 -43 -46 -87 -68 -130l-246 -473c-15 -30 -31 -61 -43 -87h-193c10 17 51 96 67 127l86 170l-152 265c-17 30 -66 111 -75 128h199c8 -17 25 -52 41 -82l42 -80c19 -36 34 -78 35 -90h4c1 10 18 55 36 90l37 73c16 31 33 72 42 89h188zM352 776l114 -76
l-162 -150l-88 58z" />
    <glyph glyph-name="thorn" unicode="&#xfe;" horiz-adv-x="664" 
d="M240 -220h-177c0 21 1 91 1 128v682c0 37 -1 107 -1 128h177c0 -21 -1 -91 -1 -128v-104c0 -19 -2 -39 -5 -46l4 -2c24 27 81 52 142 52c134 0 240 -94 240 -250c0 -151 -98 -260 -265 -260c-47 0 -97 18 -117 35l-4 -2c3 -7 5 -27 5 -46v-59c0 -37 1 -107 1 -128z
M239 290v-125c18 -19 50 -39 92 -39c64 0 109 46 109 108c0 61 -43 110 -104 110c-48 0 -79 -24 -97 -54z" />
    <glyph glyph-name="ydieresis" unicode="&#xff;" horiz-adv-x="644" 
d="M634 470c-21 -43 -46 -87 -68 -130l-246 -473c-15 -30 -31 -61 -43 -87h-193c10 17 51 96 67 127l86 170l-152 265c-17 30 -66 111 -75 128h199c8 -17 25 -52 41 -82l42 -80c19 -36 34 -78 35 -90h4c1 10 18 55 36 90l37 73c16 31 33 72 42 89h188zM205 715
c52 0 95 -43 95 -95s-43 -95 -95 -95s-95 43 -95 95s43 95 95 95zM455 715c52 0 95 -43 95 -95s-43 -95 -95 -95s-95 43 -95 95s43 95 95 95z" />
    <glyph glyph-name="Amacron" unicode="&#x100;" 
d="M377 724h20l300 -615c15 -31 44 -88 55 -109h-199c-9 21 -24 52 -32 70l-6 14h-255l-6 -14c-7 -16 -22 -48 -31 -70h-205c8 17 40 78 55 109zM355 226h63c19 0 32 -3 35 -5l2 4c-2 1 -7 5 -16 25l-24 51c-20 43 -27 71 -27 76h-4c0 -5 -7 -33 -26 -76l-23 -51
c-7 -16 -15 -24 -17 -25l2 -4c2 2 17 5 35 5zM250 916c9 0 43 -1 60 -1h150c17 0 51 1 60 1v-122c-9 0 -43 1 -60 1h-150c-17 0 -51 -1 -60 -1v122z" />
    <glyph glyph-name="amacron" unicode="&#x101;" horiz-adv-x="595" 
d="M152 651c9 0 43 -1 60 -1h150c17 0 51 1 60 1v-122c-9 0 -43 1 -60 1h-150c-17 0 -51 -1 -60 -1v122zM287 494c97 0 192 -28 228 -101c12 -25 15 -58 15 -95v-252c-33 -23 -117 -70 -244 -70c-184 0 -244 87 -244 178c0 92 68 162 200 162c61 0 107 -21 123 -45l4 2
c-3 9 -6 27 -7 38c-4 48 -45 73 -95 73c-60 0 -107 -21 -130 -34l-49 100c38 19 93 44 199 44zM282 220c-44 0 -70 -27 -70 -62c0 -40 28 -72 78 -72c41 0 65 20 74 28v60c-11 20 -41 46 -82 46z" />
    <glyph glyph-name="Abreve" unicode="&#x102;" 
d="M377 724h20l300 -615c15 -31 44 -88 55 -109h-199c-9 21 -24 52 -32 70l-6 14h-255l-6 -14c-7 -16 -22 -48 -31 -70h-205c8 17 40 78 55 109zM355 226h63c19 0 32 -3 35 -5l2 4c-2 1 -7 5 -16 25l-24 51c-20 43 -27 71 -27 76h-4c0 -5 -7 -33 -26 -76l-23 -51
c-7 -16 -15 -24 -17 -25l2 -4c2 2 17 5 35 5zM193 897l98 39c12 -41 47 -61 94 -61s82 22 94 61l98 -39c-23 -89 -98 -142 -192 -142s-169 53 -192 142z" />
    <glyph glyph-name="abreve" unicode="&#x103;" horiz-adv-x="595" 
d="M98 652l98 39c12 -41 47 -61 94 -61s82 22 94 61l98 -39c-23 -89 -98 -142 -192 -142s-169 53 -192 142zM287 494c97 0 192 -28 228 -101c12 -25 15 -58 15 -95v-252c-33 -23 -117 -70 -244 -70c-184 0 -244 87 -244 178c0 92 68 162 200 162c61 0 107 -21 123 -45l4 2
c-3 9 -6 27 -7 38c-4 48 -45 73 -95 73c-60 0 -107 -21 -130 -34l-49 100c38 19 93 44 199 44zM282 220c-44 0 -70 -27 -70 -62c0 -40 28 -72 78 -72c41 0 65 20 74 28v60c-11 20 -41 46 -82 46z" />
    <glyph glyph-name="Aogonek" unicode="&#x104;" 
d="M377 724h20l300 -615c15 -31 44 -88 55 -109c-17 -19 -31 -43 -31 -69c0 -35 24 -51 54 -51c27 0 51 12 63 20l49 -102c-22 -15 -68 -38 -132 -38c-104 0 -160 62 -160 138c0 40 15 75 34 102h-76c-9 21 -24 52 -32 70l-6 14h-255l-6 -14c-7 -16 -22 -48 -31 -70h-205
c8 17 40 78 55 109zM355 226h63c19 0 32 -3 35 -5l2 4c-2 1 -7 5 -16 25l-24 51c-20 43 -27 71 -27 76h-4c0 -5 -7 -33 -26 -76l-23 -51c-7 -16 -15 -24 -17 -25l2 -4c2 2 17 5 35 5z" />
    <glyph glyph-name="aogonek" unicode="&#x105;" horiz-adv-x="594" 
d="M365 271l4 2c-3 9 -6 27 -7 38c-4 48 -45 73 -95 73c-60 0 -107 -21 -130 -34l-49 100c38 19 93 44 199 44c97 0 192 -28 228 -101c12 -25 15 -58 15 -95v-252c-47 -35 -86 -71 -86 -115c0 -35 24 -51 54 -51c27 0 51 12 63 20l49 -102c-22 -15 -68 -38 -132 -38
c-104 0 -160 62 -160 138c0 30 8 58 21 81c-17 -2 -35 -3 -53 -3c-184 0 -244 87 -244 178c0 92 68 162 200 162c61 0 107 -21 123 -45zM290 86c41 0 65 20 74 28v60c-11 20 -41 46 -82 46c-44 0 -70 -27 -70 -62c0 -40 28 -72 78 -72z" />
    <glyph glyph-name="Cacute" unicode="&#x106;" horiz-adv-x="764" 
d="M610 226l124 -129c-71 -74 -182 -117 -300 -117c-239 0 -384 168 -384 374s150 366 382 366c130 0 218 -45 284 -113l-120 -124c-49 49 -101 73 -164 73c-105 0 -190 -74 -190 -202c0 -126 90 -206 192 -206c82 0 128 33 176 78zM484 958l114 -76l-162 -150l-88 58z" />
    <glyph glyph-name="cacute" unicode="&#x107;" horiz-adv-x="610" 
d="M322 490c113 0 176 -51 219 -97l-125 -98c-19 28 -48 51 -90 51c-61 0 -101 -48 -101 -108c0 -59 45 -108 103 -108c45 0 77 26 96 56l138 -88c-35 -50 -108 -118 -238 -118c-158 0 -274 106 -274 256c0 143 115 254 272 254zM344 776l114 -76l-162 -150l-88 58z" />
    <glyph glyph-name="Ccircumflex" unicode="&#x108;" horiz-adv-x="764" 
d="M610 226l124 -129c-71 -74 -182 -117 -300 -117c-239 0 -384 168 -384 374s150 366 382 366c130 0 218 -45 284 -113l-120 -124c-49 49 -101 73 -164 73c-105 0 -190 -74 -190 -202c0 -126 90 -206 192 -206c82 0 128 33 176 78zM624 850l-65 -82l-127 68l-127 -68
l-65 82l192 125z" />
    <glyph glyph-name="ccircumflex" unicode="&#x109;" horiz-adv-x="610" 
d="M322 490c113 0 176 -51 219 -97l-125 -98c-19 28 -48 51 -90 51c-61 0 -101 -48 -101 -108c0 -59 45 -108 103 -108c45 0 77 26 96 56l138 -88c-35 -50 -108 -118 -238 -118c-158 0 -274 106 -274 256c0 143 115 254 272 254zM512 585l-65 -82l-127 68l-127 -68l-65 82
l192 125z" />
    <glyph glyph-name="Cdotaccent" unicode="&#x10a;" horiz-adv-x="764" 
d="M610 226l124 -129c-71 -74 -182 -117 -300 -117c-239 0 -384 168 -384 374s150 366 382 366c130 0 218 -45 284 -113l-120 -124c-49 49 -101 73 -164 73c-105 0 -190 -74 -190 -202c0 -126 90 -206 192 -206c82 0 128 33 176 78zM427 950c52 0 95 -43 95 -95
s-43 -95 -95 -95s-95 43 -95 95s43 95 95 95z" />
    <glyph glyph-name="cdotaccent" unicode="&#x10b;" horiz-adv-x="610" 
d="M322 490c113 0 176 -51 219 -97l-125 -98c-19 28 -48 51 -90 51c-61 0 -101 -48 -101 -108c0 -59 45 -108 103 -108c45 0 77 26 96 56l138 -88c-35 -50 -108 -118 -238 -118c-158 0 -274 106 -274 256c0 143 115 254 272 254zM321 705c52 0 95 -43 95 -95
s-43 -95 -95 -95s-95 43 -95 95s43 95 95 95z" />
    <glyph glyph-name="Ccaron" unicode="&#x10c;" horiz-adv-x="764" 
d="M610 226l124 -129c-71 -74 -182 -117 -300 -117c-239 0 -384 168 -384 374s150 366 382 366c130 0 218 -45 284 -113l-120 -124c-49 49 -101 73 -164 73c-105 0 -190 -74 -190 -202c0 -126 90 -206 192 -206c82 0 128 33 176 78zM557 956l65 -82l-192 -125l-192 125
l65 82l127 -68z" />
    <glyph glyph-name="ccaron" unicode="&#x10d;" horiz-adv-x="610" 
d="M322 490c113 0 176 -51 219 -97l-125 -98c-19 28 -48 51 -90 51c-61 0 -101 -48 -101 -108c0 -59 45 -108 103 -108c45 0 77 26 96 56l138 -88c-35 -50 -108 -118 -238 -118c-158 0 -274 106 -274 256c0 143 115 254 272 254zM447 711l65 -82l-192 -125l-192 125l65 82
l127 -68z" />
    <glyph glyph-name="Dcaron" unicode="&#x10e;" horiz-adv-x="745" 
d="M75 700h279c203 0 341 -155 341 -350c0 -191 -135 -350 -363 -350h-257v700zM267 542v-382h64c96 0 172 84 172 190c0 109 -73 192 -176 192h-60zM434 956l65 -82l-192 -125l-192 125l65 82l127 -68z" />
    <glyph glyph-name="dcaron" unicode="&#x10f;" horiz-adv-x="894" 
d="M425 715h177c0 -21 -1 -91 -1 -128v-513c-36 -36 -128 -94 -262 -94c-187 0 -295 111 -295 262c0 158 106 248 238 248c62 0 121 -25 145 -52l4 2c-3 7 -5 27 -5 46v101c0 37 -1 107 -1 128zM426 165v125c-18 30 -50 54 -98 54c-62 0 -104 -49 -104 -110
c0 -62 45 -108 109 -108c42 0 75 20 93 39zM700 620v150h154v-158c0 -67 -50 -146 -105 -184l-52 61c36 28 67 71 67 123v8h-64z" />
    <glyph glyph-name="Dcroat" unicode="&#x110;" horiz-adv-x="765" 
d="M20 429c9 0 43 -1 60 -1h15v272h279c203 0 341 -155 341 -350c0 -191 -135 -350 -363 -350h-257v268h-15c-17 0 -51 -1 -60 -1v162zM287 542v-114h38c17 0 51 1 60 1v-162c-9 0 -43 1 -60 1h-38v-108h64c96 0 172 84 172 190c0 109 -73 192 -176 192h-60z" />
    <glyph glyph-name="dcroat" unicode="&#x111;" horiz-adv-x="666" 
d="M425 715h177c0 -11 -1 -36 -1 -61c33 0 72 1 86 1v-100c-14 0 -53 0 -86 1v-482c-36 -36 -128 -94 -262 -94c-187 0 -295 111 -295 262c0 158 106 248 238 248c62 0 121 -25 145 -52l4 2c-3 7 -5 27 -5 46v70h-59c-35 0 -101 -1 -120 -1v100c19 0 85 -1 120 -1h58v61z
M426 165v125c-18 30 -50 54 -98 54c-62 0 -104 -49 -104 -110c0 -62 45 -108 109 -108c42 0 75 20 93 39z" />
    <glyph glyph-name="Emacron" unicode="&#x112;" horiz-adv-x="518" 
d="M75 0v700h259c35 0 101 1 120 1v-166c-19 0 -85 1 -120 1h-82v-104h44c35 0 101 1 120 1v-166c-19 0 -85 1 -120 1h-44v-104h98c35 0 101 1 120 1v-166c-19 0 -85 1 -120 1h-275zM124 896c9 0 43 -1 60 -1h150c17 0 51 1 60 1v-122c-9 0 -43 1 -60 1h-150
c-17 0 -51 -1 -60 -1v122z" />
    <glyph glyph-name="emacron" unicode="&#x113;" horiz-adv-x="610" 
d="M558 206h-342c3 -64 33 -102 90 -102s81 39 90 63l144 -81c-28 -50 -97 -106 -224 -106c-178 0 -268 118 -268 250c0 157 109 260 254 260c163 0 258 -114 258 -254c0 -16 -1 -25 -2 -30zM306 378c-39 0 -77 -24 -83 -74h169c1 31 -26 74 -86 74zM166 651
c9 0 43 -1 60 -1h150c17 0 51 1 60 1v-122c-9 0 -43 1 -60 1h-150c-17 0 -51 -1 -60 -1v122z" />
    <glyph glyph-name="Ebreve" unicode="&#x114;" horiz-adv-x="518" 
d="M75 0v700h259c35 0 101 1 120 1v-166c-19 0 -85 1 -120 1h-82v-104h44c35 0 101 1 120 1v-166c-19 0 -85 1 -120 1h-44v-104h98c35 0 101 1 120 1v-166c-19 0 -85 1 -120 1h-275zM70 897l98 39c12 -41 47 -61 94 -61s82 22 94 61l98 -39c-23 -89 -98 -142 -192 -142
s-169 53 -192 142z" />
    <glyph glyph-name="ebreve" unicode="&#x115;" horiz-adv-x="610" 
d="M558 206h-342c3 -64 33 -102 90 -102s81 39 90 63l144 -81c-28 -50 -97 -106 -224 -106c-178 0 -268 118 -268 250c0 157 109 260 254 260c163 0 258 -114 258 -254c0 -16 -1 -25 -2 -30zM306 378c-39 0 -77 -24 -83 -74h169c1 31 -26 74 -86 74zM110 652l98 39
c12 -41 47 -61 94 -61s82 22 94 61l98 -39c-23 -89 -98 -142 -192 -142s-169 53 -192 142z" />
    <glyph glyph-name="Edotaccent" unicode="&#x116;" horiz-adv-x="518" 
d="M75 0v700h259c35 0 101 1 120 1v-166c-19 0 -85 1 -120 1h-82v-104h44c35 0 101 1 120 1v-166c-19 0 -85 1 -120 1h-44v-104h98c35 0 101 1 120 1v-166c-19 0 -85 1 -120 1h-275zM259 970c52 0 95 -43 95 -95s-43 -95 -95 -95s-95 43 -95 95s43 95 95 95z" />
    <glyph glyph-name="edotaccent" unicode="&#x117;" horiz-adv-x="610" 
d="M558 206h-342c3 -64 33 -102 90 -102s81 39 90 63l144 -81c-28 -50 -97 -106 -224 -106c-178 0 -268 118 -268 250c0 157 109 260 254 260c163 0 258 -114 258 -254c0 -16 -1 -25 -2 -30zM306 378c-39 0 -77 -24 -83 -74h169c1 31 -26 74 -86 74zM299 705
c52 0 95 -43 95 -95s-43 -95 -95 -95s-95 43 -95 95s43 95 95 95z" />
    <glyph glyph-name="Eogonek" unicode="&#x118;" horiz-adv-x="518" 
d="M75 0v700h259c35 0 101 1 120 1v-166c-19 0 -85 1 -120 1h-82v-104h44c35 0 101 1 120 1v-166c-19 0 -85 1 -120 1h-44v-104h98c35 0 101 1 120 1v-166c-15 0 -58 1 -93 1c-16 -19 -30 -42 -30 -69c0 -35 24 -51 54 -51c27 0 51 12 63 20l49 -102
c-22 -15 -68 -38 -132 -38c-104 0 -160 62 -160 138c0 40 15 75 34 102h-180z" />
    <glyph glyph-name="eogonek" unicode="&#x119;" horiz-adv-x="610" 
d="M558 206h-342c3 -64 33 -102 90 -102s81 39 90 63l144 -81c-11 -20 -27 -38 -50 -56c-24 -19 -62 -57 -62 -99c0 -35 24 -51 54 -51c27 0 51 12 63 20l49 -102c-22 -15 -68 -38 -132 -38c-104 0 -160 62 -160 138c0 31 9 59 21 82h-7c-178 0 -268 118 -268 250
c0 157 109 260 254 260c163 0 258 -114 258 -254c0 -16 -1 -25 -2 -30zM306 378c-39 0 -77 -24 -83 -74h169c1 31 -26 74 -86 74z" />
    <glyph glyph-name="Ecaron" unicode="&#x11a;" horiz-adv-x="518" 
d="M75 0v700h259c35 0 101 1 120 1v-166c-19 0 -85 1 -120 1h-82v-104h44c35 0 101 1 120 1v-166c-19 0 -85 1 -120 1h-44v-104h98c35 0 101 1 120 1v-166c-19 0 -85 1 -120 1h-275zM382 956l65 -82l-192 -125l-192 125l65 82l127 -68z" />
    <glyph glyph-name="ecaron" unicode="&#x11b;" horiz-adv-x="610" 
d="M558 206h-342c3 -64 33 -102 90 -102s81 39 90 63l144 -81c-28 -50 -97 -106 -224 -106c-178 0 -268 118 -268 250c0 157 109 260 254 260c163 0 258 -114 258 -254c0 -16 -1 -25 -2 -30zM306 378c-39 0 -77 -24 -83 -74h169c1 31 -26 74 -86 74zM419 711l65 -82
l-192 -125l-192 125l65 82l127 -68z" />
    <glyph glyph-name="Gcircumflex" unicode="&#x11c;" horiz-adv-x="836" 
d="M566 216h-8c-35 0 -100 -1 -119 -1v158c19 0 85 -1 120 -1h225c1 -11 2 -41 2 -56c0 -178 -126 -336 -356 -336s-380 166 -380 370s160 370 380 370c126 0 225 -53 286 -134l-132 -122c-46 69 -100 88 -154 88c-112 0 -188 -91 -188 -202c0 -128 76 -214 188 -214
c86 0 121 24 150 53c13 13 17 27 20 29l-3 4c-3 -2 -14 -6 -31 -6zM612 830l-65 -82l-127 68l-127 -68l-65 82l192 125z" />
    <glyph glyph-name="gcircumflex" unicode="&#x11d;" horiz-adv-x="666" 
d="M601 396v-416c0 -147 -118 -220 -273 -220c-123 0 -203 31 -253 69l91 116c33 -30 63 -53 139 -53c94 0 121 66 121 92c0 19 2 39 5 46l-4 2c-24 -27 -82 -52 -144 -52c-132 0 -239 90 -239 248c0 151 109 262 296 262c134 0 225 -58 261 -94zM426 180v125
c-18 19 -51 39 -93 39c-64 0 -109 -46 -109 -108c0 -61 42 -110 104 -110c48 0 80 24 98 54zM528 585l-65 -82l-127 68l-127 -68l-65 82l192 125z" />
    <glyph glyph-name="Gbreve" unicode="&#x11e;" horiz-adv-x="836" 
d="M566 216h-8c-35 0 -100 -1 -119 -1v158c19 0 85 -1 120 -1h225c1 -11 2 -41 2 -56c0 -178 -126 -336 -356 -336s-380 166 -380 370s160 370 380 370c126 0 225 -53 286 -134l-132 -122c-46 69 -100 88 -154 88c-112 0 -188 -91 -188 -202c0 -128 76 -214 188 -214
c86 0 121 24 150 53c13 13 17 27 20 29l-3 4c-3 -2 -14 -6 -31 -6zM238 897l98 39c12 -41 47 -61 94 -61s82 22 94 61l98 -39c-23 -89 -98 -142 -192 -142s-169 53 -192 142z" />
    <glyph glyph-name="gbreve" unicode="&#x11f;" horiz-adv-x="666" 
d="M601 396v-416c0 -147 -118 -220 -273 -220c-123 0 -203 31 -253 69l91 116c33 -30 63 -53 139 -53c94 0 121 66 121 92c0 19 2 39 5 46l-4 2c-24 -27 -82 -52 -144 -52c-132 0 -239 90 -239 248c0 151 109 262 296 262c134 0 225 -58 261 -94zM426 180v125
c-18 19 -51 39 -93 39c-64 0 -109 -46 -109 -108c0 -61 42 -110 104 -110c48 0 80 24 98 54zM145 652l98 39c12 -41 47 -61 94 -61s82 22 94 61l98 -39c-23 -89 -98 -142 -192 -142s-169 53 -192 142z" />
    <glyph glyph-name="Gdotaccent" unicode="&#x120;" horiz-adv-x="836" 
d="M566 216h-8c-35 0 -100 -1 -119 -1v158c19 0 85 -1 120 -1h225c1 -11 2 -41 2 -56c0 -178 -126 -336 -356 -336s-380 166 -380 370s160 370 380 370c126 0 225 -53 286 -134l-132 -122c-46 69 -100 88 -154 88c-112 0 -188 -91 -188 -202c0 -128 76 -214 188 -214
c86 0 121 24 150 53c13 13 17 27 20 29l-3 4c-3 -2 -14 -6 -31 -6zM421 950c52 0 95 -43 95 -95s-43 -95 -95 -95s-95 43 -95 95s43 95 95 95z" />
    <glyph glyph-name="gdotaccent" unicode="&#x121;" horiz-adv-x="666" 
d="M601 396v-416c0 -147 -118 -220 -273 -220c-123 0 -203 31 -253 69l91 116c33 -30 63 -53 139 -53c94 0 121 66 121 92c0 19 2 39 5 46l-4 2c-24 -27 -82 -52 -144 -52c-132 0 -239 90 -239 248c0 151 109 262 296 262c134 0 225 -58 261 -94zM426 180v125
c-18 19 -51 39 -93 39c-64 0 -109 -46 -109 -108c0 -61 42 -110 104 -110c48 0 80 24 98 54zM331 705c52 0 95 -43 95 -95s-43 -95 -95 -95s-95 43 -95 95s43 95 95 95z" />
    <glyph glyph-name="Hcircumflex" unicode="&#x124;" horiz-adv-x="792" 
d="M717 580v-460c0 -35 1 -101 1 -120h-194c0 19 1 85 1 120v160h-258v-160c0 -35 1 -101 1 -120h-194c0 19 1 85 1 120v460c0 35 -1 101 -1 120h194c0 -19 -1 -85 -1 -120v-150h258v150c0 35 -1 101 -1 120h194c0 -19 -1 -85 -1 -120zM588 830l-65 -82l-127 68l-127 -68
l-65 82l192 125z" />
    <glyph glyph-name="hcircumflex" unicode="&#x125;" horiz-adv-x="631" 
d="M241 740c0 -19 -1 -85 -1 -120v-112c0 -35 -11 -81 -13 -87l4 -2c22 35 81 71 155 71c99 0 180 -53 180 -186v-184c0 -35 1 -101 1 -120h-177c0 19 1 85 1 120v140c0 60 -28 88 -73 88c-39 0 -78 -21 -78 -91v-137c0 -35 1 -101 1 -120h-177c0 19 1 85 1 120v368v132
c0 35 -1 101 -1 120h177zM507 850l-65 -82l-127 68l-127 -68l-65 82l192 125z" />
    <glyph glyph-name="Itilde" unicode="&#x128;" horiz-adv-x="352" 
d="M79 700h194c0 -19 -1 -85 -1 -120v-460c0 -35 1 -101 1 -120h-194c0 19 1 85 1 120v460c0 35 -1 101 -1 120zM282 955l118 -20c-15 -86 -107 -154 -196 -139l-76 13c-27 5 -53 -17 -58 -45l-118 20c15 86 107 155 196 139l75 -13c28 -5 54 17 59 45z" />
    <glyph glyph-name="itilde" unicode="&#x129;" horiz-adv-x="315" 
d="M246 470c0 -19 -1 -85 -1 -120v-230c0 -35 1 -101 1 -120h-177c0 19 1 85 1 120v230c0 35 -1 101 -1 120h177zM263 690l118 -20c-15 -86 -107 -154 -196 -139l-76 13c-27 5 -53 -17 -58 -45l-118 20c15 86 107 155 196 139l75 -13c28 -5 54 17 59 45z" />
    <glyph glyph-name="Imacron" unicode="&#x12a;" horiz-adv-x="342" 
d="M74 700h194c0 -19 -1 -85 -1 -120v-460c0 -35 1 -101 1 -120h-194c0 19 1 85 1 120v460c0 35 -1 101 -1 120zM36 896c9 0 43 -1 60 -1h150c17 0 51 1 60 1v-122c-9 0 -43 1 -60 1h-150c-17 0 -51 -1 -60 -1v122z" />
    <glyph glyph-name="imacron" unicode="&#x12b;" horiz-adv-x="315" 
d="M246 470c0 -19 -1 -85 -1 -120v-230c0 -35 1 -101 1 -120h-177c0 19 1 85 1 120v230c0 35 -1 101 -1 120h177zM22 651c9 0 43 -1 60 -1h150c17 0 51 1 60 1v-122c-9 0 -43 1 -60 1h-150c-17 0 -51 -1 -60 -1v122z" />
    <glyph glyph-name="Ibreve" unicode="&#x12c;" horiz-adv-x="352" 
d="M79 700h194c0 -19 -1 -85 -1 -120v-460c0 -35 1 -101 1 -120h-194c0 19 1 85 1 120v460c0 35 -1 101 -1 120zM-16 897l98 39c12 -41 47 -61 94 -61s82 22 94 61l98 -39c-23 -89 -98 -142 -192 -142s-169 53 -192 142z" />
    <glyph glyph-name="ibreve" unicode="&#x12d;" horiz-adv-x="315" 
d="M246 470c0 -19 -1 -85 -1 -120v-230c0 -35 1 -101 1 -120h-177c0 19 1 85 1 120v230c0 35 -1 101 -1 120h177zM-35 652l98 39c12 -41 47 -61 94 -61s82 22 94 61l98 -39c-23 -89 -98 -142 -192 -142s-169 53 -192 142z" />
    <glyph glyph-name="Iogonek" unicode="&#x12e;" horiz-adv-x="352" 
d="M79 700h194c0 -19 -1 -85 -1 -120v-460c0 -35 1 -101 1 -120c-17 -19 -31 -42 -31 -69c0 -35 24 -51 54 -51c27 0 51 12 63 20l49 -102c-22 -15 -68 -38 -132 -38c-104 0 -160 62 -160 138c0 40 15 75 34 102h-71c0 19 1 85 1 120v460c0 35 -1 101 -1 120z" />
    <glyph glyph-name="iogonek" unicode="&#x12f;" horiz-adv-x="315" 
d="M246 470c0 -19 -1 -85 -1 -120v-230c0 -35 1 -101 1 -120c-17 -19 -31 -42 -31 -69c0 -35 24 -51 54 -51c27 0 51 12 63 20l49 -102c-22 -15 -68 -38 -132 -38c-104 0 -160 62 -160 138c0 40 15 75 34 102h-54c0 19 1 85 1 120v230c0 35 -1 101 -1 120h177zM157 738
c52 0 95 -43 95 -95s-43 -95 -95 -95s-95 43 -95 95s43 95 95 95z" />
    <glyph glyph-name="Idotaccent" unicode="&#x130;" horiz-adv-x="352" 
d="M79 700h194c0 -19 -1 -85 -1 -120v-460c0 -35 1 -101 1 -120h-194c0 19 1 85 1 120v460c0 35 -1 101 -1 120zM176 970c52 0 95 -43 95 -95s-43 -95 -95 -95s-95 43 -95 95s43 95 95 95z" />
    <glyph glyph-name="dotlessi" unicode="&#x131;" horiz-adv-x="315" 
d="M246 470c0 -19 -1 -85 -1 -120v-230c0 -35 1 -101 1 -120h-177c0 19 1 85 1 120v230c0 35 -1 101 -1 120h177z" />
    <glyph glyph-name="Jcircumflex" unicode="&#x134;" horiz-adv-x="512" 
d="M21 87l116 123c7 -20 31 -68 65 -68c24 0 43 23 43 54v384c0 35 -1 101 -1 120h194c0 -19 -1 -85 -1 -120v-396c0 -93 -82 -204 -227 -204c-95 0 -155 47 -189 107zM490 830l-65 -82l-127 68l-127 -68l-65 82l192 125z" />
    <glyph glyph-name="jcircumflex" unicode="&#x135;" horiz-adv-x="315" 
d="M349 585l-65 -82l-127 68l-127 -68l-65 82l192 125zM-35 -230v138c10 -2 19 -3 28 -3c52 0 77 29 77 95v350c0 35 -1 101 -1 120h177c0 -19 -1 -85 -1 -120v-320c0 -80 -11 -138 -38 -181c-38 -60 -103 -89 -170 -89c-31 0 -58 4 -72 10z" />
    <glyph glyph-name="kgreenlandic" unicode="&#x138;" horiz-adv-x="670" 
d="M64 470h177c0 -19 -1 -85 -1 -120v-54l116 116c20 20 37 39 55 58h228c-40 -38 -88 -85 -114 -109l-118 -113l128 -128c37 -37 85 -82 122 -120h-240c-18 21 -40 45 -59 66l-118 124v-70c0 -35 1 -101 1 -120h-177c0 19 1 85 1 120v230c0 35 -1 101 -1 120z" />
    <glyph glyph-name="Lacute" unicode="&#x139;" horiz-adv-x="514" 
d="M75 0v580c0 35 -1 101 -1 120h194c0 -19 -1 -85 -1 -120v-418h99c35 0 101 1 120 1v-164c-19 0 -85 1 -120 1h-291zM270 958l114 -76l-162 -150l-88 58z" />
    <glyph glyph-name="lacute" unicode="&#x13a;" horiz-adv-x="315" 
d="M69 770h177c0 -19 -1 -85 -1 -120v-530c0 -35 1 -101 1 -120h-177c0 19 1 85 1 120v530c0 35 -1 101 -1 120zM202 1046l114 -76l-162 -150l-88 58z" />
    <glyph glyph-name="Lcaron" unicode="&#x13d;" horiz-adv-x="697" 
d="M75 0v580c0 35 -1 101 -1 120h194c0 -19 -1 -85 -1 -120v-418h99c35 0 101 1 120 1v-164c-19 0 -85 1 -120 1h-291zM490 620v150h154v-158c0 -67 -50 -146 -105 -184l-52 61c36 28 67 71 67 123v8h-64z" />
    <glyph glyph-name="lcaron" unicode="&#x13e;" horiz-adv-x="575" 
d="M69 770h177c0 -19 -1 -85 -1 -120v-530c0 -35 1 -101 1 -120h-177c0 19 1 85 1 120v530c0 35 -1 101 -1 120zM370 620v150h154v-158c0 -67 -50 -146 -105 -184l-52 61c36 28 67 71 67 123v8h-64z" />
    <glyph glyph-name="Lslash" unicode="&#x141;" horiz-adv-x="514" 
d="M75 0v256l-57 -41l-74 102l98 70l33 24v169c0 35 -1 101 -1 120h194c0 -19 -1 -85 -1 -120v-30l3 2l97 71l74 -102l-98 -70l-76 -55v-234h99c35 0 101 1 120 1v-164c-19 0 -85 1 -120 1h-291z" />
    <glyph glyph-name="lslash" unicode="&#x142;" horiz-adv-x="315" 
d="M69 770h177c0 -19 -1 -85 -1 -120v-88l60 44l74 -102c-14 -11 -69 -49 -98 -70l-36 -26v-288c0 -35 1 -101 1 -120h-177c0 19 1 85 1 120v160l-60 -43l-74 102l98 70l36 26v215c0 35 -1 101 -1 120z" />
    <glyph glyph-name="Nacute" unicode="&#x143;" horiz-adv-x="803" 
d="M75 718h18l390 -310c32 -26 36 -31 56 -59l4 1c-2 10 -7 36 -7 74v156c0 35 -1 101 -1 120h194c0 -19 -1 -85 -1 -120v-598h-18l-390 321c-32 26 -36 31 -56 59l-4 -1c2 -10 7 -36 7 -74v-167c0 -35 1 -101 1 -120h-194c0 19 1 85 1 120v598zM424 958l114 -76l-162 -150
l-88 58z" />
    <glyph glyph-name="nacute" unicode="&#x144;" horiz-adv-x="625" 
d="M233 413l4 -2c14 35 62 79 144 79c96 0 182 -53 182 -186v-184c0 -35 1 -101 1 -120h-177c0 19 1 85 1 120v140c0 59 -28 90 -71 90c-38 0 -77 -23 -77 -84v-146c0 -35 1 -101 1 -120h-177c0 19 1 85 1 120v230c0 35 -1 101 -1 120h174c-1 -23 -3 -51 -5 -57zM308 776
l114 -76l-162 -150l-88 58z" />
    <glyph glyph-name="Ncaron" unicode="&#x147;" horiz-adv-x="803" 
d="M75 718h18l390 -310c32 -26 36 -31 56 -59l4 1c-2 10 -7 36 -7 74v156c0 35 -1 101 -1 120h194c0 -19 -1 -85 -1 -120v-598h-18l-390 321c-32 26 -36 31 -56 59l-4 -1c2 -10 7 -36 7 -74v-167c0 -35 1 -101 1 -120h-194c0 19 1 85 1 120v598zM514 956l65 -82l-192 -125
l-192 125l65 82l127 -68z" />
    <glyph glyph-name="ncaron" unicode="&#x148;" horiz-adv-x="628" 
d="M233 413l4 -2c14 35 62 79 144 79c96 0 182 -53 182 -186v-184c0 -35 1 -101 1 -120h-177c0 19 1 85 1 120v140c0 59 -28 90 -71 90c-38 0 -77 -23 -77 -84v-146c0 -35 1 -101 1 -120h-177c0 19 1 85 1 120v230c0 35 -1 101 -1 120h174c-1 -23 -3 -51 -5 -57zM415 711
l65 -82l-192 -125l-192 125l65 82l127 -68z" />
    <glyph glyph-name="Eng" unicode="&#x14a;" horiz-adv-x="803" 
d="M313 -132l117 123c7 -29 26 -69 63 -69c24 0 43 25 43 56v147l-216 178c-32 26 -36 31 -56 59l-4 -1c2 -10 7 -36 7 -74v-167c0 -35 1 -101 1 -120h-194c0 19 1 85 1 120v598h18l390 -310c32 -26 36 -31 56 -59l4 1c-2 10 -7 36 -7 74v156c0 35 -1 101 -1 120h194
c0 -19 -1 -85 -1 -120v-602c0 -106 -80 -218 -227 -218c-95 0 -154 46 -188 108z" />
    <glyph glyph-name="eng" unicode="&#x14b;" horiz-adv-x="628" 
d="M283 -230v138c10 -2 19 -3 28 -3c52 0 77 29 77 95v260c0 59 -28 90 -71 90c-38 0 -77 -23 -77 -93v-137c0 -35 1 -101 1 -120h-177c0 19 1 85 1 120v230c0 35 -1 101 -1 120h174c-1 -23 -3 -51 -5 -57l4 -2c14 35 62 79 144 79c96 0 182 -53 182 -186v-274
c0 -80 -11 -138 -38 -181c-38 -60 -103 -89 -170 -89c-31 0 -58 4 -72 10z" />
    <glyph glyph-name="Omacron" unicode="&#x14c;" horiz-adv-x="872" 
d="M436 720c219 0 386 -166 386 -370s-167 -370 -386 -370s-386 166 -386 370s167 370 386 370zM436 542c-108 0 -194 -86 -194 -192s86 -192 194 -192s194 86 194 192s-86 192 -194 192zM301 896c9 0 43 -1 60 -1h150c17 0 51 1 60 1v-122c-9 0 -43 1 -60 1h-150
c-17 0 -51 -1 -60 -1v122z" />
    <glyph glyph-name="omacron" unicode="&#x14d;" horiz-adv-x="652" 
d="M326 490c168 0 286 -114 286 -255s-118 -255 -286 -255s-286 114 -286 255s118 255 286 255zM326 350c-64 0 -111 -52 -111 -115s47 -115 111 -115s111 52 111 115s-47 115 -111 115zM191 651c9 0 43 -1 60 -1h150c17 0 51 1 60 1v-122c-9 0 -43 1 -60 1h-150
c-17 0 -51 -1 -60 -1v122z" />
    <glyph glyph-name="Obreve" unicode="&#x14e;" horiz-adv-x="872" 
d="M436 720c219 0 386 -166 386 -370s-167 -370 -386 -370s-386 166 -386 370s167 370 386 370zM436 542c-108 0 -194 -86 -194 -192s86 -192 194 -192s194 86 194 192s-86 192 -194 192zM244 897l98 39c12 -41 47 -61 94 -61s82 22 94 61l98 -39
c-23 -89 -98 -142 -192 -142s-169 53 -192 142z" />
    <glyph glyph-name="obreve" unicode="&#x14f;" horiz-adv-x="652" 
d="M326 490c168 0 286 -114 286 -255s-118 -255 -286 -255s-286 114 -286 255s118 255 286 255zM326 350c-64 0 -111 -52 -111 -115s47 -115 111 -115s111 52 111 115s-47 115 -111 115zM134 652l98 39c12 -41 47 -61 94 -61s82 22 94 61l98 -39c-23 -89 -98 -142 -192 -142
s-169 53 -192 142z" />
    <glyph glyph-name="Ohungarumlaut" unicode="&#x150;" horiz-adv-x="872" 
d="M436 720c219 0 386 -166 386 -370s-167 -370 -386 -370s-386 166 -386 370s167 370 386 370zM436 542c-108 0 -194 -86 -194 -192s86 -192 194 -192s194 86 194 192s-86 192 -194 192zM383 758l-68 30l57 131l91 -40zM529 758l-68 30l57 131l91 -40z" />
    <glyph glyph-name="ohungarumlaut" unicode="&#x151;" horiz-adv-x="652" 
d="M326 490c168 0 286 -114 286 -255s-118 -255 -286 -255s-286 114 -286 255s118 255 286 255zM326 350c-64 0 -111 -52 -111 -115s47 -115 111 -115s111 52 111 115s-47 115 -111 115zM273 523l-68 30l57 131l91 -40zM419 523l-68 30l57 131l91 -40z" />
    <glyph glyph-name="OE" unicode="&#x152;" horiz-adv-x="1064" 
d="M621 0v25c0 17 2 37 4 54l-2 1c-41 -49 -115 -100 -227 -100c-195 0 -350 166 -350 370s154 370 350 370c103 0 185 -44 227 -101l2 1s-4 20 -4 47v33h259c35 0 101 1 120 1v-166c-19 0 -85 1 -120 1h-82v-104h44c35 0 101 1 120 1v-166c-19 0 -85 1 -120 1h-44v-104h98
c35 0 101 1 120 1v-166c-19 0 -85 1 -120 1h-275zM428 542c-103 0 -187 -86 -187 -192s84 -192 187 -192c107 0 193 86 193 192s-86 192 -193 192z" />
    <glyph glyph-name="oe" unicode="&#x153;" horiz-adv-x="1005" 
d="M953 206h-342c3 -64 33 -102 90 -102s81 39 90 63l144 -81c-28 -50 -97 -106 -224 -106c-82 0 -146 25 -190 65c-49 -40 -117 -65 -195 -65c-168 0 -286 114 -286 255s118 255 286 255c78 0 145 -26 195 -66c45 42 106 66 176 66c163 0 258 -114 258 -254
c0 -16 -1 -25 -2 -30zM326 350c-64 0 -111 -52 -111 -115s47 -115 111 -115s111 52 111 115s-47 115 -111 115zM701 378c-39 0 -77 -24 -83 -74h169c1 31 -26 74 -86 74z" />
    <glyph glyph-name="Racute" unicode="&#x154;" horiz-adv-x="638" 
d="M333 958l114 -76l-162 -150l-88 58zM614 0h-201c-11 31 -22 59 -34 89l-67 171h-45v-140c0 -35 1 -101 1 -120h-194c0 19 1 85 1 120v580h301c137 0 226 -97 226 -232c0 -92 -40 -154 -104 -185l72 -174c17 -42 44 -109 44 -109zM331 546h-64v-152h60c45 0 80 33 80 74
c0 43 -32 78 -76 78z" />
    <glyph glyph-name="racute" unicode="&#x155;" horiz-adv-x="440" 
d="M246 776l114 -76l-162 -150l-88 58zM418 468v-157c-16 7 -38 13 -62 13c-73 0 -116 -45 -116 -108v-96c0 -35 1 -101 1 -120h-177c0 19 1 85 1 120v230c0 35 -1 101 -1 120h174c0 -20 0 -55 -3 -68l5 -2c19 44 74 74 135 74c20 0 35 -2 43 -6z" />
    <glyph glyph-name="Rcaron" unicode="&#x158;" horiz-adv-x="638" 
d="M404 976l65 -82l-192 -125l-192 125l65 82l127 -68zM614 0h-201c-11 31 -22 59 -34 89l-67 171h-45v-140c0 -35 1 -101 1 -120h-194c0 19 1 85 1 120v580h301c137 0 226 -97 226 -232c0 -92 -40 -154 -104 -185l72 -174c17 -42 44 -109 44 -109zM331 546h-64v-152h60
c45 0 80 33 80 74c0 43 -32 78 -76 78z" />
    <glyph glyph-name="rcaron" unicode="&#x159;" horiz-adv-x="440" 
d="M345 711l65 -82l-192 -125l-192 125l65 82l127 -68zM418 468v-157c-16 7 -38 13 -62 13c-73 0 -116 -45 -116 -108v-96c0 -35 1 -101 1 -120h-177c0 19 1 85 1 120v230c0 35 -1 101 -1 120h174c0 -20 0 -55 -3 -68l5 -2c19 44 74 74 135 74c20 0 35 -2 43 -6z" />
    <glyph glyph-name="Sacute" unicode="&#x15a;" horiz-adv-x="577" 
d="M528 607l-112 -104c-29 39 -65 73 -112 73c-26 0 -45 -18 -45 -38c0 -48 63 -77 110 -109c90 -62 176 -115 176 -233c0 -129 -104 -216 -250 -216c-125 0 -216 64 -267 150l145 85c26 -50 69 -89 124 -89c38 0 64 24 64 54c0 44 -51 74 -111 113
c-78 51 -171 114 -171 223s99 204 221 204c114 0 190 -69 228 -113zM395 958l114 -76l-162 -150l-88 58z" />
    <glyph glyph-name="sacute" unicode="&#x15b;" horiz-adv-x="468" 
d="M274 776l114 -76l-162 -150l-88 58zM440 428l-93 -103c-15 25 -51 61 -95 61c-33 0 -44 -17 -44 -30c0 -35 50 -45 103 -70c66 -31 139 -73 139 -156c0 -90 -67 -158 -208 -158c-119 0 -189 35 -236 81l119 107c18 -27 60 -74 115 -74c31 0 46 15 46 34
c0 29 -41 43 -90 66c-69 33 -150 71 -150 162c0 81 67 150 198 150c81 0 157 -30 196 -70z" />
    <glyph glyph-name="Scircumflex" unicode="&#x15c;" horiz-adv-x="577" 
d="M528 607l-112 -104c-29 39 -65 73 -112 73c-26 0 -45 -18 -45 -38c0 -48 63 -77 110 -109c90 -62 176 -115 176 -233c0 -129 -104 -216 -250 -216c-125 0 -216 64 -267 150l145 85c26 -50 69 -89 124 -89c38 0 64 24 64 54c0 44 -51 74 -111 113
c-78 51 -171 114 -171 223s99 204 221 204c114 0 190 -69 228 -113zM490 820l-65 -82l-127 68l-127 -68l-65 82l192 125z" />
    <glyph glyph-name="scircumflex" unicode="&#x15d;" horiz-adv-x="468" 
d="M436 585l-65 -82l-127 68l-127 -68l-65 82l192 125zM440 428l-93 -103c-15 25 -51 61 -95 61c-33 0 -44 -17 -44 -30c0 -35 50 -45 103 -70c66 -31 139 -73 139 -156c0 -90 -67 -158 -208 -158c-119 0 -189 35 -236 81l119 107c18 -27 60 -74 115 -74c31 0 46 15 46 34
c0 29 -41 43 -90 66c-69 33 -150 71 -150 162c0 81 67 150 198 150c81 0 157 -30 196 -70z" />
    <glyph glyph-name="Scedilla" unicode="&#x15e;" horiz-adv-x="577" 
d="M528 607l-112 -104c-29 39 -65 73 -112 73c-26 0 -45 -18 -45 -38c0 -48 63 -77 110 -109c90 -62 176 -115 176 -233c0 -129 -104 -216 -250 -216c-125 0 -216 64 -267 150l145 85c26 -50 69 -89 124 -89c38 0 64 24 64 54c0 44 -51 74 -111 113
c-78 51 -171 114 -171 223s99 204 221 204c114 0 190 -69 228 -113zM279 -32l-107 -128l66 -52l122 114z" />
    <glyph glyph-name="scedilla" unicode="&#x15f;" horiz-adv-x="468" 
d="M245 -32l-107 -128l66 -52l122 114zM440 428l-93 -103c-15 25 -51 61 -95 61c-33 0 -44 -17 -44 -30c0 -35 50 -45 103 -70c66 -31 139 -73 139 -156c0 -90 -67 -158 -208 -158c-119 0 -189 35 -236 81l119 107c18 -27 60 -74 115 -74c31 0 46 15 46 34
c0 29 -41 43 -90 66c-69 33 -150 71 -150 162c0 81 67 150 198 150c81 0 157 -30 196 -70z" />
    <glyph glyph-name="Scaron" unicode="&#x160;" horiz-adv-x="577" 
d="M528 607l-112 -104c-29 39 -65 73 -112 73c-26 0 -45 -18 -45 -38c0 -48 63 -77 110 -109c90 -62 176 -115 176 -233c0 -129 -104 -216 -250 -216c-125 0 -216 64 -267 150l145 85c26 -50 69 -89 124 -89c38 0 64 24 64 54c0 44 -51 74 -111 113
c-78 51 -171 114 -171 223s99 204 221 204c114 0 190 -69 228 -113zM415 976l65 -82l-192 -125l-192 125l65 82l127 -68z" />
    <glyph glyph-name="scaron" unicode="&#x161;" horiz-adv-x="468" 
d="M440 428l-93 -103c-15 25 -51 61 -95 61c-33 0 -44 -17 -44 -30c0 -35 50 -45 103 -70c66 -31 139 -73 139 -156c0 -90 -67 -158 -208 -158c-119 0 -189 35 -236 81l119 107c18 -27 60 -74 115 -74c31 0 46 15 46 34c0 29 -41 43 -90 66c-69 33 -150 71 -150 162
c0 81 67 150 198 150c81 0 157 -30 196 -70zM375 711l65 -82l-192 -125l-192 125l65 82l127 -68z" />
    <glyph glyph-name="Tcommaaccent" unicode="&#x162;" horiz-adv-x="536" 
d="M506 701v-166c-19 0 -85 1 -120 1h-22v-416c0 -35 1 -101 1 -120h-194c0 19 1 85 1 120v416h-22c-35 0 -101 -1 -120 -1v166c19 0 85 -1 120 -1h236c35 0 101 1 120 1zM265 -32l-107 -128l66 -52l122 114z" />
    <glyph glyph-name="tcommaaccent" unicode="&#x163;" horiz-adv-x="360" 
d="M241 600c0 -19 -1 -85 -1 -120v-10c35 0 77 1 92 1v-150c-15 0 -57 0 -92 1v-202c0 -35 1 -101 1 -120h-177c0 19 1 85 1 120v360c0 35 -1 101 -1 120h177zM138 -32l-107 -128l66 -52l122 114z" />
    <glyph glyph-name="Tcaron" unicode="&#x164;" horiz-adv-x="536" 
d="M506 701v-166c-19 0 -85 1 -120 1h-22v-416c0 -35 1 -101 1 -120h-194c0 19 1 85 1 120v416h-22c-35 0 -101 -1 -120 -1v166c19 0 85 -1 120 -1h236c35 0 101 1 120 1zM395 956l65 -82l-192 -125l-192 125l65 82l127 -68z" />
    <glyph glyph-name="tcaron" unicode="&#x165;" horiz-adv-x="601" 
d="M241 600c0 -19 -1 -85 -1 -120v-10c35 0 77 1 92 1v-150c-15 0 -57 0 -92 1v-202c0 -35 1 -101 1 -120h-177c0 19 1 85 1 120v360c0 35 -1 101 -1 120h177zM405 620v150h154v-158c0 -67 -50 -146 -105 -184l-52 61c36 28 67 71 67 123v8h-64z" />
    <glyph glyph-name="Utilde" unicode="&#x168;" horiz-adv-x="771" 
d="M268 700c0 -19 -1 -85 -1 -120v-330c0 -34 15 -65 38 -83c23 -17 55 -25 94 -25c46 0 85 16 105 30v408c0 35 -1 101 -1 120h194c0 -19 -1 -85 -1 -120v-516c-40 -29 -120 -84 -297 -84c-108 0 -178 16 -231 53c-60 42 -93 109 -93 217v330c0 35 -1 101 -1 120h194z
M491 935l118 -20c-15 -86 -107 -154 -196 -139l-76 13c-27 5 -53 -17 -58 -45l-118 20c15 86 107 155 196 139l75 -13c28 -5 54 17 59 45z" />
    <glyph glyph-name="utilde" unicode="&#x169;" horiz-adv-x="636" 
d="M572 470c0 -19 -1 -85 -1 -120v-310c-30 -20 -125 -60 -248 -60c-133 0 -258 39 -258 200v170c0 35 -1 101 -1 120h177c0 -19 -1 -85 -1 -120v-145c0 -47 26 -85 89 -85c32 0 56 10 67 16v214c0 35 -1 101 -1 120h177zM423 690l118 -20c-15 -86 -107 -154 -196 -139
l-76 13c-27 5 -53 -17 -58 -45l-118 20c15 86 107 155 196 139l75 -13c28 -5 54 17 59 45z" />
    <glyph glyph-name="Umacron" unicode="&#x16a;" horiz-adv-x="771" 
d="M268 700c0 -19 -1 -85 -1 -120v-330c0 -34 15 -65 38 -83c23 -17 55 -25 94 -25c46 0 85 16 105 30v408c0 35 -1 101 -1 120h194c0 -19 -1 -85 -1 -120v-516c-40 -29 -120 -84 -297 -84c-108 0 -178 16 -231 53c-60 42 -93 109 -93 217v330c0 35 -1 101 -1 120h194z
M250 896c9 0 43 -1 60 -1h150c17 0 51 1 60 1v-122c-9 0 -43 1 -60 1h-150c-17 0 -51 -1 -60 -1v122z" />
    <glyph glyph-name="umacron" unicode="&#x16b;" horiz-adv-x="636" 
d="M572 470c0 -19 -1 -85 -1 -120v-310c-30 -20 -125 -60 -248 -60c-133 0 -258 39 -258 200v170c0 35 -1 101 -1 120h177c0 -19 -1 -85 -1 -120v-145c0 -47 26 -85 89 -85c32 0 56 10 67 16v214c0 35 -1 101 -1 120h177zM182 651c9 0 43 -1 60 -1h150c17 0 51 1 60 1v-122
c-9 0 -43 1 -60 1h-150c-17 0 -51 -1 -60 -1v122z" />
    <glyph glyph-name="Ubreve" unicode="&#x16c;" horiz-adv-x="771" 
d="M268 700c0 -19 -1 -85 -1 -120v-330c0 -34 15 -65 38 -83c23 -17 55 -25 94 -25c46 0 85 16 105 30v408c0 35 -1 101 -1 120h194c0 -19 -1 -85 -1 -120v-516c-40 -29 -120 -84 -297 -84c-108 0 -178 16 -231 53c-60 42 -93 109 -93 217v330c0 35 -1 101 -1 120h194z
M193 897l98 39c12 -41 47 -61 94 -61s82 22 94 61l98 -39c-23 -89 -98 -142 -192 -142s-169 53 -192 142z" />
    <glyph glyph-name="ubreve" unicode="&#x16d;" horiz-adv-x="636" 
d="M572 470c0 -19 -1 -85 -1 -120v-310c-30 -20 -125 -60 -248 -60c-133 0 -258 39 -258 200v170c0 35 -1 101 -1 120h177c0 -19 -1 -85 -1 -120v-145c0 -47 26 -85 89 -85c32 0 56 10 67 16v214c0 35 -1 101 -1 120h177zM125 652l98 39c12 -41 47 -61 94 -61s82 22 94 61
l98 -39c-23 -89 -98 -142 -192 -142s-169 53 -192 142z" />
    <glyph glyph-name="Uring" unicode="&#x16e;" horiz-adv-x="771" 
d="M268 700c0 -19 -1 -85 -1 -120v-330c0 -34 15 -65 38 -83c23 -17 55 -25 94 -25c46 0 85 16 105 30v408c0 35 -1 101 -1 120h194c0 -19 -1 -85 -1 -120v-516c-40 -29 -120 -84 -297 -84c-108 0 -178 16 -231 53c-60 42 -93 109 -93 217v330c0 35 -1 101 -1 120h194z
M385 975c81 0 130 -52 130 -115s-48 -115 -130 -115s-130 52 -130 115s48 115 130 115zM385 891c-26 0 -40 -14 -40 -31s14 -31 40 -31c27 0 40 14 40 31s-14 31 -40 31z" />
    <glyph glyph-name="uring" unicode="&#x16f;" horiz-adv-x="636" 
d="M572 470c0 -19 -1 -85 -1 -120v-310c-30 -20 -125 -60 -248 -60c-133 0 -258 39 -258 200v170c0 35 -1 101 -1 120h177c0 -19 -1 -85 -1 -120v-145c0 -47 26 -85 89 -85c32 0 56 10 67 16v214c0 35 -1 101 -1 120h177zM318 750c81 0 130 -52 130 -115s-48 -115 -130 -115
s-130 52 -130 115s48 115 130 115zM318 666c-26 0 -40 -14 -40 -31s14 -31 40 -31c27 0 40 14 40 31s-14 31 -40 31z" />
    <glyph glyph-name="Uhungarumlaut" unicode="&#x170;" horiz-adv-x="771" 
d="M268 700c0 -19 -1 -85 -1 -120v-330c0 -34 15 -65 38 -83c23 -17 55 -25 94 -25c46 0 85 16 105 30v408c0 35 -1 101 -1 120h194c0 -19 -1 -85 -1 -120v-516c-40 -29 -120 -84 -297 -84c-108 0 -178 16 -231 53c-60 42 -93 109 -93 217v330c0 35 -1 101 -1 120h194z
M327 758l-68 30l57 131l91 -40zM473 758l-68 30l57 131l91 -40z" />
    <glyph glyph-name="uhungarumlaut" unicode="&#x171;" horiz-adv-x="636" 
d="M572 470c0 -19 -1 -85 -1 -120v-310c-30 -20 -125 -60 -248 -60c-133 0 -258 39 -258 200v170c0 35 -1 101 -1 120h177c0 -19 -1 -85 -1 -120v-145c0 -47 26 -85 89 -85c32 0 56 10 67 16v214c0 35 -1 101 -1 120h177zM259 523l-68 30l57 131l91 -40zM405 523l-68 30
l57 131l91 -40z" />
    <glyph glyph-name="Uogonek" unicode="&#x172;" horiz-adv-x="771" 
d="M696 64c-44 -31 -114 -66 -114 -133c0 -35 24 -51 54 -51c27 0 51 12 63 20l49 -102c-22 -15 -68 -38 -132 -38c-104 0 -160 62 -160 138c0 33 10 62 24 86c-25 -2 -52 -4 -81 -4c-108 0 -178 16 -231 53c-60 42 -93 109 -93 217v330c0 35 -1 101 -1 120h194
c0 -19 -1 -85 -1 -120v-330c0 -34 15 -65 38 -83c23 -17 55 -25 94 -25c46 0 85 16 105 30v408c0 35 -1 101 -1 120h194c0 -19 -1 -85 -1 -120v-516z" />
    <glyph glyph-name="uogonek" unicode="&#x173;" horiz-adv-x="636" 
d="M572 470c0 -19 -1 -85 -1 -120v-310c-38 -29 -77 -65 -77 -109c0 -35 24 -51 54 -51c27 0 51 12 63 20l49 -102c-22 -15 -68 -38 -132 -38c-104 0 -160 62 -160 138c0 33 10 62 24 87c-22 -3 -45 -5 -69 -5c-133 0 -258 39 -258 200v170c0 35 -1 101 -1 120h177
c0 -19 -1 -85 -1 -120v-145c0 -47 26 -85 89 -85c32 0 56 10 67 16v214c0 35 -1 101 -1 120h177z" />
    <glyph glyph-name="Wcircumflex" unicode="&#x174;" horiz-adv-x="1072" 
d="M530 350c-1 -11 -17 -64 -34 -100l-126 -278h-18l-283 600c-15 32 -52 110 -59 128h191c13 -31 27 -64 43 -96l83 -170c15 -31 32 -90 33 -100h4c1 12 14 57 33 100l122 274h18l125 -274c20 -43 32 -88 33 -100h4c1 10 20 68 35 100l81 170c15 32 29 65 42 96h205
c-9 -18 -48 -96 -63 -128l-287 -600h-18l-129 278c-17 36 -32 89 -33 100h-2zM720 830l-65 -82l-127 68l-127 -68l-65 82l192 125z" />
    <glyph glyph-name="wcircumflex" unicode="&#x175;" horiz-adv-x="900" 
d="M457 258h-4c0 -12 -14 -59 -31 -100l-65 -158h-120l-165 344c-23 48 -41 83 -62 126h190c11 -30 23 -61 37 -91l30 -67c17 -38 37 -89 38 -100h4c1 11 20 68 34 100l68 158h84l72 -150c14 -30 37 -89 38 -100h4c1 11 18 60 34 100l24 59c12 30 23 61 35 91h189
c-21 -42 -39 -78 -61 -126l-160 -344h-110l-70 158c-18 42 -32 88 -33 100zM644 585l-65 -82l-127 68l-127 -68l-65 82l192 125z" />
    <glyph glyph-name="Ycircumflex" unicode="&#x176;" horiz-adv-x="720" 
d="M271 0c0 19 1 85 1 120v218l-171 237c-21 29 -80 109 -91 125h227c16 -26 32 -51 50 -77l41 -60c18 -25 33 -58 35 -69h4c0 5 14 39 34 69l40 61c17 25 33 51 51 76h218c-27 -40 -58 -84 -86 -123l-166 -235v-222c0 -35 1 -101 1 -120h-188zM552 830l-65 -82l-127 68
l-127 -68l-65 82l192 125z" />
    <glyph glyph-name="ycircumflex" unicode="&#x177;" horiz-adv-x="644" 
d="M634 470c-21 -43 -46 -87 -68 -130l-246 -473c-15 -30 -31 -61 -43 -87h-193c10 17 51 96 67 127l86 170l-152 265c-17 30 -66 111 -75 128h199c8 -17 25 -52 41 -82l42 -80c19 -36 34 -78 35 -90h4c1 10 18 55 36 90l37 73c16 31 33 72 42 89h188zM520 585l-65 -82
l-127 68l-127 -68l-65 82l192 125z" />
    <glyph glyph-name="Ydieresis" unicode="&#x178;" horiz-adv-x="720" 
d="M271 0c0 19 1 85 1 120v218l-171 237c-21 29 -80 109 -91 125h227c16 -26 32 -51 50 -77l41 -60c18 -25 33 -58 35 -69h4c0 5 14 39 34 69l40 61c17 25 33 51 51 76h218c-27 -40 -58 -84 -86 -123l-166 -235v-222c0 -35 1 -101 1 -120h-188zM235 960c52 0 95 -43 95 -95
s-43 -95 -95 -95s-95 43 -95 95s43 95 95 95zM485 960c52 0 95 -43 95 -95s-43 -95 -95 -95s-95 43 -95 95s43 95 95 95z" />
    <glyph glyph-name="Zacute" unicode="&#x179;" horiz-adv-x="668" 
d="M411 156h77c35 0 101 1 120 1v-158c-19 0 -85 1 -120 1h-474l277 463c32 53 55 81 63 85l-2 4c-9 -4 -36 -6 -107 -6h-63c-35 0 -101 -1 -120 -1v156c19 0 85 -1 120 -1h456l-272 -461c-23 -39 -55 -81 -64 -85l2 -4c11 5 56 6 107 6zM336 958l114 -76l-162 -150l-88 58z
" />
    <glyph glyph-name="zacute" unicode="&#x17a;" horiz-adv-x="524" 
d="M341 134h35c35 0 101 1 120 1v-136c-19 0 -85 1 -120 1h-356l178 289c20 33 35 47 42 53l-3 4c-7 -5 -34 -10 -65 -10h-10c-35 0 -101 -1 -120 -1v136c19 0 85 -1 120 -1h328l-175 -288c-21 -34 -43 -48 -49 -53l3 -4c7 6 44 9 72 9zM306 776l114 -76l-162 -150l-88 58z
" />
    <glyph glyph-name="Zdotaccent" unicode="&#x17b;" horiz-adv-x="668" 
d="M411 156h77c35 0 101 1 120 1v-158c-19 0 -85 1 -120 1h-474l277 463c32 53 55 81 63 85l-2 4c-9 -4 -36 -6 -107 -6h-63c-35 0 -101 -1 -120 -1v156c19 0 85 -1 120 -1h456l-272 -461c-23 -39 -55 -81 -64 -85l2 -4c11 5 56 6 107 6zM331 950c52 0 95 -43 95 -95
s-43 -95 -95 -95s-95 43 -95 95s43 95 95 95z" />
    <glyph glyph-name="zdotaccent" unicode="&#x17c;" horiz-adv-x="524" 
d="M341 134h35c35 0 101 1 120 1v-136c-19 0 -85 1 -120 1h-356l178 289c20 33 35 47 42 53l-3 4c-7 -5 -34 -10 -65 -10h-10c-35 0 -101 -1 -120 -1v136c19 0 85 -1 120 -1h328l-175 -288c-21 -34 -43 -48 -49 -53l3 -4c7 6 44 9 72 9zM262 705c52 0 95 -43 95 -95
s-43 -95 -95 -95s-95 43 -95 95s43 95 95 95z" />
    <glyph glyph-name="Zcaron" unicode="&#x17d;" horiz-adv-x="668" 
d="M411 156h77c35 0 101 1 120 1v-158c-19 0 -85 1 -120 1h-474l277 463c32 53 55 81 63 85l-2 4c-9 -4 -36 -6 -107 -6h-63c-35 0 -101 -1 -120 -1v156c19 0 85 -1 120 -1h456l-272 -461c-23 -39 -55 -81 -64 -85l2 -4c11 5 56 6 107 6zM461 976l65 -82l-192 -125l-192 125
l65 82l127 -68z" />
    <glyph glyph-name="zcaron" unicode="&#x17e;" horiz-adv-x="524" 
d="M341 134h35c35 0 101 1 120 1v-136c-19 0 -85 1 -120 1h-356l178 289c20 33 35 47 42 53l-3 4c-7 -5 -34 -10 -65 -10h-10c-35 0 -101 -1 -120 -1v136c19 0 85 -1 120 -1h328l-175 -288c-21 -34 -43 -48 -49 -53l3 -4c7 6 44 9 72 9zM376 711l65 -82l-192 -125l-192 125
l65 82l127 -68z" />
    <glyph glyph-name="longs" unicode="&#x17f;" horiz-adv-x="330" 
d="M345 710v-138c-9 2 -20 4 -30 4c-50 0 -75 -30 -75 -86v-590c0 -35 1 -101 1 -120h-177c0 19 1 85 1 120v550c0 80 11 138 38 181c38 60 103 89 170 89c31 0 58 -4 72 -10z" />
    <glyph glyph-name="uni018E" unicode="&#x18e;" horiz-adv-x="518" 
d="M430 700v-700h-275c-35 0 -101 -1 -120 -1v166c19 0 85 -1 120 -1h98v104h-44c-35 0 -101 -1 -120 -1v166c19 0 85 -1 120 -1h44v104h-82c-35 0 -101 -1 -120 -1v166c19 0 85 -1 120 -1h259z" />
    <glyph glyph-name="Schwa" unicode="&#x18f;" horiz-adv-x="836" 
d="M406 552c-54 0 -108 -19 -154 -88l-132 122c61 81 160 134 286 134c220 0 380 -166 380 -370s-150 -370 -380 -370s-356 158 -356 336c0 15 1 45 2 56h541c-10 100 -83 180 -187 180zM564 226h-299c-17 0 -28 4 -31 6l-3 -4c3 -2 5 -14 17 -29c25 -30 61 -63 158 -63
c70 0 126 33 158 90z" />
    <glyph glyph-name="uni0191" unicode="&#x191;" horiz-adv-x="524" 
d="M-148 -132l117 123c7 -29 26 -69 63 -69c24 0 43 25 43 56v722h275c35 0 101 1 120 1v-166c-19 0 -85 1 -120 1h-83v-104h48c35 0 101 1 120 1v-166c-19 0 -85 1 -120 1h-48v-290c0 -106 -80 -218 -227 -218c-95 0 -154 46 -188 108z" />
    <glyph glyph-name="florin" unicode="&#x192;" horiz-adv-x="380" 
d="M345 710v-138c-10 2 -19 3 -28 3c-52 0 -77 -29 -77 -95v-10c36 0 85 1 102 1v-127c-17 0 -66 1 -102 1v-315c0 -80 -11 -138 -38 -181c-38 -60 -103 -89 -170 -89c-31 0 -58 4 -72 10v138c10 -2 19 -3 28 -3c52 0 77 29 77 95v450c0 80 11 138 38 181
c38 60 103 89 170 89c31 0 58 -4 72 -10z" />
    <glyph glyph-name="uni01B5" unicode="&#x1b5;" horiz-adv-x="668" 
d="M80 419c9 0 43 -1 60 -1h124l27 45c32 53 55 81 63 85l-2 4c-9 -4 -36 -6 -107 -6h-63c-35 0 -101 -1 -120 -1v156c19 0 85 -1 120 -1h456l-167 -282h44c17 0 51 1 60 1v-142c-9 0 -43 1 -60 1h-126l-23 -39c-23 -39 -55 -81 -64 -85l2 -4c11 5 56 6 107 6h77
c35 0 101 1 120 1v-158c-19 0 -85 1 -120 1h-474l166 278h-40c-17 0 -51 -1 -60 -1v142z" />
    <glyph glyph-name="uni01B6" unicode="&#x1b6;" horiz-adv-x="524" 
d="M62 296c9 0 43 -1 60 -1h79c18 29 32 41 39 47l-3 4c-7 -5 -34 -10 -65 -10h-10c-35 0 -101 -1 -120 -1v136c19 0 85 -1 120 -1h328l-107 -175h13c17 0 51 1 60 1v-102c-9 0 -43 1 -60 1h-73l-8 -13c-21 -34 -43 -48 -49 -53l3 -4c7 6 44 9 72 9h35c35 0 101 1 120 1
v-136c-19 0 -85 1 -120 1h-356l120 195h-18c-17 0 -51 -1 -60 -1v102z" />
    <glyph glyph-name="Acaron" unicode="&#x1cd;" 
d="M377 724h20l300 -615c15 -31 44 -88 55 -109h-199c-9 21 -24 52 -32 70l-6 14h-255l-6 -14c-7 -16 -22 -48 -31 -70h-205c8 17 40 78 55 109zM355 226h63c19 0 32 -3 35 -5l2 4c-2 1 -7 5 -16 25l-24 51c-20 43 -27 71 -27 76h-4c0 -5 -7 -33 -26 -76l-23 -51
c-7 -16 -15 -24 -17 -25l2 -4c2 2 17 5 35 5zM498 976l65 -82l-192 -125l-192 125l65 82l127 -68z" />
    <glyph glyph-name="acaron" unicode="&#x1ce;" horiz-adv-x="595" 
d="M425 711l65 -82l-192 -125l-192 125l65 82l127 -68zM287 494c97 0 192 -28 228 -101c12 -25 15 -58 15 -95v-252c-33 -23 -117 -70 -244 -70c-184 0 -244 87 -244 178c0 92 68 162 200 162c61 0 107 -21 123 -45l4 2c-3 9 -6 27 -7 38c-4 48 -45 73 -95 73
c-60 0 -107 -21 -130 -34l-49 100c38 19 93 44 199 44zM282 220c-44 0 -70 -27 -70 -62c0 -40 28 -72 78 -72c41 0 65 20 74 28v60c-11 20 -41 46 -82 46z" />
    <glyph glyph-name="uni01CF" unicode="&#x1cf;" horiz-adv-x="352" 
d="M79 700h194c0 -19 -1 -85 -1 -120v-460c0 -35 1 -101 1 -120h-194c0 19 1 85 1 120v460c0 35 -1 101 -1 120zM289 976l65 -82l-192 -125l-192 125l65 82l127 -68z" />
    <glyph glyph-name="uni01D0" unicode="&#x1d0;" horiz-adv-x="315" 
d="M246 470c0 -19 -1 -85 -1 -120v-230c0 -35 1 -101 1 -120h-177c0 19 1 85 1 120v230c0 35 -1 101 -1 120h177zM270 711l65 -82l-192 -125l-192 125l65 82l127 -68z" />
    <glyph glyph-name="uni01D1" unicode="&#x1d1;" horiz-adv-x="872" 
d="M436 720c219 0 386 -166 386 -370s-167 -370 -386 -370s-386 166 -386 370s167 370 386 370zM436 542c-108 0 -194 -86 -194 -192s86 -192 194 -192s194 86 194 192s-86 192 -194 192zM549 956l65 -82l-192 -125l-192 125l65 82l127 -68z" />
    <glyph glyph-name="uni01D2" unicode="&#x1d2;" horiz-adv-x="652" 
d="M326 490c168 0 286 -114 286 -255s-118 -255 -286 -255s-286 114 -286 255s118 255 286 255zM326 350c-64 0 -111 -52 -111 -115s47 -115 111 -115s111 52 111 115s-47 115 -111 115zM439 711l65 -82l-192 -125l-192 125l65 82l127 -68z" />
    <glyph glyph-name="uni01D3" unicode="&#x1d3;" horiz-adv-x="774" 
d="M269 700c0 -19 -1 -85 -1 -120v-330c0 -34 15 -65 38 -83c23 -17 55 -25 94 -25c46 0 85 16 105 30v408c0 35 -1 101 -1 120h194c0 -19 -1 -85 -1 -120v-516c-40 -29 -120 -84 -297 -84c-108 0 -178 16 -231 53c-60 42 -93 109 -93 217v330c0 35 -1 101 -1 120h194z
M500 976l65 -82l-192 -125l-192 125l65 82l127 -68z" />
    <glyph glyph-name="uni01D4" unicode="&#x1d4;" horiz-adv-x="638" 
d="M574 470c0 -19 -1 -85 -1 -120v-310c-30 -20 -125 -60 -248 -60c-133 0 -258 39 -258 200v170c0 35 -1 101 -1 120h177c0 -19 -1 -85 -1 -120v-145c0 -47 26 -85 89 -85c32 0 56 10 67 16v214c0 35 -1 101 -1 120h177zM432 711l65 -82l-192 -125l-192 125l65 82l127 -68z
" />
    <glyph glyph-name="uni01DD" unicode="&#x1dd;" horiz-adv-x="610" 
d="M52 264h342c-3 64 -33 102 -90 102s-81 -39 -90 -63l-144 81c28 50 97 106 224 106c178 0 268 -118 268 -250c0 -157 -109 -260 -254 -260c-163 0 -258 114 -258 254c0 16 1 25 2 30zM304 92c39 0 77 24 83 74h-169c-1 -31 26 -74 86 -74z" />
    <glyph glyph-name="uni01E2" unicode="&#x1e2;" horiz-adv-x="909" 
d="M470 0v84h-194l-5 -8c-27 -42 -48 -76 -48 -76h-213s60 86 87 127l372 573h256c35 0 101 1 120 1v-166c-19 0 -85 1 -120 1h-78v-104h40c35 0 101 1 120 1v-166c-19 0 -85 1 -120 1h-40v-104h94c35 0 101 1 120 1v-166c-19 0 -85 1 -120 1h-271zM362 220c2 2 17 6 35 6
h73v91c0 35 0 62 8 80l-5 2c-6 -18 -7 -22 -32 -61l-57 -88c-8 -12 -21 -24 -24 -26zM379 896c9 0 43 -1 60 -1h150c17 0 51 1 60 1v-122c-9 0 -43 1 -60 1h-150c-17 0 -51 -1 -60 -1v122z" />
    <glyph glyph-name="uni01E3" unicode="&#x1e3;" horiz-adv-x="924" 
d="M872 206h-342c3 -64 33 -102 90 -102s81 39 90 63l144 -81c-28 -50 -97 -106 -224 -106c-72 0 -129 19 -172 50c-30 -21 -93 -50 -172 -50c-174 0 -241 84 -241 174c0 91 67 162 199 162c58 0 106 -21 122 -47l4 2c-3 9 -6 29 -7 40c-4 48 -44 71 -94 71
c-59 0 -103 -20 -126 -33l-49 100c38 19 85 41 193 41c67 0 134 -12 180 -45c41 29 92 45 149 45c163 0 258 -114 258 -254c0 -16 -1 -25 -2 -30zM292 90c40 0 63 17 72 25v59c-11 20 -41 48 -82 48c-44 0 -67 -29 -67 -64c0 -38 30 -68 77 -68zM620 378
c-39 0 -77 -24 -83 -74h169c1 31 -26 74 -86 74zM327 651c9 0 43 -1 60 -1h150c17 0 51 1 60 1v-122c-9 0 -43 1 -60 1h-150c-17 0 -51 -1 -60 -1v122z" />
    <glyph glyph-name="Gcaron" unicode="&#x1e6;" horiz-adv-x="836" 
d="M566 216h-8c-35 0 -100 -1 -119 -1v158c19 0 85 -1 120 -1h225c1 -11 2 -41 2 -56c0 -178 -126 -336 -356 -336s-380 166 -380 370s160 370 380 370c126 0 225 -53 286 -134l-132 -122c-46 69 -100 88 -154 88c-112 0 -188 -91 -188 -202c0 -128 76 -214 188 -214
c86 0 121 24 150 53c13 13 17 27 20 29l-3 4c-3 -2 -14 -6 -31 -6zM541 976l65 -82l-192 -125l-192 125l65 82l127 -68z" />
    <glyph glyph-name="gcaron" unicode="&#x1e7;" horiz-adv-x="669" 
d="M604 396v-416c0 -147 -118 -220 -273 -220c-123 0 -203 31 -253 69l91 116c33 -30 63 -53 139 -53c94 0 121 66 121 92c0 19 2 39 5 46l-4 2c-24 -27 -82 -52 -144 -52c-132 0 -239 90 -239 248c0 151 109 262 296 262c134 0 225 -58 261 -94zM429 180v125
c-18 19 -51 39 -93 39c-64 0 -109 -46 -109 -108c0 -61 42 -110 104 -110c48 0 80 24 98 54zM447 711l65 -82l-192 -125l-192 125l65 82l127 -68z" />
    <glyph glyph-name="uni01E8" unicode="&#x1e8;" horiz-adv-x="749" 
d="M485 700h234c-32 -40 -66 -78 -100 -118l-182 -219l199 -237l105 -126h-247c-12 14 -30 40 -51 68l-136 177c-20 26 -40 63 -41 65l-4 -2c1 -6 7 -40 5 -80v-108c0 -35 1 -101 1 -120h-194c0 19 1 85 1 120v460c0 35 -1 101 -1 120h194c0 -19 -1 -85 -1 -120v-101
c0 -34 -1 -70 -5 -77l4 -2c1 1 12 23 41 62l132 181c20 28 33 44 46 57zM475 976l65 -82l-192 -125l-192 125l65 82l127 -68z" />
    <glyph glyph-name="uni01E9" unicode="&#x1e9;" horiz-adv-x="670" 
d="M64 770h177c0 -19 -1 -85 -1 -120v-354l116 116c20 20 37 39 55 58h228c-40 -38 -88 -85 -114 -109l-118 -113l128 -128c37 -37 85 -82 122 -120h-240c-18 21 -40 45 -59 66l-118 124v-70c0 -35 1 -101 1 -120h-177c0 19 1 85 1 120v530c0 35 -1 101 -1 120zM448 976
l65 -82l-192 -125l-192 125l65 82l127 -68z" />
    <glyph glyph-name="uni01EA" unicode="&#x1ea;" horiz-adv-x="872" 
d="M436 720c219 0 386 -166 386 -370c0 -136 -74 -254 -187 -319c-24 -20 -63 -56 -63 -100c0 -35 24 -51 54 -51c27 0 51 12 63 20l49 -102c-22 -15 -68 -38 -132 -38c-104 0 -160 62 -160 138c0 31 9 59 22 83c-11 -1 -21 -1 -32 -1c-219 0 -386 166 -386 370
s167 370 386 370zM436 542c-108 0 -194 -86 -194 -192s86 -192 194 -192s194 86 194 192s-86 192 -194 192z" />
    <glyph glyph-name="uni01EB" unicode="&#x1eb;" horiz-adv-x="652" 
d="M326 490c168 0 286 -114 286 -255c0 -83 -40 -156 -107 -202c-24 -20 -65 -57 -65 -102c0 -35 24 -51 54 -51c27 0 51 12 63 20l49 -102c-22 -15 -68 -38 -132 -38c-104 0 -160 62 -160 138c0 31 9 59 21 82h-9c-168 0 -286 114 -286 255s118 255 286 255zM326 350
c-64 0 -111 -52 -111 -115s47 -115 111 -115s111 52 111 115s-47 115 -111 115z" />
    <glyph glyph-name="uni01EC" unicode="&#x1ec;" horiz-adv-x="872" 
d="M301 896c9 0 43 -1 60 -1h150c17 0 51 1 60 1v-122c-9 0 -43 1 -60 1h-150c-17 0 -51 -1 -60 -1v122zM436 720c219 0 386 -166 386 -370c0 -136 -74 -254 -187 -319c-24 -20 -63 -56 -63 -100c0 -35 24 -51 54 -51c27 0 51 12 63 20l49 -102c-22 -15 -68 -38 -132 -38
c-104 0 -160 62 -160 138c0 31 9 59 22 83c-11 -1 -21 -1 -32 -1c-219 0 -386 166 -386 370s167 370 386 370zM436 542c-108 0 -194 -86 -194 -192s86 -192 194 -192s194 86 194 192s-86 192 -194 192z" />
    <glyph glyph-name="uni01ED" unicode="&#x1ed;" horiz-adv-x="652" 
d="M191 651c9 0 43 -1 60 -1h150c17 0 51 1 60 1v-122c-9 0 -43 1 -60 1h-150c-17 0 -51 -1 -60 -1v122zM326 490c168 0 286 -114 286 -255c0 -83 -40 -156 -107 -202c-24 -20 -65 -57 -65 -102c0 -35 24 -51 54 -51c27 0 51 12 63 20l49 -102c-22 -15 -68 -38 -132 -38
c-104 0 -160 62 -160 138c0 31 9 59 21 82h-9c-168 0 -286 114 -286 255s118 255 286 255zM326 350c-64 0 -111 -52 -111 -115s47 -115 111 -115s111 52 111 115s-47 115 -111 115z" />
    <glyph glyph-name="uni01F0" unicode="&#x1f0;" horiz-adv-x="315" 
d="M-35 -230v138c10 -2 19 -3 28 -3c52 0 77 29 77 95v350c0 35 -1 101 -1 120h177c0 -19 -1 -85 -1 -120v-320c0 -80 -11 -138 -38 -181c-38 -60 -103 -89 -170 -89c-31 0 -58 4 -72 10zM270 711l65 -82l-192 -125l-192 125l65 82l127 -68z" />
    <glyph glyph-name="Gacute" unicode="&#x1f4;" horiz-adv-x="836" 
d="M566 216h-8c-35 0 -100 -1 -119 -1v158c19 0 85 -1 120 -1h225c1 -11 2 -41 2 -56c0 -178 -126 -336 -356 -336s-380 166 -380 370s160 370 380 370c126 0 225 -53 286 -134l-132 -122c-46 69 -100 88 -154 88c-112 0 -188 -91 -188 -202c0 -128 76 -214 188 -214
c86 0 121 24 150 53c13 13 17 27 20 29l-3 4c-3 -2 -14 -6 -31 -6zM476 958l114 -76l-162 -150l-88 58z" />
    <glyph glyph-name="gacute" unicode="&#x1f5;" horiz-adv-x="669" 
d="M604 396v-416c0 -147 -118 -220 -273 -220c-123 0 -203 31 -253 69l91 116c33 -30 63 -53 139 -53c94 0 121 66 121 92c0 19 2 39 5 46l-4 2c-24 -27 -82 -52 -144 -52c-132 0 -239 90 -239 248c0 151 109 262 296 262c134 0 225 -58 261 -94zM429 180v125
c-18 19 -51 39 -93 39c-64 0 -109 -46 -109 -108c0 -61 42 -110 104 -110c48 0 80 24 98 54zM396 776l114 -76l-162 -150l-88 58z" />
    <glyph glyph-name="uni01F8" unicode="&#x1f8;" horiz-adv-x="803" 
d="M75 718h18l390 -310c32 -26 36 -31 56 -59l4 1c-2 10 -7 36 -7 74v156c0 35 -1 101 -1 120h194c0 -19 -1 -85 -1 -120v-598h-18l-390 321c-32 26 -36 31 -56 59l-4 -1c2 -10 7 -36 7 -74v-167c0 -35 1 -101 1 -120h-194c0 19 1 85 1 120v598zM206 882l114 76l136 -168
l-88 -58z" />
    <glyph glyph-name="uni01F9" unicode="&#x1f9;" horiz-adv-x="625" 
d="M233 413l4 -2c14 35 62 79 144 79c96 0 182 -53 182 -186v-184c0 -35 1 -101 1 -120h-177c0 19 1 85 1 120v140c0 59 -28 90 -71 90c-38 0 -77 -23 -77 -84v-146c0 -35 1 -101 1 -120h-177c0 19 1 85 1 120v230c0 35 -1 101 -1 120h174c-1 -23 -3 -51 -5 -57zM97 700
l114 76l136 -168l-88 -58z" />
    <glyph glyph-name="AEacute" unicode="&#x1fc;" horiz-adv-x="909" 
d="M470 0v84h-194l-5 -8c-27 -42 -48 -76 -48 -76h-213s60 86 87 127l372 573h256c35 0 101 1 120 1v-166c-19 0 -85 1 -120 1h-78v-104h40c35 0 101 1 120 1v-166c-19 0 -85 1 -120 1h-40v-104h94c35 0 101 1 120 1v-166c-19 0 -85 1 -120 1h-271zM362 220c2 2 17 6 35 6
h73v91c0 35 0 62 8 80l-5 2c-6 -18 -7 -22 -32 -61l-57 -88c-8 -12 -21 -24 -24 -26zM614 958l114 -76l-162 -150l-88 58z" />
    <glyph glyph-name="aeacute" unicode="&#x1fd;" horiz-adv-x="924" 
d="M872 206h-342c3 -64 33 -102 90 -102s81 39 90 63l144 -81c-28 -50 -97 -106 -224 -106c-72 0 -129 19 -172 50c-30 -21 -93 -50 -172 -50c-174 0 -241 84 -241 174c0 91 67 162 199 162c58 0 106 -21 122 -47l4 2c-3 9 -6 29 -7 40c-4 48 -44 71 -94 71
c-59 0 -103 -20 -126 -33l-49 100c38 19 85 41 193 41c67 0 134 -12 180 -45c41 29 92 45 149 45c163 0 258 -114 258 -254c0 -16 -1 -25 -2 -30zM292 90c40 0 63 17 72 25v59c-11 20 -41 48 -82 48c-44 0 -67 -29 -67 -64c0 -38 30 -68 77 -68zM620 378
c-39 0 -77 -24 -83 -74h169c1 31 -26 74 -86 74zM512 776l114 -76l-162 -150l-88 58z" />
    <glyph glyph-name="Oslashacute" unicode="&#x1fe;" horiz-adv-x="872" 
d="M436 720c81 0 155 -23 216 -62l56 57l93 -93l-53 -52c47 -62 74 -138 74 -220c0 -204 -167 -370 -386 -370c-81 0 -155 23 -216 62c-23 -23 -47 -47 -56 -57l-93 93l53 52c-47 61 -74 137 -74 220c0 204 167 370 386 370zM436 542c-108 0 -194 -86 -194 -192
c0 -30 7 -58 19 -83l257 257c-25 12 -53 18 -82 18zM611 433l-258 -258c25 -11 53 -17 83 -17c108 0 194 86 194 192c0 30 -7 58 -19 83zM538 958l114 -76l-162 -150l-88 58z" />
    <glyph glyph-name="oslashacute" unicode="&#x1ff;" horiz-adv-x="652" 
d="M326 490c20 0 39 -2 57 -5c19 30 43 68 52 81l148 -97l-42 -63c45 -45 71 -105 71 -171c0 -141 -118 -255 -286 -255c-20 0 -40 2 -58 5c-19 -30 -43 -68 -52 -81l-148 97c6 10 25 37 42 63c-45 45 -70 105 -70 171c0 141 118 255 286 255zM326 350
c-64 0 -111 -52 -111 -115s47 -115 111 -115s111 52 111 115s-47 115 -111 115zM348 766l114 -76l-162 -150l-88 58z" />
    <glyph glyph-name="uni0202" unicode="&#x202;" 
d="M377 724h20l300 -615c15 -31 44 -88 55 -109h-199c-9 21 -24 52 -32 70l-6 14h-255l-6 -14c-7 -16 -22 -48 -31 -70h-205c8 17 40 78 55 109zM355 226h63c19 0 32 -3 35 -5l2 4c-2 1 -7 5 -16 25l-24 51c-20 43 -27 71 -27 76h-4c0 -5 -7 -33 -26 -76l-23 -51
c-7 -16 -15 -24 -17 -25l2 -4c2 2 17 5 35 5zM291 755l-98 39c23 89 98 142 192 142s169 -53 192 -142l-98 -39c-12 39 -47 61 -94 61s-82 -20 -94 -61z" />
    <glyph glyph-name="uni0203" unicode="&#x203;" horiz-adv-x="595" 
d="M203 510l-98 39c23 89 98 142 192 142s169 -53 192 -142l-98 -39c-12 39 -47 61 -94 61s-82 -20 -94 -61zM287 494c97 0 192 -28 228 -101c12 -25 15 -58 15 -95v-252c-33 -23 -117 -70 -244 -70c-184 0 -244 87 -244 178c0 92 68 162 200 162c61 0 107 -21 123 -45l4 2
c-3 9 -6 27 -7 38c-4 48 -45 73 -95 73c-60 0 -107 -21 -130 -34l-49 100c38 19 93 44 199 44zM282 220c-44 0 -70 -27 -70 -62c0 -40 28 -72 78 -72c41 0 65 20 74 28v60c-11 20 -41 46 -82 46z" />
    <glyph glyph-name="uni0206" unicode="&#x206;" horiz-adv-x="518" 
d="M75 0v700h259c35 0 101 1 120 1v-166c-19 0 -85 1 -120 1h-82v-104h44c35 0 101 1 120 1v-166c-19 0 -85 1 -120 1h-44v-104h98c35 0 101 1 120 1v-166c-19 0 -85 1 -120 1h-275zM168 755l-98 39c23 89 98 142 192 142s169 -53 192 -142l-98 -39c-12 39 -47 61 -94 61
s-82 -20 -94 -61z" />
    <glyph glyph-name="uni0207" unicode="&#x207;" horiz-adv-x="610" 
d="M558 206h-342c3 -64 33 -102 90 -102s81 39 90 63l144 -81c-28 -50 -97 -106 -224 -106c-178 0 -268 118 -268 250c0 157 109 260 254 260c163 0 258 -114 258 -254c0 -16 -1 -25 -2 -30zM306 378c-39 0 -77 -24 -83 -74h169c1 31 -26 74 -86 74zM210 510l-98 39
c23 89 98 142 192 142s169 -53 192 -142l-98 -39c-12 39 -47 61 -94 61s-82 -20 -94 -61z" />
    <glyph glyph-name="uni020A" unicode="&#x20a;" horiz-adv-x="352" 
d="M79 700h194c0 -19 -1 -85 -1 -120v-460c0 -35 1 -101 1 -120h-194c0 19 1 85 1 120v460c0 35 -1 101 -1 120zM82 755l-98 39c23 89 98 142 192 142s169 -53 192 -142l-98 -39c-12 39 -47 61 -94 61s-82 -20 -94 -61z" />
    <glyph glyph-name="uni020B" unicode="&#x20b;" horiz-adv-x="315" 
d="M246 470c0 -19 -1 -85 -1 -120v-230c0 -35 1 -101 1 -120h-177c0 19 1 85 1 120v230c0 35 -1 101 -1 120h177zM63 510l-98 39c23 89 98 142 192 142s169 -53 192 -142l-98 -39c-12 39 -47 61 -94 61s-82 -20 -94 -61z" />
    <glyph glyph-name="uni020E" unicode="&#x20e;" horiz-adv-x="872" 
d="M436 720c219 0 386 -166 386 -370s-167 -370 -386 -370s-386 166 -386 370s167 370 386 370zM436 542c-108 0 -194 -86 -194 -192s86 -192 194 -192s194 86 194 192s-86 192 -194 192zM342 755l-98 39c23 89 98 142 192 142s169 -53 192 -142l-98 -39
c-12 39 -47 61 -94 61s-82 -20 -94 -61z" />
    <glyph glyph-name="uni020F" unicode="&#x20f;" horiz-adv-x="652" 
d="M326 490c168 0 286 -114 286 -255s-118 -255 -286 -255s-286 114 -286 255s118 255 286 255zM326 350c-64 0 -111 -52 -111 -115s47 -115 111 -115s111 52 111 115s-47 115 -111 115zM232 510l-98 39c23 89 98 142 192 142s169 -53 192 -142l-98 -39
c-12 39 -47 61 -94 61s-82 -20 -94 -61z" />
    <glyph glyph-name="uni0212" unicode="&#x212;" horiz-adv-x="638" 
d="M204 755l-98 39c23 89 98 142 192 142s169 -53 192 -142l-98 -39c-12 39 -47 61 -94 61s-82 -20 -94 -61zM614 0h-201c-11 31 -22 59 -34 89l-67 171h-45v-140c0 -35 1 -101 1 -120h-194c0 19 1 85 1 120v580h301c137 0 226 -97 226 -232c0 -92 -40 -154 -104 -185
l72 -174c17 -42 44 -109 44 -109zM331 546h-64v-152h60c45 0 80 33 80 74c0 43 -32 78 -76 78z" />
    <glyph glyph-name="uni0213" unicode="&#x213;" horiz-adv-x="440" 
d="M131 510l-98 39c23 89 98 142 192 142s169 -53 192 -142l-98 -39c-12 39 -47 61 -94 61s-82 -20 -94 -61zM418 468v-157c-16 7 -38 13 -62 13c-73 0 -116 -45 -116 -108v-96c0 -35 1 -101 1 -120h-177c0 19 1 85 1 120v230c0 35 -1 101 -1 120h174c0 -20 0 -55 -3 -68
l5 -2c19 44 74 74 135 74c20 0 35 -2 43 -6z" />
    <glyph glyph-name="uni0216" unicode="&#x216;" horiz-adv-x="771" 
d="M268 700c0 -19 -1 -85 -1 -120v-330c0 -34 15 -65 38 -83c23 -17 55 -25 94 -25c46 0 85 16 105 30v408c0 35 -1 101 -1 120h194c0 -19 -1 -85 -1 -120v-516c-40 -29 -120 -84 -297 -84c-108 0 -178 16 -231 53c-60 42 -93 109 -93 217v330c0 35 -1 101 -1 120h194z
M291 755l-98 39c23 89 98 142 192 142s169 -53 192 -142l-98 -39c-12 39 -47 61 -94 61s-82 -20 -94 -61z" />
    <glyph glyph-name="uni0217" unicode="&#x217;" horiz-adv-x="636" 
d="M572 470c0 -19 -1 -85 -1 -120v-310c-30 -20 -125 -60 -248 -60c-133 0 -258 39 -258 200v170c0 35 -1 101 -1 120h177c0 -19 -1 -85 -1 -120v-145c0 -47 26 -85 89 -85c32 0 56 10 67 16v214c0 35 -1 101 -1 120h177zM223 510l-98 39c23 89 98 142 192 142
s169 -53 192 -142l-98 -39c-12 39 -47 61 -94 61s-82 -20 -94 -61z" />
    <glyph glyph-name="Scommaaccent" unicode="&#x218;" horiz-adv-x="577" 
d="M528 607l-112 -104c-29 39 -65 73 -112 73c-26 0 -45 -18 -45 -38c0 -48 63 -77 110 -109c90 -62 176 -115 176 -233c0 -129 -104 -216 -250 -216c-125 0 -216 64 -267 150l145 85c26 -50 69 -89 124 -89c38 0 64 24 64 54c0 44 -51 74 -111 113
c-78 51 -171 114 -171 223s99 204 221 204c114 0 190 -69 228 -113zM279 -32l-107 -128l66 -52l122 114z" />
    <glyph glyph-name="scommaaccent" unicode="&#x219;" horiz-adv-x="468" 
d="M245 -32l-107 -128l66 -52l122 114zM440 428l-93 -103c-15 25 -51 61 -95 61c-33 0 -44 -17 -44 -30c0 -35 50 -45 103 -70c66 -31 139 -73 139 -156c0 -90 -67 -158 -208 -158c-119 0 -189 35 -236 81l119 107c18 -27 60 -74 115 -74c31 0 46 15 46 34
c0 29 -41 43 -90 66c-69 33 -150 71 -150 162c0 81 67 150 198 150c81 0 157 -30 196 -70z" />
    <glyph glyph-name="uni021E" unicode="&#x21e;" horiz-adv-x="792" 
d="M717 580v-460c0 -35 1 -101 1 -120h-194c0 19 1 85 1 120v160h-258v-160c0 -35 1 -101 1 -120h-194c0 19 1 85 1 120v460c0 35 -1 101 -1 120h194c0 -19 -1 -85 -1 -120v-150h258v150c0 35 -1 101 -1 120h194c0 -19 -1 -85 -1 -120zM523 956l65 -82l-192 -125l-192 125
l65 82l127 -68z" />
    <glyph glyph-name="uni021F" unicode="&#x21f;" horiz-adv-x="631" 
d="M241 770c0 -19 -1 -85 -1 -120v-142c0 -35 -11 -81 -13 -87l4 -2c22 35 81 71 155 71c99 0 181 -53 181 -186v-184c0 -35 1 -101 1 -120h-177c0 19 1 85 1 120v140c0 60 -29 88 -74 88c-39 0 -78 -21 -78 -91v-137c0 -35 1 -101 1 -120h-177c0 19 1 85 1 120v530
c0 35 -1 101 -1 120h177zM428 976l65 -82l-192 -125l-192 125l65 82l127 -68z" />
    <glyph glyph-name="uni0226" unicode="&#x226;" 
d="M377 724h20l300 -615c15 -31 44 -88 55 -109h-199c-9 21 -24 52 -32 70l-6 14h-255l-6 -14c-7 -16 -22 -48 -31 -70h-205c8 17 40 78 55 109zM355 226h63c19 0 32 -3 35 -5l2 4c-2 1 -7 5 -16 25l-24 51c-20 43 -27 71 -27 76h-4c0 -5 -7 -33 -26 -76l-23 -51
c-7 -16 -15 -24 -17 -25l2 -4c2 2 17 5 35 5zM385 950c52 0 95 -43 95 -95s-43 -95 -95 -95s-95 43 -95 95s43 95 95 95z" />
    <glyph glyph-name="uni0227" unicode="&#x227;" horiz-adv-x="595" 
d="M296 705c52 0 95 -43 95 -95s-43 -95 -95 -95s-95 43 -95 95s43 95 95 95zM287 494c97 0 192 -28 228 -101c12 -25 15 -58 15 -95v-252c-33 -23 -117 -70 -244 -70c-184 0 -244 87 -244 178c0 92 68 162 200 162c61 0 107 -21 123 -45l4 2c-3 9 -6 27 -7 38
c-4 48 -45 73 -95 73c-60 0 -107 -21 -130 -34l-49 100c38 19 93 44 199 44zM282 220c-44 0 -70 -27 -70 -62c0 -40 28 -72 78 -72c41 0 65 20 74 28v60c-11 20 -41 46 -82 46z" />
    <glyph glyph-name="uni0228" unicode="&#x228;" horiz-adv-x="518" 
d="M75 0v700h259c35 0 101 1 120 1v-166c-19 0 -85 1 -120 1h-82v-104h44c35 0 101 1 120 1v-166c-19 0 -85 1 -120 1h-44v-104h98c35 0 101 1 120 1v-166c-19 0 -85 1 -120 1h-275zM287 -32l-107 -128l66 -52l122 114z" />
    <glyph glyph-name="uni0229" unicode="&#x229;" horiz-adv-x="610" 
d="M558 206h-342c3 -64 33 -102 90 -102s81 39 90 63l144 -81c-28 -50 -97 -106 -224 -106c-178 0 -268 118 -268 250c0 157 109 260 254 260c163 0 258 -114 258 -254c0 -16 -1 -25 -2 -30zM306 378c-39 0 -77 -24 -83 -74h169c1 31 -26 74 -86 74zM329 -32l-107 -128
l66 -52l122 114z" />
    <glyph glyph-name="uni022E" unicode="&#x22e;" horiz-adv-x="872" 
d="M434 720c219 0 386 -166 386 -370s-167 -370 -386 -370s-386 166 -386 370s167 370 386 370zM434 542c-108 0 -194 -86 -194 -192s86 -192 194 -192s194 86 194 192s-86 192 -194 192zM436 940c52 0 95 -43 95 -95s-43 -95 -95 -95s-95 43 -95 95s43 95 95 95z" />
    <glyph glyph-name="uni022F" unicode="&#x22f;" horiz-adv-x="652" 
d="M326 490c168 0 286 -114 286 -255s-118 -255 -286 -255s-286 114 -286 255s118 255 286 255zM326 350c-64 0 -111 -52 -111 -115s47 -115 111 -115s111 52 111 115s-47 115 -111 115zM326 705c52 0 95 -43 95 -95s-43 -95 -95 -95s-95 43 -95 95s43 95 95 95z" />
    <glyph glyph-name="uni0232" unicode="&#x232;" horiz-adv-x="720" 
d="M271 0c0 19 1 85 1 120v218l-171 237c-21 29 -80 109 -91 125h227c16 -26 32 -51 50 -77l41 -60c18 -25 33 -58 35 -69h4c0 5 14 39 34 69l40 61c17 25 33 51 51 76h218c-27 -40 -58 -84 -86 -123l-166 -235v-222c0 -35 1 -101 1 -120h-188zM225 896c9 0 43 -1 60 -1h150
c17 0 51 1 60 1v-122c-9 0 -43 1 -60 1h-150c-17 0 -51 -1 -60 -1v122z" />
    <glyph glyph-name="uni0233" unicode="&#x233;" horiz-adv-x="644" 
d="M634 470c-21 -43 -46 -87 -68 -130l-246 -473c-15 -30 -31 -61 -43 -87h-193c10 17 51 96 67 127l86 170l-152 265c-17 30 -66 111 -75 128h199c8 -17 25 -52 41 -82l42 -80c19 -36 34 -78 35 -90h4c1 10 18 55 36 90l37 73c16 31 33 72 42 89h188zM192 651
c9 0 43 -1 60 -1h150c17 0 51 1 60 1v-122c-9 0 -43 1 -60 1h-150c-17 0 -51 -1 -60 -1v122z" />
    <glyph glyph-name="dotlessj" unicode="&#x237;" horiz-adv-x="315" 
d="M-35 -230v138c10 -2 19 -3 28 -3c52 0 77 29 77 95v350c0 35 -1 101 -1 120h177c0 -19 -1 -85 -1 -120v-320c0 -80 -11 -138 -38 -181c-38 -60 -103 -89 -170 -89c-31 0 -58 4 -72 10z" />
    <glyph glyph-name="uni0245" unicode="&#x245;" 
d="M388 377h-4c0 -5 -7 -33 -26 -76l-104 -231c-7 -16 -22 -48 -31 -70h-205c8 17 40 78 55 109l304 615h20l300 -615c15 -31 44 -88 55 -109h-199c-9 21 -24 52 -32 70l-106 231c-20 43 -27 71 -27 76z" />
    <glyph glyph-name="apostrophe" unicode="&#x2bc;" horiz-adv-x="254" 
d="M50 620v150h154v-158c0 -67 -50 -146 -105 -184l-52 61c36 28 67 71 67 123v8h-64z" />
    <glyph glyph-name="circumflex" unicode="&#x2c6;" horiz-adv-x="456" 
d="M420 585l-65 -82l-127 68l-127 -68l-65 82l192 125z" />
    <glyph glyph-name="caron" unicode="&#x2c7;" horiz-adv-x="456" 
d="M355 711l65 -82l-192 -125l-192 125l65 82l127 -68z" />
    <glyph glyph-name="breve" unicode="&#x2d8;" horiz-adv-x="464" 
d="M40 652l98 39c12 -41 47 -61 94 -61s82 22 94 61l98 -39c-23 -89 -98 -142 -192 -142s-169 53 -192 142z" />
    <glyph glyph-name="dotaccent" unicode="&#x2d9;" horiz-adv-x="390" 
d="M195 705c52 0 95 -43 95 -95s-43 -95 -95 -95s-95 43 -95 95s43 95 95 95z" />
    <glyph glyph-name="ring" unicode="&#x2da;" horiz-adv-x="400" 
d="M200 750c81 0 130 -52 130 -115s-48 -115 -130 -115s-130 52 -130 115s48 115 130 115zM200 666c-26 0 -40 -14 -40 -31s14 -31 40 -31c27 0 40 14 40 31s-14 31 -40 31z" />
    <glyph glyph-name="ogonek" unicode="&#x2db;" horiz-adv-x="450" 
d="M198 60l97 -27c-24 -20 -65 -57 -65 -102c0 -35 24 -51 54 -51c27 0 51 12 63 20l49 -102c-22 -15 -68 -38 -132 -38c-104 0 -160 62 -160 138c0 86 72 150 94 162z" />
    <glyph glyph-name="tilde" unicode="&#x2dc;" horiz-adv-x="552" 
d="M382 690l118 -20c-15 -86 -107 -154 -196 -139l-76 13c-27 5 -53 -17 -58 -45l-118 20c15 86 107 155 196 139l75 -13c28 -5 54 17 59 45z" />
    <glyph glyph-name="hungarumlaut" unicode="&#x2dd;" horiz-adv-x="410" 
d="M123 523l-68 30l57 131l91 -40zM269 523l-68 30l57 131l91 -40z" />
    <glyph glyph-name="uni0311" unicode="&#x311;" horiz-adv-x="464" 
d="M138 510l-98 39c23 89 98 142 192 142s169 -53 192 -142l-98 -39c-12 39 -47 61 -94 61s-82 -20 -94 -61z" />
    <glyph glyph-name="delta" unicode="&#x3b4;" horiz-adv-x="652" 
d="M339 800c9 -17 30 -58 56 -106l185 -339c16 -25 32 -73 32 -120c0 -141 -118 -255 -286 -255s-286 114 -286 255c0 146 117 237 240 252c30 4 43 -8 52 -13l2 3c-11 7 -22 16 -40 49l-47 87c-19 34 -60 104 -60 104zM326 350c-61 0 -111 -52 -111 -115s50 -115 111 -115
c62 0 111 52 111 115s-49 115 -111 115z" />
    <glyph glyph-name="pi" unicode="&#x3c0;" horiz-adv-x="686" 
d="M610 0h-168c-52 95 -51 217 -52 332h-88l-40 -332h-172l70 332c-35 0 -111 -1 -130 -1v140c19 0 85 -1 120 -1h386c35 0 101 1 120 1v-140c-18 0 -68 1 -104 1c0 -77 8 -229 58 -332z" />
    <glyph glyph-name="uni1E02" unicode="&#x1e02;" horiz-adv-x="670" 
d="M74 700h306c122 0 208 -73 208 -188c0 -87 -54 -128 -110 -141v-4c83 -17 136 -81 136 -175c0 -101 -56 -192 -210 -192h-330v700zM259 294v-144h75c53 0 82 29 82 70c0 42 -29 74 -80 74h-77zM259 566v-140h55c58 0 82 24 82 70c0 39 -28 70 -82 70h-55zM307 950
c52 0 95 -43 95 -95s-43 -95 -95 -95s-95 43 -95 95s43 95 95 95z" />
    <glyph glyph-name="uni1E03" unicode="&#x1e03;" horiz-adv-x="666" 
d="M64 715h177c0 -21 -1 -91 -1 -128v-101c0 -19 -2 -39 -5 -46l4 -2c24 27 83 52 145 52c132 0 238 -90 238 -248c0 -151 -108 -262 -295 -262c-134 0 -226 58 -262 94v513c0 37 -1 107 -1 128zM240 290v-125c18 -19 51 -39 93 -39c64 0 109 46 109 108
c0 61 -42 110 -104 110c-48 0 -80 -24 -98 -54zM419 775c52 0 95 -43 95 -95s-43 -95 -95 -95s-95 43 -95 95s43 95 95 95z" />
    <glyph glyph-name="uni1E08" unicode="&#x1e08;" horiz-adv-x="764" 
d="M610 226l124 -129c-71 -74 -182 -117 -300 -117c-239 0 -384 168 -384 374s150 366 382 366c130 0 218 -45 284 -113l-120 -124c-49 49 -101 73 -164 73c-105 0 -190 -74 -190 -202c0 -126 90 -206 192 -206c82 0 128 33 176 78zM324 -160l107 128l81 -66l-122 -114z
M484 1011l114 -76l-162 -150l-88 58z" />
    <glyph glyph-name="uni1E09" unicode="&#x1e09;" horiz-adv-x="610" 
d="M363 776l114 -76l-162 -150l-88 58zM322 490c113 0 176 -51 219 -97l-125 -98c-19 28 -48 51 -90 51c-61 0 -101 -48 -101 -108c0 -59 45 -108 103 -108c45 0 77 26 96 56l138 -88c-35 -50 -108 -118 -238 -118c-158 0 -274 106 -274 256c0 143 115 254 272 254z
M200 -160l107 128l81 -66l-122 -114z" />
    <glyph glyph-name="uni1E0A" unicode="&#x1e0a;" horiz-adv-x="745" 
d="M75 700h279c203 0 341 -155 341 -350c0 -191 -135 -350 -363 -350h-257v700zM267 542v-382h64c96 0 172 84 172 190c0 109 -73 192 -176 192h-60zM321 970c52 0 95 -43 95 -95s-43 -95 -95 -95s-95 43 -95 95s43 95 95 95z" />
    <glyph glyph-name="uni1E0B" unicode="&#x1e0b;" horiz-adv-x="659" 
d="M419 715h177c0 -21 -1 -91 -1 -128v-513c-36 -36 -128 -94 -262 -94c-187 0 -295 111 -295 262c0 158 106 248 238 248c62 0 121 -25 145 -52l4 2c-3 7 -5 27 -5 46v101c0 37 -1 107 -1 128zM420 165v125c-18 30 -50 54 -98 54c-62 0 -104 -49 -104 -110
c0 -62 45 -108 109 -108c42 0 75 20 93 39zM265 775c52 0 95 -43 95 -95s-43 -95 -95 -95s-95 43 -95 95s43 95 95 95z" />
    <glyph glyph-name="Wgrave" unicode="&#x1e80;" horiz-adv-x="1072" 
d="M530 350c-1 -11 -17 -64 -34 -100l-126 -278h-18l-283 600c-15 32 -52 110 -59 128h191c13 -31 27 -64 43 -96l83 -170c15 -31 32 -90 33 -100h4c1 12 14 57 33 100l122 274h18l125 -274c20 -43 32 -88 33 -100h4c1 10 20 68 35 100l81 170c15 32 29 65 42 96h205
c-9 -18 -48 -96 -63 -128l-287 -600h-18l-129 278c-17 36 -32 89 -33 100h-2zM315 882l114 76l136 -168l-88 -58z" />
    <glyph glyph-name="wgrave" unicode="&#x1e81;" horiz-adv-x="900" 
d="M457 258h-4c0 -12 -14 -59 -31 -100l-65 -158h-120l-165 344c-23 48 -41 83 -62 126h190c11 -30 23 -61 37 -91l30 -67c17 -38 37 -89 38 -100h4c1 11 20 68 34 100l68 158h84l72 -150c14 -30 37 -89 38 -100h4c1 11 18 60 34 100l24 59c12 30 23 61 35 91h189
c-21 -42 -39 -78 -61 -126l-160 -344h-110l-70 158c-18 42 -32 88 -33 100zM232 700l114 76l136 -168l-88 -58z" />
    <glyph glyph-name="Wacute" unicode="&#x1e82;" horiz-adv-x="1072" 
d="M530 350c-1 -11 -17 -64 -34 -100l-126 -278h-18l-283 600c-15 32 -52 110 -59 128h191c13 -31 27 -64 43 -96l83 -170c15 -31 32 -90 33 -100h4c1 12 14 57 33 100l122 274h18l125 -274c20 -43 32 -88 33 -100h4c1 10 20 68 35 100l81 170c15 32 29 65 42 96h205
c-9 -18 -48 -96 -63 -128l-287 -600h-18l-129 278c-17 36 -32 89 -33 100h-2zM624 958l114 -76l-162 -150l-88 58z" />
    <glyph glyph-name="wacute" unicode="&#x1e83;" horiz-adv-x="900" 
d="M457 258h-4c0 -12 -14 -59 -31 -100l-65 -158h-120l-165 344c-23 48 -41 83 -62 126h190c11 -30 23 -61 37 -91l30 -67c17 -38 37 -89 38 -100h4c1 11 20 68 34 100l68 158h84l72 -150c14 -30 37 -89 38 -100h4c1 11 18 60 34 100l24 59c12 30 23 61 35 91h189
c-21 -42 -39 -78 -61 -126l-160 -344h-110l-70 158c-18 42 -32 88 -33 100zM530 776l114 -76l-162 -150l-88 58z" />
    <glyph glyph-name="Wdieresis" unicode="&#x1e84;" horiz-adv-x="1072" 
d="M530 350c-1 -11 -17 -64 -34 -100l-126 -278h-18l-283 600c-15 32 -52 110 -59 128h191c13 -31 27 -64 43 -96l83 -170c15 -31 32 -90 33 -100h4c1 12 14 57 33 100l122 274h18l125 -274c20 -43 32 -88 33 -100h4c1 10 20 68 35 100l81 170c15 32 29 65 42 96h205
c-9 -18 -48 -96 -63 -128l-287 -600h-18l-129 278c-17 36 -32 89 -33 100h-2zM405 960c52 0 95 -43 95 -95s-43 -95 -95 -95s-95 43 -95 95s43 95 95 95zM655 960c52 0 95 -43 95 -95s-43 -95 -95 -95s-95 43 -95 95s43 95 95 95z" />
    <glyph glyph-name="wdieresis" unicode="&#x1e85;" horiz-adv-x="900" 
d="M457 258h-4c0 -12 -14 -59 -31 -100l-65 -158h-120l-165 344c-23 48 -41 83 -62 126h190c11 -30 23 -61 37 -91l30 -67c17 -38 37 -89 38 -100h4c1 11 20 68 34 100l68 158h84l72 -150c14 -30 37 -89 38 -100h4c1 11 18 60 34 100l24 59c12 30 23 61 35 91h189
c-21 -42 -39 -78 -61 -126l-160 -344h-110l-70 158c-18 42 -32 88 -33 100zM329 715c52 0 95 -43 95 -95s-43 -95 -95 -95s-95 43 -95 95s43 95 95 95zM579 715c52 0 95 -43 95 -95s-43 -95 -95 -95s-95 43 -95 95s43 95 95 95z" />
    <glyph glyph-name="uni1E86" unicode="&#x1e86;" horiz-adv-x="1072" 
d="M530 350c-1 -11 -17 -64 -34 -100l-126 -278h-18l-283 600c-15 32 -52 110 -59 128h191c13 -31 27 -64 43 -96l83 -170c15 -31 32 -90 33 -100h4c1 12 14 57 33 100l122 274h18l125 -274c20 -43 32 -88 33 -100h4c1 10 20 68 35 100l81 170c15 32 29 65 42 96h205
c-9 -18 -48 -96 -63 -128l-287 -600h-18l-129 278c-17 36 -32 89 -33 100h-2zM529 950c52 0 95 -43 95 -95s-43 -95 -95 -95s-95 43 -95 95s43 95 95 95z" />
    <glyph glyph-name="uni1E87" unicode="&#x1e87;" horiz-adv-x="900" 
d="M457 258h-4c0 -12 -14 -59 -31 -100l-65 -158h-120l-165 344c-23 48 -41 83 -62 126h190c11 -30 23 -61 37 -91l30 -67c17 -38 37 -89 38 -100h4c1 11 20 68 34 100l68 158h84l72 -150c14 -30 37 -89 38 -100h4c1 11 18 60 34 100l24 59c12 30 23 61 35 91h189
c-21 -42 -39 -78 -61 -126l-160 -344h-110l-70 158c-18 42 -32 88 -33 100zM449 705c52 0 95 -43 95 -95s-43 -95 -95 -95s-95 43 -95 95s43 95 95 95z" />
    <glyph glyph-name="uni1E8A" unicode="&#x1e8a;" horiz-adv-x="792" 
d="M726 700c-11 -16 -66 -96 -86 -125l-139 -201l178 -247c29 -40 62 -85 93 -127h-232c-9 16 -30 49 -49 78l-65 101c-20 31 -29 60 -29 65h-4c-1 -5 -10 -34 -30 -65l-67 -101c-19 -29 -40 -62 -49 -78h-227c30 42 63 87 91 127l173 247l-147 201c-21 28 -82 109 -94 125
h237c14 -25 30 -51 47 -76l33 -49c20 -29 30 -65 31 -69h4c0 4 10 39 29 69l31 49c15 24 31 51 46 76h225zM393 970c52 0 95 -43 95 -95s-43 -95 -95 -95s-95 43 -95 95s43 95 95 95z" />
    <glyph glyph-name="uni1E8B" unicode="&#x1e8b;" horiz-adv-x="702" 
d="M428 470h229c-12 -15 -84 -91 -108 -118l-91 -100l115 -123c39 -41 83 -86 123 -129h-233c-12 15 -37 44 -60 70c-34 39 -54 71 -55 82h-4c-1 -12 -20 -44 -52 -82c-23 -27 -37 -46 -56 -70h-230c40 44 85 89 121 128l112 124l-90 97c-24 25 -101 106 -115 121h236
l38 -50c20 -27 32 -43 36 -61h4c1 13 15 34 38 61zM345 705c52 0 95 -43 95 -95s-43 -95 -95 -95s-95 43 -95 95s43 95 95 95z" />
    <glyph glyph-name="uni1E8C" unicode="&#x1e8c;" horiz-adv-x="792" 
d="M726 700c-11 -16 -66 -96 -86 -125l-139 -201l178 -247c29 -40 62 -85 93 -127h-232c-9 16 -30 49 -49 78l-65 101c-20 31 -29 60 -29 65h-4c-1 -5 -10 -34 -30 -65l-67 -101c-19 -29 -40 -62 -49 -78h-227c30 42 63 87 91 127l173 247l-147 201c-21 28 -82 109 -94 125
h237c14 -25 30 -51 47 -76l33 -49c20 -29 30 -65 31 -69h4c0 4 10 39 29 69l31 49c15 24 31 51 46 76h225zM271 980c52 0 95 -43 95 -95s-43 -95 -95 -95s-95 43 -95 95s43 95 95 95zM521 980c52 0 95 -43 95 -95s-43 -95 -95 -95s-95 43 -95 95s43 95 95 95z" />
    <glyph glyph-name="uni1E8D" unicode="&#x1e8d;" horiz-adv-x="702" 
d="M428 470h229c-12 -15 -84 -91 -108 -118l-91 -100l115 -123c39 -41 83 -86 123 -129h-233c-12 15 -37 44 -60 70c-34 39 -54 71 -55 82h-4c-1 -12 -20 -44 -52 -82c-23 -27 -37 -46 -56 -70h-230c40 44 85 89 121 128l112 124l-90 97c-24 25 -101 106 -115 121h236
l38 -50c20 -27 32 -43 36 -61h4c1 13 15 34 38 61zM221 715c52 0 95 -43 95 -95s-43 -95 -95 -95s-95 43 -95 95s43 95 95 95zM471 715c52 0 95 -43 95 -95s-43 -95 -95 -95s-95 43 -95 95s43 95 95 95z" />
    <glyph glyph-name="uni1E8E" unicode="&#x1e8e;" horiz-adv-x="720" 
d="M271 0c0 19 1 85 1 120v218l-171 237c-21 29 -80 109 -91 125h227c16 -26 32 -51 50 -77l41 -60c18 -25 33 -58 35 -69h4c0 5 14 39 34 69l40 61c17 25 33 51 51 76h218c-27 -40 -58 -84 -86 -123l-166 -235v-222c0 -35 1 -101 1 -120h-188zM360 950c52 0 95 -43 95 -95
s-43 -95 -95 -95s-95 43 -95 95s43 95 95 95z" />
    <glyph glyph-name="uni1E8F" unicode="&#x1e8f;" horiz-adv-x="644" 
d="M634 470c-21 -43 -46 -87 -68 -130l-246 -473c-15 -30 -31 -61 -43 -87h-193c10 17 51 96 67 127l86 170l-152 265c-17 30 -66 111 -75 128h199c8 -17 25 -52 41 -82l42 -80c19 -36 34 -78 35 -90h4c1 10 18 55 36 90l37 73c16 31 33 72 42 89h188zM327 705
c52 0 95 -43 95 -95s-43 -95 -95 -95s-95 43 -95 95s43 95 95 95z" />
    <glyph glyph-name="uni1E90" unicode="&#x1e90;" horiz-adv-x="668" 
d="M411 156h77c35 0 101 1 120 1v-158c-19 0 -85 1 -120 1h-474l277 463c32 53 55 81 63 85l-2 4c-9 -4 -36 -6 -107 -6h-63c-35 0 -101 -1 -120 -1v156c19 0 85 -1 120 -1h456l-272 -461c-23 -39 -55 -81 -64 -85l2 -4c11 5 56 6 107 6zM524 850l-65 -82l-127 68l-127 -68
l-65 82l192 125z" />
    <glyph glyph-name="uni1E91" unicode="&#x1e91;" horiz-adv-x="524" 
d="M341 134h35c35 0 101 1 120 1v-136c-19 0 -85 1 -120 1h-356l178 289c20 33 35 47 42 53l-3 4c-7 -5 -34 -10 -65 -10h-10c-35 0 -101 -1 -120 -1v136c19 0 85 -1 120 -1h328l-175 -288c-21 -34 -43 -48 -49 -53l3 -4c7 6 44 9 72 9zM456 585l-65 -82l-127 68l-127 -68
l-65 82l192 125z" />
    <glyph glyph-name="uni1E9E" unicode="&#x1e9e;" horiz-adv-x="889" 
d="M737 619l-63 -118c-23 -44 -46 -57 -63 -64l3 -5c11 5 30 8 43 6c80 -11 185 -86 185 -215c0 -150 -117 -243 -294 -243c-92 0 -163 28 -205 53l28 163c42 -31 98 -56 163 -56c73 0 118 41 118 92c0 54 -57 96 -130 96c-64 0 -110 -16 -140 -28l126 237
c-29 12 -75 21 -124 21c-72 0 -117 -43 -117 -96v-342c0 -35 1 -101 1 -120h-194c0 19 1 85 1 120v362c0 131 122 238 309 238c172 0 283 -54 353 -101z" />
    <glyph glyph-name="Ygrave" unicode="&#x1ef2;" horiz-adv-x="720" 
d="M271 0c0 19 1 85 1 120v218l-171 237c-21 29 -80 109 -91 125h227c16 -26 32 -51 50 -77l41 -60c18 -25 33 -58 35 -69h4c0 5 14 39 34 69l40 61c17 25 33 51 51 76h218c-27 -40 -58 -84 -86 -123l-166 -235v-222c0 -35 1 -101 1 -120h-188zM198 882l114 76l136 -168
l-88 -58z" />
    <glyph glyph-name="ygrave" unicode="&#x1ef3;" horiz-adv-x="644" 
d="M634 470c-21 -43 -46 -87 -68 -130l-246 -473c-15 -30 -31 -61 -43 -87h-193c10 17 51 96 67 127l86 170l-152 265c-17 30 -66 111 -75 128h199c8 -17 25 -52 41 -82l42 -80c19 -36 34 -78 35 -90h4c1 10 18 55 36 90l37 73c16 31 33 72 42 89h188zM137 700l114 76
l136 -168l-88 -58z" />
    <glyph glyph-name="uni1EF8" unicode="&#x1ef8;" horiz-adv-x="720" 
d="M271 0c0 19 1 85 1 120v218l-171 237c-21 29 -80 109 -91 125h227c16 -26 32 -51 50 -77l41 -60c18 -25 33 -58 35 -69h4c0 5 14 39 34 69l40 61c17 25 33 51 51 76h218c-27 -40 -58 -84 -86 -123l-166 -235v-222c0 -35 1 -101 1 -120h-188zM468 955l118 -20
c-15 -86 -107 -154 -196 -139l-76 13c-27 5 -53 -17 -58 -45l-118 20c15 86 107 155 196 139l75 -13c28 -5 54 17 59 45z" />
    <glyph glyph-name="uni1EF9" unicode="&#x1ef9;" horiz-adv-x="644" 
d="M634 470c-21 -43 -46 -87 -68 -130l-246 -473c-15 -30 -31 -61 -43 -87h-193c10 17 51 96 67 127l86 170l-152 265c-17 30 -66 111 -75 128h199c8 -17 25 -52 41 -82l42 -80c19 -36 34 -78 35 -90h4c1 10 18 55 36 90l37 73c16 31 33 72 42 89h188zM428 690l118 -20
c-15 -86 -107 -154 -196 -139l-76 13c-27 5 -53 -17 -58 -45l-118 20c15 86 107 155 196 139l75 -13c28 -5 54 17 59 45z" />
    <glyph glyph-name="endash" unicode="&#x2013;" horiz-adv-x="1110" 
d="M320 406h470c35 0 101 1 120 1v-162c-19 0 -85 1 -120 1h-470c-35 0 -101 -1 -120 -1v162c19 0 85 -1 120 -1z" />
    <glyph glyph-name="emdash" unicode="&#x2014;" horiz-adv-x="1350" 
d="M320 406h710c35 0 101 1 120 1v-162c-19 0 -85 1 -120 1h-710c-35 0 -101 -1 -120 -1v162c19 0 85 -1 120 -1z" />
    <glyph glyph-name="quoteleft" unicode="&#x2018;" horiz-adv-x="254" 
d="M204 588v-150h-154v158c0 67 50 146 105 184l52 -61c-36 -28 -67 -71 -67 -123v-8h64z" />
    <glyph glyph-name="quoteright" unicode="&#x2019;" horiz-adv-x="254" 
d="M50 620v150h154v-158c0 -67 -50 -146 -105 -184l-52 61c36 28 67 71 67 123v8h-64z" />
    <glyph glyph-name="quotesinglbase" unicode="&#x201a;" horiz-adv-x="254" 
d="M50 0v150h154v-158c0 -67 -50 -146 -105 -184l-52 61c36 28 67 71 67 123v8h-64z" />
    <glyph glyph-name="quotedblleft" unicode="&#x201c;" horiz-adv-x="670" 
d="M324 748l-112 -325h-172l172 325h112zM632 748l-112 -325h-172l172 325h112z" />
    <glyph glyph-name="quotedblright" unicode="&#x201d;" horiz-adv-x="670" 
d="M150 423l-112 325h112l172 -325h-172zM458 423l-112 325h112l172 -325h-172z" />
    <glyph glyph-name="quotedblbase" unicode="&#x201e;" horiz-adv-x="670" 
d="M150 -177l-112 325h112l172 -325h-172zM458 -177l-112 325h112l172 -325h-172z" />
    <glyph glyph-name="dagger" unicode="&#x2020;" horiz-adv-x="692" 
d="M508 398h-66v-378c0 -35 1 -101 1 -120h-194c0 19 1 85 1 120v378h-66c-35 0 -101 -1 -120 -1v166c19 0 85 -1 120 -1h66v112c0 35 -1 101 -1 120h194c0 -19 -1 -85 -1 -120v-112h66c35 0 101 1 120 1v-166c-19 0 -85 1 -120 1z" />
    <glyph glyph-name="daggerdbl" unicode="&#x2021;" horiz-adv-x="692" 
d="M508 88h-66v-68c0 -35 1 -101 1 -120h-194c0 19 1 85 1 120v68h-66c-35 0 -101 -1 -120 -1v166c19 0 85 -1 120 -1h66v166h-66c-35 0 -101 -1 -120 -1v166c19 0 85 -1 120 -1h66v92c0 35 -1 101 -1 120h194c0 -19 -1 -85 -1 -120v-92h66c35 0 101 1 120 1v-166
c-19 0 -85 1 -120 1h-66v-166h66c35 0 101 1 120 1v-166c-19 0 -85 1 -120 1z" />
    <glyph glyph-name="bullet" unicode="&#x2022;" horiz-adv-x="714" 
d="M357 595c121 0 220 -99 220 -220s-99 -220 -220 -220s-220 99 -220 220s99 220 220 220z" />
    <glyph glyph-name="ellipsis" unicode="&#x2026;" horiz-adv-x="904" 
d="M162 200c62 0 112 -49 112 -110s-50 -110 -112 -110s-112 49 -112 110s50 110 112 110zM452 200c62 0 112 -49 112 -110s-50 -110 -112 -110s-112 49 -112 110s50 110 112 110zM742 200c62 0 112 -49 112 -110s-50 -110 -112 -110s-112 49 -112 110s50 110 112 110z" />
    <glyph glyph-name="perthousand" unicode="&#x2030;" horiz-adv-x="1120" 
d="M601 722l85 -70c-13 -14 -56 -64 -78 -91l-413 -491c-22 -27 -64 -78 -76 -92l-85 70c13 14 56 64 78 91l413 491c23 27 64 77 76 92zM525 290c107 0 175 -72 175 -160s-68 -160 -175 -160s-175 72 -175 160s68 160 175 160zM525 194c-34 0 -61 -29 -61 -64
s27 -64 61 -64s61 29 61 64s-27 64 -61 64zM195 730c107 0 175 -72 175 -160s-68 -160 -175 -160s-175 72 -175 160s68 160 175 160zM195 634c-34 0 -61 -29 -61 -64s27 -64 61 -64s61 29 61 64s-27 64 -61 64zM925 290c107 0 175 -72 175 -160s-68 -160 -175 -160
s-175 72 -175 160s68 160 175 160zM925 194c-34 0 -61 -29 -61 -64s27 -64 61 -64s61 29 61 64s-27 64 -61 64z" />
    <glyph glyph-name="guilsinglleft" unicode="&#x2039;" horiz-adv-x="333" 
d="M129 122l-91 128l91 128c25 35 48 71 72 103l92 -67l-67 -95l-48 -69l48 -69l67 -95l-92 -67c-24 32 -47 68 -72 103z" />
    <glyph glyph-name="guilsinglright" unicode="&#x203a;" horiz-adv-x="333" 
d="M295 250l-91 -128c-25 -35 -48 -71 -72 -103l-92 67l67 95l48 69l-48 69l-67 95l92 67c24 -32 47 -68 72 -103z" />
    <glyph glyph-name="zerosuperior" unicode="&#x2070;" horiz-adv-x="384" 
d="M192 780c105 0 181 -83 181 -185c0 -101 -76 -185 -181 -185c-106 0 -181 84 -181 185c0 102 75 185 181 185zM192 692c-44 0 -76 -42 -76 -97c0 -54 32 -97 76 -97s76 43 76 97c0 55 -32 97 -76 97z" />
    <glyph glyph-name="foursuperior" unicode="&#x2074;" horiz-adv-x="384" 
d="M302 770v-199h48v-82h-48c0 -11 1 -48 1 -69h-102c0 23 1 58 1 69h-176v69l145 212h131zM203 678c-6 -11 -15 -25 -19 -31l-37 -54c-7 -10 -14 -18 -20 -24c10 1 23 2 32 2h43v71c0 10 0 25 1 36z" />
    <glyph glyph-name="fivesuperior" unicode="&#x2075;" horiz-adv-x="384" 
d="M70 579l35 191h131c22 0 44 1 66 1v-86c-20 0 -43 1 -66 1h-60l-7 -28c7 2 18 3 26 3c75 0 135 -51 135 -123c0 -78 -63 -128 -158 -128c-61 0 -106 23 -125 38l16 91c25 -21 60 -41 101 -41c36 0 58 20 58 45c0 29 -32 52 -74 52c-32 0 -61 -9 -78 -16z" />
    <glyph glyph-name="sixsuperior" unicode="&#x2076;" horiz-adv-x="384" 
d="M294 770c-12 -13 -32 -35 -44 -49l-38 -43c-6 -6 -12 -13 -18 -18c8 2 18 3 29 3c74 0 126 -53 126 -120c0 -70 -50 -133 -159 -133c-106 0 -157 62 -157 129c0 52 32 99 65 140l40 50c10 12 20 26 32 41h124zM188 588c-29 0 -53 -21 -53 -50c0 -28 24 -48 53 -48
c30 0 54 20 54 48c0 29 -24 50 -54 50z" />
    <glyph glyph-name="sevensuperior" unicode="&#x2077;" horiz-adv-x="387" 
d="M368 770v-19l-156 -258c-11 -18 -33 -56 -43 -73h-123c13 19 44 65 54 82l107 173c2 4 6 9 9 12c-6 -1 -11 -1 -16 -1h-72c-22 0 -44 -1 -66 -1v86c22 0 56 -1 66 -1h240z" />
    <glyph glyph-name="eightsuperior" unicode="&#x2078;" horiz-adv-x="384" 
d="M337 521c0 -60 -46 -111 -145 -111s-145 51 -145 111c0 38 25 71 61 85c-29 12 -46 42 -46 74c0 31 16 63 50 82c20 11 45 18 80 18s60 -7 80 -18c34 -19 50 -51 50 -82c0 -32 -17 -62 -46 -74c36 -14 61 -47 61 -85zM192 564c-23 0 -41 -16 -41 -36s17 -38 41 -38
s41 18 41 38s-18 36 -41 36zM192 646c19 0 34 14 34 33c0 16 -15 29 -34 29s-34 -13 -34 -29c0 -19 15 -33 34 -33z" />
    <glyph glyph-name="ninesuperior" unicode="&#x2079;" horiz-adv-x="385" 
d="M192 780c96 0 156 -58 156 -131c0 -32 -17 -71 -32 -91l-65 -88c-6 -9 -13 -18 -38 -50h-121c5 7 29 34 42 48l41 45c6 7 11 12 16 18c-7 -2 -17 -3 -26 -3c-88 0 -135 64 -135 121c0 73 67 131 162 131zM192 704c-31 0 -56 -23 -56 -50s25 -49 56 -49s56 22 56 49
s-25 50 -56 50z" />
    <glyph glyph-name="zeroinferior" unicode="&#x2080;" horiz-adv-x="384" 
d="M192 250c105 0 181 -83 181 -185c0 -101 -76 -185 -181 -185c-106 0 -181 84 -181 185c0 102 75 185 181 185zM192 162c-44 0 -76 -42 -76 -97c0 -54 32 -97 76 -97s76 43 76 97c0 55 -32 97 -76 97z" />
    <glyph glyph-name="oneinferior" unicode="&#x2081;" horiz-adv-x="384" 
d="M252 240v-230c0 -35 1 -101 1 -120h-106c0 19 1 85 1 120v148h-49v82h153z" />
    <glyph glyph-name="twoinferior" unicode="&#x2082;" horiz-adv-x="389" 
d="M31 -110c70 69 111 110 151 156c19 23 42 50 42 78c0 23 -11 41 -36 41c-29 0 -42 -23 -42 -55h-104c0 79 53 140 146 140c87 0 144 -56 144 -125c0 -39 -11 -66 -45 -97l-43 -40c-5 -5 -11 -9 -16 -14c6 1 16 2 25 2h84v-86h-306z" />
    <glyph glyph-name="threeinferior" unicode="&#x2083;" horiz-adv-x="384" 
d="M192 250c75 0 124 -45 124 -103c0 -33 -16 -54 -34 -64c33 -11 57 -43 57 -86c0 -73 -62 -117 -144 -117c-89 0 -149 60 -152 132h101c5 -26 19 -46 49 -46c31 0 44 18 44 40c0 20 -14 38 -50 38h-13v66h7c28 0 39 12 39 31c0 16 -12 29 -31 29c-22 0 -36 -19 -36 -40
h-94c0 64 53 120 133 120z" />
    <glyph glyph-name="fourinferior" unicode="&#x2084;" horiz-adv-x="384" 
d="M302 240v-199h48v-82h-48c0 -11 1 -48 1 -69h-102c0 23 1 58 1 69h-176v69l145 212h131zM202 41v71c0 10 0 24 1 35c-4 -7 -11 -17 -20 -30l-36 -54c-7 -10 -14 -18 -20 -24c10 1 23 2 32 2h43z" />
    <glyph glyph-name="fiveinferior" unicode="&#x2085;" horiz-adv-x="384" 
d="M70 49l35 191h131c22 0 44 1 66 1v-86c-20 0 -43 1 -66 1h-60l-7 -28c7 2 18 3 26 3c75 0 135 -51 135 -123c0 -78 -63 -128 -158 -128c-61 0 -106 23 -125 38l16 91c25 -21 60 -41 101 -41c36 0 58 20 58 45c0 29 -32 52 -74 52c-32 0 -61 -9 -78 -16z" />
    <glyph glyph-name="sixinferior" unicode="&#x2086;" horiz-adv-x="384" 
d="M294 240c-12 -13 -32 -35 -44 -49l-38 -43c-6 -6 -12 -13 -18 -18c8 2 18 3 29 3c74 0 126 -53 126 -120c0 -70 -50 -133 -159 -133c-106 0 -157 62 -157 129c0 52 32 99 65 140l40 50c10 12 20 26 32 41h124zM188 58c-29 0 -53 -21 -53 -50c0 -28 24 -48 53 -48
c30 0 54 20 54 48c0 29 -24 50 -54 50z" />
    <glyph glyph-name="seveninferior" unicode="&#x2087;" horiz-adv-x="387" 
d="M368 240v-19l-156 -258c-11 -18 -33 -56 -43 -73h-123c13 19 44 65 54 82l107 173c2 4 6 9 9 12c-6 -1 -11 -1 -16 -1h-72c-22 0 -44 -1 -66 -1v86c22 0 56 -1 66 -1h240z" />
    <glyph glyph-name="eightinferior" unicode="&#x2088;" horiz-adv-x="384" 
d="M337 -9c0 -60 -46 -111 -145 -111s-145 51 -145 111c0 38 25 71 61 85c-29 12 -46 42 -46 74c0 31 16 63 50 82c20 11 45 18 80 18s60 -7 80 -18c34 -19 50 -51 50 -82c0 -32 -17 -62 -46 -74c36 -14 61 -47 61 -85zM192 34c-23 0 -41 -16 -41 -36s17 -38 41 -38
s41 18 41 38s-18 36 -41 36zM192 116c19 0 34 14 34 33c0 16 -15 29 -34 29s-34 -13 -34 -29c0 -19 15 -33 34 -33z" />
    <glyph glyph-name="nineinferior" unicode="&#x2089;" horiz-adv-x="385" 
d="M192 250c96 0 156 -58 156 -131c0 -32 -17 -71 -32 -91l-65 -88c-6 -9 -13 -18 -38 -50h-121c5 7 29 34 42 48l41 45c6 7 11 12 16 18c-7 -2 -17 -3 -26 -3c-88 0 -135 64 -135 121c0 73 67 131 162 131zM192 174c-31 0 -56 -23 -56 -50s25 -49 56 -49s56 22 56 49
s-25 50 -56 50z" />
    <glyph glyph-name="lira" unicode="&#x20a4;" horiz-adv-x="669" 
d="M611 526l-178 -36c-7 41 -38 76 -102 76c-36 0 -85 -22 -85 -75c0 -10 1 -20 4 -31h98c35 0 101 1 120 1v-92c-19 0 -85 1 -120 1h-63c7 -18 13 -36 17 -54h46c35 0 101 1 120 1v-92c-19 0 -85 1 -120 1h-52c-10 -27 -29 -47 -54 -59l1 -3c9 4 31 10 53 10
c57 0 119 -36 170 -36c63 0 104 31 132 55l50 -148c-37 -26 -99 -65 -192 -65c-80 0 -129 46 -201 46c-68 0 -109 -13 -177 -46l-57 157c55 17 86 53 98 89c-36 0 -85 -1 -101 -1v92c16 0 64 -1 100 -1c-5 18 -12 36 -19 54c-33 -1 -68 -1 -81 -1v92c8 0 26 -1 46 -1
c-4 16 -6 33 -6 51c0 150 139 209 277 209c191 0 254 -84 276 -194z" />
    <glyph glyph-name="Euro" unicode="&#x20ac;" horiz-adv-x="780" 
d="M650 226l124 -129c-71 -74 -182 -117 -300 -117c-200 0 -333 118 -372 276c-30 -1 -60 -1 -72 -1v86c10 0 35 -1 60 -1v14c0 14 0 28 2 41h-62v86c13 0 48 -1 80 -1c49 141 179 240 362 240c117 0 200 -36 263 -93l-119 -126c-44 37 -90 55 -144 55
c-63 0 -120 -27 -154 -76h159c35 0 101 1 120 1l-83 -86c-19 0 -85 1 -120 1h-109c-2 -13 -3 -28 -3 -42v-14h62c35 0 101 1 120 1l-83 -86c-13 0 -47 0 -78 1c32 -68 99 -108 171 -108c82 0 128 33 176 78z" />
    <glyph glyph-name="trademark" unicode="&#x2122;" horiz-adv-x="789" 
d="M520 342h-11l-80 128c-5 8 -12 23 -15 30c-3 -11 -5 -24 -8 -33l-22 -65c-6 -17 -10 -35 -15 -52h-112c8 21 15 43 22 64l95 301h10l110 -172c10 -16 17 -34 20 -41c3 8 9 26 19 41l110 172h10l100 -300c7 -22 22 -65 22 -65h-115c-6 17 -11 34 -17 53l-21 62
c-3 10 -5 28 -7 35c-3 -8 -10 -26 -17 -36zM279 701v-93c-16 0 -32 1 -48 1h-28v-195c0 -19 1 -50 1 -64h-114c0 14 1 44 1 64v195h-29c-16 0 -32 -1 -48 -1v93c4 0 37 -1 48 -1h169c10 0 44 1 48 1z" />
    <glyph glyph-name="Ohm" unicode="&#x2126;" horiz-adv-x="900" 
d="M450 542c-107 0 -194 -86 -194 -192c0 -82 48 -156 119 -186v-164h-220c-35 0 -101 -1 -120 -1v166c16 0 53 -1 89 -1c14 0 49 -2 58 -5l1 4c-64 34 -119 119 -119 213c0 196 163 344 386 344s386 -148 386 -344c0 -94 -55 -179 -119 -213l1 -4c9 3 44 5 58 5
c36 0 73 1 89 1v-166c-19 0 -85 1 -120 1h-220v164c71 30 119 104 119 186c0 106 -87 192 -194 192z" />
    <glyph glyph-name="uni2206" unicode="&#x2206;" 
d="M377 724h20l300 -615c15 -31 44 -88 55 -109h-734c8 17 40 78 55 109zM317 142h139c19 0 32 -3 35 -5l2 4c-2 1 -7 5 -16 25l-63 135c-19 43 -26 70 -26 75h-4c0 -5 -6 -32 -25 -75l-62 -135c-7 -16 -15 -24 -17 -25l2 -4c2 2 17 5 35 5z" />
    <glyph glyph-name="minus" unicode="&#x2212;" horiz-adv-x="716" 
d="M636 437v-152c-19 0 -85 1 -120 1h-316c-35 0 -101 -1 -120 -1v152c19 0 85 -1 120 -1h316c35 0 101 1 120 1z" />
    <glyph glyph-name="infinity" unicode="&#x221e;" horiz-adv-x="922" 
d="M22 340c0 118 102 215 228 215c88 0 145 -37 192 -88c52 61 115 108 218 108c130 0 238 -106 238 -235s-108 -235 -238 -235c-102 0 -166 47 -217 107c-47 -50 -105 -87 -193 -87c-126 0 -228 97 -228 215zM660 435c-50 0 -91 -44 -130 -96c38 -51 79 -94 130 -94
c42 0 78 42 78 95s-36 95 -78 95zM182 340c0 -42 30 -75 68 -75c39 0 73 32 106 75c-33 42 -67 75 -106 75c-38 0 -68 -33 -68 -75z" />
    <glyph glyph-name="uni261A" unicode="&#x261a;" horiz-adv-x="1130" 
d="M867 493l153 11l38 -70l-43 -28l63 -100c-6 -8 -13 -18 -23 -27l40 -163c0 -3 -1 -6 -6 -5l-148 15l-38 73l-30 -4l-41 82l-16 -1c-47 -43 -98 -77 -152 -77c-43 0 -95 18 -148 18c-59 0 -125 -27 -187 -27c-43 0 -68 12 -86 28l-9 8c-4 4 -3 7 0 9s9 3 13 11
c18 37 61 43 111 45c38 2 71 0 98 -1c34 24 85 48 108 48c4 0 6 1 6 3c0 1 -2 3 -7 4c-32 7 -67 -12 -95 -39c-54 0 -109 -4 -169 -15l-15 25c-5 8 -2 16 3 21l37 42l34 1c7 0 10 -2 13 -4c13 -11 21 -23 29 -35l-15 -25c-3 -5 0 -8 6 -3l19 16c11 -5 21 -10 35 -14
c7 -2 7 2 3 6l-39 33c1 2 -4 7 4 5l43 -4c4 -8 11 -15 21 -23c8 -7 11 -6 6 3c-11 18 -21 39 -29 60c-6 15 -7 10 -7 -2c0 -9 0 -16 3 -24c2 -6 0 -5 -5 -4c-31 6 -60 16 -87 28c-35 -8 -94 -15 -121 -15c-21 0 -39 5 -60 5h-42c-43 0 -73 23 -87 46c-3 5 -4 7 -7 10
c-3 2 -9 2 -12 4c-4 3 0 6 5 7c24 4 47 4 72 5c12 0 12 -3 6 -9l-7 -7c-5 -5 0 -6 8 -3c12 4 22 12 29 20c52 5 101 12 148 20c21 -1 42 -2 63 -2c54 0 92 21 130 21c79 0 156 -39 297 -43l14 18l70 8zM888 455l-68 7c43 -83 63 -166 60 -251l61 -4c3 82 -8 164 -53 248z
M545 205c8 0 17 -1 25 -3c3 -1 6 -2 6 -7c0 -13 -10 -19 -22 -22c-2 -1 -4 0 -5 1c-2 4 -3 16 -6 24c-1 3 -4 7 2 7zM497 204l29 1c7 0 7 -7 8 -13c3 -15 -7 -34 -23 -34c-3 0 -5 0 -5 5c0 12 -5 23 -11 34c-3 5 -3 7 2 7zM485 197c7 -17 9 -33 4 -50c-1 -2 -2 -6 -7 -5
c-12 2 -75 21 -100 43c-4 4 -2 4 4 5c33 3 63 5 91 12c3 1 6 0 8 -5zM301 259c-5 0 -10 -1 -10 -3c0 -1 2 -2 6 -2c22 0 46 -15 46 -32c0 -7 -5 -13 -17 -19c-2 -1 -5 -8 4 -5c17 6 25 20 25 31c0 18 -13 30 -54 30z" />
    <glyph glyph-name="uni261B" unicode="&#x261b;" horiz-adv-x="1130" 
d="M110 504l153 -11l3 -15l70 -8l14 -18c141 4 218 43 297 43c38 0 76 -21 130 -21c21 0 42 1 63 2c47 -8 96 -15 148 -20c7 -8 17 -16 29 -20c8 -3 13 -2 8 3l-7 7c-6 6 -6 9 6 9c25 -1 48 -1 72 -5c5 -1 9 -4 5 -7c-3 -2 -9 -2 -12 -4c-3 -3 -4 -5 -7 -10
c-14 -23 -44 -46 -87 -46h-42c-21 0 -39 -5 -60 -5c-27 0 -86 7 -121 15c-27 -12 -56 -22 -87 -28c-5 -1 -7 -2 -5 4c3 8 3 15 3 24c0 12 -1 17 -7 2c-8 -21 -18 -42 -29 -60c-5 -9 -2 -10 6 -3c10 8 17 15 21 23l43 4c8 2 3 -3 4 -5l-39 -33c-4 -4 -4 -8 3 -6
c14 4 24 9 35 14l19 -16c6 -5 9 -2 6 3l-15 25c8 12 16 24 29 35c3 2 6 4 13 4l34 -1l37 -42c5 -5 8 -13 3 -21l-15 -25c-60 11 -115 15 -169 15c-28 27 -63 46 -95 39c-5 -1 -7 -3 -7 -4c0 -2 2 -3 6 -3c23 0 74 -24 108 -48c27 1 60 3 98 1c50 -2 93 -8 111 -45
c4 -8 10 -9 13 -11s4 -5 0 -9l-9 -8c-18 -16 -43 -28 -86 -28c-62 0 -128 27 -187 27c-53 0 -105 -18 -148 -18c-54 0 -105 34 -152 77l-16 1l-41 -82l-30 4l-38 -73l-148 -15c-5 -1 -6 2 -6 5l40 163c-10 9 -17 19 -23 27l63 100l-43 28zM310 462l-68 -7
c-45 -84 -56 -166 -53 -248l61 4c-3 85 17 168 60 251zM585 205c6 0 3 -4 2 -7c-3 -8 -4 -20 -6 -24c-1 -1 -3 -2 -5 -1c-12 3 -22 9 -22 22c0 5 3 6 6 7c8 2 17 3 25 3zM604 205l29 -1c5 0 5 -2 2 -7c-6 -11 -11 -22 -11 -34c0 -5 -2 -5 -5 -5c-16 0 -26 19 -23 34
c1 6 1 13 8 13zM645 197c2 5 5 6 8 5c28 -7 58 -9 91 -12c6 -1 8 -1 4 -5c-25 -22 -88 -41 -100 -43c-5 -1 -6 3 -7 5c-5 17 -3 33 4 50zM829 259c-41 0 -54 -12 -54 -30c0 -11 8 -25 25 -31c9 -3 6 4 4 5c-12 6 -17 12 -17 19c0 17 24 32 46 32c4 0 6 1 6 2c0 2 -5 3 -10 3
z" />
    <glyph glyph-name="uni261C" unicode="&#x261c;" horiz-adv-x="1130" 
d="M538 495c78 0 195 -49 297 -68l9 33h34c2 5 0 19 4 19c24 3 50 4 76 4c13 0 58 0 74 -3c4 -1 4 -3 4 -4c0 -3 -4 -4 -6 -4c-23 0 -98 -17 -115 -21c38 -78 55 -156 55 -235c0 -19 0 -39 -3 -58c37 -8 94 -15 118 -17c2 0 5 -2 5 -4c0 -1 0 -3 -4 -4
c-23 -4 -98 -8 -116 -8c-15 21 -27 42 -38 63l-42 5l-41 67c-60 -19 -107 -64 -169 -64c-26 0 -44 6 -66 8c0 -2 1 -4 1 -5c0 -12 -7 -16 -23 -16c-5 0 -11 0 -18 2c1 -5 4 -10 4 -14c0 -1 0 -4 -3 -4c-14 0 -32 7 -45 12c1 -5 1 -9 1 -14c0 -1 -1 -3 -3 -3
c-47 1 -107 20 -123 34c-55 1 -117 11 -142 31c-2 2 -3 5 -2 9c15 36 39 50 71 60c-8 6 -13 16 -13 28c0 17 16 38 30 54c-47 0 -88 7 -124 11c-29 2 -53 2 -75 7c-36 8 -59 24 -69 51c0 1 -10 2 -10 6c0 1 0 4 4 4c20 3 71 4 90 4c9 0 25 5 35 5s19 -1 30 0
c10 2 68 9 108 9c24 0 41 -2 77 -2c18 0 53 5 73 11c22 6 39 11 50 11zM892 207l40 -3c4 22 6 46 6 69c0 52 -13 113 -36 169c-16 2 -31 2 -45 0c31 -52 39 -109 39 -172c0 -20 -2 -42 -4 -63zM404 402c29 -14 58 -24 84 -31c2 10 -1 18 -3 25c-1 2 3 4 5 2
c19 -20 31 -44 43 -66c21 9 40 13 63 13c5 0 10 -1 10 -4c0 -4 -9 -5 -20 -9c-29 -9 -76 -30 -93 -40c-61 -1 -104 -1 -143 -9c-33 -7 -61 -20 -80 -46c11 -11 47 -19 76 -19c15 0 35 1 35 11c0 9 -11 19 -24 24c-3 1 -7 5 -7 7s5 2 8 2c16 0 34 -14 34 -31
c0 -6 -8 -15 -16 -21c7 -1 14 -1 21 -1c42 0 82 14 124 23c46 -6 90 -18 137 -18c84 0 137 54 205 63c6 21 7 43 7 62c0 23 -2 46 -8 72c-66 5 -139 22 -196 37c-45 12 -114 30 -137 30c-36 0 -76 -19 -108 -19c-11 0 -59 3 -83 3c-44 0 -83 -7 -125 -7c-6 0 -20 -1 -27 -1
c-14 -1 -13 -3 -17 -7c-3 -5 -7 -11 -15 -15c-2 -1 -4 0 -4 2c0 5 5 9 5 14c0 1 0 2 -2 2c-20 -1 -38 -2 -58 -3c19 -30 57 -42 102 -42c7 0 14 1 20 2c36 -5 81 -11 131 -11c23 0 42 2 56 6zM528 203c0 -9 14 -17 31 -18c4 0 6 2 6 5c0 11 -7 18 -23 18c-4 0 -14 1 -14 -5z
M457 186c12 -3 38 -7 58 -7c4 0 5 2 5 8c0 14 -16 20 -31 20c-19 0 -34 -13 -34 -19c0 -1 1 -2 2 -2zM488 359c-11 1 -24 2 -36 2c-3 0 -3 -1 -2 -4c5 -7 16 -17 28 -26c12 -10 22 -16 29 -16c3 0 6 1 7 9c-1 8 -9 21 -15 29c-2 3 -7 6 -11 6zM436 305l38 3c4 0 4 2 3 3
c-6 8 -15 13 -25 13c-8 0 -16 -4 -18 -14c0 -2 0 -5 2 -5zM425 323l10 11c-3 16 -20 41 -39 41c-14 0 -27 1 -34 -7c-14 -15 -26 -33 -26 -43c0 -8 4 -17 11 -26c9 3 20 4 32 5c11 1 29 0 37 1c3 0 4 5 4 6c-8 8 -22 14 -30 14c-3 0 -5 1 -5 3c0 3 5 5 12 5
c10 0 21 -5 28 -10z" />
    <glyph glyph-name="uni261D" unicode="&#x261d;" horiz-adv-x="520" 
d="M434 352c0 -78 -49 -195 -68 -297l33 -9v-34c5 -2 19 0 19 -4c3 -24 4 -50 4 -76c0 -13 0 -58 -3 -74c-1 -4 -3 -4 -4 -4c-3 0 -4 4 -4 6c0 23 -17 98 -21 115c-78 -38 -156 -55 -235 -55c-19 0 -39 0 -58 3c-8 -37 -15 -94 -17 -118c0 -2 -2 -5 -4 -5c-1 0 -3 0 -4 4
c-4 23 -8 98 -8 116c21 15 42 27 63 38l5 42l67 41c-19 60 -64 107 -64 169c0 26 6 44 8 66c-2 0 -4 -1 -5 -1c-12 0 -16 7 -16 23c0 5 0 11 2 18c-5 -1 -10 -4 -14 -4c-1 0 -4 0 -4 3c0 14 7 32 12 45c-5 -1 -9 -1 -14 -1c-1 0 -3 1 -3 3c1 47 20 107 34 123
c1 55 11 117 31 142c2 2 5 3 9 2c36 -15 50 -39 60 -71c6 8 16 13 28 13c17 0 38 -16 54 -30c0 47 7 88 11 124c2 29 2 53 7 75c8 36 24 59 51 69c1 0 2 10 6 10c1 0 4 0 4 -4c3 -20 4 -71 4 -90c0 -9 5 -25 5 -35s-1 -19 0 -30c2 -10 9 -68 9 -108c0 -24 -2 -41 -2 -77
c0 -18 5 -53 11 -73c6 -22 11 -39 11 -50zM146 -2l-3 -40c22 -4 46 -6 69 -6c52 0 113 13 169 36c2 16 2 31 0 45c-52 -31 -109 -39 -172 -39c-20 0 -42 2 -63 4zM341 486c-14 -29 -24 -58 -31 -84c10 -2 18 1 25 3c2 1 4 -3 2 -5c-20 -19 -44 -31 -66 -43
c9 -21 13 -40 13 -63c0 -5 -1 -10 -4 -10c-4 0 -5 9 -9 20c-9 29 -30 76 -40 93c-1 61 -1 104 -9 143c-7 33 -20 61 -46 80c-11 -11 -19 -47 -19 -76c0 -15 1 -35 11 -35c9 0 19 11 24 24c1 3 5 7 7 7s2 -5 2 -8c0 -16 -14 -34 -31 -34c-6 0 -15 8 -21 16
c-1 -7 -1 -14 -1 -21c0 -42 14 -82 23 -124c-6 -46 -18 -90 -18 -137c0 -84 54 -137 63 -205c21 -6 43 -7 62 -7c23 0 46 2 72 8c5 66 22 139 37 196c12 45 30 114 30 137c0 36 -19 76 -19 108c0 11 3 59 3 83c0 44 -7 83 -7 125c0 6 -1 20 -1 27c-1 14 -3 13 -7 17
c-5 3 -11 7 -15 15c-1 2 0 4 2 4c5 0 9 -5 14 -5c1 0 2 0 2 2c-1 20 -2 38 -3 58c-30 -19 -42 -57 -42 -102c0 -7 1 -14 2 -20c-5 -36 -11 -81 -11 -131c0 -23 2 -42 6 -56zM142 362c-9 0 -17 -14 -18 -31c0 -4 2 -6 5 -6c11 0 18 7 18 23c0 4 1 14 -5 14zM125 433
c-3 -12 -7 -38 -7 -58c0 -4 2 -5 8 -5c14 0 20 16 20 31c0 19 -13 34 -19 34c-1 0 -2 -1 -2 -2zM298 402c1 11 2 24 2 36c0 3 -1 3 -4 2c-7 -5 -17 -16 -26 -28c-10 -12 -16 -22 -16 -29c0 -3 1 -6 9 -7c8 1 21 9 29 15c3 2 6 7 6 11zM244 454l3 -38c0 -4 2 -4 3 -3
c8 6 13 15 13 25c0 8 -4 16 -14 18c-2 0 -5 0 -5 -2zM262 465l11 -10c16 3 41 20 41 39c0 14 1 27 -7 34c-15 14 -33 26 -43 26c-8 0 -17 -4 -26 -11c3 -9 4 -20 5 -32c1 -11 0 -29 1 -37c0 -3 5 -4 6 -4c8 8 14 22 14 30c0 3 1 5 3 5c3 0 5 -5 5 -12c0 -10 -5 -21 -10 -28z
" />
    <glyph glyph-name="uni261E" unicode="&#x261e;" horiz-adv-x="1130" 
d="M592 495c11 0 28 -5 50 -11c20 -6 55 -11 73 -11c36 0 53 2 77 2c40 0 98 -7 108 -9c11 -1 20 0 30 0s26 -5 35 -5c19 0 70 -1 90 -4c4 0 4 -3 4 -4c0 -4 -10 -5 -10 -6c-10 -27 -33 -43 -69 -51c-22 -5 -46 -5 -75 -7c-36 -4 -77 -11 -124 -11c14 -16 30 -37 30 -54
c0 -12 -5 -22 -13 -28c32 -10 56 -24 71 -60c1 -4 0 -7 -2 -9c-25 -20 -87 -30 -142 -31c-16 -14 -76 -33 -123 -34c-2 0 -3 2 -3 3c0 5 0 9 1 14c-13 -5 -31 -12 -45 -12c-3 0 -3 3 -3 4c0 4 3 9 4 14c-7 -2 -13 -2 -18 -2c-16 0 -23 4 -23 16c0 1 1 3 1 5
c-22 -2 -40 -8 -66 -8c-62 0 -109 45 -169 64l-41 -67l-42 -5c-11 -21 -23 -42 -38 -63c-18 0 -93 4 -116 8c-4 1 -4 3 -4 4c0 2 3 4 5 4c24 2 81 9 118 17c-3 19 -3 39 -3 58c0 79 17 157 55 235c-17 4 -92 21 -115 21c-2 0 -6 1 -6 4c0 1 0 3 4 4c16 3 61 3 74 3
c26 0 52 -1 76 -4c4 0 2 -14 4 -19h34l9 -33c102 19 219 68 297 68zM198 204l40 3c-2 21 -4 43 -4 63c0 63 8 120 39 172c-14 2 -29 2 -45 0c-23 -56 -36 -117 -36 -169c0 -23 2 -47 6 -69zM726 402c14 -4 33 -6 56 -6c50 0 95 6 131 11c6 -1 13 -2 20 -2c45 0 83 12 102 42
c-20 1 -38 2 -58 3c-2 0 -2 -1 -2 -2c0 -5 5 -9 5 -14c0 -2 -2 -3 -4 -2c-8 4 -12 10 -15 15c-4 4 -3 6 -17 7c-7 0 -21 1 -27 1c-42 0 -81 7 -125 7c-24 0 -72 -3 -83 -3c-32 0 -72 19 -108 19c-23 0 -92 -18 -137 -30c-57 -15 -130 -32 -196 -37c-6 -26 -8 -49 -8 -72
c0 -19 1 -41 7 -62c68 -9 121 -63 205 -63c47 0 91 12 137 18c42 -9 82 -23 124 -23c7 0 14 0 21 1c-8 6 -16 15 -16 21c0 17 18 31 34 31c3 0 8 0 8 -2s-4 -6 -7 -7c-13 -5 -24 -15 -24 -24c0 -10 20 -11 35 -11c29 0 65 8 76 19c-19 26 -47 39 -80 46c-39 8 -82 8 -143 9
c-17 10 -64 31 -93 40c-11 4 -20 5 -20 9c0 3 5 4 10 4c23 0 42 -4 63 -13c12 22 24 46 43 66c2 2 6 0 5 -2c-2 -7 -5 -15 -3 -25c26 7 55 17 84 31zM602 203c0 6 -10 5 -14 5c-16 0 -23 -7 -23 -18c0 -3 2 -5 6 -5c17 1 31 9 31 18zM673 186c1 0 2 1 2 2c0 6 -15 19 -34 19
c-15 0 -31 -6 -31 -20c0 -6 1 -8 5 -8c20 0 46 4 58 7zM642 359c-4 0 -9 -3 -11 -6c-6 -8 -14 -21 -15 -29c1 -8 4 -9 7 -9c7 0 17 6 29 16c12 9 23 19 28 26c1 3 1 4 -2 4c-12 0 -25 -1 -36 -2zM656 308l38 -3c2 0 2 3 2 5c-2 10 -10 14 -18 14c-10 0 -19 -5 -25 -13
c-1 -1 -1 -3 3 -3zM695 334l10 -11c7 5 18 10 28 10c7 0 12 -2 12 -5c0 -2 -2 -3 -5 -3c-8 0 -22 -6 -30 -14c0 -1 1 -6 4 -6c8 -1 26 0 37 -1c12 -1 23 -2 32 -5c7 9 11 18 11 26c0 10 -12 28 -26 43c-7 8 -20 7 -34 7c-19 0 -36 -25 -39 -41z" />
    <glyph glyph-name="uni261F" unicode="&#x261f;" horiz-adv-x="520" 
d="M420 267c0 -11 -5 -28 -11 -50c-6 -20 -11 -55 -11 -73c0 -36 2 -53 2 -77c0 -40 -7 -98 -9 -108c-1 -11 0 -20 0 -30s-5 -26 -5 -35c0 -19 -1 -70 -4 -90c0 -4 -3 -4 -4 -4c-4 0 -5 10 -6 10c-27 10 -43 33 -51 69c-5 22 -5 46 -7 75c-4 36 -11 77 -11 124
c-16 -14 -37 -30 -54 -30c-12 0 -22 5 -28 13c-10 -32 -24 -56 -60 -71c-4 -1 -7 0 -9 2c-20 25 -30 87 -31 142c-14 16 -33 76 -34 123c0 2 2 3 3 3c5 0 9 0 14 -1c-5 13 -12 31 -12 45c0 3 3 3 4 3c4 0 9 -3 14 -4c-2 7 -2 13 -2 18c0 16 4 23 16 23c1 0 3 -1 5 -1
c-2 22 -8 40 -8 66c0 62 45 109 64 169l-67 41l-5 42c-21 11 -42 23 -63 38c0 18 4 93 8 116c1 4 3 4 4 4c2 0 4 -3 4 -5c2 -24 9 -81 17 -118c19 3 39 3 58 3c79 0 157 -17 235 -55c4 17 21 92 21 115c0 2 1 6 4 6c1 0 3 0 4 -4c3 -16 3 -61 3 -74c0 -26 -1 -52 -4 -76
c0 -4 -14 -2 -19 -4v-34l-33 -9c19 -102 68 -219 68 -297zM129 661l3 -40c21 2 43 4 63 4c63 0 120 -8 172 -39c2 14 2 29 0 45c-56 23 -117 36 -169 36c-23 0 -47 -2 -69 -6zM327 133c-4 -14 -6 -33 -6 -56c0 -50 6 -95 11 -131c-1 -6 -2 -13 -2 -20c0 -45 12 -83 42 -102
c1 20 2 38 3 58c0 2 -1 2 -2 2c-5 0 -9 -5 -14 -5c-2 0 -3 2 -2 4c4 8 10 12 15 15c4 4 6 3 7 17c0 7 1 21 1 27c0 42 7 81 7 125c0 24 -3 72 -3 83c0 32 19 72 19 108c0 23 -18 92 -30 137c-15 57 -32 130 -37 196c-26 6 -49 8 -72 8c-19 0 -41 -1 -62 -7
c-9 -68 -63 -121 -63 -205c0 -47 12 -91 18 -137c-9 -42 -23 -82 -23 -124c0 -7 0 -14 1 -21c6 8 15 16 21 16c17 0 31 -18 31 -34c0 -3 0 -8 -2 -8s-6 4 -7 7c-5 13 -15 24 -24 24c-10 0 -11 -20 -11 -35c0 -29 8 -65 19 -76c26 19 39 47 46 80c8 39 8 82 9 143
c10 17 31 64 40 93c4 11 5 20 9 20c3 0 4 -5 4 -10c0 -23 -4 -42 -13 -63c22 -12 46 -24 66 -43c2 -2 0 -6 -2 -5c-7 2 -15 5 -25 3c7 -26 17 -55 31 -84zM128 257c6 0 5 10 5 14c0 16 -7 23 -18 23c-3 0 -5 -2 -5 -6c1 -17 9 -31 18 -31zM111 186c0 -1 1 -2 2 -2
c6 0 19 15 19 34c0 15 -6 31 -20 31c-6 0 -8 -1 -8 -5c0 -20 4 -46 7 -58zM284 217c0 4 -3 9 -6 11c-8 6 -21 14 -29 15c-8 -1 -9 -4 -9 -7c0 -7 6 -17 16 -29c9 -12 19 -23 26 -28c3 -1 4 -1 4 2c0 12 -1 25 -2 36zM233 203l-3 -38c0 -2 3 -2 5 -2c10 2 14 10 14 18
c0 10 -5 19 -13 25c-1 1 -3 1 -3 -3zM259 164l-11 -10c5 -7 10 -18 10 -28c0 -7 -2 -12 -5 -12c-2 0 -3 2 -3 5c0 8 -6 22 -14 30c-1 0 -6 -1 -6 -4c-1 -8 0 -26 -1 -37c-1 -12 -2 -23 -5 -32c9 -7 18 -11 26 -11c10 0 28 12 43 26c8 7 7 20 7 34c0 19 -25 36 -41 39z" />
    <glyph glyph-name="u1F31A" unicode="&#x1f31a;" horiz-adv-x="830" 
d="M415 745c220 0 398 -177 398 -395s-178 -395 -398 -395s-398 177 -398 395s178 395 398 395zM415 711c-201 0 -364 -162 -364 -361s163 -361 364 -361s364 162 364 361s-163 361 -364 361zM428 0v76h-3c-6 0 -14 0 -23 -1v-75h-14v73c-9 -2 -17 -4 -26 -7v-63
c-5 0 -10 1 -14 2v55c-9 -5 -18 -10 -26 -17v-32c-5 2 -10 3 -14 4v138c-9 -8 -17 -17 -26 -26v-103l-14 6v84l-9 -6c-5 -4 -11 -7 -17 -10v-55l-14 9v41c-10 -3 -19 -6 -26 -6v-18l-14 12v352c-2 0 -3 -1 -4 -1c-12 -4 -18 -6 -22 -6v-321l-14 15v359h-2
c-8 -1 -16 -3 -24 -6v-320c-5 7 -10 14 -14 22v294c-2 -1 -3 -2 -4 -2c-3 -1 -7 -1 -8 0c-3 4 1 10 12 17v41l14 22v-54l26 13v74l14 15v-83c9 4 17 9 26 12v74c-3 1 -4 1 -4 3s1 4 4 5v13c4 4 9 8 14 11v-19c5 2 10 3 17 4c2 0 5 1 9 1v32c4 3 9 6 14 8v-38c8 0 17 1 25 1
h1v50l14 6v-17c1 3 10 7 26 10v16c4 2 9 3 14 4v-18h2c8 1 16 1 24 1v23l14 3v-28c4 0 8 -1 13 -1l13 -2v34h14v-35h26v35h14v-35c7 0 15 1 26 1v31l14 -3v-27c11 1 19 1 26 1v20c4 -1 9 -2 14 -4v-17c1 0 2 -1 3 -1c6 -2 10 -4 10 -5c0 -3 -6 -4 -13 -5v-39c9 1 17 1 26 1
v57l14 -6v-51c9 0 18 0 26 -1v39c5 -2 9 -5 14 -8v-32l20 -4c3 -1 5 -2 6 -2v20c5 -3 9 -7 14 -11v-105c8 -3 17 -8 26 -12v93l14 -15v-85l23 -14l3 -3v69l14 -22v-350l-14 -22v316c-2 0 -5 0 -6 1l-20 6v-356l-14 -15v375l-26 5v-40v-2v-345c12 -5 13 -11 2 -11h-2v-6
l-14 -12v20c-8 2 -18 5 -26 8v-45l-14 -9v59c-3 1 -5 3 -6 4c-8 4 -14 10 -20 16v-92l-14 -6v113c-9 10 -16 21 -21 28c-1 0 -4 -1 -5 -1v-105l8 -9c5 -6 -3 -12 -7 -8c-1 0 -1 0 -1 1v-28c-5 -1 -10 -2 -14 -4v42c-8 5 -17 9 -26 13v-61c-5 -1 -9 -2 -14 -2v68
c-8 2 -17 3 -26 4v-75h-14zM202 98c9 2 17 6 26 11v332c-8 -1 -17 -2 -26 -4v-339zM602 122c8 -7 17 -13 26 -18v334c-1 0 -2 1 -2 1c-9 2 -16 4 -24 5v-322zM417 260c4 -5 7 -8 11 -10v323c-9 -1 -18 -1 -26 -1v-301c4 -2 8 -5 15 -11zM376 263c3 3 7 6 12 7v302
c-8 1 -16 3 -24 5h-2v-52c4 -2 8 -4 10 -6c5 -6 -1 -22 -10 -34v-37c5 -5 7 -10 7 -16c0 -7 -3 -12 -7 -14v-109c7 -1 7 -6 7 -9c0 -4 -3 -6 -6 -10l-1 -1v-32c4 0 9 1 14 6zM562 163c8 -10 16 -20 26 -29v311h-10v-4c0 -14 -6 -26 -16 -34v-244zM242 119c9 8 18 17 26 27
v252c-11 3 -21 10 -26 19v-298zM346 302l2 2v115c-4 2 -6 7 -10 11c-5 5 -11 7 -13 8h-2c0 -3 -1 -6 -1 -9v-244l20 4h6v52c-9 9 -15 22 -14 36c1 9 6 20 12 25zM485 253l-3 -6v-54c8 2 17 3 26 2v211c-10 7 -16 18 -17 31l-9 -2v-96c12 -40 13 -65 3 -86zM282 168
c10 19 20 43 26 63v177c-7 -6 -17 -11 -26 -11v-229zM528 230c4 -16 11 -31 20 -46v216c-5 -2 -9 -2 -14 -2c-4 0 -8 0 -12 1v-154c2 -2 4 -8 6 -15zM68 421c3 16 8 32 14 48v-239c-6 16 -11 32 -14 49v142zM762 279c-4 -17 -8 -33 -14 -49v239c6 -16 10 -32 14 -48v-142z
M449 365l-7 25v-143c16 1 24 15 26 39v7c0 11 -3 26 -6 37c-3 10 -10 25 -13 35zM348 149c-10 3 -18 5 -26 6v-96c7 7 15 15 26 22v68zM602 529c8 -3 16 -5 26 -9v87c-3 -1 -12 -2 -25 -1h-1v-77zM508 160l-26 -9v-61c9 -5 18 -11 26 -17v87zM562 538c10 -1 17 -2 26 -5v72
c-8 0 -17 -1 -26 -2v-65zM202 528c9 3 17 5 26 7v65h-6c-7 0 -14 -1 -20 -1v-71zM242 538c8 1 17 2 26 2v58c-8 1 -17 2 -26 2v-62zM542 539h6v61c-8 -1 -17 -3 -26 -6v-55h20zM282 540c8 0 17 -1 26 -2v54l-26 5v-57zM404 234l-2 -2v-50c9 -2 17 -2 26 -2v48l-3 2
c-12 6 -16 8 -21 4zM327 535c8 -2 15 -3 21 -5v51l-19 5c-3 0 -5 1 -7 2v-52c1 -1 3 -1 5 -1zM453 527c3 2 8 4 15 6v47c-9 -2 -18 -4 -26 -5v-64c3 7 6 12 11 16zM482 536c7 1 15 2 26 2v53l-14 -4l-12 -3v-48zM388 140c-9 1 -18 4 -26 6v-58c8 4 17 8 26 11v41zM468 147
c-9 -3 -18 -5 -26 -7v-38c9 -1 17 -3 26 -6v51zM464 231c-9 -4 -16 -6 -22 -6v-43c7 1 16 3 26 6v44c-1 0 -3 -1 -4 -1zM367 230c-2 0 -4 1 -5 1v-42c8 -1 17 -4 26 -5v44c-7 -1 -15 0 -21 2zM362 611c9 -1 17 -2 26 -2v40c-10 1 -19 3 -26 4v-42zM339 614c3 -1 6 -1 9 -1
v41c-10 1 -18 1 -26 1v-39c5 -1 11 -2 17 -2zM488 614c6 1 13 2 20 2v39l-26 -4v-38c2 0 4 0 6 1zM442 609l26 2v39h-2c-8 -1 -16 -3 -24 -3v-38zM428 646c-10 0 -19 0 -26 1v-38c8 0 17 -1 26 0v37zM282 619l26 -2v38c-16 -1 -26 -1 -26 2v-38zM186 488
c-11 -4 -15 -5 -24 -7v-39c5 5 14 10 26 14v32h-2zM418 137c-5 0 -11 0 -16 1v-36c7 1 14 2 21 2h5v33h-10zM453 461c0 -29 3 -41 15 -78v52c-7 1 -11 4 -11 10s5 10 11 13v26h-1c-12 -6 -14 -9 -14 -23zM228 493l-26 -2v-31l10 2c5 1 10 2 16 2v29zM628 487l-26 3v-25
c10 -1 18 -4 26 -7v29zM268 493h-26v-27l26 2v25zM572 492h-10v-24c8 0 17 -1 26 -1v24c-6 1 -11 1 -16 1zM505 490l-23 -2v-25c7 2 17 3 26 4v23h-3zM548 492c-9 0 -18 0 -26 -1v-24c9 1 18 1 26 1v24zM284 468c9 0 17 -1 24 -1v22h-2l-24 3v-24h2zM334 480
c-2 1 -7 4 -12 5v-20c10 -1 16 -3 21 -5l5 -3v18c-5 0 -9 2 -14 5z" />
    <glyph glyph-name="u1F31B" unicode="&#x1f31b;" horiz-adv-x="830" 
d="M96 637l-19 29c63 43 155 79 269 79c236 0 428 -177 428 -395s-192 -395 -428 -395c-114 0 -213 47 -272 94l19 26c39 -29 92 -56 144 -71c45 -13 89 -8 100 -3c19 8 34 20 39 39c7 23 11 30 31 45c26 20 27 33 7 60c-13 16 -14 31 0 43c4 3 8 5 13 6l-9 7
c-10 8 -10 14 -7 23c6 14 10 35 9 39c-2 2 -5 6 -23 2c-36 -6 -56 5 -65 29c-6 15 -2 39 8 58c4 8 16 28 29 46c13 19 26 40 30 48c13 26 8 49 -18 76c-20 23 -23 26 -21 61c4 57 -17 89 -57 106c-26 11 -60 11 -80 5c-46 -13 -90 -35 -127 -57zM346 711
c-10 0 -20 -1 -30 -1c3 -2 5 -3 9 -4c20 -8 35 -24 45 -42c12 -22 13 -34 15 -74c1 -12 0 -27 2 -35c2 -9 23 -31 33 -49c11 -20 10 -51 -2 -72c-3 -6 -16 -25 -28 -43c-38 -53 -42 -75 -33 -94c7 -14 20 -12 29 2c12 18 35 14 51 -5c8 -11 12 -13 25 -7c12 6 14 17 12 47
c-1 14 -1 23 2 29c2 4 5 6 8 1c2 -4 3 -7 3 -12c0 -25 21 -75 47 -106c19 -22 46 -44 78 -65c10 -7 8 -11 2 -11c-12 0 -57 22 -78 38c-13 10 -33 35 -40 50c-6 12 -8 17 -18 10c-4 -3 -13 -4 -18 -4s-10 0 -13 -2c-3 -3 -3 -9 -6 -18c-6 -22 -6 -23 12 -29
c9 -3 23 -8 31 -13c20 -10 43 -34 43 -42s-5 -8 -26 1c-11 4 -24 10 -41 11s-27 0 -29 -4c-2 -3 4 -9 10 -20c11 -19 12 -37 5 -51c-3 -6 -14 -18 -24 -29c-17 -17 -18 -20 -21 -35c-3 -14 -4 -17 -17 -28c-7 -7 -12 -12 -14 -15c183 13 327 169 327 360
c0 199 -157 361 -351 361zM428 524c3 0 10 -2 18 -4c10 -1 26 -4 34 -6c22 -4 46 -15 68 -29c10 -6 21 -15 28 -18c13 -6 11 -8 7 -17c-3 -4 -7 -5 -25 -4c-22 2 -61 -6 -74 -12c-3 -2 -13 -4 -22 -7c-12 -4 -18 1 -16 7c1 3 7 6 7 6s9 6 21 11c20 9 37 15 70 15
c-13 13 -44 22 -62 23c-2 -3 0 -8 -2 -17c-5 -15 -13 -22 -19 -17c-9 7 -10 23 -13 35c-1 7 -3 12 -12 20c-7 7 -14 10 -11 13c1 1 1 1 3 1zM402 570c0 21 26 24 54 24c30 -2 59 -27 96 -64c23 -23 46 -36 75 -48c3 -1 12 -5 9 -8c-3 -5 -22 -2 -40 6c-9 4 -32 18 -52 32
c-46 33 -73 46 -109 43c-25 -2 -33 0 -33 15z" />
    <glyph glyph-name="u1F31C" unicode="&#x1f31c;" horiz-adv-x="830" 
d="M753 666l-19 -29c-37 22 -81 44 -127 57c-20 6 -54 6 -80 -5c-40 -17 -61 -49 -57 -106c2 -35 -1 -38 -21 -61c-26 -27 -31 -50 -18 -76c4 -8 17 -29 30 -48c13 -18 25 -38 29 -46c10 -19 14 -43 8 -58c-9 -24 -29 -35 -65 -29c-18 4 -21 0 -23 -2c-1 -4 3 -25 9 -39
c3 -9 3 -15 -7 -23l-9 -7c5 -1 9 -3 13 -6c14 -12 13 -27 0 -43c-20 -27 -19 -40 7 -60c20 -15 24 -22 31 -45c5 -19 20 -31 39 -39c11 -5 55 -10 100 3c52 15 105 42 144 71l19 -26c-59 -47 -158 -94 -272 -94c-236 0 -428 177 -428 395s192 395 428 395
c114 0 206 -36 269 -79zM484 711c-194 0 -351 -162 -351 -361c0 -191 144 -347 327 -360c-2 3 -7 8 -14 15c-13 11 -14 14 -17 28c-3 15 -4 18 -21 35c-10 11 -21 23 -24 29c-7 14 -6 32 5 51c6 11 12 17 10 20c-2 4 -12 5 -29 4s-30 -7 -41 -11c-21 -9 -26 -9 -26 -1
s23 32 43 42c8 5 22 10 31 13c18 6 18 7 12 29c-3 9 -3 15 -6 18c-3 2 -8 2 -13 2s-14 1 -18 4c-10 7 -12 2 -18 -10c-7 -15 -27 -40 -40 -50c-21 -16 -66 -38 -78 -38c-6 0 -8 4 2 11c32 21 59 43 78 65c26 31 47 81 47 106c0 5 1 8 3 12c3 5 6 3 8 -1c3 -6 3 -15 2 -29
c-2 -30 0 -41 12 -47c13 -6 17 -4 25 7c16 19 39 23 51 5c9 -14 22 -16 29 -2c9 19 5 41 -33 94c-12 18 -25 37 -28 43c-12 21 -13 52 -2 72c10 18 31 40 33 49c2 8 1 23 2 35c2 40 3 52 15 74c10 18 25 34 45 42c4 1 6 2 9 4c-10 0 -20 1 -30 1zM402 524c2 0 2 0 3 -1
c3 -3 -4 -6 -11 -13c-9 -8 -11 -13 -12 -20c-3 -12 -4 -28 -13 -35c-6 -5 -14 2 -19 17c-2 9 0 14 -2 17c-18 -1 -49 -10 -62 -23c33 0 50 -6 70 -15c12 -5 21 -11 21 -11s6 -3 7 -6c2 -6 -4 -11 -16 -7c-9 3 -19 5 -22 7c-13 6 -52 14 -74 12c-18 -1 -22 0 -25 4
c-4 9 -6 11 7 17c7 3 18 12 28 18c22 14 46 25 68 29c8 2 24 5 34 6c8 2 15 4 18 4zM428 570c0 -15 -8 -17 -33 -15c-36 3 -63 -10 -109 -43c-20 -14 -43 -28 -52 -32c-18 -8 -37 -11 -40 -6c-3 3 6 7 9 8c29 12 52 25 75 48c37 37 66 62 96 64c28 0 54 -3 54 -24z" />
    <glyph glyph-name="u1F31D" unicode="&#x1f31d;" horiz-adv-x="830" 
d="M415 745c220 0 398 -177 398 -395s-178 -395 -398 -395s-398 177 -398 395s178 395 398 395zM415 711c-201 0 -364 -162 -364 -361s163 -361 364 -361s364 162 364 361s-163 361 -364 361zM542 539c25 0 36 -3 53 -8c31 -8 84 -31 110 -50c4 -3 7 -8 7 -10
c0 -3 -7 -2 -10 -1l-23 7c-33 9 -71 14 -107 15c-22 0 -45 0 -67 -2c-16 -1 -31 -3 -38 -6c-12 -6 -14 -9 -14 -23c0 -38 6 -47 29 -122c12 -40 13 -65 3 -86c-6 -11 -10 -17 -21 -22c-16 -7 -25 -7 -39 -1c-12 6 -16 8 -21 4c-8 -7 -25 -7 -37 -4c-20 6 -34 26 -33 47
c1 9 6 20 12 25c3 3 9 7 14 7c9 0 9 -6 9 -9c0 -4 -3 -6 -6 -10c-8 -10 -12 -24 -7 -29s12 -5 20 2c5 5 13 9 19 9c7 0 12 -2 22 -12c9 -9 14 -13 22 -13c19 0 29 17 29 46c0 11 -3 26 -6 37c-3 10 -10 25 -13 35c-11 41 -15 47 -15 87c0 43 7 65 19 75c10 7 33 12 89 12z
M317 258h1c4 -3 5 -46 2 -63l-2 -10l24 4c14 2 31 -2 48 -5c31 -5 45 -6 86 7c14 6 32 5 45 3c0 2 -2 10 -4 20c-2 12 -1 25 0 28c5 8 8 0 11 -12c16 -55 62 -110 114 -132c12 -5 13 -11 2 -11c-14 0 -50 11 -62 19c-27 17 -44 45 -55 59c-13 -2 -79 -28 -109 -28
c-38 0 -82 19 -107 19c-17 -15 -32 -34 -52 -48c-22 -16 -71 -28 -69 -17c0 2 5 5 12 7c24 7 47 24 66 48c16 21 37 70 44 101c1 6 2 11 5 11zM271 540c17 0 36 -1 56 -5c26 -5 39 -10 45 -16c5 -6 -1 -23 -11 -35c-10 -11 -17 -10 -27 -4c-4 3 -16 7 -28 9
c-28 6 -95 6 -120 -1c-16 -5 -17 -5 -40 -9c-14 -2 -33 -8 -42 -12c-3 -1 -7 -1 -8 0c-5 8 14 22 58 42c44 21 79 31 117 31zM267 619c22 0 47 -2 72 -5c51 -7 97 -7 149 0c49 7 104 6 134 -2c15 -4 5 -7 -19 -6c-29 0 -60 -5 -109 -19c-53 -15 -90 -20 -130 -10l-35 9
c-38 11 -65 15 -107 14c-20 0 -38 -4 -38 1c0 6 14 10 35 14c12 2 32 4 48 4zM284 468c40 -1 50 -4 59 -8c20 -9 26 -17 26 -28s-7 -15 -14 -15c-8 0 -11 7 -17 13c-5 5 -11 7 -13 8h-2c-1 -23 -21 -41 -44 -41c-24 0 -43 19 -43 43v2h-3c-15 -2 -32 -4 -49 -10
s-24 -7 -26 -4c-7 12 15 26 54 34c20 4 48 6 72 6zM554 468c28 0 59 -2 77 -11c9 -4 11 -8 11 -14s-8 -6 -16 -4c-16 4 -30 6 -48 6v-4c0 -24 -20 -43 -44 -43c-23 0 -41 17 -43 39c-5 -1 -10 -2 -15 -2c-11 -1 -19 2 -19 10c0 7 6 11 13 14c21 9 61 9 84 9zM311 44
c13 26 62 60 112 60c47 0 85 -25 107 -54c5 -6 -3 -12 -7 -8c-22 19 -54 34 -98 34c-21 0 -71 -2 -108 -37c-4 -4 -8 1 -6 5zM324 670c19 2 35 0 51 -2c41 -4 46 -4 102 -1c28 2 41 1 48 -1c6 -2 10 -4 10 -5c0 -4 -12 -5 -26 -6l-43 -5c-26 -4 -55 -5 -72 -2
c-39 6 -60 9 -84 7c-17 -1 -28 -1 -28 3c0 3 14 9 42 12z" />
    <glyph glyph-name="uni2720" unicode="&#x2720;" horiz-adv-x="831" 
d="M174 745h484c-95 -99 -181 -247 -207 -361c113 26 251 113 350 207v-483c-99 94 -236 180 -350 206c26 -113 113 -260 207 -359h-484c94 99 180 246 206 360c-114 -26 -251 -112 -350 -206v482c99 -95 237 -182 351 -207c-26 114 -113 261 -207 361z" />
    <glyph glyph-name="g.alt" horiz-adv-x="612" 
d="M140 19v4c-56 11 -93 45 -93 89c0 46 39 74 80 94c-25 27 -42 65 -42 105c0 99 99 179 222 179h254v-116h-23c-20 0 -29 5 -34 9l-4 -3c11 -14 23 -41 23 -79c0 -93 -96 -169 -214 -169c-38 0 -72 7 -88 14c-11 -6 -24 -16 -24 -32c0 -17 13 -31 52 -31h140
c134 0 196 -57 196 -137c0 -104 -119 -186 -311 -186c-149 0 -251 64 -251 142c0 68 72 102 117 117zM248 -27c-33 -9 -57 -32 -57 -51c0 -25 34 -46 99 -46c70 0 127 24 127 56c0 25 -20 41 -51 41h-118zM307 374c-33 0 -60 -28 -60 -63s27 -63 60 -63s60 28 60 63
s-27 63 -60 63z" />
    <glyph glyph-name="gcircumflex.alt" horiz-adv-x="612" 
d="M140 19v4c-56 11 -93 45 -93 89c0 46 39 74 80 94c-25 27 -42 65 -42 105c0 99 99 179 222 179h254v-116h-23c-20 0 -29 5 -34 9l-4 -3c11 -14 23 -41 23 -79c0 -93 -96 -169 -214 -169c-38 0 -72 7 -88 14c-11 -6 -24 -16 -24 -32c0 -17 13 -31 52 -31h140
c134 0 196 -57 196 -137c0 -104 -119 -186 -311 -186c-149 0 -251 64 -251 142c0 68 72 102 117 117zM248 -27c-33 -9 -57 -32 -57 -51c0 -25 34 -46 99 -46c70 0 127 24 127 56c0 25 -20 41 -51 41h-118zM307 374c-33 0 -60 -28 -60 -63s27 -63 60 -63s60 28 60 63
s-27 63 -60 63zM499 585l-65 -82l-127 68l-127 -68l-65 82l192 125z" />
    <glyph glyph-name="gbreve.alt" horiz-adv-x="612" 
d="M140 19v4c-56 11 -93 45 -93 89c0 46 39 74 80 94c-25 27 -42 65 -42 105c0 99 99 179 222 179h254v-116h-23c-20 0 -29 5 -34 9l-4 -3c11 -14 23 -41 23 -79c0 -93 -96 -169 -214 -169c-38 0 -72 7 -88 14c-11 -6 -24 -16 -24 -32c0 -17 13 -31 52 -31h140
c134 0 196 -57 196 -137c0 -104 -119 -186 -311 -186c-149 0 -251 64 -251 142c0 68 72 102 117 117zM248 -27c-33 -9 -57 -32 -57 -51c0 -25 34 -46 99 -46c70 0 127 24 127 56c0 25 -20 41 -51 41h-118zM307 374c-33 0 -60 -28 -60 -63s27 -63 60 -63s60 28 60 63
s-27 63 -60 63zM114 652l98 39c12 -41 47 -61 94 -61s82 22 94 61l98 -39c-23 -89 -98 -142 -192 -142s-169 53 -192 142z" />
    <glyph glyph-name="gdotaccent.alt" horiz-adv-x="612" 
d="M140 19v4c-56 11 -93 45 -93 89c0 46 39 74 80 94c-25 27 -42 65 -42 105c0 99 99 179 222 179h254v-116h-23c-20 0 -29 5 -34 9l-4 -3c11 -14 23 -41 23 -79c0 -93 -96 -169 -214 -169c-38 0 -72 7 -88 14c-11 -6 -24 -16 -24 -32c0 -17 13 -31 52 -31h140
c134 0 196 -57 196 -137c0 -104 -119 -186 -311 -186c-149 0 -251 64 -251 142c0 68 72 102 117 117zM248 -27c-33 -9 -57 -32 -57 -51c0 -25 34 -46 99 -46c70 0 127 24 127 56c0 25 -20 41 -51 41h-118zM307 374c-33 0 -60 -28 -60 -63s27 -63 60 -63s60 28 60 63
s-27 63 -60 63zM306 705c52 0 95 -43 95 -95s-43 -95 -95 -95s-95 43 -95 95s43 95 95 95z" />
    <glyph glyph-name="gcaron.alt" horiz-adv-x="612" 
d="M140 19v4c-56 11 -93 45 -93 89c0 46 39 74 80 94c-25 27 -42 65 -42 105c0 99 99 179 222 179h254v-116h-23c-20 0 -29 5 -34 9l-4 -3c11 -14 23 -41 23 -79c0 -93 -96 -169 -214 -169c-38 0 -72 7 -88 14c-11 -6 -24 -16 -24 -32c0 -17 13 -31 52 -31h140
c134 0 196 -57 196 -137c0 -104 -119 -186 -311 -186c-149 0 -251 64 -251 142c0 68 72 102 117 117zM248 -27c-33 -9 -57 -32 -57 -51c0 -25 34 -46 99 -46c70 0 127 24 127 56c0 25 -20 41 -51 41h-118zM307 374c-33 0 -60 -28 -60 -63s27 -63 60 -63s60 28 60 63
s-27 63 -60 63zM433 711l65 -82l-192 -125l-192 125l65 82l127 -68z" />
    <glyph glyph-name="gacute.alt" horiz-adv-x="612" 
d="M140 19v4c-56 11 -93 45 -93 89c0 46 39 74 80 94c-25 27 -42 65 -42 105c0 99 99 179 222 179h254v-116h-23c-20 0 -29 5 -34 9l-4 -3c11 -14 23 -41 23 -79c0 -93 -96 -169 -214 -169c-38 0 -72 7 -88 14c-11 -6 -24 -16 -24 -32c0 -17 13 -31 52 -31h140
c134 0 196 -57 196 -137c0 -104 -119 -186 -311 -186c-149 0 -251 64 -251 142c0 68 72 102 117 117zM248 -27c-33 -9 -57 -32 -57 -51c0 -25 34 -46 99 -46c70 0 127 24 127 56c0 25 -20 41 -51 41h-118zM307 374c-33 0 -60 -28 -60 -63s27 -63 60 -63s60 28 60 63
s-27 63 -60 63zM372 776l114 -76l-162 -150l-88 58z" />
    <glyph glyph-name="A.alt" 
d="M388 377h-4c0 -5 -7 -33 -26 -76l-104 -231c-7 -16 -22 -48 -31 -70h-205c8 17 40 78 55 109l304 615h20l300 -615c15 -31 44 -88 55 -109h-199c-9 21 -24 52 -32 70l-106 231c-20 43 -27 71 -27 76z" />
    <glyph glyph-name="Agrave.alt" 
d="M388 377h-4c0 -5 -7 -33 -26 -76l-104 -231c-7 -16 -22 -48 -31 -70h-205c8 17 40 78 55 109l304 615h20l300 -615c15 -31 44 -88 55 -109h-199c-9 21 -24 52 -32 70l-106 231c-20 43 -27 71 -27 76zM138 935l114 76l136 -168l-88 -58z" />
    <glyph glyph-name="Aacute.alt" 
d="M502 1011l114 -76l-162 -150l-88 58zM388 377h-4c0 -5 -7 -33 -26 -76l-104 -231c-7 -16 -22 -48 -31 -70h-205c8 17 40 78 55 109l304 615h20l300 -615c15 -31 44 -88 55 -109h-199c-9 21 -24 52 -32 70l-106 231c-20 43 -27 71 -27 76z" />
    <glyph glyph-name="Acircumflex.alt" 
d="M580 850l-65 -82l-127 68l-127 -68l-65 82l192 125zM388 377h-4c0 -5 -7 -33 -26 -76l-104 -231c-7 -16 -22 -48 -31 -70h-205c8 17 40 78 55 109l304 615h20l300 -615c15 -31 44 -88 55 -109h-199c-9 21 -24 52 -32 70l-106 231c-20 43 -27 71 -27 76z" />
    <glyph glyph-name="Atilde.alt" 
d="M493 955l118 -20c-15 -86 -107 -154 -196 -139l-76 13c-27 5 -53 -17 -58 -45l-118 20c15 86 107 155 196 139l75 -13c28 -5 54 17 59 45zM388 377h-4c0 -5 -7 -33 -26 -76l-104 -231c-7 -16 -22 -48 -31 -70h-205c8 17 40 78 55 109l304 615h20l300 -615
c15 -31 44 -88 55 -109h-199c-9 21 -24 52 -32 70l-106 231c-20 43 -27 71 -27 76z" />
    <glyph glyph-name="Adieresis.alt" 
d="M262 980c52 0 95 -43 95 -95s-43 -95 -95 -95s-95 43 -95 95s43 95 95 95zM512 980c52 0 95 -43 95 -95s-43 -95 -95 -95s-95 43 -95 95s43 95 95 95zM388 377h-4c0 -5 -7 -33 -26 -76l-104 -231c-7 -16 -22 -48 -31 -70h-205c8 17 40 78 55 109l304 615h20l300 -615
c15 -31 44 -88 55 -109h-199c-9 21 -24 52 -32 70l-106 231c-20 43 -27 71 -27 76z" />
    <glyph glyph-name="Aring.alt" 
d="M387 1015c81 0 130 -52 130 -115s-48 -115 -130 -115s-130 52 -130 115s48 115 130 115zM387 931c-26 0 -40 -14 -40 -31s14 -31 40 -31c27 0 40 14 40 31s-14 31 -40 31zM388 377h-4c0 -5 -7 -33 -26 -76l-104 -231c-7 -16 -22 -48 -31 -70h-205c8 17 40 78 55 109
l304 615h20l300 -615c15 -31 44 -88 55 -109h-199c-9 21 -24 52 -32 70l-106 231c-20 43 -27 71 -27 76z" />
    <glyph glyph-name="Amacron.alt" 
d="M388 377h-4c0 -5 -7 -33 -26 -76l-104 -231c-7 -16 -22 -48 -31 -70h-205c8 17 40 78 55 109l304 615h20l300 -615c15 -31 44 -88 55 -109h-199c-9 21 -24 52 -32 70l-106 231c-20 43 -27 71 -27 76zM252 916c9 0 43 -1 60 -1h150c17 0 51 1 60 1v-122c-9 0 -43 1 -60 1
h-150c-17 0 -51 -1 -60 -1v122z" />
    <glyph glyph-name="Abreve.alt" 
d="M196 917l98 39c12 -41 47 -61 94 -61s82 22 94 61l98 -39c-23 -89 -98 -142 -192 -142s-169 53 -192 142zM388 377h-4c0 -5 -7 -33 -26 -76l-104 -231c-7 -16 -22 -48 -31 -70h-205c8 17 40 78 55 109l304 615h20l300 -615c15 -31 44 -88 55 -109h-199
c-9 21 -24 52 -32 70l-106 231c-20 43 -27 71 -27 76z" />
    <glyph glyph-name="Aogonek.alt" 
d="M388 377h-4c0 -5 -7 -33 -26 -76l-104 -231c-7 -16 -22 -48 -31 -70h-205c8 17 40 78 55 109l304 615h20l300 -615c15 -31 44 -88 55 -109h-122c-16 -19 -30 -42 -30 -69c0 -35 24 -51 54 -51c27 0 51 12 63 20l49 -102c-22 -15 -68 -38 -132 -38
c-104 0 -160 62 -160 138c0 60 34 108 63 137c-6 13 -12 25 -16 35l-106 231c-20 43 -27 71 -27 76z" />
    <glyph glyph-name="Acaron.alt" 
d="M515 976l65 -82l-192 -125l-192 125l65 82l127 -68zM388 377h-4c0 -5 -7 -33 -26 -76l-104 -231c-7 -16 -22 -48 -31 -70h-205c8 17 40 78 55 109l304 615h20l300 -615c15 -31 44 -88 55 -109h-199c-9 21 -24 52 -32 70l-106 231c-20 43 -27 71 -27 76z" />
    <glyph glyph-name="uni0202.alt" 
d="M294 775l-98 39c23 89 98 142 192 142s169 -53 192 -142l-98 -39c-12 39 -47 61 -94 61s-82 -20 -94 -61zM388 377h-4c0 -5 -7 -33 -26 -76l-104 -231c-7 -16 -22 -48 -31 -70h-205c8 17 40 78 55 109l304 615h20l300 -615c15 -31 44 -88 55 -109h-199
c-9 21 -24 52 -32 70l-106 231c-20 43 -27 71 -27 76z" />
    <glyph glyph-name="uni0226.alt" 
d="M387 970c52 0 95 -43 95 -95s-43 -95 -95 -95s-95 43 -95 95s43 95 95 95zM388 377h-4c0 -5 -7 -33 -26 -76l-104 -231c-7 -16 -22 -48 -31 -70h-205c8 17 40 78 55 109l304 615h20l300 -615c15 -31 44 -88 55 -109h-199c-9 21 -24 52 -32 70l-106 231
c-20 43 -27 71 -27 76z" />
    <glyph glyph-name="G.alt" horiz-adv-x="764" 
d="M541 332h194c0 -19 -1 -85 -1 -120v-115c-71 -74 -182 -117 -300 -117c-239 0 -384 168 -384 374s150 366 382 366c130 0 218 -45 284 -113l-120 -124c-49 49 -101 73 -164 73c-105 0 -190 -74 -190 -202c0 -126 90 -206 192 -206c44 0 78 9 108 25v39
c0 35 -1 101 -1 120z" />
    <glyph glyph-name="Gacute.alt" horiz-adv-x="764" 
d="M541 332h194c0 -19 -1 -85 -1 -120v-115c-71 -74 -182 -117 -300 -117c-239 0 -384 168 -384 374s150 366 382 366c130 0 218 -45 284 -113l-120 -124c-49 49 -101 73 -164 73c-105 0 -190 -74 -190 -202c0 -126 90 -206 192 -206c44 0 78 9 108 25v39
c0 35 -1 101 -1 120zM486 1041l114 -76l-162 -150l-88 58z" />
    <glyph glyph-name="Gcircumflex.alt" horiz-adv-x="764" 
d="M541 332h194c0 -19 -1 -85 -1 -120v-115c-71 -74 -182 -117 -300 -117c-239 0 -384 168 -384 374s150 366 382 366c130 0 218 -45 284 -113l-120 -124c-49 49 -101 73 -164 73c-105 0 -190 -74 -190 -202c0 -126 90 -206 192 -206c44 0 78 9 108 25v39
c0 35 -1 101 -1 120zM622 850l-65 -82l-127 68l-127 -68l-65 82l192 125z" />
    <glyph glyph-name="Gbreve.alt" horiz-adv-x="764" 
d="M541 332h194c0 -19 -1 -85 -1 -120v-115c-71 -74 -182 -117 -300 -117c-239 0 -384 168 -384 374s150 366 382 366c130 0 218 -45 284 -113l-120 -124c-49 49 -101 73 -164 73c-105 0 -190 -74 -190 -202c0 -126 90 -206 192 -206c44 0 78 9 108 25v39
c0 35 -1 101 -1 120zM238 917l98 39c12 -41 47 -61 94 -61s82 22 94 61l98 -39c-23 -89 -98 -142 -192 -142s-169 53 -192 142z" />
    <glyph glyph-name="Gdotaccent.alt" horiz-adv-x="764" 
d="M541 332h194c0 -19 -1 -85 -1 -120v-115c-71 -74 -182 -117 -300 -117c-239 0 -384 168 -384 374s150 366 382 366c130 0 218 -45 284 -113l-120 -124c-49 49 -101 73 -164 73c-105 0 -190 -74 -190 -202c0 -126 90 -206 192 -206c44 0 78 9 108 25v39
c0 35 -1 101 -1 120zM432 970c52 0 95 -43 95 -95s-43 -95 -95 -95s-95 43 -95 95s43 95 95 95z" />
    <glyph glyph-name="Gcaron.alt" horiz-adv-x="764" 
d="M541 332h194c0 -19 -1 -85 -1 -120v-115c-71 -74 -182 -117 -300 -117c-239 0 -384 168 -384 374s150 366 382 366c130 0 218 -45 284 -113l-120 -124c-49 49 -101 73 -164 73c-105 0 -190 -74 -190 -202c0 -126 90 -206 192 -206c44 0 78 9 108 25v39
c0 35 -1 101 -1 120zM555 976l65 -82l-192 -125l-192 125l65 82l127 -68z" />
    <glyph glyph-name="S.alt" horiz-adv-x="527" 
d="M326 -15l-68 140c32 4 53 28 53 55c0 44 -51 74 -111 113c-78 51 -171 114 -171 223s99 204 221 204c114 0 190 -69 228 -113l-112 -104c-29 39 -65 73 -112 73c-26 0 -45 -18 -45 -38c0 -48 63 -77 110 -109c90 -62 176 -115 176 -233c0 -106 -67 -185 -169 -211z" />
    <glyph glyph-name="Sacute.alt" horiz-adv-x="527" 
d="M326 -15l-68 140c32 4 53 28 53 55c0 44 -51 74 -111 113c-78 51 -171 114 -171 223s99 204 221 204c114 0 190 -69 228 -113l-112 -104c-29 39 -65 73 -112 73c-26 0 -45 -18 -45 -38c0 -48 63 -77 110 -109c90 -62 176 -115 176 -233c0 -106 -67 -185 -169 -211z
M292 1041l114 -76l-162 -150l-88 58z" />
    <glyph glyph-name="Scircumflex.alt" horiz-adv-x="527" 
d="M445 850l-65 -82l-127 68l-127 -68l-65 82l192 125zM326 -15l-68 140c32 4 53 28 53 55c0 44 -51 74 -111 113c-78 51 -171 114 -171 223s99 204 221 204c114 0 190 -69 228 -113l-112 -104c-29 39 -65 73 -112 73c-26 0 -45 -18 -45 -38c0 -48 63 -77 110 -109
c90 -62 176 -115 176 -233c0 -106 -67 -185 -169 -211z" />
    <glyph glyph-name="Scedilla.alt" horiz-adv-x="527" 
d="M216 -32l-107 -128l66 -52l122 114zM326 -15l-68 140c32 4 53 28 53 55c0 44 -51 74 -111 113c-78 51 -171 114 -171 223s99 204 221 204c114 0 190 -69 228 -113l-112 -104c-29 39 -65 73 -112 73c-26 0 -45 -18 -45 -38c0 -48 63 -77 110 -109
c90 -62 176 -115 176 -233c0 -106 -67 -185 -169 -211z" />
    <glyph glyph-name="Scaron.alt" horiz-adv-x="527" 
d="M380 976l65 -82l-192 -125l-192 125l65 82l127 -68zM326 -15l-68 140c32 4 53 28 53 55c0 44 -51 74 -111 113c-78 51 -171 114 -171 223s99 204 221 204c114 0 190 -69 228 -113l-112 -104c-29 39 -65 73 -112 73c-26 0 -45 -18 -45 -38c0 -48 63 -77 110 -109
c90 -62 176 -115 176 -233c0 -106 -67 -185 -169 -211z" />
    <glyph glyph-name="Scommaaccent.alt" horiz-adv-x="527" 
d="M326 -15l-68 140c32 4 53 28 53 55c0 44 -51 74 -111 113c-78 51 -171 114 -171 223s99 204 221 204c114 0 190 -69 228 -113l-112 -104c-29 39 -65 73 -112 73c-26 0 -45 -18 -45 -38c0 -48 63 -77 110 -109c90 -62 176 -115 176 -233c0 -106 -67 -185 -169 -211z
M216 -32l-107 -128l66 -52l122 114z" />
    </font>
</defs>
</svg>
