<?xml version="1.0" standalone="no"?>
<!DOCTYPE svg PUBLIC "-//W3C//DTD SVG 1.1//EN" "http://www.w3.org/Graphics/SVG/1.1/DTD/svg11.dtd" >
<svg xmlns="http://www.w3.org/2000/svg" xmlns:xlink="http://www.w3.org/1999/xlink" version="1.1">
<metadata>
Created by FontForge 20170924 at Sun Nov 19 20:23:59 2017
 By www-data
Digital porting: Leonardo Di Lena, special thanks to: Romesh Naik (:Nike) that gave me hope to create this font from original scans.
</metadata>
<defs>
<font id="Semplicita-LightItalic" horiz-adv-x="611" >
  <font-face 
    font-family="Semplicita"
    font-weight="300"
    font-style="italic"
    font-stretch="normal"
    units-per-em="1000"
    panose-1="2 11 3 2 2 1 2 2 3 4"
    ascent="750"
    descent="-250"
    x-height="435"
    cap-height="700"
    bbox="-187 -232 1393 965"
    underline-thickness="50"
    underline-position="-100"
    slope="-7"
    unicode-range="U+0020-1F31D"
  />
<missing-glyph horiz-adv-x="610" 
d="M49 700h512c0 -19 -1 -85 -1 -120v-460c0 -35 1 -101 1 -120h-512c0 19 1 85 1 120v460c0 35 -1 101 -1 120zM95 656v-612h420v612h-420z" />
    <glyph glyph-name="f_f" unicode="ff" horiz-adv-x="499" 
d="M544 807l-6 -43c-70 0 -98 -48 -110 -150l-22 -179c29 1 64 1 77 1l-5 -45c-13 0 -46 0 -77 1l-61 -492c-4 -35 -11 -101 -14 -120h-46c3 19 12 85 16 120l87 704c6 48 15 89 30 121c-19 22 -48 39 -90 39c-66 0 -152 -47 -168 -171l-19 -158c29 1 64 1 77 1l-5 -45
c-13 0 -46 0 -77 1l-61 -492c-4 -35 -11 -101 -14 -120h-46c3 19 12 85 16 120l84 683c20 166 133 224 219 224c52 0 87 -18 111 -41c24 26 58 41 104 41z" />
    <glyph glyph-name="f_i" unicode="fi" horiz-adv-x="469" 
d="M442 729l-9 -76c-1 -7 -12 -12 -24 -12s-21 5 -20 12l9 76c-6 18 -32 35 -75 35c-66 0 -152 -44 -168 -171l-19 -158c29 1 64 1 77 1l-5 -45c-13 0 -46 0 -77 1l-61 -492c-4 -35 -11 -101 -14 -120h-46c3 19 12 85 16 120l84 683c20 166 132 224 219 224
c68 0 118 -36 113 -78zM407 435c-2 -19 -12 -85 -16 -120l-24 -195c-4 -35 -11 -101 -13 -120h-46c2 19 11 85 15 120l24 195c4 35 12 101 14 120h46z" />
    <glyph glyph-name="f_l" unicode="fl" horiz-adv-x="469" 
d="M398 729c-6 18 -32 35 -75 35c-66 0 -152 -44 -168 -171l-19 -158c29 1 64 1 77 1l-5 -45c-13 0 -46 0 -77 1l-61 -492c-4 -35 -11 -101 -14 -120h-46c3 19 12 85 16 120l84 683c20 166 132 224 219 224c68 0 118 -36 113 -78l-75 -609c-4 -35 -11 -101 -13 -120h-46
c2 19 11 85 15 120z" />
    <glyph glyph-name="f_f_i" unicode="ffi" horiz-adv-x="739" 
d="M454 748c43 42 98 59 145 59c68 0 118 -36 113 -78l-9 -76c-1 -7 -12 -12 -24 -12s-21 5 -20 12l9 76c-6 18 -32 35 -75 35c-66 0 -152 -44 -168 -171l-19 -158c29 1 64 1 77 1l-5 -45c-13 0 -46 0 -77 1l-61 -492c-4 -35 -11 -101 -14 -120h-46c3 19 12 85 16 120
l84 683c7 53 23 95 44 127c-18 29 -50 54 -101 54c-66 0 -152 -47 -168 -171l-19 -158c29 1 64 1 77 1l-5 -45c-13 0 -46 0 -77 1l-61 -492c-4 -35 -11 -101 -14 -120h-46c3 19 12 85 16 120l84 683c20 166 133 224 219 224c65 0 103 -28 125 -59zM677 435
c-2 -19 -12 -85 -16 -120l-24 -195c-4 -35 -11 -101 -13 -120h-46c2 19 11 85 15 120l24 195c4 35 12 101 14 120h46z" />
    <glyph glyph-name="f_f_l" unicode="ffl" horiz-adv-x="739" 
d="M454 748c43 42 99 59 147 59c65 0 116 -36 111 -78l-75 -609c-4 -35 -11 -101 -13 -120h-46c2 19 11 85 15 120l75 609c-6 18 -32 35 -73 35c-69 0 -154 -44 -170 -171l-19 -158c29 1 64 1 77 1l-5 -45c-13 0 -46 0 -77 1l-61 -492c-4 -35 -11 -101 -14 -120h-46
c3 19 12 85 16 120l84 683c7 53 22 95 44 127c-18 29 -50 54 -101 54c-66 0 -152 -47 -168 -171l-19 -158c29 1 64 1 77 1l-5 -45c-13 0 -46 0 -77 1l-61 -492c-4 -35 -11 -101 -14 -120h-46c3 19 12 85 16 120l84 683c20 166 133 224 219 224c66 0 103 -29 125 -59z" />
    <glyph glyph-name="f_f_j" unicode="ffj" horiz-adv-x="739" 
d="M454 748c43 42 98 59 145 59c68 0 118 -36 113 -78l-9 -76c-1 -7 -12 -12 -24 -12s-21 5 -20 12l9 76c-6 18 -32 35 -75 35c-66 0 -152 -44 -168 -171l-19 -158c29 1 64 1 77 1l-5 -45c-13 0 -46 0 -77 1l-61 -492c-4 -35 -11 -101 -14 -120h-46c3 19 12 85 16 120
l84 683c7 53 23 95 44 127c-18 29 -50 54 -101 54c-66 0 -152 -47 -168 -171l-19 -158c29 1 64 1 77 1l-5 -45c-13 0 -46 0 -77 1l-61 -492c-4 -35 -11 -101 -14 -120h-46c3 19 12 85 16 120l84 683c20 166 133 224 219 224c65 0 103 -28 125 -59zM677 435
c-2 -19 -12 -85 -16 -120l-51 -415c-4 -35 -11 -101 -14 -120h-46c3 19 12 85 16 120l51 415c4 35 12 101 14 120h46z" />
    <glyph glyph-name="f_j" unicode="fj" horiz-adv-x="469" 
d="M442 729l-9 -76c-1 -7 -12 -12 -24 -12s-21 5 -20 12l9 76c-6 18 -32 35 -75 35c-66 0 -152 -44 -168 -171l-19 -158c29 1 64 1 77 1l-5 -45c-13 0 -46 0 -77 1l-61 -492c-4 -35 -11 -101 -14 -120h-46c3 19 12 85 16 120l84 683c20 166 132 224 219 224
c68 0 118 -36 113 -78zM407 435c-2 -19 -12 -85 -16 -120l-51 -415c-4 -35 -11 -101 -14 -120h-46c3 19 12 85 16 120l51 415c4 35 12 101 14 120h46z" />
    <glyph glyph-name="longs_longs_j" unicode="&#x17f;&#x17f;j" horiz-adv-x="739" 
d="M454 748c43 42 98 59 145 59c68 0 118 -36 113 -78l-9 -76c-1 -7 -12 -12 -24 -12s-21 5 -20 12l9 76c-6 18 -32 35 -75 35c-66 0 -152 -44 -168 -171l-85 -693c-4 -35 -11 -101 -14 -120h-46c3 19 12 85 16 120l84 683c7 53 23 95 44 127c-18 29 -50 54 -101 54
c-66 0 -152 -47 -168 -171l-85 -693c-4 -35 -11 -101 -14 -120h-46c3 19 12 85 16 120l84 683c20 166 133 224 219 224c65 0 103 -28 125 -59zM677 435c-2 -19 -12 -85 -16 -120l-51 -415c-4 -35 -11 -101 -14 -120h-46c3 19 12 85 16 120l51 415c4 35 12 101 14 120h46z
" />
    <glyph glyph-name="longs_j" unicode="&#x17f;j" horiz-adv-x="469" 
d="M442 729l-9 -76c-1 -7 -12 -12 -24 -12s-21 5 -20 12l9 76c-6 18 -32 35 -75 35c-66 0 -152 -44 -168 -171l-85 -693c-4 -35 -11 -101 -14 -120h-46c3 19 12 85 16 120l84 683c20 166 132 224 219 224c68 0 118 -36 113 -78zM407 435c-2 -19 -12 -85 -16 -120l-51 -415
c-4 -35 -11 -101 -14 -120h-46c3 19 12 85 16 120l51 415c4 35 12 101 14 120h46z" />
    <glyph glyph-name="longs_longs" unicode="&#x17f;&#x17f;" horiz-adv-x="499" 
d="M544 807l-6 -43c-70 0 -98 -48 -110 -150l-88 -714c-4 -35 -11 -101 -14 -120h-46c3 19 12 85 16 120l87 704c6 48 15 89 30 121c-19 22 -48 39 -90 39c-66 0 -152 -47 -168 -171l-85 -693c-4 -35 -11 -101 -14 -120h-46c3 19 12 85 16 120l84 683
c20 166 133 224 219 224c52 0 87 -18 111 -41c24 26 58 41 104 41z" />
    <glyph glyph-name="longs_i" unicode="&#x17f;i" horiz-adv-x="469" 
d="M442 729l-9 -76c-1 -7 -12 -12 -24 -12s-21 5 -20 12l9 76c-6 18 -32 35 -75 35c-66 0 -152 -44 -168 -171l-85 -693c-4 -35 -11 -101 -14 -120h-46c3 19 12 85 16 120l84 683c20 166 132 224 219 224c68 0 118 -36 113 -78zM407 435c-2 -19 -12 -85 -16 -120l-24 -195
c-4 -35 -11 -101 -13 -120h-46c2 19 11 85 15 120l24 195c4 35 12 101 14 120h46z" />
    <glyph glyph-name="longs_l" unicode="&#x17f;l" horiz-adv-x="469" 
d="M398 729c-6 18 -32 35 -75 35c-66 0 -152 -44 -168 -171l-85 -693c-4 -35 -11 -101 -14 -120h-46c3 19 12 85 16 120l84 683c20 166 132 224 219 224c68 0 118 -36 113 -78l-75 -609c-4 -35 -11 -101 -13 -120h-46c2 19 11 85 15 120z" />
    <glyph glyph-name="longs_longs_i" unicode="&#x17f;&#x17f;i" horiz-adv-x="739" 
d="M454 748c43 42 98 59 145 59c68 0 118 -36 113 -78l-9 -76c-1 -7 -12 -12 -24 -12s-21 5 -20 12l9 76c-6 18 -32 35 -75 35c-66 0 -152 -44 -168 -171l-85 -693c-4 -35 -11 -101 -14 -120h-46c3 19 12 85 16 120l84 683c7 53 23 95 44 127c-18 29 -50 54 -101 54
c-66 0 -152 -47 -168 -171l-85 -693c-4 -35 -11 -101 -14 -120h-46c3 19 12 85 16 120l84 683c20 166 133 224 219 224c65 0 103 -28 125 -59zM677 435c-2 -19 -12 -85 -16 -120l-24 -195c-4 -35 -11 -101 -13 -120h-46c2 19 11 85 15 120l24 195c4 35 12 101 14 120h46z
" />
    <glyph glyph-name="longs_longs_l" unicode="&#x17f;&#x17f;l" horiz-adv-x="739" 
d="M454 748c43 42 99 59 147 59c65 0 116 -36 111 -78l-75 -609c-4 -35 -11 -101 -13 -120h-46c2 19 11 85 15 120l75 609c-6 18 -32 35 -73 35c-69 0 -154 -44 -170 -171l-85 -693c-4 -35 -11 -101 -14 -120h-46c3 19 12 85 16 120l84 683c7 53 22 95 44 127
c-18 29 -50 54 -101 54c-66 0 -152 -47 -168 -171l-85 -693c-4 -35 -11 -101 -14 -120h-46c3 19 12 85 16 120l84 683c20 166 133 224 219 224c66 0 103 -29 125 -59z" />
    <glyph glyph-name=".notdef" horiz-adv-x="610" 
d="M49 700h512c0 -19 -1 -85 -1 -120v-460c0 -35 1 -101 1 -120h-512c0 19 1 85 1 120v460c0 35 -1 101 -1 120zM95 656v-612h420v612h-420z" />
    <glyph glyph-name="space" unicode=" " horiz-adv-x="260" 
 />
    <glyph glyph-name="exclam" unicode="!" horiz-adv-x="235" 
d="M175 580l-55 -448h-45c2 19 10 85 55 448c4 35 11 101 13 120h47c-2 -19 -11 -85 -15 -120zM48 23c3 19 21 35 40 35s33 -16 30 -35c-2 -19 -20 -35 -39 -35s-33 16 -31 35z" />
    <glyph glyph-name="quotedbl" unicode="&#x22;" horiz-adv-x="252" 
d="M90 686c-12 37 -11 50 -9 65l6 44h52l-6 -44c-2 -15 -3 -28 -25 -65h-18zM190 686c-12 37 -11 50 -9 65l6 44h52l-6 -44c-2 -15 -3 -28 -25 -65h-18z" />
    <glyph glyph-name="numbersign" unicode="#" horiz-adv-x="648" 
d="M154 222h-19c-35 0 -101 -1 -120 -1v46c19 0 85 -1 120 -1h31l50 186h-21c-35 0 -101 -1 -120 -1v46c19 0 85 -1 120 -1h32l36 132c15 55 27 102 30 116l44 -11c-4 -14 -16 -56 -32 -116l-33 -121h157l36 132c16 60 25 96 30 116l44 -11c-5 -21 -15 -52 -32 -116
l-33 -121h9c35 0 101 1 120 1v-46c-19 0 -85 1 -120 1h-21l-49 -186h10c35 0 101 1 120 1v-46c-19 0 -85 1 -120 1h-22l-38 -141c-16 -58 -20 -75 -30 -116l-44 11c11 36 17 59 32 116l35 130h-157l-38 -141c-14 -52 -23 -86 -30 -116l-44 11c8 24 16 57 32 116zM260 452
l-49 -186h157l50 186h-158z" />
    <glyph glyph-name="dollar" unicode="$" horiz-adv-x="474" 
d="M433 631l-41 -30c-21 29 -45 55 -82 64l-34 -277c76 -59 133 -106 133 -196c0 -108 -79 -189 -182 -202l-10 -80h-46l9 79c-79 5 -133 49 -168 106l40 27c29 -47 70 -85 134 -90l41 334c-70 56 -120 99 -120 174c0 87 70 162 163 171l9 74h46l-9 -75
c54 -9 89 -42 117 -79zM363 184c0 64 -40 105 -94 149l-37 -298c75 13 131 72 131 149zM153 548c0 -51 33 -87 81 -127l30 246c-63 -8 -111 -59 -111 -119z" />
    <glyph glyph-name="percent" unicode="%" horiz-adv-x="496" 
d="M216 730c63 0 110 -48 110 -109c0 -76 -66 -141 -141 -141c-64 0 -111 48 -111 110c0 76 69 140 142 140zM211 690c-49 0 -95 -43 -95 -95c0 -42 31 -75 74 -75c50 0 94 44 94 96c0 42 -31 74 -73 74zM323 220c64 0 111 -48 111 -110c0 -76 -69 -140 -142 -140
c-64 0 -110 47 -110 109c0 76 66 141 141 141zM318 180c-50 0 -94 -44 -94 -96c0 -42 31 -74 73 -74c48 0 94 43 94 94c0 43 -30 76 -73 76zM508 751l38 -23c-13 -16 -52 -74 -73 -103l-401 -572c-21 -31 -62 -88 -72 -104l-37 23c12 15 51 73 72 103l401 572
c21 30 61 88 72 104z" />
    <glyph glyph-name="ampersand" unicode="&#x26;" horiz-adv-x="605" 
d="M311 700c73 0 122 -50 122 -114c0 -83 -81 -137 -155 -187l145 -211l43 41c21 20 56 57 70 68l30 -32c-13 -11 -54 -50 -73 -68l-46 -43l44 -63c18 -25 65 -91 65 -91h-59c-7 12 -27 40 -43 63l-41 59l-40 -38c-54 -51 -118 -94 -189 -94c-95 0 -164 90 -164 175
c0 130 104 176 195 242l-3 5c-39 56 -59 95 -59 137c0 82 74 151 158 151zM239 372l-35 -23c-68 -46 -139 -93 -139 -181c0 -65 52 -134 124 -134c59 0 107 35 155 80l45 42zM306 656c-57 0 -108 -45 -108 -100c0 -32 18 -68 51 -116l5 -7c68 45 134 88 134 147
c0 42 -33 76 -82 76z" />
    <glyph glyph-name="quotesingle" unicode="'" horiz-adv-x="152" 
d="M90 686c-12 37 -11 50 -9 65l6 44h52l-6 -44c-2 -15 -3 -28 -25 -65h-18z" />
    <glyph glyph-name="parenleft" unicode="(" horiz-adv-x="192" 
d="M147 706l41 -12c-72 -179 -97 -349 -97 -512c0 -59 4 -120 12 -176l-43 -12c-10 61 -14 126 -14 188c0 166 27 339 101 524z" />
    <glyph glyph-name="parenright" unicode=")" horiz-adv-x="192" 
d="M57 -6l-41 12c72 179 97 349 97 512c0 59 -4 120 -12 176l43 12c10 -61 14 -126 14 -188c0 -166 -27 -339 -101 -524z" />
    <glyph glyph-name="asterisk" unicode="*" horiz-adv-x="398" 
d="M231 647l5 -2c2 4 32 26 68 45c32 18 48 27 65 36l11 -26c-17 -9 -33 -17 -65 -35c-36 -20 -70 -31 -75 -31v-5c5 0 35 -11 67 -31c28 -18 42 -26 57 -35l-19 -26c-14 9 -27 18 -55 36c-32 19 -56 41 -58 45l-5 -2c3 -5 3 -39 -1 -78c-5 -34 -6 -51 -8 -70h-30
c2 19 5 36 10 70c4 39 14 73 17 78l-5 2c-2 -4 -32 -26 -68 -45c-32 -18 -47 -27 -65 -36l-11 26c17 9 33 17 65 35c36 20 70 31 75 31v5c-5 0 -35 11 -67 31c-28 18 -42 26 -57 35l19 26c15 -9 27 -18 55 -36c32 -19 56 -41 58 -45l5 2c-2 5 -3 39 2 78c4 34 5 51 7 70h30
c-2 -19 -5 -36 -9 -70c-5 -39 -14 -73 -18 -78z" />
    <glyph glyph-name="plus" unicode="+" horiz-adv-x="536" 
d="M190 390h55v56c0 35 -1 101 -1 120h47c0 -19 -1 -85 -1 -120v-56h56c35 0 101 1 120 1v-46c-19 0 -85 1 -120 1h-56v-56c0 -35 1 -101 1 -120h-47c0 19 1 85 1 120v56h-55c-35 0 -101 -1 -120 -1v46c19 0 85 -1 120 -1z" />
    <glyph glyph-name="comma" unicode="," horiz-adv-x="207" 
d="M-3 -157l98 217l50 -20l-121 -208z" />
    <glyph glyph-name="hyphen" unicode="-" horiz-adv-x="245" 
d="M30 231c9 0 43 -1 60 -1h65c17 0 51 1 60 1l-6 -46c-9 0 -42 1 -59 1h-65c-17 0 -52 -1 -61 -1z" />
    <glyph glyph-name="period" unicode="." horiz-adv-x="190" 
d="M85 58c18 0 31 -14 31 -32c0 -20 -19 -38 -39 -38c-18 0 -31 14 -31 31c0 21 19 39 39 39z" />
    <glyph glyph-name="slash" unicode="/" horiz-adv-x="450" 
d="M406 726l40 -18c-9 -17 -43 -78 -61 -111l-281 -513c-18 -32 -51 -93 -60 -110l-39 18c9 17 42 77 60 110l281 513c18 32 51 94 60 111z" />
    <glyph glyph-name="zero" unicode="0" horiz-adv-x="536" 
d="M318 712c134 0 218 -127 218 -295c0 -229 -139 -429 -306 -429c-135 0 -218 127 -218 295c0 229 139 429 306 429zM313 668c-142 0 -256 -178 -256 -382c0 -145 66 -254 178 -254c142 0 256 178 256 382c0 145 -66 254 -178 254z" />
    <glyph glyph-name="one" unicode="1" horiz-adv-x="536" 
d="M214 656l24 44h114l-71 -580c-6 -48 -12 -101 -14 -120h-47c2 19 11 85 16 120l66 536h-88z" />
    <glyph glyph-name="two" unicode="2" horiz-adv-x="536" 
d="M8 0l387 367c46 43 75 95 75 151c0 85 -63 150 -152 150c-90 0 -171 -59 -198 -161l-44 6c35 126 135 199 247 199c111 0 192 -83 192 -189c0 -70 -37 -134 -91 -185l-231 -219c-50 -47 -78 -72 -86 -76v-3c8 1 49 4 108 4h123c35 0 101 1 120 1l-6 -46
c-19 0 -84 1 -119 1h-325z" />
    <glyph glyph-name="three" unicode="3" horiz-adv-x="536" 
d="M151 540h-46c18 96 108 172 208 172c96 0 167 -71 167 -163c0 -82 -54 -151 -122 -177l-1 -4c65 -21 106 -85 106 -157c0 -121 -110 -223 -230 -223c-105 0 -183 77 -183 177h46c2 -76 62 -133 142 -133c94 0 180 79 180 175c0 78 -61 138 -142 138h-8l6 44
c84 0 161 71 161 155c0 70 -54 124 -127 124c-75 0 -142 -57 -157 -128z" />
    <glyph glyph-name="four" unicode="4" horiz-adv-x="536" 
d="M-6 134l475 593l-67 -549c36 0 86 1 103 1l-5 -46c-17 0 -67 1 -103 1l-2 -14c-4 -35 -11 -101 -14 -120h-47c3 19 12 85 16 120l2 14h-358zM183 178h174l38 309c4 35 14 94 18 104l-4 1c-5 -10 -26 -40 -65 -88l-194 -242c-35 -45 -68 -82 -78 -87l1 -4c12 5 63 7 110 7
z" />
    <glyph glyph-name="five" unicode="5" horiz-adv-x="536" 
d="M151 403l135 297h150c35 0 102 1 121 1l-6 -46c-19 0 -85 1 -120 1h-118l-49 -107c-18 -40 -32 -70 -41 -79l3 -3c10 5 29 11 64 11c120 0 211 -85 211 -208c0 -152 -135 -282 -283 -282c-116 0 -180 58 -213 137l43 21c26 -65 79 -114 175 -114c122 0 233 107 233 233
c0 103 -74 173 -177 173c-61 0 -98 -18 -128 -35z" />
    <glyph glyph-name="six" unicode="6" horiz-adv-x="536" 
d="M292 484c128 0 223 -95 223 -218c0 -150 -135 -278 -284 -278c-129 0 -224 96 -224 219c0 54 20 107 50 151l172 258c20 30 55 84 55 84h53c0 -1 -48 -70 -71 -105l-36 -55c-29 -45 -54 -76 -62 -85l3 -3c11 7 61 32 121 32zM286 440c-122 0 -234 -105 -234 -229
c0 -101 78 -179 184 -179c122 0 233 105 233 229c0 101 -78 179 -183 179z" />
    <glyph glyph-name="seven" unicode="7" horiz-adv-x="536" 
d="M584 700l-505 -627c-14 -18 -68 -86 -79 -99l-35 26c8 11 58 72 81 99l393 488c27 33 59 68 64 71l-1 3c-5 -2 -47 -5 -92 -5h-221c-35 0 -101 -1 -120 -1l6 46c19 0 84 -1 119 -1h390z" />
    <glyph glyph-name="eight" unicode="8" horiz-adv-x="536" 
d="M318 712c104 0 174 -72 174 -165c0 -92 -60 -163 -129 -188v-4c61 -21 97 -81 97 -147c0 -119 -103 -220 -230 -220c-109 0 -184 75 -184 171c0 84 59 170 141 196v4c-52 20 -90 72 -90 140c0 114 99 213 221 213zM272 334c-99 0 -180 -78 -180 -169
c0 -75 57 -133 143 -133c100 0 179 79 179 171c0 73 -57 131 -142 131zM313 668c-94 0 -170 -75 -170 -164c0 -71 53 -126 134 -126c94 0 170 75 170 163c0 72 -53 127 -134 127z" />
    <glyph glyph-name="nine" unicode="9" horiz-adv-x="536" 
d="M318 712c125 0 218 -96 218 -218c0 -63 -24 -123 -62 -171l-265 -335l-36 26c21 26 45 55 80 99l33 42c27 34 62 71 71 80l-2 3c-11 -5 -46 -23 -98 -23c-126 0 -217 94 -217 217c0 150 132 280 278 280zM313 668c-119 0 -228 -106 -228 -231c0 -101 75 -178 178 -178
c119 0 227 105 227 230c0 101 -75 179 -177 179z" />
    <glyph glyph-name="colon" unicode=":" horiz-adv-x="190" 
d="M78 58c18 0 31 -14 31 -32c0 -20 -21 -38 -40 -38c-17 0 -31 13 -31 30c0 21 19 40 40 40zM107 290c17 0 30 -13 30 -30c0 -21 -18 -40 -39 -40c-18 0 -31 14 -31 31c0 21 21 39 40 39z" />
    <glyph glyph-name="semicolon" unicode=";" horiz-adv-x="190" 
d="M110 273c18 0 31 -14 31 -32c0 -20 -21 -38 -40 -38c-17 0 -31 13 -31 30c0 21 19 40 40 40zM-28 -157l98 217l49 -20l-120 -208z" />
    <glyph glyph-name="less" unicode="&#x3c;" horiz-adv-x="536" 
d="M82 359l231 134c31 18 87 52 104 61l23 -40c-16 -10 -74 -42 -104 -59l-122 -71c-16 -9 -35 -20 -53 -23v-4c20 -6 36 -13 53 -23l122 -70c30 -17 88 -49 104 -59l-23 -40c-17 9 -73 43 -104 61z" />
    <glyph glyph-name="equal" unicode="=" horiz-adv-x="536" 
d="M190 320h156c35 0 101 1 120 1v-46c-19 0 -85 1 -120 1h-156c-35 0 -101 -1 -120 -1v46c19 0 85 -1 120 -1zM190 460h156c35 0 101 1 120 1v-46c-19 0 -85 1 -120 1h-156c-35 0 -101 -1 -120 -1v46c19 0 85 -1 120 -1z" />
    <glyph glyph-name="greater" unicode="&#x3e;" horiz-adv-x="536" 
d="M454 359l-231 -133c-31 -18 -87 -52 -104 -61l-23 40c16 10 74 42 104 59l122 70c17 10 33 17 53 23v4c-18 3 -37 14 -53 23l-122 71c-30 17 -88 49 -104 59l23 40c17 -9 73 -43 104 -61z" />
    <glyph glyph-name="question" unicode="?" horiz-adv-x="440" 
d="M195 58c18 0 31 -14 31 -32c0 -20 -21 -38 -40 -38c-17 0 -31 13 -31 30c0 21 19 40 40 40zM321 275l44 6c0 -70 -58 -159 -158 -159c-76 0 -132 57 -132 128c0 105 78 147 157 165c86 20 144 56 144 151c0 62 -46 109 -110 109c-84 0 -142 -65 -142 -139
c0 -8 1 -16 2 -25l-46 -8c-1 7 -2 15 -2 23c0 112 86 193 193 193c87 0 150 -65 150 -148c0 -94 -48 -166 -167 -194c-71 -17 -134 -45 -134 -122c0 -50 38 -89 92 -89c68 0 109 61 109 109z" />
    <glyph glyph-name="at" unicode="@" horiz-adv-x="940" 
d="M434 70c66 0 135 43 166 105l28 229c-32 21 -74 37 -126 37c-114 0 -205 -97 -205 -224c0 -93 49 -147 137 -147zM740 -138l15 -41c-82 -32 -169 -53 -267 -53c-288 0 -464 206 -464 467c0 263 214 477 480 477c248 0 410 -174 410 -402c0 -159 -86 -284 -217 -284
c-66 0 -99 39 -94 88l-4 1c-26 -49 -97 -89 -170 -89c-104 0 -177 61 -177 183c0 156 111 276 257 276c67 0 119 -23 166 -58l-33 -269c-6 -49 4 -88 57 -88c100 0 170 102 170 240c0 208 -148 358 -365 358c-242 0 -435 -194 -435 -433c0 -237 159 -423 419 -423
c90 0 173 19 252 50z" />
    <glyph glyph-name="A" unicode="A" 
d="M352 738l178 -627c10 -35 33 -111 33 -111h-51s-14 53 -26 94l-8 28h-394l-13 -27c-24 -46 -48 -95 -48 -95h-50s34 66 58 112zM341 625h-4c-3 -12 -11 -32 -34 -75l-184 -360c-6 -13 -17 -24 -20 -26l1 -4c3 2 18 6 36 6h299c19 0 32 -4 34 -6l3 4c-3 2 -9 11 -13 26
l-103 360c-12 43 -16 63 -15 75z" />
    <glyph glyph-name="B" unicode="B" horiz-adv-x="446" 
d="M99 700h126c133 0 179 -69 179 -147c0 -69 -44 -158 -121 -184v-4c60 -16 110 -75 110 -148c0 -133 -87 -217 -242 -217h-138c2 19 10 85 86 700zM100 340l-37 -296h103c117 0 183 71 183 170c0 69 -57 126 -138 126h-111zM139 656l-34 -272h95c95 0 159 83 159 161
c0 60 -34 111 -129 111h-91z" />
    <glyph glyph-name="C" unicode="C" horiz-adv-x="695" 
d="M694 612l-38 -32c-49 59 -120 96 -205 96c-192 0 -368 -168 -368 -366c0 -161 122 -286 288 -286c87 0 170 37 234 96l29 -32c-73 -67 -169 -108 -268 -108c-189 0 -328 142 -328 325c0 224 199 415 418 415c98 0 182 -41 238 -108z" />
    <glyph glyph-name="D" unicode="D" horiz-adv-x="600" 
d="M99 700h165c178 0 310 -134 310 -307c0 -212 -190 -393 -396 -393h-165zM139 656l-76 -612h120c180 0 345 158 345 344c0 151 -114 268 -269 268h-120z" />
    <glyph glyph-name="E" unicode="E" horiz-adv-x="402" 
d="M99 700h182c35 0 101 1 120 1l-6 -46c-19 0 -84 1 -119 1h-137l-31 -250h85c35 0 101 1 120 1l-6 -46c-19 0 -85 1 -120 1h-85l-39 -318h157c35 0 102 1 121 1l-6 -46c-19 0 -85 1 -120 1h-202z" />
    <glyph glyph-name="F" unicode="F" horiz-adv-x="375" 
d="M99 700h174c35 0 101 1 120 1l-6 -46c-19 0 -84 1 -119 1h-129l-31 -250h94c35 0 101 1 120 1l-6 -46c-19 0 -85 1 -120 1h-94l-29 -242c-5 -35 -12 -101 -14 -120h-47c2 19 11 85 16 120z" />
    <glyph glyph-name="G" unicode="G" horiz-adv-x="747" 
d="M366 -20c-189 0 -328 142 -328 325c0 224 199 415 418 415c103 0 193 -48 247 -124l-36 -34c-47 70 -124 114 -216 114c-192 0 -368 -168 -368 -366c0 -161 122 -286 288 -286c136 0 254 101 289 220h-115c-35 0 -101 -1 -120 -1l5 46c19 0 85 -1 120 -1h165
c-21 -167 -177 -308 -349 -308z" />
    <glyph glyph-name="H" unicode="H" horiz-adv-x="610" 
d="M145 700c-2 -19 -11 -85 -16 -120l-21 -176h420l21 176c5 35 12 101 14 120h47c-2 -19 -11 -85 -16 -120l-56 -460c-5 -35 -12 -101 -14 -120h-47c2 19 11 85 16 120l29 240h-420l-29 -240c-5 -35 -12 -101 -14 -120h-47c2 19 11 85 16 120l56 460c5 35 12 101 14 120h47
z" />
    <glyph glyph-name="I" unicode="I" horiz-adv-x="185" 
d="M165 700c-2 -19 -11 -85 -16 -120l-56 -460c-5 -35 -12 -101 -14 -120h-47c2 19 11 85 16 120l56 460c5 35 12 101 14 120h47z" />
    <glyph glyph-name="J" unicode="J" horiz-adv-x="335" 
d="M316 700c-3 -19 -12 -85 -16 -120l-58 -475c-9 -69 -67 -125 -141 -125c-47 0 -85 29 -99 71l41 25c7 -31 32 -52 64 -52c48 0 84 36 91 91l57 465c4 35 11 101 14 120h47z" />
    <glyph glyph-name="K" unicode="K" horiz-adv-x="570" 
d="M145 700c-2 -19 -11 -85 -16 -120l-25 -208l326 278c19 16 57 50 57 50h68c-16 -14 -69 -58 -98 -82l-265 -226c-22 -19 -32 -26 -39 -29l-1 -4c9 -3 18 -13 34 -30l233 -247c23 -24 67 -69 78 -82h-68s-20 24 -44 49l-265 281l-24 -20l-23 -190
c-5 -35 -12 -101 -14 -120h-47c2 19 11 85 16 120l56 460c5 35 12 101 14 120h47z" />
    <glyph glyph-name="L" unicode="L" horiz-adv-x="315" 
d="M13 0l71 580c5 35 12 101 14 120h47c-2 -19 -11 -85 -16 -120l-66 -536h58c35 0 102 1 121 1l-6 -46c-19 0 -85 1 -120 1h-103z" />
    <glyph glyph-name="M" unicode="M" horiz-adv-x="825" 
d="M156 735l199 -569c19 -54 27 -91 27 -101h4c2 11 20 53 48 101l332 568l-3 -615c0 -43 2 -96 1 -119h-47c1 18 1 70 2 114l2 369c0 48 3 97 6 109l-3 1c-5 -13 -21 -51 -46 -94l-305 -524l-184 524c-13 36 -25 84 -26 97l-4 -1c0 -10 -5 -55 -14 -93l-89 -385
c-8 -34 -22 -98 -26 -117h-45c2 13 20 84 29 122z" />
    <glyph glyph-name="N" unicode="N" horiz-adv-x="755" 
d="M645 -22l-446 550c-24 31 -50 63 -69 89l-3 -2c0 -10 2 -36 -3 -74l-51 -421c-5 -35 -12 -101 -14 -120h-47c2 19 11 85 16 120l74 602l446 -550c24 -31 50 -63 69 -89l3 2c0 10 -2 36 3 74l51 421c5 35 12 101 14 120h47c-2 -19 -11 -85 -16 -120z" />
    <glyph glyph-name="O" unicode="O" horiz-adv-x="810" 
d="M456 720c189 0 328 -142 328 -325c0 -224 -200 -415 -418 -415c-189 0 -328 142 -328 325c0 224 199 415 418 415zM451 676c-192 0 -368 -168 -368 -366c0 -161 122 -286 288 -286c192 0 367 168 367 366c0 161 -122 286 -287 286z" />
    <glyph glyph-name="P" unicode="P" horiz-adv-x="420" 
d="M99 700h150c111 0 169 -68 169 -155c0 -115 -88 -211 -230 -211h-89l-26 -214c-4 -35 -13 -101 -14 -120h-47c1 19 12 85 16 120zM139 656l-35 -278h99c102 0 170 75 170 162c0 65 -41 116 -119 116h-115z" />
    <glyph glyph-name="Q" unicode="Q" horiz-adv-x="810" 
d="M715 12l-6 -44c-63 0 -115 26 -162 57c-55 -28 -117 -45 -181 -45c-189 0 -328 142 -328 325c0 224 200 415 419 415c188 0 327 -142 327 -325c0 -141 -79 -269 -191 -344c37 -21 75 -39 122 -39zM451 676c-192 0 -368 -168 -368 -366c0 -161 122 -286 288 -286
c45 0 89 9 130 25c-40 19 -88 35 -156 35l5 44c90 0 151 -26 202 -53c108 64 186 183 186 315c0 161 -122 286 -287 286z" />
    <glyph glyph-name="R" unicode="R" horiz-adv-x="420" 
d="M99 700h119c122 0 181 -68 181 -156c0 -84 -67 -200 -162 -200v-4c6 -2 10 -9 14 -21l73 -211c14 -41 39 -108 39 -108h-53c-7 22 -18 56 -29 89l-85 244c-7 -1 -14 -1 -21 -1h-76l-26 -212c-4 -35 -13 -101 -14 -120h-47c1 19 12 85 16 120zM139 656l-35 -280h72
c121 0 177 77 177 160c0 67 -46 120 -134 120h-80z" />
    <glyph glyph-name="S" unicode="S" horiz-adv-x="474" 
d="M433 631l-41 -30c-25 36 -56 67 -110 67c-71 0 -129 -54 -129 -120c0 -62 50 -102 116 -154c79 -62 140 -109 140 -202c0 -118 -95 -204 -213 -204c-88 0 -147 47 -184 107l40 27c31 -50 77 -90 149 -90c90 0 162 65 162 152c0 76 -56 120 -126 175
c-75 59 -130 103 -130 181c0 93 79 172 180 172c72 0 114 -37 146 -81z" />
    <glyph glyph-name="T" unicode="T" horiz-adv-x="445" 
d="M360 700c35 0 101 1 120 1l-6 -46c-19 0 -84 1 -119 1h-66l-66 -536c-5 -35 -12 -101 -14 -120h-47c2 19 11 85 16 120l66 536h-66c-35 0 -102 -1 -121 -1l6 46c19 0 85 -1 120 -1h177z" />
    <glyph glyph-name="U" unicode="U" horiz-adv-x="597" 
d="M150 700c-2 -19 -11 -85 -15 -120l-44 -353c-2 -13 -2 -26 -2 -38c0 -99 50 -157 192 -157c101 0 160 33 191 63l60 485c4 35 11 101 13 120h47c-2 -19 -11 -85 -15 -120l-62 -498c-33 -42 -108 -94 -239 -94c-166 0 -233 75 -233 191c0 17 2 34 4 53l43 348
c4 35 11 101 13 120h47z" />
    <glyph glyph-name="V" unicode="V" horiz-adv-x="560" 
d="M300 194l190 408c15 33 37 80 46 98h49c-8 -18 -39 -80 -54 -113l-290 -618l-138 618c-7 32 -24 93 -27 113h50s14 -67 21 -98l91 -408c8 -37 17 -93 17 -105h4c2 12 20 61 41 105z" />
    <glyph glyph-name="W" unicode="W" horiz-adv-x="1050" 
d="M302 193l282 547l136 -547c8 -28 19 -92 19 -100h4c2 10 14 42 41 100l195 409c17 36 38 86 44 98h51c-5 -10 -42 -84 -55 -113l-292 -614l-138 551c-10 40 -20 88 -20 100h-4c-2 -12 -22 -55 -46 -101l-284 -552l-135 616c-7 29 -24 100 -26 113h50c2 -12 12 -67 19 -99
l91 -408c10 -44 19 -86 18 -100h4c3 12 24 56 46 100z" />
    <glyph glyph-name="X" unicode="X" horiz-adv-x="485" 
d="M171 615l61 -150c12 -27 21 -64 22 -69h4c0 5 17 38 38 69l99 151c20 31 43 67 54 84h54s-41 -60 -71 -105l-156 -238l103 -252c18 -45 44 -105 44 -105h-52l-34 84l-69 169c-11 26 -21 60 -20 66h-4c-2 -6 -18 -38 -37 -66l-111 -169c-20 -31 -43 -67 -54 -84h-54
s43 62 71 105l166 252l-97 237c-12 31 -37 89 -44 106h54s17 -47 33 -85z" />
    <glyph glyph-name="Y" unicode="Y" horiz-adv-x="534" 
d="M496 597l-204 -288l-23 -189c-5 -35 -12 -101 -14 -120h-47c2 19 11 85 16 120l23 190l-136 288c-18 39 -50 102 -50 102h55s23 -51 36 -79l96 -203c15 -30 23 -66 24 -71h4c0 5 17 37 41 71l143 202c22 30 45 64 56 80h55s-52 -71 -75 -103z" />
    <glyph glyph-name="Z" unicode="Z" horiz-adv-x="550" 
d="M170 44h191c35 0 102 1 121 1l-6 -46c-19 0 -85 1 -120 1h-372l439 573c40 52 65 81 74 85l-2 4c-9 -4 -36 -6 -107 -6h-148c-35 0 -102 -1 -121 -1l6 46c19 0 85 -1 120 -1h330l-439 -573c-30 -38 -65 -81 -75 -85l2 -4c11 5 56 6 107 6z" />
    <glyph glyph-name="bracketleft" unicode="[" horiz-adv-x="240" 
d="M28 0l86 700h72c35 0 51 1 70 1l-6 -46c-19 0 -34 1 -69 1h-27l-76 -612h37c35 0 52 1 71 1l-6 -46c-19 0 -35 1 -70 1h-82z" />
    <glyph glyph-name="backslash" unicode="\" horiz-adv-x="450" 
d="M92 708l46 18c5 -17 22 -79 32 -111l155 -513c10 -33 29 -93 34 -110l-45 -18c-5 17 -22 78 -32 110l-155 513c-10 33 -30 94 -35 111z" />
    <glyph glyph-name="bracketright" unicode="]" horiz-adv-x="240" 
d="M254 700l-86 -700h-82c-35 0 -51 -1 -70 -1l6 46c19 0 34 -1 69 -1h37l76 612h-27c-35 0 -52 -1 -71 -1l6 46c19 0 35 -1 70 -1h72z" />
    <glyph glyph-name="asciicircum" unicode="^" horiz-adv-x="478" 
d="M269 459c-5 -16 -34 -51 -60 -82l-34 -40c-24 -28 -69 -82 -82 -97l-34 27c13 16 58 69 83 97l138 162l98 -162c17 -28 50 -81 59 -97l-42 -27c-9 15 -40 69 -58 97l-24 40c-18 31 -39 66 -40 82h-4z" />
    <glyph glyph-name="underscore" unicode="_" horiz-adv-x="590" 
d="M170 -52h250c35 0 101 1 120 1v-46c-19 0 -85 1 -120 1h-250c-35 0 -101 -1 -120 -1v46c19 0 85 -1 120 -1z" />
    <glyph glyph-name="grave" unicode="`" horiz-adv-x="290" 
d="M230 544l-26 -21l-102 120l38 31z" />
    <glyph glyph-name="a" unicode="a" horiz-adv-x="486" 
d="M233 316c54 0 108 -25 130 -63l4 2c-3 7 -2 16 -1 24l1 10c1 9 2 18 2 22c0 55 -54 93 -126 93c-37 0 -76 -11 -103 -28l-20 35c36 21 83 36 128 36c94 0 165 -53 165 -131c0 -6 -1 -19 -2 -25l-29 -238c-35 -28 -104 -65 -186 -65c-96 0 -164 64 -164 148
c0 97 80 180 201 180zM228 273c-91 0 -151 -62 -151 -132c0 -62 51 -110 124 -110c62 0 112 22 139 41l17 132c-27 32 -67 69 -129 69z" />
    <glyph glyph-name="b" unicode="b" horiz-adv-x="514" 
d="M135 795h46c-2 -19 -12 -85 -16 -120l-32 -265c-2 -19 -6 -35 -9 -40l4 -1c35 48 102 78 162 78c105 0 177 -62 177 -185c0 -155 -114 -274 -258 -274c-67 0 -118 23 -165 58l77 629c5 35 12 101 14 120zM285 404c-66 0 -135 -44 -166 -106l-28 -229
c31 -21 74 -38 126 -38c115 0 206 98 206 223c0 99 -57 150 -138 150z" />
    <glyph glyph-name="c" unicode="c" horiz-adv-x="460" 
d="M271 447c63 0 117 -30 151 -76l-40 -28c-26 38 -66 61 -116 61c-111 0 -195 -93 -195 -215c0 -90 58 -158 154 -158c53 0 103 26 140 65l28 -32c-46 -47 -108 -76 -173 -76c-117 0 -193 84 -193 196c0 146 112 263 244 263z" />
    <glyph glyph-name="d" unicode="d" horiz-adv-x="514" 
d="M455 795h46c-2 -19 -12 -85 -16 -120l-75 -615c-44 -42 -112 -72 -186 -72c-116 0 -195 79 -195 197c0 170 125 262 237 262c53 0 116 -20 141 -67l4 2c0 3 -1 8 -1 14c0 15 2 38 5 63l26 216c4 35 12 101 14 120zM398 319c-15 50 -71 85 -137 85
c-90 0 -188 -74 -188 -213c0 -95 64 -160 156 -160c59 0 110 23 140 51z" />
    <glyph glyph-name="e" unicode="e" horiz-adv-x="505" 
d="M274 447c104 0 174 -83 174 -180c0 -12 -1 -25 -3 -37h-360c-2 -15 -2 -26 -2 -36c0 -96 57 -163 154 -163c63 0 119 35 148 63l24 -34c-37 -33 -101 -72 -177 -72c-121 0 -193 82 -193 200c0 133 96 259 235 259zM269 404c-82 0 -146 -59 -173 -131h305
c-2 71 -55 131 -132 131z" />
    <glyph glyph-name="f" unicode="f" horiz-adv-x="229" 
d="M274 807l-6 -43c-70 0 -98 -48 -110 -150l-22 -179c29 1 64 1 77 1l-5 -45c-13 0 -46 0 -77 1l-61 -492c-4 -35 -11 -101 -14 -120h-46c3 19 12 85 16 120l87 704c15 127 55 203 161 203z" />
    <glyph glyph-name="g" unicode="g" horiz-adv-x="517" 
d="M464 384l-53 -429c-12 -102 -102 -187 -231 -187c-78 0 -127 30 -152 53l32 34c20 -19 65 -44 120 -44c116 0 178 67 188 149l7 56c2 18 6 33 9 38l-3 2c-40 -45 -107 -68 -163 -68c-106 0 -180 61 -180 185c0 148 98 274 253 274c73 0 132 -28 173 -63zM417 362
c-27 21 -70 42 -131 42c-128 0 -204 -105 -204 -225c0 -97 58 -148 142 -148c79 0 134 45 163 84z" />
    <glyph glyph-name="h" unicode="h" horiz-adv-x="474" 
d="M140 795h46c-2 -19 -12 -85 -16 -120l-28 -230c-4 -33 -11 -67 -15 -75l4 -2c35 41 80 79 147 79c74 0 127 -51 127 -129c0 -8 -1 -17 -2 -25l-21 -173c-4 -35 -11 -101 -13 -120h-46c2 19 10 85 15 120l21 166c1 7 1 14 1 21c0 62 -36 97 -87 97
c-74 0 -145 -73 -154 -144l-17 -140c-4 -35 -11 -101 -13 -120h-46c2 19 11 85 15 120l68 555c4 35 12 101 14 120z" />
    <glyph glyph-name="i" unicode="i" horiz-adv-x="204" 
d="M95 435h46c-2 -19 -11 -85 -15 -120l-24 -195c-5 -35 -12 -101 -14 -120h-46c2 19 11 85 16 120l24 195c4 35 11 101 13 120zM160 597l-6 -53c-1 -7 -12 -12 -24 -12s-21 5 -20 12l6 53c1 7 12 12 25 12c12 0 20 -5 19 -12z" />
    <glyph glyph-name="j" unicode="j" horiz-adv-x="204" 
d="M95 435h46c-2 -19 -11 -85 -15 -120l-49 -395c-4 -35 -11 -101 -14 -120h-46c3 19 12 85 16 120l49 395c4 35 11 101 13 120zM160 597l-6 -53c-1 -7 -12 -12 -24 -12s-21 5 -20 12l6 53c1 7 12 12 25 12c12 0 20 -5 19 -12z" />
    <glyph glyph-name="k" unicode="k" horiz-adv-x="428" 
d="M135 795h46c-3 -19 -12 -85 -16 -120l-39 -316c-5 -41 -13 -97 -19 -108l4 -2c5 8 23 28 75 78l52 50c16 16 61 58 61 58h61c-14 -14 -65 -62 -93 -88l-108 -103l129 -157l72 -87h-66c-8 10 -29 39 -44 57l-126 154l-18 -18l-9 -73c-4 -35 -12 -101 -14 -120h-46
c2 19 12 85 16 120l68 555c4 35 11 101 14 120z" />
    <glyph glyph-name="l" unicode="l" horiz-adv-x="204" 
d="M140 795h46c-3 -19 -12 -85 -16 -120l-68 -555c-4 -35 -12 -101 -14 -120h-46c2 19 12 85 16 120l68 555c4 35 11 101 14 120z" />
    <glyph glyph-name="m" unicode="m" horiz-adv-x="710" 
d="M140 435c-4 -26 -8 -49 -12 -55l4 -2c26 42 73 69 131 69c59 0 95 -26 110 -67c32 42 81 67 140 67c83 0 128 -48 128 -124c0 -12 -1 -26 -3 -41l-20 -162c-4 -35 -11 -101 -13 -120h-46c2 19 10 85 15 120l20 158c1 10 2 21 2 30c0 63 -28 96 -88 96
c-82 0 -120 -48 -128 -119l-20 -165c-4 -35 -11 -101 -13 -120h-46c2 19 11 85 15 120l20 165c1 11 2 21 2 30c0 54 -22 89 -80 89c-73 0 -128 -57 -137 -129l-19 -155c-4 -35 -11 -101 -13 -120h-46c2 19 11 85 15 120l24 195c4 35 12 101 14 120h44z" />
    <glyph glyph-name="n" unicode="n" horiz-adv-x="474" 
d="M140 435c-4 -26 -8 -49 -12 -55l4 -2c38 42 88 69 144 69c84 0 129 -56 129 -131c0 -9 -1 -17 -2 -26l-21 -170c-4 -35 -11 -101 -13 -120h-46c2 19 11 85 15 120l20 160c1 8 2 16 2 24c0 58 -27 100 -89 100c-74 0 -142 -59 -150 -128l-19 -156
c-4 -35 -11 -101 -13 -120h-46c2 19 11 85 15 120l24 195c4 35 12 101 14 120h44z" />
    <glyph glyph-name="o" unicode="o" horiz-adv-x="540" 
d="M288 447c117 0 204 -88 204 -201c0 -140 -123 -258 -260 -258c-118 0 -204 88 -204 202c0 139 125 257 260 257zM283 404c-110 0 -211 -97 -211 -211c0 -91 70 -162 165 -162c110 0 211 96 211 209c0 92 -70 164 -165 164z" />
    <glyph glyph-name="p" unicode="p" horiz-adv-x="510" 
d="M269 447c116 0 196 -79 196 -198c0 -170 -126 -261 -238 -261c-53 0 -115 20 -141 67l-4 -2c1 -3 1 -9 1 -16c0 -15 -1 -37 -4 -61l-10 -76c-5 -35 -11 -101 -13 -120h-46c2 19 11 85 15 120l59 475c44 42 111 72 185 72zM264 404c-59 0 -110 -23 -139 -51l-29 -237
c15 -50 70 -85 136 -85c89 0 189 74 189 212c0 96 -65 161 -157 161z" />
    <glyph glyph-name="q" unicode="q" horiz-adv-x="510" 
d="M469 389l-60 -489c-4 -35 -11 -101 -13 -120h-46c2 19 10 85 15 120l16 125c2 19 6 35 9 40l-4 1c-35 -48 -103 -78 -163 -78c-104 0 -177 61 -177 183c0 159 113 276 258 276c67 0 119 -23 165 -58zM423 366c-32 21 -75 38 -127 38c-116 0 -206 -99 -206 -225
c0 -97 57 -148 138 -148c66 0 136 44 166 106z" />
    <glyph glyph-name="r" unicode="r" horiz-adv-x="300" 
d="M124 362c30 40 80 80 129 80c26 0 42 -12 52 -21l-30 -41c-9 9 -22 16 -37 16c-37 0 -114 -45 -124 -129l-18 -147c-5 -35 -12 -101 -14 -120h-46c2 19 11 85 16 120l24 195c4 35 11 101 13 120h45c-4 -26 -10 -65 -13 -71z" />
    <glyph glyph-name="s" unicode="s" horiz-adv-x="350" 
d="M317 404l-32 -34c-17 16 -47 34 -88 34c-50 0 -83 -31 -83 -68c0 -38 37 -58 78 -81c52 -29 110 -61 110 -132c0 -72 -70 -135 -163 -135c-66 0 -120 33 -148 69l38 28c20 -28 63 -54 115 -54c65 0 114 40 114 85c0 49 -45 74 -90 98c-49 27 -98 53 -98 115
c0 67 54 118 132 118c52 0 92 -23 115 -43z" />
    <glyph glyph-name="t" unicode="t" horiz-adv-x="220" 
d="M109 585h46c-2 -19 -11 -85 -15 -120l-4 -30c29 0 58 1 70 1l-5 -45c-12 0 -58 1 -70 1l-34 -272c-4 -35 -11 -101 -13 -120h-46c2 19 11 85 15 120l43 345c4 35 11 101 13 120z" />
    <glyph glyph-name="u" unicode="u" horiz-adv-x="490" 
d="M342 62l31 253c4 35 12 101 14 120h46c-2 -19 -12 -85 -16 -120l-34 -276c-38 -30 -98 -51 -171 -51c-92 0 -156 31 -156 136c0 12 1 25 3 39l18 152c4 35 12 101 14 120h46c-2 -19 -12 -85 -16 -120l-17 -140c-2 -14 -3 -27 -3 -39c0 -77 38 -105 116 -105
c54 0 98 13 125 31z" />
    <glyph glyph-name="v" unicode="v" horiz-adv-x="442" 
d="M196 73c1 8 11 31 48 100l91 168c18 33 39 76 49 94h50s-40 -72 -61 -110l-192 -357l-106 356c-10 33 -29 93 -33 111h50c4 -17 16 -61 26 -94l50 -168c13 -42 24 -91 24 -100h4z" />
    <glyph glyph-name="w" unicode="w" horiz-adv-x="736" 
d="M38 435h49c9 -30 17 -62 26 -94l48 -163c11 -39 24 -83 24 -100h5c2 11 24 55 49 100l154 277l74 -272c18 -68 23 -90 22 -101h4c3 11 24 52 51 101l89 160l51 92h50c-9 -18 -44 -78 -62 -110l-195 -349l-75 276c-18 66 -21 92 -20 101h-5c-2 -9 -14 -35 -51 -101
l-153 -276l-102 348c-10 33 -28 93 -33 111z" />
    <glyph glyph-name="x" unicode="x" horiz-adv-x="448" 
d="M48 435h59c10 -15 24 -39 41 -66l40 -59c15 -22 27 -48 27 -52h5c0 4 21 31 39 52l52 58c18 19 47 53 60 67h58c-15 -16 -64 -70 -86 -94l-101 -112l91 -135c23 -34 47 -68 63 -94h-58c-10 14 -25 39 -43 66l-55 84c-12 18 -28 46 -27 52h-5c-1 -6 -18 -31 -37 -52
l-76 -83c-24 -27 -46 -52 -60 -67h-57c13 15 61 67 86 94l122 135l-75 113c-19 29 -63 93 -63 93z" />
    <glyph glyph-name="y" unicode="y" horiz-adv-x="486" 
d="M40 435h53c6 -21 17 -58 28 -91l64 -202c22 -70 26 -92 26 -99h4c1 8 14 37 49 99l164 293h50c-21 -36 -42 -73 -62 -109l-256 -454c-18 -32 -42 -75 -52 -92h-50s45 75 64 110l60 107l-105 329c-11 32 -31 92 -37 109z" />
    <glyph glyph-name="z" unicode="z" horiz-adv-x="483" 
d="M92 436c19 0 85 -1 120 -1h274l-326 -317c-45 -43 -78 -73 -86 -76l1 -4c9 3 64 5 107 5h121c35 0 102 1 121 1l-6 -45c-19 0 -85 1 -120 1h-319l326 317c48 46 77 72 85 76v4c-9 -3 -47 -5 -108 -5h-76c-35 0 -101 -1 -120 -1z" />
    <glyph glyph-name="braceleft" unicode="{" horiz-adv-x="265" 
d="M39 334l5 44c72 7 86 86 93 147l13 99c9 80 48 120 118 120h17l-5 -44h-9c-50 0 -70 -27 -77 -82l-14 -112c-6 -51 -22 -137 -91 -148l-1 -4c63 -11 63 -88 55 -148l-15 -124c-7 -55 7 -82 57 -82h9l-5 -44h-17c-70 0 -99 40 -90 120l14 111c7 61 13 140 -57 147z" />
    <glyph glyph-name="bar" unicode="|" horiz-adv-x="185" 
d="M69 815h47c0 -19 -1 -85 -1 -120v-675c0 -35 1 -101 1 -120h-47c0 19 1 85 1 120v675c0 35 -1 101 -1 120z" />
    <glyph glyph-name="braceright" unicode="}" horiz-adv-x="265" 
d="M239 378l-5 -44c-72 -7 -86 -86 -93 -147l-14 -111c-9 -80 -48 -120 -118 -120h-17l5 44h9c50 0 70 27 77 82l15 124c8 60 26 137 91 148l1 4c-67 11 -61 97 -55 148l14 112c7 55 -7 82 -57 82h-9l5 44h17c70 0 99 -40 90 -120l-13 -99c-7 -61 -13 -140 57 -147z" />
    <glyph glyph-name="asciitilde" unicode="~" horiz-adv-x="536" 
d="M110 312h-44c12 57 65 98 118 91l199 -25c26 -3 53 18 59 46h44c-12 -56 -65 -96 -118 -90l-197 25c-27 4 -55 -17 -61 -47z" />
    <glyph glyph-name="uni00A0" unicode="&#xa0;" horiz-adv-x="260" 
 />
    <glyph glyph-name="exclamdown" unicode="&#xa1;" horiz-adv-x="235" 
d="M159 348l-55 -448c-4 -35 -12 -101 -14 -120h-47c2 19 12 85 16 120c44 363 53 429 55 448h45zM114 457c3 19 21 35 40 35s33 -16 30 -35c-2 -19 -20 -35 -39 -35s-33 16 -31 35z" />
    <glyph glyph-name="cent" unicode="&#xa2;" horiz-adv-x="460" 
d="M312 548c-2 -17 -9 -66 -13 -102c54 -6 101 -34 131 -75l-39 -28c-23 33 -56 55 -98 60l-45 -372c47 4 92 29 126 65l28 -32c-43 -44 -100 -71 -160 -75c-4 -35 -8 -76 -10 -91h-46c2 15 7 57 13 92c-101 13 -164 92 -164 195c0 136 100 247 219 260c5 37 10 86 12 103
h46zM249 402c-96 -13 -170 -100 -170 -211c0 -81 46 -145 125 -158z" />
    <glyph glyph-name="sterling" unicode="&#xa3;" horiz-adv-x="535" 
d="M439 63l17 -38c-24 -13 -70 -37 -129 -37c-68 0 -100 38 -177 38c-51 0 -80 -13 -132 -41l-17 38c87 48 144 174 144 255c0 23 -3 46 -7 68c-36 -1 -78 -1 -93 -1l6 46c12 0 45 -1 76 -1v1c-9 37 -19 73 -19 113c0 146 122 208 213 208c117 0 164 -66 169 -148l-46 -8
c-3 62 -39 112 -129 112c-71 0 -161 -46 -161 -159c0 -33 8 -68 17 -103l4 -16h52c35 0 101 1 120 1l-6 -46c-19 0 -84 1 -119 1h-37c3 -20 6 -41 6 -63c0 -42 -26 -171 -91 -220l2 -3c5 2 27 10 54 10c85 0 118 -38 176 -38c48 0 87 20 107 31z" />
    <glyph glyph-name="currency" unicode="&#xa4;" horiz-adv-x="540" 
d="M293 460c39 0 74 -13 100 -36l63 57l28 -33l-64 -56c15 -23 23 -51 23 -81c0 -48 -18 -91 -48 -125l50 -55l-37 -33l-49 57c-31 -22 -69 -35 -108 -35s-72 13 -98 34l-62 -56l-29 32l62 55c-15 24 -23 52 -23 83c0 47 19 92 49 125l-50 56l37 33l48 -57
c32 22 69 35 108 35zM288 417c-74 0 -143 -65 -143 -142c0 -63 47 -112 112 -112c76 0 142 66 142 143c0 63 -47 111 -111 111z" />
    <glyph glyph-name="yen" unicode="&#xa5;" horiz-adv-x="534" 
d="M193 335h42l-124 263c-18 39 -50 102 -50 102h55s23 -51 36 -79l96 -203c15 -30 23 -66 24 -71h4c0 5 17 37 41 71l143 202c22 30 45 64 56 80h55s-52 -71 -75 -103l-186 -262h39c35 0 101 1 120 1l-5 -46c-19 0 -85 1 -120 1h-54l-12 -96h54c35 0 101 1 120 1l-6 -46
c-19 0 -84 1 -119 1h-54l-4 -31c-5 -35 -12 -101 -14 -120h-47c2 19 11 85 16 120l4 31h-57c-35 0 -102 -1 -121 -1l6 46c19 0 85 -1 120 -1h57l12 96h-57c-35 0 -101 -1 -120 -1l5 46c19 0 85 -1 120 -1z" />
    <glyph glyph-name="brokenbar" unicode="&#xa6;" horiz-adv-x="185" 
d="M69 305h47c0 -19 -1 -85 -1 -120v-165c0 -35 1 -101 1 -120h-47c0 19 1 85 1 120v165c0 35 -1 101 -1 120zM69 815h47c0 -19 -1 -85 -1 -120v-165c0 -35 1 -101 1 -120h-47c0 19 1 85 1 120v165c0 35 -1 101 -1 120z" />
    <glyph glyph-name="section" unicode="&#xa7;" horiz-adv-x="493" 
d="M431 593l-45 4c2 9 3 18 3 26c0 55 -37 93 -89 93c-61 0 -111 -51 -111 -111c0 -134 247 -115 247 -296c0 -107 -81 -192 -165 -205l-1 -3c50 -21 85 -66 85 -132c0 -87 -71 -161 -164 -161c-73 0 -125 48 -125 108c0 6 1 13 2 20l45 -4c-1 -4 -1 -9 -1 -13
c0 -37 35 -67 85 -67c64 0 113 53 113 114c0 151 -248 116 -248 307c0 77 58 191 163 202l2 4c-57 20 -83 73 -83 124c0 89 73 157 163 157c74 0 127 -54 127 -131c0 -12 -1 -24 -3 -36zM272 445c-92 -2 -165 -78 -165 -165c0 -82 58 -111 118 -144c90 0 165 76 165 166
c0 78 -59 110 -118 143z" />
    <glyph glyph-name="dieresis" unicode="&#xa8;" horiz-adv-x="390" 
d="M147 590c17 0 30 -13 30 -30c0 -21 -18 -40 -39 -40c-18 0 -31 14 -31 31c0 21 21 39 40 39zM287 590c17 0 30 -13 30 -30c0 -21 -18 -40 -39 -40c-18 0 -31 14 -31 31c0 21 21 39 40 39z" />
    <glyph glyph-name="copyright" unicode="&#xa9;" horiz-adv-x="820" 
d="M410 720c204 0 370 -166 370 -370s-166 -370 -370 -370s-370 166 -370 370s166 370 370 370zM410 682c-182 0 -330 -149 -330 -332s148 -332 330 -332s330 149 330 332s-148 332 -330 332zM563 507l-29 -26c-34 35 -71 53 -122 53c-100 0 -182 -82 -182 -184
s82 -184 182 -184c50 0 91 19 125 54l28 -27c-39 -40 -94 -65 -153 -65c-122 0 -222 100 -222 222s100 222 222 222c59 0 112 -25 151 -65z" />
    <glyph glyph-name="ordfeminine" unicode="&#xaa;" horiz-adv-x="324" 
d="M135 658l-18 31c20 14 51 24 80 24c59 0 112 -36 103 -104l-17 -145c-23 -18 -66 -41 -118 -41c-67 0 -110 48 -102 106c6 56 55 101 125 101c33 0 61 -13 71 -33l3 1c-2 3 -2 9 -1 16c4 33 -27 61 -68 61c-24 0 -44 -9 -58 -17zM169 461c37 0 64 14 76 22l9 72
c-14 17 -37 37 -71 37c-44 0 -76 -28 -80 -63c-5 -37 25 -68 66 -68z" />
    <glyph glyph-name="guillemotleft" unicode="&#xab;" horiz-adv-x="444" 
d="M176 206l109 128c24 28 69 82 82 97l33 -27c-12 -17 -62 -71 -83 -96l-86 -102l56 -94c20 -31 60 -96 60 -96l-41 -27c-9 15 -40 69 -58 97zM62 206l109 128c24 28 69 82 82 97l33 -27c-12 -17 -62 -71 -83 -96l-86 -102l56 -94c20 -31 60 -96 60 -96l-41 -27
c-9 15 -40 69 -58 97z" />
    <glyph glyph-name="logicalnot" unicode="&#xac;" horiz-adv-x="536" 
d="M190 390h276v-16c0 -35 1 -101 1 -120h-46c0 15 0 57 1 92h-232c-35 0 -101 -1 -120 -1v46c19 0 85 -1 120 -1z" />
    <glyph glyph-name="uni00AD" unicode="&#xad;" horiz-adv-x="245" 
d="M45 231c9 0 43 -1 60 -1h65c17 0 51 1 60 1l-6 -46c-9 0 -42 1 -59 1h-65c-17 0 -52 -1 -61 -1z" />
    <glyph glyph-name="registered" unicode="&#xae;" horiz-adv-x="820" 
d="M410 720c204 0 370 -166 370 -370s-166 -370 -370 -370s-370 166 -370 370s166 370 370 370zM410 682c-182 0 -330 -149 -330 -332s148 -332 330 -332s330 149 330 332s-148 332 -330 332zM506 143c-6 13 -15 34 -24 53l-66 140h-86v-121c0 -21 1 -61 1 -72h-42
c0 11 1 51 1 72v348h129c64 0 116 -51 116 -114c0 -60 -48 -103 -78 -103c-2 0 -4 0 -6 1l-1 -2c5 -3 10 -8 12 -13l58 -124c11 -25 31 -65 31 -65h-45zM415 525h-85v-151h85c44 0 80 34 80 75c0 42 -36 76 -80 76z" />
    <glyph glyph-name="macron" unicode="&#xaf;" horiz-adv-x="390" 
d="M109 577c9 0 43 -1 60 -1h90c17 0 51 1 60 1l-5 -46c-9 0 -43 1 -60 1h-90c-17 0 -51 -1 -60 -1z" />
    <glyph glyph-name="degree" unicode="&#xb0;" horiz-adv-x="350" 
d="M211 712c64 0 111 -48 111 -110c0 -76 -69 -140 -142 -140c-64 0 -110 47 -110 109c0 76 66 141 141 141zM206 674c-51 0 -96 -45 -96 -98c0 -43 32 -76 75 -76c49 0 96 44 96 96c0 44 -31 78 -75 78z" />
    <glyph glyph-name="plusminus" unicode="&#xb1;" horiz-adv-x="536" 
d="M190 450h55v56c0 35 -1 101 -1 120h47c0 -19 -1 -85 -1 -120v-56h56c35 0 101 1 120 1v-46c-19 0 -85 1 -120 1h-56v-56c0 -35 1 -101 1 -120h-47c0 19 1 85 1 120v56h-55c-35 0 -101 -1 -120 -1v46c19 0 85 -1 120 -1zM190 150h156c35 0 101 1 120 1v-46
c-19 0 -85 1 -120 1h-156c-35 0 -101 -1 -120 -1v46c19 0 85 -1 120 -1z" />
    <glyph glyph-name="twosuperior" unicode="&#x2072;" horiz-adv-x="300" 
d="M224 410h-192l208 189c21 19 33 41 33 64c0 36 -29 65 -69 65s-77 -29 -91 -78l-39 5c19 70 74 111 134 111c61 0 106 -44 106 -99c0 -36 -18 -67 -46 -92l-116 -105c-12 -11 -21 -18 -30 -22l1 -2c7 1 20 2 34 2h71c17 0 50 1 60 1l-4 -40c-10 0 -43 1 -60 1z" />
    <glyph glyph-name="twosuperior" unicode="&#xb2;" horiz-adv-x="300" 
d="M224 410h-192l208 189c21 19 33 41 33 64c0 36 -29 65 -69 65s-77 -29 -91 -78l-39 5c19 70 74 111 134 111c61 0 106 -44 106 -99c0 -36 -18 -67 -46 -92l-116 -105c-12 -11 -21 -18 -30 -22l1 -2c7 1 20 2 34 2h71c17 0 50 1 60 1l-4 -40c-10 0 -43 1 -60 1z" />
    <glyph glyph-name="threesuperior" unicode="&#x2073;" horiz-adv-x="300" 
d="M133 667h-41c10 55 61 99 115 99c53 0 91 -37 91 -86c0 -37 -20 -69 -50 -85c27 -12 43 -41 43 -74c0 -63 -58 -117 -125 -117c-57 0 -99 44 -99 101h41c1 -36 28 -63 63 -63c41 0 79 33 79 72c0 34 -27 60 -63 60h-13l5 38c43 0 79 29 79 64c0 30 -24 52 -56 52
s-62 -28 -69 -61z" />
    <glyph glyph-name="threesuperior" unicode="&#xb3;" horiz-adv-x="300" 
d="M133 667h-41c10 55 61 99 115 99c53 0 91 -37 91 -86c0 -37 -20 -69 -50 -85c27 -12 43 -41 43 -74c0 -63 -58 -117 -125 -117c-57 0 -99 44 -99 101h41c1 -36 28 -63 63 -63c41 0 79 33 79 72c0 34 -27 60 -63 60h-13l5 38c43 0 79 29 79 64c0 30 -24 52 -56 52
s-62 -28 -69 -61z" />
    <glyph glyph-name="acute" unicode="&#xb4;" horiz-adv-x="290" 
d="M125 523l-20 21l122 130l30 -31z" />
    <glyph glyph-name="mu" unicode="&#xb5;" horiz-adv-x="490" 
d="M357 62l31 253c4 35 11 101 13 120h46c-2 -19 -11 -85 -15 -120l-34 -276c-45 -29 -100 -51 -168 -51c-47 0 -104 10 -130 57l-4 -2c2 -9 1 -41 -3 -77l-8 -66c-5 -35 -12 -101 -14 -120h-46c2 19 11 85 16 120l51 415c4 35 11 101 13 120h46c-2 -19 -11 -85 -15 -120
l-20 -160c-3 -25 -4 -48 7 -71c16 -33 51 -53 113 -53c52 0 93 15 121 31z" />
    <glyph glyph-name="paragraph" unicode="&#xb6;" horiz-adv-x="445" 
d="M466 701l-6 -46c-11 0 -36 0 -61 1l-93 -756c-4 -35 -13 -101 -14 -120h-47c1 19 12 85 16 120l93 756h-95l-93 -756c-4 -35 -13 -101 -14 -120h-47c1 19 12 85 16 120l60 490c-79 0 -137 58 -137 135c0 95 82 175 175 175h167c32 0 67 1 80 1z" />
    <glyph glyph-name="periodcentered" unicode="&#xb7;" horiz-adv-x="536" 
d="M300 403c18 0 31 -14 31 -32c0 -20 -19 -38 -39 -38c-18 0 -31 14 -31 31c0 21 19 39 39 39z" />
    <glyph glyph-name="cedilla" unicode="&#xb8;" horiz-adv-x="300" 
d="M61 -179l76 99l38 -32l-88 -88z" />
    <glyph glyph-name="onesuperior" unicode="&#x2071;" horiz-adv-x="300" 
d="M135 722l23 38h72l-36 -290c-2 -18 -5 -51 -6 -60h-42c1 9 6 42 8 60l31 252h-50z" />
    <glyph glyph-name="onesuperior" unicode="&#xb9;" horiz-adv-x="300" 
d="M135 722l23 38h72l-36 -290c-2 -18 -5 -51 -6 -60h-42c1 9 6 42 8 60l31 252h-50z" />
    <glyph glyph-name="ordmasculine" unicode="&#xba;" horiz-adv-x="386" 
d="M230 712c74 0 128 -56 128 -127c0 -88 -78 -163 -163 -163c-74 0 -129 56 -129 127c0 88 78 163 164 163zM225 674c-61 0 -119 -55 -119 -120c0 -53 39 -94 93 -94c63 0 119 56 119 121c0 52 -40 93 -93 93z" />
    <glyph glyph-name="guillemotright" unicode="&#xbb;" horiz-adv-x="444" 
d="M262 206l-102 -120c-24 -28 -69 -82 -82 -97l-33 27s56 65 82 96l80 94l-62 102c-15 25 -51 79 -59 96l41 27c9 -15 40 -69 58 -97zM376 206l-102 -120c-24 -28 -69 -82 -82 -97l-33 27s56 65 82 96l80 94l-62 102c-15 25 -51 79 -59 96l41 27c9 -15 40 -69 58 -97z" />
    <glyph glyph-name="onequarter" unicode="&#xbc;" horiz-adv-x="491" 
d="M56 -31l254 302l-32 -264c18 0 34 1 42 1l-5 -40c-8 0 -24 1 -42 1l-1 -9c-2 -18 -5 -41 -6 -50h-40c1 9 4 32 6 50l1 9h-177zM138 7h100l17 139zM175 349h156c35 0 101 1 120 1l-5 -42c-19 0 -85 1 -120 1h-156c-35 0 -101 -1 -120 -1l5 42c19 0 85 -1 120 -1zM244 722
l21 38h67c-1 -10 -5 -43 -35 -290c-3 -18 -6 -51 -7 -60h-42c1 9 6 42 9 60l31 252h-44z" />
    <glyph glyph-name="onehalf" unicode="&#xbd;" horiz-adv-x="491" 
d="M87 -90l177 182c15 15 36 39 36 75c0 35 -25 61 -61 61c-35 0 -67 -26 -78 -68l-41 6c18 63 68 100 124 100c55 0 97 -42 97 -94s-32 -85 -51 -105l-75 -78c-22 -23 -43 -40 -48 -42l1 -1c3 0 26 2 55 2h32c17 0 50 1 60 1l-5 -40c-10 0 -43 1 -60 1h-163zM175 349h156
c35 0 101 1 120 1l-5 -42c-19 0 -85 1 -120 1h-156c-35 0 -101 -1 -120 -1l5 42c19 0 85 -1 120 -1zM244 722l21 38h67c-1 -11 -9 -48 -42 -350h-42c0 9 7 42 9 60l31 252h-44z" />
    <glyph glyph-name="threequarters" unicode="&#xbe;" horiz-adv-x="491" 
d="M56 -31l254 302l-32 -264c18 0 34 1 42 1l-5 -40c-8 0 -24 1 -42 1l-7 -59h-40l7 59h-177zM165 492h41c4 -29 26 -50 56 -50c38 0 72 35 72 75c0 32 -24 57 -56 57h-5l5 38c33 0 63 30 63 65c0 29 -21 51 -49 51s-52 -21 -61 -48h-40c10 48 56 86 106 86
c49 0 85 -37 85 -84c0 -43 -26 -74 -54 -85c28 -14 47 -41 47 -76c0 -63 -57 -117 -118 -117c-51 0 -90 39 -92 88zM175 349h156c35 0 101 1 120 1l-5 -42c-19 0 -85 1 -120 1h-156c-35 0 -101 -1 -120 -1l5 42c19 0 85 -1 120 -1zM138 7h100l17 139z" />
    <glyph glyph-name="questiondown" unicode="&#xbf;" horiz-adv-x="440" 
d="M304 429c-18 0 -31 14 -31 32c0 20 21 38 40 38c17 0 31 -13 31 -30c0 -21 -19 -40 -40 -40zM178 212l-44 -6c0 70 58 159 158 159c76 0 132 -57 132 -128c0 -105 -78 -147 -157 -165c-86 -20 -144 -56 -144 -151c0 -62 46 -109 110 -109c84 0 142 65 142 139
c0 8 -1 16 -2 25l46 8c1 -7 2 -15 2 -23c0 -112 -86 -193 -193 -193c-87 0 -150 65 -150 148c0 94 48 166 167 194c71 17 134 45 134 122c0 50 -38 89 -92 89c-68 0 -109 -61 -109 -109z" />
    <glyph glyph-name="Agrave" unicode="&#xc0;" 
d="M352 738l178 -627c10 -35 33 -111 33 -111h-51s-14 53 -26 94l-8 28h-394l-13 -27c-24 -46 -48 -95 -48 -95h-50s34 66 58 112zM341 625h-4c-3 -12 -11 -32 -34 -75l-184 -360c-6 -13 -17 -24 -20 -26l1 -4c3 2 18 6 36 6h299c19 0 32 -4 34 -6l3 4c-3 2 -9 11 -13 26
l-103 360c-12 43 -16 63 -15 75zM346 779l-26 -21l-102 120l38 31z" />
    <glyph glyph-name="Aacute" unicode="&#xc1;" 
d="M352 738l178 -627c10 -35 33 -111 33 -111h-51s-14 53 -26 94l-8 28h-394l-13 -27c-24 -46 -48 -95 -48 -95h-50s34 66 58 112zM341 625h-4c-3 -12 -11 -32 -34 -75l-184 -360c-6 -13 -17 -24 -20 -26l1 -4c3 2 18 6 36 6h299c19 0 32 -4 34 -6l3 4c-3 2 -9 11 -13 26
l-103 360c-12 43 -16 63 -15 75zM385 758l-20 21l122 130l30 -31z" />
    <glyph glyph-name="Acircumflex" unicode="&#xc2;" 
d="M352 738l178 -627c10 -35 33 -111 33 -111h-51s-14 53 -26 94l-8 28h-394l-13 -27c-24 -46 -48 -95 -48 -95h-50s34 66 58 112zM341 625h-4c-3 -12 -11 -32 -34 -75l-184 -360c-6 -13 -17 -24 -20 -26l1 -4c3 2 18 6 36 6h299c19 0 32 -4 34 -6l3 4c-3 2 -9 11 -13 26
l-103 360c-12 43 -16 63 -15 75zM432 757l-67 83l-87 -83l-26 28l121 115l93 -115z" />
    <glyph glyph-name="Atilde" unicode="&#xc3;" 
d="M352 738l178 -627c10 -35 33 -111 33 -111h-51s-14 53 -26 94l-8 28h-394l-13 -27c-24 -46 -48 -95 -48 -95h-50s34 66 58 112zM341 625h-4c-3 -12 -11 -32 -34 -75l-184 -360c-6 -13 -17 -24 -20 -26l1 -4c3 2 18 6 36 6h299c19 0 32 -4 34 -6l3 4c-3 2 -9 11 -13 26
l-103 360c-12 43 -16 63 -15 75zM254 781l-39 6c13 44 64 76 108 69l87 -13c24 -4 51 12 58 35l39 -6c-13 -44 -64 -76 -108 -69l-86 13c-25 4 -52 -12 -59 -35z" />
    <glyph glyph-name="Adieresis" unicode="&#xc4;" 
d="M352 738l178 -627c10 -35 33 -111 33 -111h-51s-14 53 -26 94l-8 28h-394l-13 -27c-24 -46 -48 -95 -48 -95h-50s34 66 58 112zM341 625h-4c-3 -12 -11 -32 -34 -75l-184 -360c-6 -13 -17 -24 -20 -26l1 -4c3 2 18 6 36 6h299c19 0 32 -4 34 -6l3 4c-3 2 -9 11 -13 26
l-103 360c-12 43 -16 63 -15 75zM297 855c17 0 30 -13 30 -30c0 -21 -18 -40 -39 -40c-18 0 -31 14 -31 31c0 21 21 39 40 39zM437 855c17 0 30 -13 30 -30c0 -21 -18 -40 -39 -40c-18 0 -31 14 -31 31c0 21 21 39 40 39z" />
    <glyph glyph-name="Aring" unicode="&#xc5;" 
d="M352 738l178 -627c10 -35 33 -111 33 -111h-51s-14 53 -26 94l-8 28h-394l-13 -27c-24 -46 -48 -95 -48 -95h-50s34 66 58 112zM341 625h-4c-3 -12 -11 -32 -34 -75l-184 -360c-6 -13 -17 -24 -20 -26l1 -4c3 2 18 6 36 6h299c19 0 32 -4 34 -6l3 4c-3 2 -9 11 -13 26
l-103 360c-12 43 -16 63 -15 75zM377 965c51 0 88 -38 88 -87c0 -61 -53 -113 -113 -113c-51 0 -89 39 -89 89c0 60 56 111 114 111zM372 925c-34 0 -67 -31 -67 -68c0 -29 22 -52 52 -52c34 0 65 31 65 68c0 29 -21 52 -50 52z" />
    <glyph glyph-name="AE" unicode="&#xc6;" horiz-adv-x="774" 
d="M377 0l14 122h-281l-19 -27c-30 -42 -65 -95 -65 -95h-54s49 70 79 113l411 587h182c35 0 102 1 121 1l-6 -46c-19 0 -85 1 -120 1h-137l-31 -250h84c35 0 101 1 120 1l-5 -46c-19 0 -85 1 -120 1h-84l-39 -318h157c35 0 101 1 120 1l-6 -46c-19 0 -84 1 -119 1h-202z
M133 160c2 2 18 6 36 6h228l46 377c4 35 11 62 19 81l-5 2c-6 -18 -20 -38 -46 -74l-253 -362c-9 -12 -23 -24 -26 -26z" />
    <glyph glyph-name="Ccedilla" unicode="&#xc7;" horiz-adv-x="695" 
d="M694 612l-38 -32c-49 59 -120 96 -205 96c-192 0 -368 -168 -368 -366c0 -161 122 -286 288 -286c87 0 170 37 234 96l29 -32c-73 -67 -169 -108 -268 -108c-189 0 -328 142 -328 325c0 224 199 415 418 415c98 0 182 -41 238 -108zM312 -179l76 99l38 -32l-88 -88z" />
    <glyph glyph-name="Egrave" unicode="&#xc8;" horiz-adv-x="402" 
d="M99 700h182c35 0 101 1 120 1l-6 -46c-19 0 -84 1 -119 1h-137l-31 -250h85c35 0 101 1 120 1l-6 -46c-19 0 -85 1 -120 1h-85l-39 -318h157c35 0 102 1 121 1l-6 -46c-19 0 -85 1 -120 1h-202zM298 779l-26 -21l-102 120l38 31z" />
    <glyph glyph-name="Eacute" unicode="&#xc9;" horiz-adv-x="402" 
d="M99 700h182c35 0 101 1 120 1l-6 -46c-19 0 -84 1 -119 1h-137l-31 -250h85c35 0 101 1 120 1l-6 -46c-19 0 -85 1 -120 1h-85l-39 -318h157c35 0 102 1 121 1l-6 -46c-19 0 -85 1 -120 1h-202zM193 758l-20 21l122 130l30 -31z" />
    <glyph glyph-name="Ecircumflex" unicode="&#xca;" horiz-adv-x="402" 
d="M99 700h182c35 0 101 1 120 1l-6 -46c-19 0 -84 1 -119 1h-137l-31 -250h85c35 0 101 1 120 1l-6 -46c-19 0 -85 1 -120 1h-85l-39 -318h157c35 0 102 1 121 1l-6 -46c-19 0 -85 1 -120 1h-202zM328 757l-67 83l-87 -83l-26 28l121 115l93 -115z" />
    <glyph glyph-name="Edieresis" unicode="&#xcb;" horiz-adv-x="402" 
d="M99 700h182c35 0 101 1 120 1l-6 -46c-19 0 -84 1 -119 1h-137l-31 -250h85c35 0 101 1 120 1l-6 -46c-19 0 -85 1 -120 1h-85l-39 -318h157c35 0 102 1 121 1l-6 -46c-19 0 -85 1 -120 1h-202zM193 855c17 0 30 -13 30 -30c0 -21 -18 -40 -39 -40c-18 0 -31 14 -31 31
c0 21 21 39 40 39zM333 855c17 0 30 -13 30 -30c0 -21 -18 -40 -39 -40c-18 0 -31 14 -31 31c0 21 21 39 40 39z" />
    <glyph glyph-name="Igrave" unicode="&#xcc;" horiz-adv-x="185" 
d="M165 700c-2 -19 -11 -85 -16 -120l-56 -460c-5 -35 -12 -101 -14 -120h-47c2 19 11 85 16 120l56 460c5 35 12 101 14 120h47zM170 779l-26 -21l-102 120l38 31z" />
    <glyph glyph-name="Iacute" unicode="&#xcd;" horiz-adv-x="185" 
d="M165 700c-2 -19 -11 -85 -16 -120l-56 -460c-5 -35 -12 -101 -14 -120h-47c2 19 11 85 16 120l56 460c5 35 12 101 14 120h47zM155 758l-20 21l122 130l30 -31z" />
    <glyph glyph-name="Icircumflex" unicode="&#xce;" horiz-adv-x="185" 
d="M165 700c-2 -19 -11 -85 -16 -120l-56 -460c-5 -35 -12 -101 -14 -120h-47c2 19 11 85 16 120l56 460c5 35 12 101 14 120h47zM230 757l-67 83l-87 -83l-26 28l121 115l93 -115z" />
    <glyph glyph-name="Idieresis" unicode="&#xcf;" horiz-adv-x="185" 
d="M165 700c-2 -19 -11 -85 -16 -120l-56 -460c-5 -35 -12 -101 -14 -120h-47c2 19 11 85 16 120l56 460c5 35 12 101 14 120h47zM91 855c17 0 30 -13 30 -30c0 -21 -18 -40 -39 -40c-18 0 -31 14 -31 31c0 21 21 39 40 39zM231 855c17 0 30 -13 30 -30
c0 -21 -18 -40 -39 -40c-18 0 -31 14 -31 31c0 21 21 39 40 39z" />
    <glyph glyph-name="Eth" unicode="&#xd0;" horiz-adv-x="600" 
d="M-2 407c6 0 38 -1 65 -1l36 294h165c178 0 310 -134 310 -307c0 -212 -190 -393 -396 -393h-165l44 362c-27 -1 -59 -1 -65 -1zM259 656h-120l-31 -250h75c17 0 91 1 100 1l-6 -46c-9 0 -83 1 -100 1h-75l-39 -318h120c180 0 345 158 345 344c0 151 -114 268 -269 268z
" />
    <glyph glyph-name="Ntilde" unicode="&#xd1;" horiz-adv-x="755" 
d="M645 -22l-446 550c-24 31 -50 63 -69 89l-3 -2c0 -10 2 -36 -3 -74l-51 -421c-5 -35 -12 -101 -14 -120h-47c2 19 11 85 16 120l74 602l446 -550c24 -31 50 -63 69 -89l3 2c0 10 -2 36 3 74l51 421c5 35 12 101 14 120h47c-2 -19 -11 -85 -16 -120zM321 781l-39 6
c13 44 64 76 108 69l87 -13c24 -4 51 12 58 35l39 -6c-13 -44 -64 -76 -108 -69l-86 13c-25 4 -52 -12 -59 -35z" />
    <glyph glyph-name="Ograve" unicode="&#xd2;" horiz-adv-x="810" 
d="M456 720c189 0 328 -142 328 -325c0 -224 -200 -415 -418 -415c-189 0 -328 142 -328 325c0 224 199 415 418 415zM451 676c-192 0 -368 -168 -368 -366c0 -161 122 -286 288 -286c192 0 367 168 367 366c0 161 -122 286 -287 286zM488 809l-26 -21l-102 120l38 31z" />
    <glyph glyph-name="Oacute" unicode="&#xd3;" horiz-adv-x="810" 
d="M456 720c189 0 328 -142 328 -325c0 -224 -200 -415 -418 -415c-189 0 -328 142 -328 325c0 224 199 415 418 415zM451 676c-192 0 -368 -168 -368 -366c0 -161 122 -286 288 -286c192 0 367 168 367 366c0 161 -122 286 -287 286zM445 788l-20 21l122 130l30 -31z" />
    <glyph glyph-name="Ocircumflex" unicode="&#xd4;" horiz-adv-x="810" 
d="M456 720c189 0 328 -142 328 -325c0 -224 -200 -415 -418 -415c-189 0 -328 142 -328 325c0 224 199 415 418 415zM451 676c-192 0 -368 -168 -368 -366c0 -161 122 -286 288 -286c192 0 367 168 367 366c0 161 -122 286 -287 286zM552 757l-67 83l-87 -83l-26 28
l121 115l93 -115z" />
    <glyph glyph-name="Otilde" unicode="&#xd5;" horiz-adv-x="810" 
d="M456 720c189 0 328 -142 328 -325c0 -224 -200 -415 -418 -415c-189 0 -328 142 -328 325c0 224 199 415 418 415zM451 676c-192 0 -368 -168 -368 -366c0 -161 122 -286 288 -286c192 0 367 168 367 366c0 161 -122 286 -287 286zM369 781l-39 6c13 44 64 76 108 69
l87 -13c24 -4 51 12 58 35l39 -6c-13 -44 -64 -76 -108 -69l-86 13c-25 4 -52 -12 -59 -35z" />
    <glyph glyph-name="Odieresis" unicode="&#xd6;" horiz-adv-x="810" 
d="M456 720c189 0 328 -142 328 -325c0 -224 -200 -415 -418 -415c-189 0 -328 142 -328 325c0 224 199 415 418 415zM451 676c-192 0 -368 -168 -368 -366c0 -161 122 -286 288 -286c192 0 367 168 367 366c0 161 -122 286 -287 286zM417 855c17 0 30 -13 30 -30
c0 -21 -18 -40 -39 -40c-18 0 -31 14 -31 31c0 21 21 39 40 39zM557 855c17 0 30 -13 30 -30c0 -21 -18 -40 -39 -40c-18 0 -31 14 -31 31c0 21 21 39 40 39z" />
    <glyph glyph-name="multiply" unicode="&#xd7;" horiz-adv-x="536" 
d="M267 336l-40 -39c-29 -28 -56 -57 -84 -86l-33 33c13 14 61 60 85 84l40 40l-40 40c-24 24 -72 70 -85 84l33 33c28 -29 55 -58 84 -86l40 -39l40 39c27 27 55 56 84 86l33 -33c-13 -14 -61 -60 -85 -84l-40 -40l40 -40c24 -24 72 -70 85 -84l-33 -33
c-29 30 -56 59 -84 86z" />
    <glyph glyph-name="Oslash" unicode="&#xd8;" horiz-adv-x="810" 
d="M456 720c94 0 175 -35 234 -93l63 58l29 -33c-10 -10 -38 -35 -64 -57c50 -66 75 -151 63 -245c-25 -204 -211 -370 -415 -370c-94 0 -176 35 -235 93c-26 -23 -53 -49 -63 -58l-29 33l64 57c-49 66 -74 151 -62 245c25 204 211 370 415 370zM682 563l-515 -458
c51 -51 122 -81 204 -81c179 0 343 146 365 326c10 81 -11 156 -54 213zM654 595c-51 50 -122 81 -203 81c-179 0 -343 -146 -365 -326c-10 -82 10 -156 53 -213z" />
    <glyph glyph-name="Ugrave" unicode="&#xd9;" horiz-adv-x="597" 
d="M150 700c-2 -19 -11 -85 -15 -120l-44 -353c-2 -13 -2 -26 -2 -38c0 -99 50 -157 192 -157c101 0 160 33 191 63l60 485c4 35 11 101 13 120h47c-2 -19 -11 -85 -15 -120l-62 -498c-33 -42 -108 -94 -239 -94c-166 0 -233 75 -233 191c0 17 2 34 4 53l43 348
c4 35 11 101 13 120h47zM415 809l-26 -21l-102 120l38 31z" />
    <glyph glyph-name="Uacute" unicode="&#xda;" horiz-adv-x="597" 
d="M150 700c-2 -19 -11 -85 -15 -120l-44 -353c-2 -13 -2 -26 -2 -38c0 -99 50 -157 192 -157c101 0 160 33 191 63l60 485c4 35 11 101 13 120h47c-2 -19 -11 -85 -15 -120l-62 -498c-33 -42 -108 -94 -239 -94c-166 0 -233 75 -233 191c0 17 2 34 4 53l43 348
c4 35 11 101 13 120h47zM295 788l-20 21l122 130l30 -31z" />
    <glyph glyph-name="Ucircumflex" unicode="&#xdb;" horiz-adv-x="597" 
d="M150 700c-2 -19 -11 -85 -15 -120l-44 -353c-2 -13 -2 -26 -2 -38c0 -99 50 -157 192 -157c101 0 160 33 191 63l60 485c4 35 11 101 13 120h47c-2 -19 -11 -85 -15 -120l-62 -498c-33 -42 -108 -94 -239 -94c-166 0 -233 75 -233 191c0 17 2 34 4 53l43 348
c4 35 11 101 13 120h47zM416 757l-67 83l-87 -83l-26 28l121 115l93 -115z" />
    <glyph glyph-name="Udieresis" unicode="&#xdc;" horiz-adv-x="597" 
d="M204 855c18 0 31 -14 31 -32c0 -20 -21 -38 -40 -38c-17 0 -31 13 -31 30c0 21 19 40 40 40zM424 855c18 0 31 -14 31 -32c0 -20 -21 -38 -40 -38c-17 0 -31 13 -31 30c0 21 19 40 40 40zM98 700c-2 -19 -11 -85 -15 -120l-44 -353c-2 -13 -2 -26 -2 -38
c0 -99 50 -157 192 -157c101 0 160 33 191 63l60 485c4 35 11 101 13 120h47c-2 -19 -11 -85 -15 -120l-62 -498c-33 -42 -108 -94 -239 -94c-166 0 -233 75 -233 191c0 17 2 34 4 53l43 348c4 35 11 101 13 120h47z" />
    <glyph glyph-name="Yacute" unicode="&#xdd;" horiz-adv-x="534" 
d="M496 597l-204 -288l-23 -189c-5 -35 -12 -101 -14 -120h-47c2 19 11 85 16 120l23 190l-136 288c-18 39 -50 102 -50 102h55s23 -51 36 -79l96 -203c15 -30 23 -66 24 -71h4c0 5 17 37 41 71l143 202c22 30 45 64 56 80h55s-52 -71 -75 -103zM300 788l-20 21l122 130
l30 -31z" />
    <glyph glyph-name="Thorn" unicode="&#xde;" horiz-adv-x="420" 
d="M128 566h105c110 0 169 -67 169 -154c0 -115 -86 -212 -230 -212h-89l-10 -80c-5 -35 -13 -101 -14 -120h-47c1 19 12 85 16 120l56 460c4 35 12 101 14 120h47c-2 -19 -11 -85 -16 -120zM122 522l-34 -278h99c104 0 169 76 169 163c0 65 -41 115 -119 115h-115z" />
    <glyph glyph-name="germandbls" unicode="&#xdf;" horiz-adv-x="520" 
d="M160 57l37 28c21 -28 63 -54 115 -54c65 0 114 40 114 85c0 49 -43 73 -87 97c-49 27 -101 54 -101 116c0 71 47 122 93 171c45 48 90 94 90 155s-46 109 -109 109c-73 0 -142 -71 -152 -155l-87 -709c-4 -35 -11 -101 -14 -120h-46c3 19 12 85 16 120l87 704
c14 112 100 203 202 203c85 0 147 -64 147 -147c0 -79 -50 -133 -99 -184c-42 -44 -84 -87 -84 -139c0 -41 43 -62 87 -87c49 -27 101 -59 101 -126c0 -73 -69 -136 -163 -136c-66 0 -120 33 -147 69z" />
    <glyph glyph-name="agrave" unicode="&#xe0;" horiz-adv-x="486" 
d="M236 316c54 0 108 -25 130 -63l4 2c-3 7 -2 16 -1 24l1 10c1 9 2 18 2 22c0 55 -54 93 -126 93c-37 0 -76 -11 -103 -28l-20 35c36 21 83 36 128 36c94 0 165 -53 165 -131c0 -6 -1 -19 -2 -25l-29 -238c-35 -28 -104 -65 -186 -65c-96 0 -164 64 -164 148
c0 97 80 180 201 180zM231 273c-91 0 -151 -62 -151 -132c0 -62 51 -110 124 -110c62 0 112 22 139 41l17 132c-27 32 -67 69 -129 69zM310 544l-26 -21l-102 120l38 31z" />
    <glyph glyph-name="aacute" unicode="&#xe1;" horiz-adv-x="486" 
d="M236 316c54 0 108 -25 130 -63l4 2c-3 7 -2 16 -1 24l1 10c1 9 2 18 2 22c0 55 -54 93 -126 93c-37 0 -76 -11 -103 -28l-20 35c36 21 83 36 128 36c94 0 165 -53 165 -131c0 -6 -1 -19 -2 -25l-29 -238c-35 -28 -104 -65 -186 -65c-96 0 -164 64 -164 148
c0 97 80 180 201 180zM231 273c-91 0 -151 -62 -151 -132c0 -62 51 -110 124 -110c62 0 112 22 139 41l17 132c-27 32 -67 69 -129 69zM230 523l-20 21l122 130l30 -31z" />
    <glyph glyph-name="acircumflex" unicode="&#xe2;" horiz-adv-x="486" 
d="M236 316c54 0 108 -25 130 -63l4 2c-3 7 -2 16 -1 24l1 10c1 9 2 18 2 22c0 55 -54 93 -126 93c-37 0 -76 -11 -103 -28l-20 35c36 21 83 36 128 36c94 0 165 -53 165 -131c0 -6 -1 -19 -2 -25l-29 -238c-35 -28 -104 -65 -186 -65c-96 0 -164 64 -164 148
c0 97 80 180 201 180zM231 273c-91 0 -151 -62 -151 -132c0 -62 51 -110 124 -110c62 0 112 22 139 41l17 132c-27 32 -67 69 -129 69zM341 492l-67 83l-87 -83l-26 28l121 115l93 -115z" />
    <glyph glyph-name="atilde" unicode="&#xe3;" horiz-adv-x="486" 
d="M236 316c54 0 108 -25 130 -63l4 2c-3 7 -2 16 -1 24l1 10c1 9 2 18 2 22c0 55 -54 93 -126 93c-37 0 -76 -11 -103 -28l-20 35c36 21 83 36 128 36c94 0 165 -53 165 -131c0 -6 -1 -19 -2 -25l-29 -238c-35 -28 -104 -65 -186 -65c-96 0 -164 64 -164 148
c0 97 80 180 201 180zM231 273c-91 0 -151 -62 -151 -132c0 -62 51 -110 124 -110c62 0 112 22 139 41l17 132c-27 32 -67 69 -129 69zM157 516l-39 6c13 44 64 76 108 69l87 -13c24 -4 51 12 58 35l39 -6c-13 -44 -64 -76 -108 -69l-86 13c-25 4 -52 -12 -59 -35z" />
    <glyph glyph-name="adieresis" unicode="&#xe4;" horiz-adv-x="486" 
d="M236 316c54 0 108 -25 130 -63l4 2c-3 7 -2 16 -1 24l1 10c1 9 2 18 2 22c0 55 -54 93 -126 93c-37 0 -76 -11 -103 -28l-20 35c36 21 83 36 128 36c94 0 165 -53 165 -131c0 -6 -1 -19 -2 -25l-29 -238c-35 -28 -104 -65 -186 -65c-96 0 -164 64 -164 148
c0 97 80 180 201 180zM231 273c-91 0 -151 -62 -151 -132c0 -62 51 -110 124 -110c62 0 112 22 139 41l17 132c-27 32 -67 69 -129 69zM200 590c17 0 30 -13 30 -30c0 -21 -18 -40 -39 -40c-18 0 -31 14 -31 31c0 21 21 39 40 39zM340 590c17 0 30 -13 30 -30
c0 -21 -18 -40 -39 -40c-18 0 -31 14 -31 31c0 21 21 39 40 39z" />
    <glyph glyph-name="aring" unicode="&#xe5;" horiz-adv-x="486" 
d="M236 316c54 0 108 -25 130 -63l4 2c-3 7 -2 16 -1 24l1 10c1 9 2 18 2 22c0 55 -54 93 -126 93c-37 0 -76 -11 -103 -28l-20 35c36 21 83 36 128 36c94 0 165 -53 165 -131c0 -6 -1 -19 -2 -25l-29 -238c-35 -28 -104 -65 -186 -65c-96 0 -164 64 -164 148
c0 97 80 180 201 180zM231 273c-91 0 -151 -62 -151 -132c0 -62 51 -110 124 -110c62 0 112 22 139 41l17 132c-27 32 -67 69 -129 69zM279 700c51 0 88 -38 88 -87c0 -61 -53 -113 -113 -113c-51 0 -89 39 -89 89c0 60 56 111 114 111zM274 660c-34 0 -67 -31 -67 -68
c0 -29 22 -52 52 -52c34 0 65 31 65 68c0 29 -21 52 -50 52z" />
    <glyph glyph-name="ae" unicode="&#xe6;" horiz-adv-x="824" 
d="M712 94l24 -34c-37 -33 -101 -72 -177 -72c-77 0 -134 33 -165 88l-3 -23c-35 -29 -105 -65 -187 -65c-99 0 -165 65 -165 149c0 96 83 179 202 179c52 0 106 -23 130 -64l4 2c-1 3 -2 9 -2 16c0 1 0 6 1 9l1 4c1 6 1 11 1 17c0 61 -45 104 -126 104
c-36 0 -75 -12 -101 -29l-21 35c32 21 81 37 127 37c73 0 140 -35 160 -101c41 59 108 101 186 101c104 0 174 -83 174 -180c0 -12 -1 -25 -3 -37h-360v-4c-2 -11 -2 -22 -2 -32c0 -96 57 -163 154 -163c63 0 119 35 148 63zM209 31c67 0 114 22 140 42l16 130
c-24 33 -67 70 -129 70c-90 0 -153 -61 -153 -131c0 -62 51 -111 126 -111zM596 404c-82 0 -146 -59 -173 -131h305c-2 71 -55 131 -132 131z" />
    <glyph glyph-name="ccedilla" unicode="&#xe7;" horiz-adv-x="460" 
d="M271 447c63 0 117 -30 151 -76l-40 -28c-26 38 -66 61 -116 61c-111 0 -195 -93 -195 -215c0 -90 58 -158 154 -158c53 0 103 26 140 65l28 -32c-46 -47 -108 -76 -173 -76c-117 0 -193 84 -193 196c0 146 112 263 244 263zM143 -179l76 99l38 -32l-88 -88z" />
    <glyph glyph-name="egrave" unicode="&#xe8;" horiz-adv-x="505" 
d="M274 447c104 0 174 -83 174 -180c0 -12 -1 -25 -3 -37h-360c-2 -15 -2 -26 -2 -36c0 -96 57 -163 154 -163c63 0 119 35 148 63l24 -34c-37 -33 -101 -72 -177 -72c-121 0 -193 82 -193 200c0 133 96 259 235 259zM269 404c-82 0 -146 -59 -173 -131h305
c-2 71 -55 131 -132 131zM312 544l-26 -21l-102 120l38 31z" />
    <glyph glyph-name="eacute" unicode="&#xe9;" horiz-adv-x="505" 
d="M274 447c104 0 174 -83 174 -180c0 -12 -1 -25 -3 -37h-360c-2 -15 -2 -26 -2 -36c0 -96 57 -163 154 -163c63 0 119 35 148 63l24 -34c-37 -33 -101 -72 -177 -72c-121 0 -193 82 -193 200c0 133 96 259 235 259zM269 404c-82 0 -146 -59 -173 -131h305
c-2 71 -55 131 -132 131zM257 523l-20 21l122 130l30 -31z" />
    <glyph glyph-name="ecircumflex" unicode="&#xea;" horiz-adv-x="505" 
d="M274 447c104 0 174 -83 174 -180c0 -12 -1 -25 -3 -37h-360c-2 -15 -2 -26 -2 -36c0 -96 57 -163 154 -163c63 0 119 35 148 63l24 -34c-37 -33 -101 -72 -177 -72c-121 0 -193 82 -193 200c0 133 96 259 235 259zM269 404c-82 0 -146 -59 -173 -131h305
c-2 71 -55 131 -132 131zM342 492l-67 83l-87 -83l-26 28l121 115l93 -115z" />
    <glyph glyph-name="edieresis" unicode="&#xeb;" horiz-adv-x="505" 
d="M274 447c104 0 174 -83 174 -180c0 -12 -1 -25 -3 -37h-360c-2 -15 -2 -26 -2 -36c0 -96 57 -163 154 -163c63 0 119 35 148 63l24 -34c-37 -33 -101 -72 -177 -72c-121 0 -193 82 -193 200c0 133 96 259 235 259zM269 404c-82 0 -146 -59 -173 -131h305
c-2 71 -55 131 -132 131zM209 590c17 0 30 -13 30 -30c0 -21 -18 -40 -39 -40c-18 0 -31 14 -31 31c0 21 21 39 40 39zM349 590c17 0 30 -13 30 -30c0 -21 -18 -40 -39 -40c-18 0 -31 14 -31 31c0 21 21 39 40 39z" />
    <glyph glyph-name="igrave" unicode="&#xec;" horiz-adv-x="204" 
d="M141 435c-2 -19 -11 -85 -15 -120l-24 -195c-5 -35 -12 -101 -14 -120h-46c2 19 11 85 16 120l24 195c4 35 11 101 13 120h46zM150 544l-26 -21l-102 120l38 31z" />
    <glyph glyph-name="iacute" unicode="&#xed;" horiz-adv-x="204" 
d="M141 435c-2 -19 -11 -85 -15 -120l-24 -195c-5 -35 -12 -101 -14 -120h-46c2 19 11 85 16 120l24 195c4 35 11 101 13 120h46zM129 523l-20 21l122 130l30 -31z" />
    <glyph glyph-name="icircumflex" unicode="&#xee;" horiz-adv-x="204" 
d="M141 435c-2 -19 -11 -85 -15 -120l-24 -195c-5 -35 -12 -101 -14 -120h-46c2 19 11 85 16 120l24 195c4 35 11 101 13 120h46zM198 492l-67 83l-87 -83l-26 28l121 115l93 -115z" />
    <glyph glyph-name="idieresis" unicode="&#xef;" horiz-adv-x="204" 
d="M59 620c17 0 30 -13 30 -30c0 -21 -18 -40 -39 -40c-18 0 -31 14 -31 31c0 21 21 39 40 39zM169 620c17 0 30 -13 30 -30c0 -21 -18 -40 -39 -40c-18 0 -31 14 -31 31c0 21 21 39 40 39zM106 435c-2 -19 -11 -85 -15 -120l-24 -195c-5 -35 -12 -101 -14 -120h-46
c2 19 11 85 16 120l24 195c4 35 11 101 13 120h46z" />
    <glyph glyph-name="eth" unicode="&#xf0;" horiz-adv-x="539" 
d="M204 605c8 3 50 24 66 31l16 7l-12 30c-14 34 -45 105 -45 105l43 22c6 -17 23 -57 44 -106l13 -31l88 44l16 -41c-8 -4 -51 -23 -67 -31l-21 -10l130 -305c8 -20 12 -48 12 -77c0 -139 -125 -255 -259 -255c-117 0 -203 87 -203 200c0 140 123 259 259 259
c48 0 91 -23 102 -30l2 3c-5 7 -20 31 -45 91l-40 94l-83 -41zM279 404c-110 0 -210 -97 -210 -211c0 -92 69 -162 164 -162c110 0 210 96 210 209c0 92 -69 164 -164 164z" />
    <glyph glyph-name="ntilde" unicode="&#xf1;" horiz-adv-x="474" 
d="M140 435c-4 -26 -8 -49 -12 -55l4 -2c38 42 88 69 144 69c84 0 129 -56 129 -131c0 -9 -1 -17 -2 -26l-21 -170c-4 -35 -11 -101 -13 -120h-46c2 19 11 85 15 120l20 160c1 8 2 16 2 24c0 58 -27 100 -89 100c-74 0 -142 -59 -150 -128l-19 -156
c-4 -35 -11 -101 -13 -120h-46c2 19 11 85 15 120l24 195c4 35 12 101 14 120h44zM136 516l-39 6c13 44 64 76 108 69l87 -13c24 -4 51 12 58 35l39 -6c-13 -44 -64 -76 -108 -69l-86 13c-25 4 -52 -12 -59 -35z" />
    <glyph glyph-name="ograve" unicode="&#xf2;" horiz-adv-x="540" 
d="M288 447c117 0 204 -88 204 -201c0 -140 -123 -258 -260 -258c-118 0 -204 88 -204 202c0 139 125 257 260 257zM283 404c-110 0 -211 -97 -211 -211c0 -91 70 -162 165 -162c110 0 211 96 211 209c0 92 -70 164 -165 164zM312 544l-26 -21l-102 120l38 31z" />
    <glyph glyph-name="oacute" unicode="&#xf3;" horiz-adv-x="540" 
d="M288 447c117 0 204 -88 204 -201c0 -140 -123 -258 -260 -258c-118 0 -204 88 -204 202c0 139 125 257 260 257zM283 404c-110 0 -211 -97 -211 -211c0 -91 70 -162 165 -162c110 0 211 96 211 209c0 92 -70 164 -165 164zM287 513l-20 21l122 130l30 -31z" />
    <glyph glyph-name="ocircumflex" unicode="&#xf4;" horiz-adv-x="540" 
d="M288 447c117 0 204 -88 204 -201c0 -140 -123 -258 -260 -258c-118 0 -204 88 -204 202c0 139 125 257 260 257zM283 404c-110 0 -211 -97 -211 -211c0 -91 70 -162 165 -162c110 0 211 96 211 209c0 92 -70 164 -165 164zM353 492l-67 83l-87 -83l-26 28l121 115
l93 -115z" />
    <glyph glyph-name="otilde" unicode="&#xf5;" horiz-adv-x="540" 
d="M288 447c117 0 204 -88 204 -201c0 -140 -123 -258 -260 -258c-118 0 -204 88 -204 202c0 139 125 257 260 257zM283 404c-110 0 -211 -97 -211 -211c0 -91 70 -162 165 -162c110 0 211 96 211 209c0 92 -70 164 -165 164zM179 516l-39 6c13 44 64 76 108 69l87 -13
c24 -4 51 12 58 35l39 -6c-13 -44 -64 -76 -108 -69l-86 13c-25 4 -52 -12 -59 -35z" />
    <glyph glyph-name="odieresis" unicode="&#xf6;" horiz-adv-x="540" 
d="M288 447c117 0 204 -88 204 -201c0 -140 -123 -258 -260 -258c-118 0 -204 88 -204 202c0 139 125 257 260 257zM283 404c-110 0 -211 -97 -211 -211c0 -91 70 -162 165 -162c110 0 211 96 211 209c0 92 -70 164 -165 164zM219 590c17 0 30 -13 30 -30
c0 -21 -18 -40 -39 -40c-18 0 -31 14 -31 31c0 21 21 39 40 39zM359 590c17 0 30 -13 30 -30c0 -21 -18 -40 -39 -40c-18 0 -31 14 -31 31c0 21 21 39 40 39z" />
    <glyph glyph-name="divide" unicode="&#xf7;" horiz-adv-x="536" 
d="M268 267c19 0 35 -16 35 -35s-16 -35 -35 -35s-35 16 -35 35s16 35 35 35zM268 539c19 0 35 -16 35 -35s-16 -35 -35 -35s-35 16 -35 35s16 35 35 35zM190 390h156c35 0 101 1 120 1v-46c-19 0 -85 1 -120 1h-156c-35 0 -101 -1 -120 -1v46c19 0 85 -1 120 -1z" />
    <glyph glyph-name="oslash" unicode="&#xf8;" horiz-adv-x="540" 
d="M288 447c55 0 104 -20 140 -52l38 35l28 -33l-39 -34c23 -33 37 -74 37 -118c0 -140 -124 -257 -260 -257c-56 0 -105 20 -140 52l-38 -35l-28 33l38 34c-22 32 -36 73 -36 117c0 139 125 258 260 258zM237 31c109 0 211 95 211 208c0 34 -10 66 -27 93l-295 -261
c28 -25 67 -40 111 -40zM283 404c-110 0 -211 -97 -211 -210c0 -34 10 -66 27 -91c8 6 16 13 294 260c-28 26 -66 41 -110 41z" />
    <glyph glyph-name="ugrave" unicode="&#xf9;" horiz-adv-x="490" 
d="M342 62l31 253c4 35 12 101 14 120h46c-2 -19 -12 -85 -16 -120l-34 -276c-38 -30 -98 -51 -171 -51c-92 0 -156 31 -156 136c0 12 1 25 3 39l18 152c4 35 12 101 14 120h46c-2 -19 -12 -85 -16 -120l-17 -140c-2 -14 -3 -27 -3 -39c0 -77 38 -105 116 -105
c54 0 98 13 125 31zM297 544l-26 -21l-102 120l38 31z" />
    <glyph glyph-name="uacute" unicode="&#xfa;" horiz-adv-x="490" 
d="M342 62l31 253c4 35 12 101 14 120h46c-2 -19 -12 -85 -16 -120l-34 -276c-38 -30 -98 -51 -171 -51c-92 0 -156 31 -156 136c0 12 1 25 3 39l18 152c4 35 12 101 14 120h46c-2 -19 -12 -85 -16 -120l-17 -140c-2 -14 -3 -27 -3 -39c0 -77 38 -105 116 -105
c54 0 98 13 125 31zM237 523l-20 21l122 130l30 -31z" />
    <glyph glyph-name="ucircumflex" unicode="&#xfb;" horiz-adv-x="490" 
d="M342 62l31 253c4 35 12 101 14 120h46c-2 -19 -12 -85 -16 -120l-34 -276c-38 -30 -98 -51 -171 -51c-92 0 -156 31 -156 136c0 12 1 25 3 39l18 152c4 35 12 101 14 120h46c-2 -19 -12 -85 -16 -120l-17 -140c-2 -14 -3 -27 -3 -39c0 -77 38 -105 116 -105
c54 0 98 13 125 31zM331 492l-67 83l-87 -83l-26 28l121 115l93 -115z" />
    <glyph glyph-name="udieresis" unicode="&#xfc;" horiz-adv-x="490" 
d="M342 62l31 253c4 35 12 101 14 120h46c-2 -19 -12 -85 -16 -120l-34 -276c-38 -30 -98 -51 -171 -51c-92 0 -156 31 -156 136c0 12 1 25 3 39l18 152c4 35 12 101 14 120h46c-2 -19 -12 -85 -16 -120l-17 -140c-2 -14 -3 -27 -3 -39c0 -77 38 -105 116 -105
c54 0 98 13 125 31zM194 590c17 0 30 -13 30 -30c0 -21 -18 -40 -39 -40c-18 0 -31 14 -31 31c0 21 21 39 40 39zM334 590c17 0 30 -13 30 -30c0 -21 -18 -40 -39 -40c-18 0 -31 14 -31 31c0 21 21 39 40 39z" />
    <glyph glyph-name="yacute" unicode="&#xfd;" horiz-adv-x="486" 
d="M40 435h53c6 -21 17 -58 28 -91l64 -202c22 -70 26 -92 26 -99h4c1 8 14 37 49 99l164 293h50c-21 -36 -42 -73 -62 -109l-256 -454c-18 -32 -42 -75 -52 -92h-50s45 75 64 110l60 107l-105 329c-11 32 -31 92 -37 109zM240 523l-20 21l122 130l30 -31z" />
    <glyph glyph-name="thorn" unicode="&#xfe;" horiz-adv-x="514" 
d="M209 -12c-60 0 -115 23 -126 41l-4 -2c2 -5 3 -9 3 -18c0 -7 0 -17 -2 -33l-10 -76c-4 -35 -13 -101 -14 -120h-46c1 19 12 85 16 120l95 775c4 35 12 101 14 120h46c-2 -19 -12 -85 -16 -120l-32 -265c-2 -19 -6 -35 -9 -40l4 -1c35 48 103 78 163 78
c104 0 176 -62 176 -185c0 -155 -114 -274 -258 -274zM285 404c-66 0 -135 -44 -166 -106l-28 -229c32 -21 75 -38 127 -38c116 0 205 99 205 224c0 98 -57 149 -138 149z" />
    <glyph glyph-name="ydieresis" unicode="&#xff;" horiz-adv-x="486" 
d="M40 435h53c6 -21 17 -58 28 -91l64 -202c22 -70 26 -92 26 -99h4c1 8 14 37 49 99l164 293h50c-21 -36 -42 -73 -62 -109l-256 -454c-18 -32 -42 -75 -52 -92h-50s45 75 64 110l60 107l-105 329c-11 32 -31 92 -37 109zM199 590c17 0 30 -13 30 -30
c0 -21 -18 -40 -39 -40c-18 0 -31 14 -31 31c0 21 21 39 40 39zM339 590c17 0 30 -13 30 -30c0 -21 -18 -40 -39 -40c-18 0 -31 14 -31 31c0 21 21 39 40 39z" />
    <glyph glyph-name="Amacron" unicode="&#x100;" 
d="M352 738l178 -627c10 -35 33 -111 33 -111h-51s-14 53 -26 94l-8 28h-394l-13 -27c-24 -46 -48 -95 -48 -95h-50s34 66 58 112zM341 625h-4c-3 -12 -11 -32 -34 -75l-184 -360c-6 -13 -17 -24 -20 -26l1 -4c3 2 18 6 36 6h299c19 0 32 -4 34 -6l3 4c-3 2 -9 11 -13 26
l-103 360c-12 43 -16 63 -15 75zM246 842c9 0 43 -1 60 -1h90c17 0 51 1 60 1l-5 -46c-9 0 -43 1 -60 1h-90c-17 0 -51 -1 -60 -1z" />
    <glyph glyph-name="amacron" unicode="&#x101;" horiz-adv-x="486" 
d="M233 316c54 0 108 -25 130 -63l4 2c-3 7 -2 16 -1 24l1 10c1 9 2 18 2 22c0 55 -54 93 -126 93c-37 0 -76 -11 -103 -28l-20 35c36 21 83 36 128 36c94 0 165 -53 165 -131c0 -6 -1 -19 -2 -25l-29 -238c-35 -28 -104 -65 -186 -65c-96 0 -164 64 -164 148
c0 97 80 180 201 180zM228 273c-91 0 -151 -62 -151 -132c0 -62 51 -110 124 -110c62 0 112 22 139 41l17 132c-27 32 -67 69 -129 69zM161 577c9 0 43 -1 60 -1h90c17 0 51 1 60 1l-5 -46c-9 0 -43 1 -60 1h-90c-17 0 -51 -1 -60 -1z" />
    <glyph glyph-name="Abreve" unicode="&#x102;" 
d="M352 738l178 -627c10 -35 33 -111 33 -111h-51s-14 53 -26 94l-8 28h-394l-13 -27c-24 -46 -48 -95 -48 -95h-50s34 66 58 112zM341 625h-4c-3 -12 -11 -32 -34 -75l-184 -360c-6 -13 -17 -24 -20 -26l1 -4c3 2 18 6 36 6h299c19 0 32 -4 34 -6l3 4c-3 2 -9 11 -13 26
l-103 360c-12 43 -16 63 -15 75zM344 789c-55 0 -94 24 -110 68l42 18c12 -27 38 -42 74 -42s66 15 84 42l38 -18c-28 -44 -73 -68 -128 -68z" />
    <glyph glyph-name="abreve" unicode="&#x103;" horiz-adv-x="486" 
d="M233 316c54 0 108 -25 130 -63l4 2c-3 7 -2 16 -1 24l1 10c1 9 2 18 2 22c0 55 -54 93 -126 93c-37 0 -76 -11 -103 -28l-20 35c36 21 83 36 128 36c94 0 165 -53 165 -131c0 -6 -1 -19 -2 -25l-29 -238c-35 -28 -104 -65 -186 -65c-96 0 -164 64 -164 148
c0 97 80 180 201 180zM228 273c-91 0 -151 -62 -151 -132c0 -62 51 -110 124 -110c62 0 112 22 139 41l17 132c-27 32 -67 69 -129 69zM254 524c-55 0 -94 24 -110 68l42 18c12 -27 38 -42 74 -42s66 15 84 42l38 -18c-28 -44 -73 -68 -128 -68z" />
    <glyph glyph-name="Aogonek" unicode="&#x104;" 
d="M486 94l-8 28h-394l-13 -27c-23 -47 -49 -95 -48 -95h-50s34 66 58 112l322 626l177 -627c10 -35 33 -111 33 -111h-21c-5 -5 -21 -35 -21 -64c0 -20 10 -38 45 -38c9 0 21 2 37 5l3 -44c-16 -3 -31 -5 -46 -5c-65 0 -84 35 -84 74c0 37 17 76 30 94zM304 550l-184 -360
c-7 -13 -17 -24 -21 -26l2 -4c2 2 18 6 36 6h299c19 0 31 -4 34 -6l2 4c-2 2 -8 11 -12 26l-103 360c-12 43 -17 63 -16 75h-4c-2 -12 -11 -32 -33 -75z" />
    <glyph glyph-name="aogonek" unicode="&#x105;" horiz-adv-x="486" 
d="M233 316c54 0 108 -25 130 -63l4 2c-3 7 -2 16 -1 24l1 10c1 9 2 18 2 22c0 55 -54 93 -126 93c-37 0 -76 -11 -103 -28l-20 35c36 21 83 36 128 36c94 0 165 -53 165 -131c0 -6 -1 -19 -2 -25l-29 -238c-32 -26 -93 -59 -167 -64c-6 -12 -13 -33 -13 -51
c0 -21 9 -40 45 -40c9 0 21 2 37 5l3 -44c-17 -3 -31 -5 -46 -5c-66 0 -85 36 -85 76c0 20 6 42 14 60c-82 10 -138 70 -138 146c0 97 80 180 201 180zM228 273c-91 0 -151 -62 -151 -132c0 -62 51 -110 124 -110c62 0 112 22 139 41l17 132c-27 32 -67 69 -129 69z" />
    <glyph glyph-name="Cacute" unicode="&#x106;" horiz-adv-x="695" 
d="M694 612l-38 -32c-49 59 -120 96 -205 96c-192 0 -368 -168 -368 -366c0 -161 122 -286 288 -286c87 0 170 37 234 96l29 -32c-73 -67 -169 -108 -268 -108c-189 0 -328 142 -328 325c0 224 199 415 418 415c98 0 182 -41 238 -108zM426 788l-20 21l122 130l30 -31z" />
    <glyph glyph-name="cacute" unicode="&#x107;" horiz-adv-x="460" 
d="M271 447c63 0 117 -30 151 -76l-40 -28c-26 38 -66 61 -116 61c-111 0 -195 -93 -195 -215c0 -90 58 -158 154 -158c53 0 103 26 140 65l28 -32c-46 -47 -108 -76 -173 -76c-117 0 -193 84 -193 196c0 146 112 263 244 263zM246 523l-20 21l122 130l30 -31z" />
    <glyph glyph-name="Ccircumflex" unicode="&#x108;" horiz-adv-x="695" 
d="M694 612l-38 -32c-49 59 -120 96 -205 96c-192 0 -368 -168 -368 -366c0 -161 122 -286 288 -286c87 0 170 37 234 96l29 -32c-73 -67 -169 -108 -268 -108c-189 0 -328 142 -328 325c0 224 199 415 418 415c98 0 182 -41 238 -108zM517 757l-67 83l-87 -83l-26 28
l121 115l93 -115z" />
    <glyph glyph-name="ccircumflex" unicode="&#x109;" horiz-adv-x="460" 
d="M271 447c63 0 117 -30 151 -76l-40 -28c-26 38 -66 61 -116 61c-111 0 -195 -93 -195 -215c0 -90 58 -158 154 -158c53 0 103 26 140 65l28 -32c-46 -47 -108 -76 -173 -76c-117 0 -193 84 -193 196c0 146 112 263 244 263zM332 492l-67 83l-87 -83l-26 28l121 115
l93 -115z" />
    <glyph glyph-name="Cdotaccent" unicode="&#x10a;" horiz-adv-x="695" 
d="M694 612l-38 -32c-49 59 -120 96 -205 96c-192 0 -368 -168 -368 -366c0 -161 122 -286 288 -286c87 0 170 37 234 96l29 -32c-73 -67 -169 -108 -268 -108c-189 0 -328 142 -328 325c0 224 199 415 418 415c98 0 182 -41 238 -108zM440 855c17 0 30 -13 30 -30
c0 -21 -18 -40 -39 -40c-18 0 -31 14 -31 31c0 21 21 39 40 39z" />
    <glyph glyph-name="cdotaccent" unicode="&#x10b;" horiz-adv-x="460" 
d="M271 447c63 0 117 -30 151 -76l-40 -28c-26 38 -66 61 -116 61c-111 0 -195 -93 -195 -215c0 -90 58 -158 154 -158c53 0 103 26 140 65l28 -32c-46 -47 -108 -76 -173 -76c-117 0 -193 84 -193 196c0 146 112 263 244 263zM268 590c17 0 30 -13 30 -30
c0 -21 -18 -40 -39 -40c-18 0 -31 14 -31 31c0 21 21 39 40 39z" />
    <glyph glyph-name="Ccaron" unicode="&#x10c;" horiz-adv-x="695" 
d="M694 612l-38 -32c-49 59 -120 96 -205 96c-192 0 -368 -168 -368 -366c0 -161 122 -286 288 -286c87 0 170 37 234 96l29 -32c-73 -67 -169 -108 -268 -108c-189 0 -328 142 -328 325c0 224 199 415 418 415c98 0 182 -41 238 -108zM454 817l87 83l26 -28l-121 -115
l-93 115l34 28z" />
    <glyph glyph-name="ccaron" unicode="&#x10d;" horiz-adv-x="460" 
d="M271 447c63 0 117 -30 151 -76l-40 -28c-26 38 -66 61 -116 61c-111 0 -195 -93 -195 -215c0 -90 58 -158 154 -158c53 0 103 26 140 65l28 -32c-46 -47 -108 -76 -173 -76c-117 0 -193 84 -193 196c0 146 112 263 244 263zM265 552l87 83l26 -28l-121 -115l-93 115
l34 28z" />
    <glyph glyph-name="Dcaron" unicode="&#x10e;" horiz-adv-x="600" 
d="M99 700h165c178 0 310 -134 310 -307c0 -212 -190 -393 -396 -393h-165zM139 656l-76 -612h120c180 0 345 158 345 344c0 151 -114 268 -269 268h-120zM280 817l87 83l26 -28l-121 -115l-93 115l34 28z" />
    <glyph glyph-name="dcaron" unicode="&#x10f;" horiz-adv-x="659" 
d="M458 795h46c-2 -19 -12 -85 -16 -120l-75 -615c-44 -42 -112 -72 -186 -72c-116 0 -195 79 -195 197c0 170 125 262 237 262c53 0 116 -20 141 -67l4 2c0 3 -1 8 -1 14c0 15 2 38 5 63l26 216c4 35 12 101 14 120zM401 319c-15 50 -71 85 -137 85
c-90 0 -188 -74 -188 -213c0 -95 64 -160 156 -160c59 0 110 23 140 51zM560 743l7 52h52l-6 -44c-3 -30 -25 -50 -38 -65l-19 14c7 8 23 24 25 37v6h-21z" />
    <glyph glyph-name="Dcroat" unicode="&#x110;" horiz-adv-x="600" 
d="M-2 407c6 0 38 -1 65 -1l36 294h165c178 0 310 -134 310 -307c0 -212 -190 -393 -396 -393h-165l44 362c-27 -1 -59 -1 -65 -1zM139 656l-31 -250h75c17 0 91 1 100 1l-6 -46c-9 0 -83 1 -100 1h-75l-39 -318h120c180 0 345 158 345 344c0 151 -114 268 -269 268h-120z
" />
    <glyph glyph-name="dcroat" unicode="&#x111;" horiz-adv-x="514" 
d="M224 -12c-116 0 -195 79 -195 197c0 170 125 262 237 262c53 0 116 -20 141 -67l4 2c0 3 -1 8 -1 14c0 15 2 38 5 63l20 168h-61c-17 0 -91 -1 -100 -1l6 45c9 0 83 -1 100 -1h61v5c5 35 12 101 14 120h46c-2 -19 -11 -85 -16 -120v-5h10c17 0 51 1 60 1l-6 -45
c-9 0 -43 1 -60 1h-10l-69 -567c-44 -42 -112 -72 -186 -72zM229 31c59 0 110 23 140 51l29 237c-15 50 -71 85 -137 85c-90 0 -187 -74 -187 -213c0 -95 63 -160 155 -160z" />
    <glyph glyph-name="Emacron" unicode="&#x112;" horiz-adv-x="402" 
d="M99 700h182c35 0 101 1 120 1l-6 -46c-19 0 -84 1 -119 1h-137l-31 -250h85c35 0 101 1 120 1l-6 -46c-19 0 -85 1 -120 1h-85l-39 -318h157c35 0 102 1 121 1l-6 -46c-19 0 -85 1 -120 1h-202zM154 842c9 0 43 -1 60 -1h90c17 0 51 1 60 1l-5 -46c-9 0 -43 1 -60 1h-90
c-17 0 -51 -1 -60 -1z" />
    <glyph glyph-name="emacron" unicode="&#x113;" horiz-adv-x="505" 
d="M274 447c104 0 174 -83 174 -180c0 -12 -1 -25 -3 -37h-360c-2 -15 -2 -26 -2 -36c0 -96 57 -163 154 -163c63 0 119 35 148 63l24 -34c-37 -33 -101 -72 -177 -72c-121 0 -193 82 -193 200c0 133 96 259 235 259zM269 404c-82 0 -146 -59 -173 -131h305
c-2 71 -55 131 -132 131zM170 577c9 0 43 -1 60 -1h90c17 0 51 1 60 1l-5 -46c-9 0 -43 1 -60 1h-90c-17 0 -51 -1 -60 -1z" />
    <glyph glyph-name="Ebreve" unicode="&#x114;" horiz-adv-x="402" 
d="M99 700h182c35 0 101 1 120 1l-6 -46c-19 0 -84 1 -119 1h-137l-31 -250h85c35 0 101 1 120 1l-6 -46c-19 0 -85 1 -120 1h-85l-39 -318h157c35 0 102 1 121 1l-6 -46c-19 0 -85 1 -120 1h-202zM252 789c-55 0 -94 24 -110 68l42 18c12 -27 38 -42 74 -42s66 15 84 42
l38 -18c-28 -44 -73 -68 -128 -68z" />
    <glyph glyph-name="ebreve" unicode="&#x115;" horiz-adv-x="505" 
d="M274 447c104 0 174 -83 174 -180c0 -12 -1 -25 -3 -37h-360c-2 -15 -2 -26 -2 -36c0 -96 57 -163 154 -163c63 0 119 35 148 63l24 -34c-37 -33 -101 -72 -177 -72c-121 0 -193 82 -193 200c0 133 96 259 235 259zM269 404c-82 0 -146 -59 -173 -131h305
c-2 71 -55 131 -132 131zM268 524c-55 0 -94 24 -110 68l42 18c12 -27 38 -42 74 -42s66 15 84 42l38 -18c-28 -44 -73 -68 -128 -68z" />
    <glyph glyph-name="Edotaccent" unicode="&#x116;" horiz-adv-x="402" 
d="M99 700h182c35 0 101 1 120 1l-6 -46c-19 0 -84 1 -119 1h-137l-31 -250h85c35 0 101 1 120 1l-6 -46c-19 0 -85 1 -120 1h-85l-39 -318h157c35 0 102 1 121 1l-6 -46c-19 0 -85 1 -120 1h-202zM261 855c17 0 30 -13 30 -30c0 -21 -18 -40 -39 -40c-18 0 -31 14 -31 31
c0 21 21 39 40 39z" />
    <glyph glyph-name="edotaccent" unicode="&#x117;" horiz-adv-x="505" 
d="M274 447c104 0 174 -83 174 -180c0 -12 -1 -25 -3 -37h-360c-2 -15 -2 -26 -2 -36c0 -96 57 -163 154 -163c63 0 119 35 148 63l24 -34c-37 -33 -101 -72 -177 -72c-121 0 -193 82 -193 200c0 133 96 259 235 259zM269 404c-82 0 -146 -59 -173 -131h305
c-2 71 -55 131 -132 131zM277 590c17 0 30 -13 30 -30c0 -21 -18 -40 -39 -40c-18 0 -31 14 -31 31c0 21 21 39 40 39z" />
    <glyph glyph-name="Eogonek" unicode="&#x118;" horiz-adv-x="402" 
d="M17 0l86 700h182c35 0 102 1 121 1l-6 -46c-19 0 -85 1 -120 1h-137l-31 -250h84c35 0 101 1 120 1l-5 -46c-19 0 -85 1 -120 1h-84l-39 -318h157c35 0 101 1 120 1l-6 -46c-19 0 -85 1 -120 1h-14l1 -1c-4 -4 -20 -34 -20 -63c0 -20 10 -38 45 -38c9 0 21 2 38 5l2 -44
c-16 -3 -30 -5 -45 -5c-65 0 -85 35 -85 74c0 26 9 52 18 72h-142z" />
    <glyph glyph-name="eogonek" unicode="&#x119;" horiz-adv-x="505" 
d="M385 94l24 -34c-28 -25 -72 -54 -124 -66c-8 -10 -17 -34 -17 -58c0 -20 10 -38 45 -38c9 0 21 2 37 5l3 -44c-16 -3 -31 -5 -46 -5c-65 0 -84 35 -84 74c0 20 4 41 13 60h-4c-121 0 -193 82 -193 200c0 129 93 259 235 259c105 0 175 -84 175 -182c0 -12 -1 -23 -3 -35
h-361c-2 -15 -2 -26 -2 -36c0 -96 57 -163 154 -163c63 0 119 35 148 63zM269 404c-82 0 -146 -59 -173 -131h305c-1 71 -55 131 -132 131z" />
    <glyph glyph-name="Ecaron" unicode="&#x11a;" horiz-adv-x="402" 
d="M99 700h182c35 0 101 1 120 1l-6 -46c-19 0 -84 1 -119 1h-137l-31 -250h85c35 0 101 1 120 1l-6 -46c-19 0 -85 1 -120 1h-85l-39 -318h157c35 0 102 1 121 1l-6 -46c-19 0 -85 1 -120 1h-202zM255 817l87 83l26 -28l-121 -115l-93 115l34 28z" />
    <glyph glyph-name="ecaron" unicode="&#x11b;" horiz-adv-x="505" 
d="M274 447c104 0 174 -83 174 -180c0 -12 -1 -25 -3 -37h-360c-2 -15 -2 -26 -2 -36c0 -96 57 -163 154 -163c63 0 119 35 148 63l24 -34c-37 -33 -101 -72 -177 -72c-121 0 -193 82 -193 200c0 133 96 259 235 259zM269 404c-82 0 -146 -59 -173 -131h305
c-2 71 -55 131 -132 131zM272 552l87 83l26 -28l-121 -115l-93 115l34 28z" />
    <glyph glyph-name="Gcircumflex" unicode="&#x11c;" horiz-adv-x="747" 
d="M366 -20c-189 0 -328 142 -328 325c0 224 199 415 418 415c103 0 193 -48 247 -124l-36 -34c-47 70 -124 114 -216 114c-192 0 -368 -168 -368 -366c0 -161 122 -286 288 -286c136 0 254 101 289 220h-115c-35 0 -101 -1 -120 -1l5 46c19 0 85 -1 120 -1h165
c-21 -167 -177 -308 -349 -308zM521 757l-67 83l-87 -83l-26 28l121 115l93 -115z" />
    <glyph glyph-name="gcircumflex" unicode="&#x11d;" horiz-adv-x="517" 
d="M464 384l-53 -429c-12 -102 -102 -187 -231 -187c-78 0 -127 30 -152 53l32 34c20 -19 65 -44 120 -44c116 0 178 67 188 149l7 56c2 18 6 33 9 38l-3 2c-40 -45 -107 -68 -163 -68c-106 0 -180 61 -180 185c0 148 98 274 253 274c73 0 132 -28 173 -63zM417 362
c-27 21 -70 42 -131 42c-128 0 -204 -105 -204 -225c0 -97 58 -148 142 -148c79 0 134 45 163 84zM341 492l-67 83l-87 -83l-26 28l121 115l93 -115z" />
    <glyph glyph-name="Gbreve" unicode="&#x11e;" horiz-adv-x="747" 
d="M366 -20c-189 0 -328 142 -328 325c0 224 199 415 418 415c103 0 193 -48 247 -124l-36 -34c-47 70 -124 114 -216 114c-192 0 -368 -168 -368 -366c0 -161 122 -286 288 -286c136 0 254 101 289 220h-115c-35 0 -101 -1 -120 -1l5 46c19 0 85 -1 120 -1h165
c-21 -167 -177 -308 -349 -308zM443 789c-55 0 -94 24 -110 68l42 18c12 -27 38 -42 74 -42s66 15 84 42l38 -18c-28 -44 -73 -68 -128 -68z" />
    <glyph glyph-name="gbreve" unicode="&#x11f;" horiz-adv-x="517" 
d="M464 384l-53 -429c-12 -102 -102 -187 -231 -187c-78 0 -127 30 -152 53l32 34c20 -19 65 -44 120 -44c116 0 178 67 188 149l7 56c2 18 6 33 9 38l-3 2c-40 -45 -107 -68 -163 -68c-106 0 -180 61 -180 185c0 148 98 274 253 274c73 0 132 -28 173 -63zM417 362
c-27 21 -70 42 -131 42c-128 0 -204 -105 -204 -225c0 -97 58 -148 142 -148c79 0 134 45 163 84zM267 524c-55 0 -94 24 -110 68l42 18c12 -27 38 -42 74 -42s66 15 84 42l38 -18c-28 -44 -73 -68 -128 -68z" />
    <glyph glyph-name="Gdotaccent" unicode="&#x120;" horiz-adv-x="747" 
d="M366 -20c-189 0 -328 142 -328 325c0 224 199 415 418 415c103 0 193 -48 247 -124l-36 -34c-47 70 -124 114 -216 114c-192 0 -368 -168 -368 -366c0 -161 122 -286 288 -286c136 0 254 101 289 220h-115c-35 0 -101 -1 -120 -1l5 46c19 0 85 -1 120 -1h165
c-21 -167 -177 -308 -349 -308zM445 855c17 0 30 -13 30 -30c0 -21 -18 -40 -39 -40c-18 0 -31 14 -31 31c0 21 21 39 40 39z" />
    <glyph glyph-name="gdotaccent" unicode="&#x121;" horiz-adv-x="517" 
d="M464 384l-53 -429c-12 -102 -102 -187 -231 -187c-78 0 -127 30 -152 53l32 34c20 -19 65 -44 120 -44c116 0 178 67 188 149l7 56c2 18 6 33 9 38l-3 2c-40 -45 -107 -68 -163 -68c-106 0 -180 61 -180 185c0 148 98 274 253 274c73 0 132 -28 173 -63zM417 362
c-27 21 -70 42 -131 42c-128 0 -204 -105 -204 -225c0 -97 58 -148 142 -148c79 0 134 45 163 84zM276 590c17 0 30 -13 30 -30c0 -21 -18 -40 -39 -40c-18 0 -31 14 -31 31c0 21 21 39 40 39z" />
    <glyph glyph-name="Hcircumflex" unicode="&#x124;" horiz-adv-x="610" 
d="M145 700c-2 -19 -11 -85 -16 -120l-21 -176h420l21 176c5 35 12 101 14 120h47c-2 -19 -11 -85 -16 -120l-56 -460c-5 -35 -12 -101 -14 -120h-47c2 19 11 85 16 120l29 240h-420l-29 -240c-5 -35 -12 -101 -14 -120h-47c2 19 11 85 16 120l56 460c5 35 12 101 14 120h47
zM423 757l-67 83l-87 -83l-26 28l121 115l93 -115z" />
    <glyph glyph-name="hcircumflex" unicode="&#x125;" horiz-adv-x="474" 
d="M140 795h46c-2 -19 -12 -85 -16 -120l-28 -230c-4 -33 -11 -67 -15 -75l4 -2c35 41 80 79 147 79c74 0 127 -51 127 -129c0 -8 -1 -17 -2 -25l-21 -173c-4 -35 -11 -101 -13 -120h-46c2 19 10 85 15 120l21 166c1 7 1 14 1 21c0 62 -36 97 -87 97
c-74 0 -145 -73 -154 -144l-17 -140c-4 -35 -11 -101 -13 -120h-46c2 19 11 85 15 120l68 555c4 35 12 101 14 120zM375 757l-67 83l-87 -83l-26 28l121 115l93 -115z" />
    <glyph glyph-name="Itilde" unicode="&#x128;" horiz-adv-x="185" 
d="M165 700c-2 -19 -11 -85 -16 -120l-56 -460c-5 -35 -12 -101 -14 -120h-47c2 19 11 85 16 120l56 460c5 35 12 101 14 120h47zM38 781l-39 6c13 44 64 76 108 69l87 -13c24 -4 51 12 58 35l39 -6c-13 -44 -64 -76 -108 -69l-86 13c-25 4 -52 -12 -59 -35z" />
    <glyph glyph-name="itilde" unicode="&#x129;" horiz-adv-x="204" 
d="M141 435c-2 -19 -11 -85 -15 -120l-24 -195c-5 -35 -12 -101 -14 -120h-46c2 19 11 85 16 120l24 195c4 35 11 101 13 120h46zM14 516l-39 6c13 44 64 76 108 69l87 -13c24 -4 51 12 58 35l39 -6c-13 -44 -64 -76 -108 -69l-86 13c-25 4 -52 -12 -59 -35z" />
    <glyph glyph-name="Imacron" unicode="&#x12a;" horiz-adv-x="185" 
d="M165 700c-2 -19 -11 -85 -16 -120l-56 -460c-5 -35 -12 -101 -14 -120h-47c2 19 11 85 16 120l56 460c5 35 12 101 14 120h47zM40 842c9 0 43 -1 60 -1h90c17 0 51 1 60 1l-5 -46c-9 0 -43 1 -60 1h-90c-17 0 -51 -1 -60 -1z" />
    <glyph glyph-name="imacron" unicode="&#x12b;" horiz-adv-x="204" 
d="M141 435c-2 -19 -11 -85 -15 -120l-24 -195c-5 -35 -12 -101 -14 -120h-46c2 19 11 85 16 120l24 195c4 35 11 101 13 120h46zM16 577c9 0 43 -1 60 -1h90c17 0 51 1 60 1l-5 -46c-9 0 -43 1 -60 1h-90c-17 0 -51 -1 -60 -1z" />
    <glyph glyph-name="Ibreve" unicode="&#x12c;" horiz-adv-x="185" 
d="M165 700c-2 -19 -11 -85 -16 -120l-56 -460c-5 -35 -12 -101 -14 -120h-47c2 19 11 85 16 120l56 460c5 35 12 101 14 120h47zM138 789c-55 0 -94 24 -110 68l42 18c12 -27 38 -42 74 -42s66 15 84 42l38 -18c-28 -44 -73 -68 -128 -68z" />
    <glyph glyph-name="ibreve" unicode="&#x12d;" horiz-adv-x="204" 
d="M141 435c-2 -19 -11 -85 -15 -120l-24 -195c-5 -35 -12 -101 -14 -120h-46c2 19 11 85 16 120l24 195c4 35 11 101 13 120h46zM114 524c-55 0 -94 24 -110 68l42 18c12 -27 38 -42 74 -42s66 15 84 42l38 -18c-28 -44 -73 -68 -128 -68z" />
    <glyph glyph-name="Iogonek" unicode="&#x12e;" horiz-adv-x="185" 
d="M169 700c-2 -19 -11 -85 -15 -120l-57 -460c-4 -35 -11 -101 -14 -121c-4 -4 -20 -34 -20 -63c0 -20 10 -38 45 -38c9 0 21 2 38 5l2 -44c-16 -3 -30 -5 -45 -5c-65 0 -85 35 -85 74c0 26 9 52 18 72c3 19 12 85 16 120l57 460c4 35 11 101 13 120h47z" />
    <glyph glyph-name="iogonek" unicode="&#x12f;" horiz-adv-x="204" 
d="M58 120l24 195c4 35 10 101 13 120h46c-3 -19 -11 -85 -15 -120l-24 -195c-4 -35 -12 -101 -14 -121c-4 -4 -20 -34 -20 -63c0 -20 10 -38 45 -38c9 0 21 2 37 5l3 -44c-16 -3 -31 -5 -46 -5c-65 0 -84 35 -84 74c0 27 9 54 20 75c2 21 11 83 15 117zM140 609
c12 0 21 -5 20 -12l-6 -53c-1 -7 -11 -12 -23 -12c-13 0 -22 5 -21 12l6 53c1 7 11 12 24 12z" />
    <glyph glyph-name="Idotaccent" unicode="&#x130;" horiz-adv-x="185" 
d="M165 700c-2 -19 -11 -85 -16 -120l-56 -460c-5 -35 -12 -101 -14 -120h-47c2 19 11 85 16 120l56 460c5 35 12 101 14 120h47zM161 855c17 0 30 -13 30 -30c0 -21 -18 -40 -39 -40c-18 0 -31 14 -31 31c0 21 21 39 40 39z" />
    <glyph glyph-name="dotlessi" unicode="&#x131;" horiz-adv-x="204" 
d="M141 435c-2 -19 -11 -85 -15 -120l-24 -195c-5 -35 -12 -101 -14 -120h-46c2 19 11 85 16 120l24 195c4 35 11 101 13 120h46z" />
    <glyph glyph-name="Jcircumflex" unicode="&#x134;" horiz-adv-x="335" 
d="M316 700c-3 -19 -12 -85 -16 -120l-58 -475c-9 -69 -67 -125 -141 -125c-47 0 -85 29 -99 71l41 25c7 -31 32 -52 64 -52c48 0 84 36 91 91l57 465c4 35 11 101 14 120h47zM307 757l-67 83l-87 -83l-26 28l121 115l93 -115z" />
    <glyph glyph-name="jcircumflex" unicode="&#x135;" horiz-adv-x="204" 
d="M141 435c-2 -19 -11 -85 -15 -120l-41 -332c-16 -127 -55 -203 -160 -203l5 43c69 0 97 48 110 150l42 342c4 35 11 101 13 120h46zM194 492l-67 83l-87 -83l-26 28l121 115l93 -115z" />
    <glyph glyph-name="kgreenlandic" unicode="&#x138;" horiz-adv-x="428" 
d="M137 435c-3 -19 -12 -85 -16 -120c-3 -21 -8 -53 -14 -64l4 -2c5 8 23 28 75 78l52 50c16 16 61 58 61 58h61c-14 -14 -65 -62 -93 -88l-108 -103l129 -157l72 -87h-66c-8 10 -29 39 -44 57l-126 154l-18 -18l-9 -73c-4 -35 -11 -101 -14 -120h-46c3 19 12 85 16 120
l24 195c4 35 11 101 14 120h46z" />
    <glyph glyph-name="Lacute" unicode="&#x139;" horiz-adv-x="315" 
d="M13 0l71 580c5 35 12 101 14 120h47c-2 -19 -11 -85 -16 -120l-66 -536h58c35 0 102 1 121 1l-6 -46c-19 0 -85 1 -120 1h-103zM155 788l-20 21l122 130l30 -31z" />
    <glyph glyph-name="lacute" unicode="&#x13a;" horiz-adv-x="204" 
d="M140 795h46c-3 -19 -12 -85 -16 -120l-68 -555c-4 -35 -12 -101 -14 -120h-46c2 19 12 85 16 120l68 555c4 35 11 101 14 120zM103 810l-20 21l122 130l30 -31z" />
    <glyph glyph-name="Lcaron" unicode="&#x13d;" horiz-adv-x="315" 
d="M13 0l71 580c5 35 12 101 14 120h47c-2 -19 -11 -85 -16 -120l-66 -536h58c35 0 102 1 121 1l-6 -46c-19 0 -85 1 -120 1h-103zM246 743l7 52h52l-6 -44c-3 -30 -25 -50 -38 -65l-19 14c7 8 23 24 25 37v6h-21z" />
    <glyph glyph-name="lcaron" unicode="&#x13e;" horiz-adv-x="354" 
d="M140 795h46c-3 -19 -12 -85 -16 -120l-68 -555c-4 -35 -12 -101 -14 -120h-46c2 19 12 85 16 120l68 555c4 35 11 101 14 120zM246 743l7 52h52l-6 -44c-3 -30 -25 -50 -38 -65l-19 14c7 8 23 24 25 37v6h-21z" />
    <glyph glyph-name="Lslash" unicode="&#x141;" horiz-adv-x="315" 
d="M13 0l36 291c-18 -17 -35 -32 -43 -38l-27 32l78 69l27 226c5 35 12 101 14 120h47c-2 -19 -11 -85 -16 -120l-22 -181l43 38c39 35 77 71 94 86l29 -33c-17 -15 -52 -45 -96 -84l-76 -68l-2 -1l-36 -293h58c35 0 102 1 121 1l-6 -46c-19 0 -85 1 -120 1h-103z" />
    <glyph glyph-name="lslash" unicode="&#x142;" horiz-adv-x="204" 
d="M186 795c-3 -19 -12 -85 -16 -120l-29 -234l90 82l29 -33l-96 -84l-30 -27l-32 -259c-4 -35 -12 -101 -14 -120h-46c2 19 12 85 16 120l26 215c-28 -25 -76 -70 -91 -82l-27 32c15 14 67 60 94 84l32 28l34 278c4 35 11 101 14 120h46z" />
    <glyph glyph-name="Nacute" unicode="&#x143;" horiz-adv-x="755" 
d="M645 -22l-446 550c-24 31 -50 63 -69 89l-3 -2c0 -10 2 -36 -3 -74l-51 -421c-5 -35 -12 -101 -14 -120h-47c2 19 11 85 16 120l74 602l446 -550c24 -31 50 -63 69 -89l3 2c0 10 -2 36 3 74l51 421c5 35 12 101 14 120h47c-2 -19 -11 -85 -16 -120zM374 788l-20 21
l122 130l30 -31z" />
    <glyph glyph-name="nacute" unicode="&#x144;" horiz-adv-x="474" 
d="M140 435c-4 -26 -8 -49 -12 -55l4 -2c38 42 88 69 144 69c84 0 129 -56 129 -131c0 -9 -1 -17 -2 -26l-21 -170c-4 -35 -11 -101 -13 -120h-46c2 19 11 85 15 120l20 160c1 8 2 16 2 24c0 58 -27 100 -89 100c-74 0 -142 -59 -150 -128l-19 -156
c-4 -35 -11 -101 -13 -120h-46c2 19 11 85 15 120l24 195c4 35 12 101 14 120h44zM202 523l-20 21l122 130l30 -31z" />
    <glyph glyph-name="Ncaron" unicode="&#x147;" horiz-adv-x="755" 
d="M645 -22l-446 550c-24 31 -50 63 -69 89l-3 -2c0 -10 2 -36 -3 -74l-51 -421c-5 -35 -12 -101 -14 -120h-47c2 19 11 85 16 120l74 602l446 -550c24 -31 50 -63 69 -89l3 2c0 10 -2 36 3 74l51 421c5 35 12 101 14 120h47c-2 -19 -11 -85 -16 -120zM425 817l87 83l26 -28
l-121 -115l-93 115l34 28z" />
    <glyph glyph-name="ncaron" unicode="&#x148;" horiz-adv-x="474" 
d="M140 435c-4 -26 -8 -49 -12 -55l4 -2c38 42 88 69 144 69c84 0 129 -56 129 -131c0 -9 -1 -17 -2 -26l-21 -170c-4 -35 -11 -101 -13 -120h-46c2 19 11 85 15 120l20 160c1 8 2 16 2 24c0 58 -27 100 -89 100c-74 0 -142 -59 -150 -128l-19 -156
c-4 -35 -11 -101 -13 -120h-46c2 19 11 85 15 120l24 195c4 35 12 101 14 120h44zM243 552l87 83l26 -28l-121 -115l-93 115l34 28z" />
    <glyph glyph-name="Eng" unicode="&#x14a;" horiz-adv-x="755" 
d="M741 700c-2 -19 -11 -85 -15 -120l-85 -687c-8 -69 -66 -125 -140 -125c-47 0 -85 29 -99 71l41 25c7 -31 31 -52 63 -52c48 0 85 36 92 91l15 123l-408 502c-24 31 -50 63 -69 89l-3 -2c1 -10 3 -36 -2 -74l-52 -421c-4 -35 -11 -101 -14 -120h-47c3 19 12 85 16 120
l74 602l447 -550c24 -31 50 -63 69 -89l3 2c-1 10 -3 36 2 74l52 421c4 35 11 101 13 120h47z" />
    <glyph glyph-name="eng" unicode="&#x14b;" horiz-adv-x="474" 
d="M140 435c-4 -26 -8 -49 -12 -55l4 -2c38 42 88 69 144 69c84 0 129 -56 129 -131c0 -9 -1 -17 -2 -26l-39 -319c-16 -127 -55 -203 -161 -203l6 43c70 0 98 48 110 150l39 319c1 8 1 16 1 24c0 58 -26 100 -88 100c-74 0 -142 -59 -150 -128l-19 -156l-13 -120h-46
l15 120l24 195l14 120h44z" />
    <glyph glyph-name="Omacron" unicode="&#x14c;" horiz-adv-x="810" 
d="M456 720c189 0 328 -142 328 -325c0 -224 -200 -415 -418 -415c-189 0 -328 142 -328 325c0 224 199 415 418 415zM451 676c-192 0 -368 -168 -368 -366c0 -161 122 -286 288 -286c192 0 367 168 367 366c0 161 -122 286 -287 286zM351 842c9 0 43 -1 60 -1h90
c17 0 51 1 60 1l-5 -46c-9 0 -43 1 -60 1h-90c-17 0 -51 -1 -60 -1z" />
    <glyph glyph-name="omacron" unicode="&#x14d;" horiz-adv-x="540" 
d="M288 447c117 0 204 -88 204 -201c0 -140 -123 -258 -260 -258c-118 0 -204 88 -204 202c0 139 125 257 260 257zM283 404c-110 0 -211 -97 -211 -211c0 -91 70 -162 165 -162c110 0 211 96 211 209c0 92 -70 164 -165 164zM191 577c9 0 43 -1 60 -1h90c17 0 51 1 60 1
l-5 -46c-9 0 -43 1 -60 1h-90c-17 0 -51 -1 -60 -1z" />
    <glyph glyph-name="Obreve" unicode="&#x14e;" horiz-adv-x="810" 
d="M456 720c189 0 328 -142 328 -325c0 -224 -200 -415 -418 -415c-189 0 -328 142 -328 325c0 224 199 415 418 415zM451 676c-192 0 -368 -168 -368 -366c0 -161 122 -286 288 -286c192 0 367 168 367 366c0 161 -122 286 -287 286zM449 789c-55 0 -94 24 -110 68l42 18
c12 -27 38 -42 74 -42s66 15 84 42l38 -18c-28 -44 -73 -68 -128 -68z" />
    <glyph glyph-name="obreve" unicode="&#x14f;" horiz-adv-x="540" 
d="M288 447c117 0 204 -88 204 -201c0 -140 -123 -258 -260 -258c-118 0 -204 88 -204 202c0 139 125 257 260 257zM283 404c-110 0 -211 -97 -211 -211c0 -91 70 -162 165 -162c110 0 211 96 211 209c0 92 -70 164 -165 164zM294 524c-55 0 -94 24 -110 68l42 18
c12 -27 38 -42 74 -42s66 15 84 42l38 -18c-28 -44 -73 -68 -128 -68z" />
    <glyph glyph-name="Ohungarumlaut" unicode="&#x150;" horiz-adv-x="810" 
d="M456 720c189 0 328 -142 328 -325c0 -224 -200 -415 -418 -415c-189 0 -328 142 -328 325c0 224 199 415 418 415zM451 676c-192 0 -368 -168 -368 -366c0 -161 122 -286 288 -286c192 0 367 168 367 366c0 161 -122 286 -287 286zM401 788l-20 21l122 130l30 -31z
M507 788l-20 21l122 130l30 -31z" />
    <glyph glyph-name="ohungarumlaut" unicode="&#x151;" horiz-adv-x="540" 
d="M288 447c117 0 204 -88 204 -201c0 -140 -123 -258 -260 -258c-118 0 -204 88 -204 202c0 139 125 257 260 257zM283 404c-110 0 -211 -97 -211 -211c0 -91 70 -162 165 -162c110 0 211 96 211 209c0 92 -70 164 -165 164zM230 523l-20 21l122 130l30 -31zM336 523
l-20 21l122 130l30 -31z" />
    <glyph glyph-name="OE" unicode="&#x152;" horiz-adv-x="1082" 
d="M693 0l21 173c-77 -115 -208 -193 -348 -193c-189 0 -328 142 -328 325c0 224 199 415 418 415c140 0 253 -78 302 -193l21 173h182c35 0 101 1 120 1l-6 -46c-19 0 -84 1 -119 1h-137l-31 -250h85c35 0 101 1 120 1l-6 -46c-19 0 -85 1 -120 1h-85l-39 -318h157
c35 0 102 1 121 1l-6 -46c-19 0 -85 1 -120 1h-202zM451 676c-192 0 -368 -168 -368 -366c0 -161 122 -286 288 -286c192 0 367 168 367 366c0 161 -122 286 -287 286z" />
    <glyph glyph-name="oe" unicode="&#x153;" horiz-adv-x="910" 
d="M477 320c40 73 114 127 203 127c104 0 174 -83 174 -180c0 -12 -1 -25 -3 -37h-360c-2 -15 -2 -26 -2 -36c0 -96 57 -163 154 -163c63 0 119 35 148 63l24 -34c-37 -33 -101 -72 -177 -72c-95 0 -160 51 -183 129c-48 -77 -132 -129 -223 -129c-117 0 -203 87 -203 200
c0 140 122 259 259 259c90 0 161 -52 189 -127zM283 404c-111 0 -209 -97 -209 -211c0 -92 68 -162 163 -162c109 0 210 95 210 208c0 93 -69 165 -164 165zM675 404c-82 0 -146 -59 -173 -131h305c-2 71 -55 131 -132 131z" />
    <glyph glyph-name="Racute" unicode="&#x154;" horiz-adv-x="420" 
d="M99 700h119c122 0 181 -68 181 -156c0 -84 -67 -200 -162 -200v-4c6 -2 10 -9 14 -21l73 -211c14 -41 39 -108 39 -108h-53c-7 22 -18 56 -29 89l-85 244c-7 -1 -14 -1 -21 -1h-76l-26 -212c-4 -35 -13 -101 -14 -120h-47c1 19 12 85 16 120zM139 656l-35 -280h72
c121 0 177 77 177 160c0 67 -46 120 -134 120h-80zM212 788l-20 21l122 130l30 -31z" />
    <glyph glyph-name="racute" unicode="&#x155;" horiz-adv-x="300" 
d="M124 362c30 40 80 80 129 80c26 0 42 -12 52 -21l-30 -41c-9 9 -22 16 -37 16c-37 0 -114 -45 -124 -129l-18 -147c-5 -35 -12 -101 -14 -120h-46c2 19 11 85 16 120l24 195c4 35 11 101 13 120h45c-4 -26 -10 -65 -13 -71zM156 523l-20 21l122 130l30 -31z" />
    <glyph glyph-name="Rcaron" unicode="&#x158;" horiz-adv-x="420" 
d="M99 700h119c122 0 181 -68 181 -156c0 -84 -67 -200 -162 -200v-4c6 -2 10 -9 14 -21l73 -211c14 -41 39 -108 39 -108h-53c-7 22 -18 56 -29 89l-85 244c-7 -1 -14 -1 -21 -1h-76l-26 -212c-4 -35 -13 -101 -14 -120h-47c1 19 12 85 16 120zM139 656l-35 -280h72
c121 0 177 77 177 160c0 67 -46 120 -134 120h-80zM231 817l87 83l26 -28l-121 -115l-93 115l34 28z" />
    <glyph glyph-name="rcaron" unicode="&#x159;" horiz-adv-x="300" 
d="M124 362c30 40 80 80 129 80c26 0 42 -12 52 -21l-30 -41c-9 9 -22 16 -37 16c-37 0 -114 -45 -124 -129l-18 -147c-5 -35 -12 -101 -14 -120h-46c2 19 11 85 16 120l24 195c4 35 11 101 13 120h45c-4 -26 -10 -65 -13 -71zM163 552l87 83l26 -28l-121 -115l-93 115
l34 28z" />
    <glyph glyph-name="Sacute" unicode="&#x15a;" horiz-adv-x="474" 
d="M433 631l-41 -30c-25 36 -56 67 -110 67c-71 0 -129 -54 -129 -120c0 -62 50 -102 116 -154c79 -62 140 -109 140 -202c0 -118 -95 -204 -213 -204c-88 0 -147 47 -184 107l40 27c31 -50 77 -90 149 -90c90 0 162 65 162 152c0 76 -56 120 -126 175
c-75 59 -130 103 -130 181c0 93 79 172 180 172c72 0 114 -37 146 -81zM280 788l-20 21l122 130l30 -31z" />
    <glyph glyph-name="sacute" unicode="&#x15b;" horiz-adv-x="350" 
d="M317 404l-32 -34c-17 16 -47 34 -88 34c-50 0 -83 -31 -83 -68c0 -38 37 -58 78 -81c52 -29 110 -61 110 -132c0 -72 -70 -135 -163 -135c-66 0 -120 33 -148 69l38 28c20 -28 63 -54 115 -54c65 0 114 40 114 85c0 49 -45 74 -90 98c-49 27 -98 53 -98 115
c0 67 54 118 132 118c52 0 92 -23 115 -43zM173 523l-20 21l122 130l30 -31z" />
    <glyph glyph-name="Scircumflex" unicode="&#x15c;" horiz-adv-x="474" 
d="M433 631l-41 -30c-25 36 -56 67 -110 67c-71 0 -129 -54 -129 -120c0 -62 50 -102 116 -154c79 -62 140 -109 140 -202c0 -118 -95 -204 -213 -204c-88 0 -147 47 -184 107l40 27c31 -50 77 -90 149 -90c90 0 162 65 162 152c0 76 -56 120 -126 175
c-75 59 -130 103 -130 181c0 93 79 172 180 172c72 0 114 -37 146 -81zM355 757l-67 83l-87 -83l-26 28l121 115l93 -115z" />
    <glyph glyph-name="scircumflex" unicode="&#x15d;" horiz-adv-x="350" 
d="M317 404l-32 -34c-17 16 -47 34 -88 34c-50 0 -83 -31 -83 -68c0 -38 37 -58 78 -81c52 -29 110 -61 110 -132c0 -72 -70 -135 -163 -135c-66 0 -120 33 -148 69l38 28c20 -28 63 -54 115 -54c65 0 114 40 114 85c0 49 -45 74 -90 98c-49 27 -98 53 -98 115
c0 67 54 118 132 118c52 0 92 -23 115 -43zM292 492l-67 83l-87 -83l-26 28l121 115l93 -115z" />
    <glyph glyph-name="Scedilla" unicode="&#x15e;" horiz-adv-x="474" 
d="M433 631l-41 -30c-25 36 -56 67 -110 67c-71 0 -129 -54 -129 -120c0 -62 50 -102 116 -154c79 -62 140 -109 140 -202c0 -118 -95 -204 -213 -204c-88 0 -147 47 -184 107l40 27c31 -50 77 -90 149 -90c90 0 162 65 162 152c0 76 -56 120 -126 175
c-75 59 -130 103 -130 181c0 93 79 172 180 172c72 0 114 -37 146 -81zM138 -179l76 99l38 -32l-88 -88z" />
    <glyph glyph-name="scedilla" unicode="&#x15f;" horiz-adv-x="350" 
d="M317 404l-32 -34c-17 16 -47 34 -88 34c-50 0 -83 -31 -83 -68c0 -38 37 -58 78 -81c52 -29 110 -61 110 -132c0 -72 -70 -135 -163 -135c-66 0 -120 33 -148 69l38 28c20 -28 63 -54 115 -54c65 0 114 40 114 85c0 49 -45 74 -90 98c-49 27 -98 53 -98 115
c0 67 54 118 132 118c52 0 92 -23 115 -43zM90 -179l76 99l38 -32l-88 -88z" />
    <glyph glyph-name="Scaron" unicode="&#x160;" horiz-adv-x="474" 
d="M433 631l-41 -30c-25 36 -56 67 -110 67c-71 0 -129 -54 -129 -120c0 -62 50 -102 116 -154c79 -62 140 -109 140 -202c0 -118 -95 -204 -213 -204c-88 0 -147 47 -184 107l40 27c31 -50 77 -90 149 -90c90 0 162 65 162 152c0 76 -56 120 -126 175
c-75 59 -130 103 -130 181c0 93 79 172 180 172c72 0 114 -37 146 -81zM302 817l87 83l26 -28l-121 -115l-93 115l34 28z" />
    <glyph glyph-name="scaron" unicode="&#x161;" horiz-adv-x="350" 
d="M317 404l-32 -34c-17 16 -47 34 -88 34c-50 0 -83 -31 -83 -68c0 -38 37 -58 78 -81c52 -29 110 -61 110 -132c0 -72 -70 -135 -163 -135c-66 0 -120 33 -148 69l38 28c20 -28 63 -54 115 -54c65 0 114 40 114 85c0 49 -45 74 -90 98c-49 27 -98 53 -98 115
c0 67 54 118 132 118c52 0 92 -23 115 -43zM222 552l87 83l26 -28l-121 -115l-93 115l34 28z" />
    <glyph glyph-name="Tcommaaccent" unicode="&#x162;" horiz-adv-x="445" 
d="M360 700c35 0 101 1 120 1l-6 -46c-19 0 -84 1 -119 1h-66l-66 -536c-5 -35 -12 -101 -14 -120h-47c2 19 11 85 16 120l66 536h-66c-35 0 -102 -1 -121 -1l6 46c19 0 85 -1 120 -1h177zM129 -179l76 99l38 -32l-88 -88z" />
    <glyph glyph-name="tcommaaccent" unicode="&#x163;" horiz-adv-x="220" 
d="M112 585h46c-2 -19 -11 -85 -15 -120l-4 -30c29 0 58 1 70 1l-5 -45c-12 0 -58 1 -70 1l-34 -272c-4 -35 -11 -101 -13 -120h-46c2 19 11 85 15 120l43 345c4 35 11 101 13 120zM15 -179l76 99l38 -32l-88 -88z" />
    <glyph glyph-name="Tcaron" unicode="&#x164;" horiz-adv-x="445" 
d="M360 700c35 0 101 1 120 1l-6 -46c-19 0 -84 1 -119 1h-66l-66 -536c-5 -35 -12 -101 -14 -120h-47c2 19 11 85 16 120l66 536h-66c-35 0 -102 -1 -121 -1l6 46c19 0 85 -1 120 -1h177zM278 817l87 83l26 -28l-121 -115l-93 115l34 28z" />
    <glyph glyph-name="tcaron" unicode="&#x165;" horiz-adv-x="334" 
d="M109 585h46c-2 -19 -11 -85 -15 -120l-4 -30c29 0 58 1 70 1l-5 -45c-12 0 -58 1 -70 1l-34 -272c-4 -35 -11 -101 -13 -120h-46c2 19 11 85 15 120l43 345c4 35 11 101 13 120zM261 743l7 52h52l-6 -44c-3 -30 -25 -50 -38 -65l-19 14c7 8 23 24 25 37v6h-21z" />
    <glyph glyph-name="Utilde" unicode="&#x168;" horiz-adv-x="597" 
d="M150 700c-2 -19 -11 -85 -15 -120l-44 -353c-2 -13 -2 -26 -2 -38c0 -99 50 -157 192 -157c101 0 160 33 191 63l60 485c4 35 11 101 13 120h47c-2 -19 -11 -85 -15 -120l-62 -498c-33 -42 -108 -94 -239 -94c-166 0 -233 75 -233 191c0 17 2 34 4 53l43 348
c4 35 11 101 13 120h47zM242 781l-39 6c13 44 64 76 108 69l87 -13c24 -4 51 12 58 35l39 -6c-13 -44 -64 -76 -108 -69l-86 13c-25 4 -52 -12 -59 -35z" />
    <glyph glyph-name="utilde" unicode="&#x169;" horiz-adv-x="490" 
d="M342 62l31 253c4 35 12 101 14 120h46c-2 -19 -12 -85 -16 -120l-34 -276c-38 -30 -98 -51 -171 -51c-92 0 -156 31 -156 136c0 12 1 25 3 39l18 152c4 35 12 101 14 120h46c-2 -19 -12 -85 -16 -120l-17 -140c-2 -14 -3 -27 -3 -39c0 -77 38 -105 116 -105
c54 0 98 13 125 31zM164 516l-39 6c13 44 64 76 108 69l87 -13c24 -4 51 12 58 35l39 -6c-13 -44 -64 -76 -108 -69l-86 13c-25 4 -52 -12 -59 -35z" />
    <glyph glyph-name="Umacron" unicode="&#x16a;" horiz-adv-x="597" 
d="M150 700c-2 -19 -11 -85 -15 -120l-44 -353c-2 -13 -2 -26 -2 -38c0 -99 50 -157 192 -157c101 0 160 33 191 63l60 485c4 35 11 101 13 120h47c-2 -19 -11 -85 -15 -120l-62 -498c-33 -42 -108 -94 -239 -94c-166 0 -233 75 -233 191c0 17 2 34 4 53l43 348
c4 35 11 101 13 120h47zM244 842c9 0 43 -1 60 -1h90c17 0 51 1 60 1l-5 -46c-9 0 -43 1 -60 1h-90c-17 0 -51 -1 -60 -1z" />
    <glyph glyph-name="umacron" unicode="&#x16b;" horiz-adv-x="490" 
d="M342 62l31 253c4 35 12 101 14 120h46c-2 -19 -12 -85 -16 -120l-34 -276c-38 -30 -98 -51 -171 -51c-92 0 -156 31 -156 136c0 12 1 25 3 39l18 152c4 35 12 101 14 120h46c-2 -19 -12 -85 -16 -120l-17 -140c-2 -14 -3 -27 -3 -39c0 -77 38 -105 116 -105
c54 0 98 13 125 31zM156 577c9 0 43 -1 60 -1h90c17 0 51 1 60 1l-5 -46c-9 0 -43 1 -60 1h-90c-17 0 -51 -1 -60 -1z" />
    <glyph glyph-name="Ubreve" unicode="&#x16c;" horiz-adv-x="597" 
d="M150 700c-2 -19 -11 -85 -15 -120l-44 -353c-2 -13 -2 -26 -2 -38c0 -99 50 -157 192 -157c101 0 160 33 191 63l60 485c4 35 11 101 13 120h47c-2 -19 -11 -85 -15 -120l-62 -498c-33 -42 -108 -94 -239 -94c-166 0 -233 75 -233 191c0 17 2 34 4 53l43 348
c4 35 11 101 13 120h47zM342 789c-55 0 -94 24 -110 68l42 18c12 -27 38 -42 74 -42s66 15 84 42l38 -18c-28 -44 -73 -68 -128 -68z" />
    <glyph glyph-name="ubreve" unicode="&#x16d;" horiz-adv-x="490" 
d="M342 62l31 253c4 35 12 101 14 120h46c-2 -19 -12 -85 -16 -120l-34 -276c-38 -30 -98 -51 -171 -51c-92 0 -156 31 -156 136c0 12 1 25 3 39l18 152c4 35 12 101 14 120h46c-2 -19 -12 -85 -16 -120l-17 -140c-2 -14 -3 -27 -3 -39c0 -77 38 -105 116 -105
c54 0 98 13 125 31zM254 524c-55 0 -94 24 -110 68l42 18c12 -27 38 -42 74 -42s66 15 84 42l38 -18c-28 -44 -73 -68 -128 -68z" />
    <glyph glyph-name="Uring" unicode="&#x16e;" horiz-adv-x="597" 
d="M150 700c-2 -19 -11 -85 -15 -120l-44 -353c-2 -13 -2 -26 -2 -38c0 -99 50 -157 192 -157c101 0 160 33 191 63l60 485c4 35 11 101 13 120h47c-2 -19 -11 -85 -15 -120l-62 -498c-33 -42 -108 -94 -239 -94c-166 0 -233 75 -233 191c0 17 2 34 4 53l43 348
c4 35 11 101 13 120h47zM364 965c51 0 88 -38 88 -87c0 -61 -53 -113 -113 -113c-51 0 -89 39 -89 89c0 60 56 111 114 111zM359 925c-34 0 -67 -31 -67 -68c0 -29 22 -52 52 -52c34 0 65 31 65 68c0 29 -21 52 -50 52z" />
    <glyph glyph-name="uring" unicode="&#x16f;" horiz-adv-x="490" 
d="M342 62l31 253c4 35 12 101 14 120h46c-2 -19 -12 -85 -16 -120l-34 -276c-38 -30 -98 -51 -171 -51c-92 0 -156 31 -156 136c0 12 1 25 3 39l18 152c4 35 12 101 14 120h46c-2 -19 -12 -85 -16 -120l-17 -140c-2 -14 -3 -27 -3 -39c0 -77 38 -105 116 -105
c54 0 98 13 125 31zM286 700c51 0 88 -38 88 -87c0 -61 -53 -113 -113 -113c-51 0 -89 39 -89 89c0 60 56 111 114 111zM281 660c-34 0 -67 -31 -67 -68c0 -29 22 -52 52 -52c34 0 65 31 65 68c0 29 -21 52 -50 52z" />
    <glyph glyph-name="Uhungarumlaut" unicode="&#x170;" horiz-adv-x="597" 
d="M150 700c-2 -19 -11 -85 -15 -120l-44 -353c-2 -13 -2 -26 -2 -38c0 -99 50 -157 192 -157c101 0 160 33 191 63l60 485c4 35 11 101 13 120h47c-2 -19 -11 -85 -15 -120l-62 -498c-33 -42 -108 -94 -239 -94c-166 0 -233 75 -233 191c0 17 2 34 4 53l43 348
c4 35 11 101 13 120h47zM269 788l-20 21l122 130l30 -31zM375 788l-20 21l122 130l30 -31z" />
    <glyph glyph-name="uhungarumlaut" unicode="&#x171;" horiz-adv-x="490" 
d="M342 62l31 253c4 35 12 101 14 120h46c-2 -19 -12 -85 -16 -120l-34 -276c-38 -30 -98 -51 -171 -51c-92 0 -156 31 -156 136c0 12 1 25 3 39l18 152c4 35 12 101 14 120h46c-2 -19 -12 -85 -16 -120l-17 -140c-2 -14 -3 -27 -3 -39c0 -77 38 -105 116 -105
c54 0 98 13 125 31zM180 523l-20 21l122 130l30 -31zM286 523l-20 21l122 130l30 -31z" />
    <glyph glyph-name="Uogonek" unicode="&#x172;" horiz-adv-x="597" 
d="M592 700c-2 -19 -11 -85 -15 -120l-61 -498c-33 -41 -106 -92 -232 -94c-5 -12 -13 -32 -13 -52s10 -38 45 -38c9 0 21 2 38 5l2 -44c-16 -3 -30 -5 -45 -5c-65 0 -85 35 -85 74c0 22 6 43 13 62c-139 10 -196 81 -196 189c0 17 2 34 4 53l43 348c4 35 11 101 13 120h47
c-2 -19 -11 -85 -15 -120l-44 -353c-2 -13 -2 -26 -2 -38c0 -99 50 -157 192 -157c101 0 160 33 191 63l60 485c4 35 11 101 13 120h47z" />
    <glyph glyph-name="uogonek" unicode="&#x173;" horiz-adv-x="490" 
d="M342 62l31 253l14 120h46c-2 -19 -12 -85 -16 -120l-34 -276c-35 -28 -88 -47 -153 -50c-6 -13 -12 -34 -12 -53c0 -20 10 -38 45 -38c9 0 21 2 38 5l2 -44c-16 -3 -30 -5 -45 -5c-65 0 -85 35 -85 74c0 22 5 43 12 61c-77 6 -129 40 -129 135c0 12 1 25 3 39l18 152
l14 120h46c-2 -19 -12 -85 -16 -120l-17 -140c-2 -14 -3 -27 -3 -39c0 -77 38 -105 116 -105c54 0 98 13 125 31z" />
    <glyph glyph-name="Wcircumflex" unicode="&#x174;" horiz-adv-x="1050" 
d="M302 193l282 547l136 -547c8 -28 19 -92 19 -100h4c2 10 14 42 41 100l195 409c17 36 38 86 44 98h51c-5 -10 -42 -84 -55 -113l-292 -614l-138 551c-10 40 -20 88 -20 100h-4c-2 -12 -22 -55 -46 -101l-284 -552l-135 616c-7 29 -24 100 -26 113h50c2 -12 12 -67 19 -99
l91 -408c10 -44 19 -86 18 -100h4c3 12 24 56 46 100zM628 757l-67 83l-87 -83l-26 28l121 115l93 -115z" />
    <glyph glyph-name="wcircumflex" unicode="&#x175;" horiz-adv-x="736" 
d="M38 435h49c9 -30 17 -62 26 -94l48 -163c11 -39 24 -83 24 -100h5c2 11 24 55 49 100l154 277l74 -272c18 -68 23 -90 22 -101h4c3 11 24 52 51 101l89 160l51 92h50c-9 -18 -44 -78 -62 -110l-195 -349l-75 276c-18 66 -21 92 -20 101h-5c-2 -9 -14 -35 -51 -101
l-153 -276l-102 348c-10 33 -28 93 -33 111zM451 492l-67 83l-87 -83l-26 28l121 115l93 -115z" />
    <glyph glyph-name="Ycircumflex" unicode="&#x176;" horiz-adv-x="534" 
d="M496 597l-204 -288l-23 -189c-5 -35 -12 -101 -14 -120h-47c2 19 11 85 16 120l23 190l-136 288c-18 39 -50 102 -50 102h55s23 -51 36 -79l96 -203c15 -30 23 -66 24 -71h4c0 5 17 37 41 71l143 202c22 30 45 64 56 80h55s-52 -71 -75 -103zM385 757l-67 83l-87 -83
l-26 28l121 115l93 -115z" />
    <glyph glyph-name="ycircumflex" unicode="&#x177;" horiz-adv-x="486" 
d="M40 435h53c6 -21 17 -58 28 -91l64 -202c22 -70 26 -92 26 -99h4c1 8 14 37 49 99l164 293h50c-21 -36 -42 -73 -62 -109l-256 -454c-18 -32 -42 -75 -52 -92h-50s45 75 64 110l60 107l-105 329c-11 32 -31 92 -37 109zM333 492l-67 83l-87 -83l-26 28l121 115l93 -115z
" />
    <glyph glyph-name="Ydieresis" unicode="&#x178;" horiz-adv-x="534" 
d="M496 597l-204 -288l-23 -189c-5 -35 -12 -101 -14 -120h-47c2 19 11 85 16 120l23 190l-136 288c-18 39 -50 102 -50 102h55s23 -51 36 -79l96 -203c15 -30 23 -66 24 -71h4c0 5 17 37 41 71l143 202c22 30 45 64 56 80h55s-52 -71 -75 -103zM251 855c17 0 30 -13 30 -30
c0 -21 -18 -40 -39 -40c-18 0 -31 14 -31 31c0 21 21 39 40 39zM391 855c17 0 30 -13 30 -30c0 -21 -18 -40 -39 -40c-18 0 -31 14 -31 31c0 21 21 39 40 39z" />
    <glyph glyph-name="Zacute" unicode="&#x179;" horiz-adv-x="550" 
d="M170 44h191c35 0 102 1 121 1l-6 -46c-19 0 -85 1 -120 1h-372l439 573c40 52 65 81 74 85l-2 4c-9 -4 -36 -6 -107 -6h-148c-35 0 -102 -1 -121 -1l6 46c19 0 85 -1 120 -1h330l-439 -573c-30 -38 -65 -81 -75 -85l2 -4c11 5 56 6 107 6zM302 788l-20 21l122 130l30 -31
z" />
    <glyph glyph-name="zacute" unicode="&#x17a;" horiz-adv-x="483" 
d="M92 436c19 0 85 -1 120 -1h274l-326 -317c-45 -43 -78 -73 -86 -76l1 -4c9 3 64 5 107 5h121c35 0 102 1 121 1l-6 -45c-19 0 -85 1 -120 1h-319l326 317c48 46 77 72 85 76v4c-9 -3 -47 -5 -108 -5h-76c-35 0 -101 -1 -120 -1zM245 523l-20 21l122 130l30 -31z" />
    <glyph glyph-name="Zdotaccent" unicode="&#x17b;" horiz-adv-x="550" 
d="M170 44h191c35 0 102 1 121 1l-6 -46c-19 0 -85 1 -120 1h-372l439 573c40 52 65 81 74 85l-2 4c-9 -4 -36 -6 -107 -6h-148c-35 0 -102 -1 -121 -1l6 46c19 0 85 -1 120 -1h330l-439 -573c-30 -38 -65 -81 -75 -85l2 -4c11 5 56 6 107 6zM328 855c17 0 30 -13 30 -30
c0 -21 -18 -40 -39 -40c-18 0 -31 14 -31 31c0 21 21 39 40 39z" />
    <glyph glyph-name="zdotaccent" unicode="&#x17c;" horiz-adv-x="483" 
d="M92 436c19 0 85 -1 120 -1h274l-326 -317c-45 -43 -78 -73 -86 -76l1 -4c9 3 64 5 107 5h121c35 0 102 1 121 1l-6 -45c-19 0 -85 1 -120 1h-319l326 317c48 46 77 72 85 76v4c-9 -3 -47 -5 -108 -5h-76c-35 0 -101 -1 -120 -1zM262 590c17 0 30 -13 30 -30
c0 -21 -18 -40 -39 -40c-18 0 -31 14 -31 31c0 21 21 39 40 39z" />
    <glyph glyph-name="Zcaron" unicode="&#x17d;" horiz-adv-x="550" 
d="M170 44h191c35 0 102 1 121 1l-6 -46c-19 0 -85 1 -120 1h-372l439 573c40 52 65 81 74 85l-2 4c-9 -4 -36 -6 -107 -6h-148c-35 0 -102 -1 -121 -1l6 46c19 0 85 -1 120 -1h330l-439 -573c-30 -38 -65 -81 -75 -85l2 -4c11 5 56 6 107 6zM323 817l87 83l26 -28
l-121 -115l-93 115l34 28z" />
    <glyph glyph-name="zcaron" unicode="&#x17e;" horiz-adv-x="483" 
d="M92 436c19 0 85 -1 120 -1h274l-326 -317c-45 -43 -78 -73 -86 -76l1 -4c9 3 64 5 107 5h121c35 0 102 1 121 1l-6 -45c-19 0 -85 1 -120 1h-319l326 317c48 46 77 72 85 76v4c-9 -3 -47 -5 -108 -5h-76c-35 0 -101 -1 -120 -1zM264 552l87 83l26 -28l-121 -115l-93 115
l34 28z" />
    <glyph glyph-name="longs" unicode="&#x17f;" horiz-adv-x="229" 
d="M274 807l-6 -43c-70 0 -98 -48 -110 -150l-88 -714c-4 -35 -11 -101 -14 -120h-46c3 19 12 85 16 120l87 704c15 127 55 203 161 203z" />
    <glyph glyph-name="uni018E" unicode="&#x18e;" horiz-adv-x="402" 
d="M401 700l-86 -700h-202c-35 0 -101 -1 -120 -1l6 46c19 0 84 -1 119 -1h157l39 318h-84c-35 0 -101 -1 -120 -1l6 46c19 0 85 -1 120 -1h84l31 250h-137c-35 0 -102 -1 -121 -1l6 46c19 0 85 -1 120 -1h182z" />
    <glyph glyph-name="Schwa" unicode="&#x18f;" horiz-adv-x="747" 
d="M303 -20c-160 0 -277 122 -277 274c0 11 1 22 2 34h631c11 32 16 69 16 102c0 161 -122 286 -287 286c-92 0 -179 -44 -244 -114l-28 34c74 76 174 124 277 124c189 0 328 -142 328 -325c0 -224 -200 -415 -418 -415zM308 24c142 0 274 92 334 220h-569
c5 -119 99 -220 235 -220z" />
    <glyph glyph-name="uni0191" unicode="&#x191;" horiz-adv-x="375" 
d="M8 -97l98 797h174c35 0 101 1 120 1l-5 -46c-19 0 -85 1 -120 1h-129l-31 -250h94c35 0 101 1 120 1l-6 -46c-19 0 -84 1 -119 1h-94l-58 -469c-8 -69 -66 -125 -139 -125c-47 0 -86 29 -100 71l41 25c8 -31 32 -52 64 -52c48 0 83 36 90 91z" />
    <glyph glyph-name="florin" unicode="&#x192;" horiz-adv-x="229" 
d="M273 807l-5 -43c-70 0 -98 -48 -111 -150l-22 -179c29 1 64 1 77 1l-5 -45c-13 0 -46 0 -77 1l-52 -421c-15 -127 -55 -203 -160 -203l6 43c69 0 97 48 109 150l79 643c16 127 55 203 161 203z" />
    <glyph glyph-name="uni01B5" unicode="&#x1b5;" horiz-adv-x="550" 
d="M139 387c9 0 72 -1 89 -1h51l144 187c40 52 65 81 74 85l-2 4c-9 -4 -36 -6 -107 -6h-148c-35 0 -102 -1 -121 -1l6 46c19 0 85 -1 120 -1h330l-241 -314h19c17 0 82 1 91 1l-6 -46c-9 0 -73 1 -90 1h-48l-164 -215c-30 -38 -65 -81 -75 -85l2 -4c11 5 56 6 107 6h191
c35 0 102 1 121 1l-6 -46c-19 0 -85 1 -120 1h-372l262 342h-23c-17 0 -81 -1 -90 -1z" />
    <glyph glyph-name="uni01B6" unicode="&#x1b6;" horiz-adv-x="483" 
d="M91 253c9 0 73 -1 90 -1h57l67 65c48 46 77 72 85 76v4c-9 -3 -47 -5 -108 -5h-76c-35 0 -101 -1 -120 -1l6 45c19 0 85 -1 120 -1h274l-189 -183h9c17 0 81 1 90 1l-5 -46c-9 0 -73 1 -90 1h-49l-92 -90c-45 -43 -78 -73 -86 -76l1 -4c9 3 64 5 107 5h121
c35 0 102 1 121 1l-6 -45c-19 0 -85 1 -120 1h-319l214 208h-17c-17 0 -81 -1 -90 -1z" />
    <glyph glyph-name="Acaron" unicode="&#x1cd;" 
d="M352 738l178 -627c10 -35 33 -111 33 -111h-51s-14 53 -26 94l-8 28h-394l-13 -27c-24 -46 -48 -95 -48 -95h-50s34 66 58 112zM341 625h-4c-3 -12 -11 -32 -34 -75l-184 -360c-6 -13 -17 -24 -20 -26l1 -4c3 2 18 6 36 6h299c19 0 32 -4 34 -6l3 4c-3 2 -9 11 -13 26
l-103 360c-12 43 -16 63 -15 75zM348 817l87 83l26 -28l-121 -115l-93 115l34 28z" />
    <glyph glyph-name="acaron" unicode="&#x1ce;" horiz-adv-x="486" 
d="M233 316c54 0 108 -25 130 -63l4 2c-3 7 -2 16 -1 24l1 10c1 9 2 18 2 22c0 55 -54 93 -126 93c-37 0 -76 -11 -103 -28l-20 35c36 21 83 36 128 36c94 0 165 -53 165 -131c0 -6 -1 -19 -2 -25l-29 -238c-35 -28 -104 -65 -186 -65c-96 0 -164 64 -164 148
c0 97 80 180 201 180zM228 273c-91 0 -151 -62 -151 -132c0 -62 51 -110 124 -110c62 0 112 22 139 41l17 132c-27 32 -67 69 -129 69zM258 552l87 83l26 -28l-121 -115l-93 115l34 28z" />
    <glyph glyph-name="uni01CF" unicode="&#x1cf;" horiz-adv-x="185" 
d="M165 700c-2 -19 -11 -85 -16 -120l-56 -460c-5 -35 -12 -101 -14 -120h-47c2 19 11 85 16 120l56 460c5 35 12 101 14 120h47zM142 817l87 83l26 -28l-121 -115l-93 115l34 28z" />
    <glyph glyph-name="uni01D0" unicode="&#x1d0;" horiz-adv-x="204" 
d="M141 435c-2 -19 -11 -85 -15 -120l-24 -195c-5 -35 -12 -101 -14 -120h-46c2 19 11 85 16 120l24 195c4 35 11 101 13 120h46zM118 552l87 83l26 -28l-121 -115l-93 115l34 28z" />
    <glyph glyph-name="uni01D1" unicode="&#x1d1;" horiz-adv-x="810" 
d="M456 720c189 0 328 -142 328 -325c0 -224 -200 -415 -418 -415c-189 0 -328 142 -328 325c0 224 199 415 418 415zM451 676c-192 0 -368 -168 -368 -366c0 -161 122 -286 288 -286c192 0 367 168 367 366c0 161 -122 286 -287 286zM453 817l87 83l26 -28l-121 -115
l-93 115l34 28z" />
    <glyph glyph-name="uni01D2" unicode="&#x1d2;" horiz-adv-x="540" 
d="M288 447c117 0 204 -88 204 -201c0 -140 -123 -258 -260 -258c-118 0 -204 88 -204 202c0 139 125 257 260 257zM283 404c-110 0 -211 -97 -211 -211c0 -91 70 -162 165 -162c110 0 211 96 211 209c0 92 -70 164 -165 164zM300 552l87 83l26 -28l-121 -115l-93 115l34 28
z" />
    <glyph glyph-name="uni01D3" unicode="&#x1d3;" horiz-adv-x="597" 
d="M150 700c-2 -19 -11 -85 -15 -120l-44 -353c-2 -13 -2 -26 -2 -38c0 -99 50 -157 192 -157c101 0 160 33 191 63l60 485c4 35 11 101 13 120h47c-2 -19 -11 -85 -15 -120l-62 -498c-33 -42 -108 -94 -239 -94c-166 0 -233 75 -233 191c0 17 2 34 4 53l43 348
c4 35 11 101 13 120h47zM346 817l87 83l26 -28l-121 -115l-93 115l34 28z" />
    <glyph glyph-name="uni01D4" unicode="&#x1d4;" horiz-adv-x="490" 
d="M342 62l31 253c4 35 12 101 14 120h46c-2 -19 -12 -85 -16 -120l-34 -276c-38 -30 -98 -51 -171 -51c-92 0 -156 31 -156 136c0 12 1 25 3 39l18 152c4 35 12 101 14 120h46c-2 -19 -12 -85 -16 -120l-17 -140c-2 -14 -3 -27 -3 -39c0 -77 38 -105 116 -105
c54 0 98 13 125 31zM266 552l87 83l26 -28l-121 -115l-93 115l34 28z" />
    <glyph glyph-name="uni01DD" unicode="&#x1dd;" horiz-adv-x="505" 
d="M99 341l-24 34c36 33 101 72 177 72c121 0 193 -82 193 -200c0 -129 -94 -259 -235 -259c-106 0 -175 84 -175 182c0 12 1 23 3 35h360c2 15 3 26 3 36c0 95 -57 163 -154 163c-63 0 -120 -35 -148 -63zM215 31c82 0 146 59 173 131h-305c1 -71 55 -131 132 -131z" />
    <glyph glyph-name="uni01E2" unicode="&#x1e2;" horiz-adv-x="774" 
d="M377 0l14 122h-281l-19 -27c-30 -42 -65 -95 -65 -95h-54s49 70 79 113l411 587h182c35 0 102 1 121 1l-6 -46c-19 0 -85 1 -120 1h-137l-31 -250h84c35 0 101 1 120 1l-5 -46c-19 0 -85 1 -120 1h-84l-39 -318h157c35 0 101 1 120 1l-6 -46c-19 0 -84 1 -119 1h-202z
M133 160c2 2 18 6 36 6h228l46 377c4 35 11 62 19 81l-5 2c-6 -18 -20 -38 -46 -74l-253 -362c-9 -12 -23 -24 -26 -26zM431 842c9 0 43 -1 60 -1h90c17 0 51 1 60 1l-5 -46c-9 0 -43 1 -60 1h-90c-17 0 -51 -1 -60 -1z" />
    <glyph glyph-name="uni01E3" unicode="&#x1e3;" horiz-adv-x="824" 
d="M712 94l24 -34c-37 -33 -101 -72 -177 -72c-77 0 -134 33 -165 88l-3 -23c-35 -29 -105 -65 -187 -65c-99 0 -165 65 -165 149c0 96 83 179 202 179c52 0 106 -23 130 -64l4 2c-1 3 -2 9 -2 16c0 1 0 6 1 9l1 4c1 6 1 11 1 17c0 61 -45 104 -126 104
c-36 0 -75 -12 -101 -29l-21 35c32 21 81 37 127 37c73 0 140 -35 160 -101c41 59 108 101 186 101c104 0 174 -83 174 -180c0 -12 -1 -25 -3 -37h-360v-4c-2 -11 -2 -22 -2 -32c0 -96 57 -163 154 -163c63 0 119 35 148 63zM209 31c67 0 114 22 140 42l16 130
c-24 33 -67 70 -129 70c-90 0 -153 -61 -153 -131c0 -62 51 -111 126 -111zM596 404c-82 0 -146 -59 -173 -131h305c-2 71 -55 131 -132 131zM326 577c9 0 43 -1 60 -1h90c17 0 51 1 60 1l-5 -46c-9 0 -43 1 -60 1h-90c-17 0 -51 -1 -60 -1z" />
    <glyph glyph-name="Gcaron" unicode="&#x1e6;" horiz-adv-x="747" 
d="M366 -20c-189 0 -328 142 -328 325c0 224 199 415 418 415c103 0 193 -48 247 -124l-36 -34c-47 70 -124 114 -216 114c-192 0 -368 -168 -368 -366c0 -161 122 -286 288 -286c136 0 254 101 289 220h-115c-35 0 -101 -1 -120 -1l5 46c19 0 85 -1 120 -1h165
c-21 -167 -177 -308 -349 -308zM442 817l87 83l26 -28l-121 -115l-93 115l34 28z" />
    <glyph glyph-name="gcaron" unicode="&#x1e7;" horiz-adv-x="517" 
d="M464 384l-53 -429c-12 -102 -102 -187 -231 -187c-78 0 -127 30 -152 53l32 34c20 -19 65 -44 120 -44c116 0 178 67 188 149l7 56c2 18 6 33 9 38l-3 2c-40 -45 -107 -68 -163 -68c-106 0 -180 61 -180 185c0 148 98 274 253 274c73 0 132 -28 173 -63zM417 362
c-27 21 -70 42 -131 42c-128 0 -204 -105 -204 -225c0 -97 58 -148 142 -148c79 0 134 45 163 84zM271 552l87 83l26 -28l-121 -115l-93 115l34 28z" />
    <glyph glyph-name="uni01E8" unicode="&#x1e8;" horiz-adv-x="570" 
d="M145 700c-2 -19 -11 -85 -16 -120l-25 -208l326 278c19 16 57 50 57 50h68c-16 -14 -69 -58 -98 -82l-265 -226c-22 -19 -32 -26 -39 -29l-1 -4c9 -3 18 -13 34 -30l233 -247c23 -24 67 -69 78 -82h-68s-20 24 -44 49l-265 281l-24 -20l-23 -190
c-5 -35 -12 -101 -14 -120h-47c2 19 11 85 16 120l56 460c5 35 12 101 14 120h47zM301 817l87 83l26 -28l-121 -115l-93 115l34 28z" />
    <glyph glyph-name="uni01E9" unicode="&#x1e9;" horiz-adv-x="428" 
d="M135 795h46c-3 -19 -12 -85 -16 -120l-39 -316c-5 -41 -13 -97 -19 -108l4 -2c5 8 23 28 75 78l52 50c16 16 61 58 61 58h61c-14 -14 -65 -62 -93 -88l-108 -103l129 -157l72 -87h-66c-8 10 -29 39 -44 57l-126 154l-18 -18l-9 -73c-4 -35 -12 -101 -14 -120h-46
c2 19 12 85 16 120l68 555c4 35 11 101 14 120zM259 817l87 83l26 -28l-121 -115l-93 115l34 28z" />
    <glyph glyph-name="uni01EA" unicode="&#x1ea;" horiz-adv-x="810" 
d="M460 720c189 0 328 -142 328 -325c0 -224 -201 -415 -419 -415c-11 0 -22 0 -31 1c-6 -12 -11 -30 -11 -45c0 -20 10 -38 45 -38c9 0 22 2 38 5l3 -44c-17 -3 -31 -5 -46 -5c-66 0 -85 36 -85 76c0 19 5 40 12 58c-149 31 -252 159 -252 316c0 224 199 416 418 416z
M455 676c-192 0 -368 -168 -368 -366c0 -161 122 -286 288 -286c192 0 367 168 367 366c0 161 -122 286 -287 286z" />
    <glyph glyph-name="uni01EB" unicode="&#x1eb;" horiz-adv-x="540" 
d="M287 447c117 0 205 -88 205 -201c0 -140 -122 -258 -261 -258c-5 -12 -13 -32 -13 -52s10 -38 45 -38c9 0 21 2 37 5l3 -44c-16 -3 -31 -5 -46 -5c-65 0 -84 35 -84 74c0 21 6 45 14 64c-92 19 -159 97 -159 196c0 142 125 259 259 259zM282 404
c-110 0 -210 -97 -210 -211c0 -92 71 -162 164 -162c110 0 212 96 212 209c0 92 -71 164 -166 164z" />
    <glyph glyph-name="uni01EC" unicode="&#x1ec;" horiz-adv-x="810" 
d="M460 720c189 0 328 -142 328 -325c0 -224 -201 -415 -419 -415c-11 0 -22 0 -31 1c-6 -12 -11 -30 -11 -45c0 -20 10 -38 45 -38c9 0 22 2 38 5l3 -44c-17 -3 -31 -5 -46 -5c-66 0 -85 36 -85 76c0 19 5 40 12 58c-149 31 -252 159 -252 316c0 224 199 416 418 416z
M455 676c-192 0 -368 -168 -368 -366c0 -161 122 -286 288 -286c192 0 367 168 367 366c0 161 -122 286 -287 286zM351 842c9 0 43 -1 60 -1h90c17 0 51 1 60 1l-5 -46c-9 0 -43 1 -60 1h-90c-17 0 -51 -1 -60 -1z" />
    <glyph glyph-name="uni01ED" unicode="&#x1ed;" horiz-adv-x="540" 
d="M287 447c117 0 205 -88 205 -201c0 -140 -122 -258 -261 -258c-5 -12 -13 -32 -13 -52s10 -38 45 -38c9 0 21 2 37 5l3 -44c-16 -3 -31 -5 -46 -5c-65 0 -84 35 -84 74c0 21 6 45 14 64c-92 19 -159 97 -159 196c0 142 125 259 259 259zM282 404
c-110 0 -210 -97 -210 -211c0 -92 71 -162 164 -162c110 0 212 96 212 209c0 92 -71 164 -166 164zM191 577c9 0 43 -1 60 -1h90c17 0 51 1 60 1l-5 -46c-9 0 -43 1 -60 1h-90c-17 0 -51 -1 -60 -1z" />
    <glyph glyph-name="uni01F0" unicode="&#x1f0;" horiz-adv-x="229" 
d="M187 435c-3 -19 -12 -85 -16 -120l-42 -344c-16 -127 -55 -203 -160 -203l5 43c69 0 97 48 110 150l43 354c4 35 11 101 14 120h46zM144 552l87 83l26 -28l-121 -115l-93 115l34 28z" />
    <glyph glyph-name="Gacute" unicode="&#x1f4;" horiz-adv-x="747" 
d="M366 -20c-189 0 -328 142 -328 325c0 224 199 415 418 415c103 0 193 -48 247 -124l-36 -34c-47 70 -124 114 -216 114c-192 0 -368 -168 -368 -366c0 -161 122 -286 288 -286c136 0 254 101 289 220h-115c-35 0 -101 -1 -120 -1l5 46c19 0 85 -1 120 -1h165
c-21 -167 -177 -308 -349 -308zM451 788l-20 21l122 130l30 -31z" />
    <glyph glyph-name="uni01F5" unicode="&#x1f5;" horiz-adv-x="517" 
d="M464 384l-53 -429c-12 -102 -102 -187 -231 -187c-78 0 -127 30 -152 53l32 34c20 -19 65 -44 120 -44c116 0 178 67 188 149l7 56c2 18 6 33 9 38l-3 2c-40 -45 -107 -68 -163 -68c-106 0 -180 61 -180 185c0 148 98 274 253 274c73 0 132 -28 173 -63zM417 362
c-27 21 -70 42 -131 42c-128 0 -204 -105 -204 -225c0 -97 58 -148 142 -148c79 0 134 45 163 84zM244 523l-20 21l122 130l30 -31z" />
    <glyph glyph-name="uni01F8" unicode="&#x1f8;" horiz-adv-x="755" 
d="M645 -22l-446 550c-24 31 -50 63 -69 89l-3 -2c0 -10 2 -36 -3 -74l-51 -421c-5 -35 -12 -101 -14 -120h-47c2 19 11 85 16 120l74 602l446 -550c24 -31 50 -63 69 -89l3 2c0 10 -2 36 3 74l51 421c5 35 12 101 14 120h47c-2 -19 -11 -85 -16 -120zM453 809l-26 -21
l-102 120l38 31z" />
    <glyph glyph-name="uni01F9" unicode="&#x1f9;" horiz-adv-x="474" 
d="M140 435c-4 -26 -8 -49 -12 -55l4 -2c38 42 88 69 144 69c84 0 129 -56 129 -131c0 -9 -1 -17 -2 -26l-21 -170c-4 -35 -11 -101 -13 -120h-46c2 19 11 85 15 120l20 160c1 8 2 16 2 24c0 58 -27 100 -89 100c-74 0 -142 -59 -150 -128l-19 -156
c-4 -35 -11 -101 -13 -120h-46c2 19 11 85 15 120l24 195c4 35 12 101 14 120h44zM279 544l-26 -21l-102 120l38 31z" />
    <glyph glyph-name="AEacute" unicode="&#x1fc;" horiz-adv-x="774" 
d="M377 0l14 122h-281l-19 -27c-30 -42 -65 -95 -65 -95h-54s49 70 79 113l411 587h182c35 0 102 1 121 1l-6 -46c-19 0 -85 1 -120 1h-137l-31 -250h84c35 0 101 1 120 1l-5 -46c-19 0 -85 1 -120 1h-84l-39 -318h157c35 0 101 1 120 1l-6 -46c-19 0 -84 1 -119 1h-202z
M133 160c2 2 18 6 36 6h228l46 377c4 35 11 62 19 81l-5 2c-6 -18 -20 -38 -46 -74l-253 -362c-9 -12 -23 -24 -26 -26zM513 788l-20 21l122 130l30 -31z" />
    <glyph glyph-name="aeacute" unicode="&#x1fd;" horiz-adv-x="824" 
d="M712 94l24 -34c-37 -33 -101 -72 -177 -72c-77 0 -134 33 -165 88l-3 -23c-35 -29 -105 -65 -187 -65c-99 0 -165 65 -165 149c0 96 83 179 202 179c52 0 106 -23 130 -64l4 2c-1 3 -2 9 -2 16c0 1 0 6 1 9l1 4c1 6 1 11 1 17c0 61 -45 104 -126 104
c-36 0 -75 -12 -101 -29l-21 35c32 21 81 37 127 37c73 0 140 -35 160 -101c41 59 108 101 186 101c104 0 174 -83 174 -180c0 -12 -1 -25 -3 -37h-360v-4c-2 -11 -2 -22 -2 -32c0 -96 57 -163 154 -163c63 0 119 35 148 63zM209 31c67 0 114 22 140 42l16 130
c-24 33 -67 70 -129 70c-90 0 -153 -61 -153 -131c0 -62 51 -111 126 -111zM596 404c-82 0 -146 -59 -173 -131h305c-2 71 -55 131 -132 131zM420 523l-20 21l122 130l30 -31z" />
    <glyph glyph-name="Oslashacute" unicode="&#x1fe;" horiz-adv-x="810" 
d="M456 720c94 0 175 -35 234 -93l63 58l29 -33c-10 -10 -38 -35 -64 -57c50 -66 75 -151 63 -245c-25 -204 -211 -370 -415 -370c-94 0 -176 35 -235 93c-26 -23 -53 -49 -63 -58l-29 33l64 57c-49 66 -74 151 -62 245c25 204 211 370 415 370zM682 563l-515 -458
c51 -51 122 -81 204 -81c179 0 343 146 365 326c10 81 -11 156 -54 213zM654 595c-51 50 -122 81 -203 81c-179 0 -343 -146 -365 -326c-10 -82 10 -156 53 -213zM443 788l-20 21l122 130l30 -31z" />
    <glyph glyph-name="oslashacute" unicode="&#x1ff;" horiz-adv-x="540" 
d="M282 523l-20 21l122 130l30 -31zM288 447c55 0 104 -20 140 -52l38 35l28 -33l-39 -34c23 -33 37 -74 37 -118c0 -140 -124 -257 -260 -257c-56 0 -105 20 -140 52l-38 -35l-28 33l38 34c-22 32 -36 73 -36 117c0 139 125 258 260 258zM237 31c109 0 211 95 211 208
c0 34 -10 66 -27 93l-295 -261c28 -25 67 -40 111 -40zM283 404c-110 0 -211 -97 -211 -210c0 -34 10 -66 27 -91c8 6 16 13 294 260c-28 26 -66 41 -110 41z" />
    <glyph glyph-name="uni0202" unicode="&#x202;" 
d="M352 738l178 -627c10 -35 33 -111 33 -111h-51s-14 53 -26 94l-8 28h-394l-13 -27c-24 -46 -48 -95 -48 -95h-50s34 66 58 112zM341 625h-4c-3 -12 -11 -32 -34 -75l-184 -360c-6 -13 -17 -24 -20 -26l1 -4c3 2 18 6 36 6h299c19 0 32 -4 34 -6l3 4c-3 2 -9 11 -13 26
l-103 360c-12 43 -16 63 -15 75zM464 797l-42 -18c-11 27 -38 42 -74 42s-65 -15 -84 -42l-38 18c28 44 73 68 128 68s94 -24 110 -68z" />
    <glyph glyph-name="uni0203" unicode="&#x203;" horiz-adv-x="486" 
d="M233 316c54 0 108 -25 130 -63l4 2c-3 7 -2 16 -1 24l1 10c1 9 2 18 2 22c0 55 -54 93 -126 93c-37 0 -76 -11 -103 -28l-20 35c36 21 83 36 128 36c94 0 165 -53 165 -131c0 -6 -1 -19 -2 -25l-29 -238c-35 -28 -104 -65 -186 -65c-96 0 -164 64 -164 148
c0 97 80 180 201 180zM228 273c-91 0 -151 -62 -151 -132c0 -62 51 -110 124 -110c62 0 112 22 139 41l17 132c-27 32 -67 69 -129 69zM373 532l-42 -18c-11 27 -38 42 -74 42s-65 -15 -84 -42l-38 18c28 44 73 68 128 68s94 -24 110 -68z" />
    <glyph glyph-name="uni0206" unicode="&#x206;" horiz-adv-x="402" 
d="M99 700h182c35 0 101 1 120 1l-6 -46c-19 0 -84 1 -119 1h-137l-31 -250h85c35 0 101 1 120 1l-6 -46c-19 0 -85 1 -120 1h-85l-39 -318h157c35 0 102 1 121 1l-6 -46c-19 0 -85 1 -120 1h-202zM372 797l-42 -18c-11 27 -38 42 -74 42s-65 -15 -84 -42l-38 18
c28 44 73 68 128 68s94 -24 110 -68z" />
    <glyph glyph-name="uni0207" unicode="&#x207;" horiz-adv-x="505" 
d="M274 447c104 0 174 -83 174 -180c0 -12 -1 -25 -3 -37h-360c-2 -15 -2 -26 -2 -36c0 -96 57 -163 154 -163c63 0 119 35 148 63l24 -34c-37 -33 -101 -72 -177 -72c-121 0 -193 82 -193 200c0 133 96 259 235 259zM269 404c-82 0 -146 -59 -173 -131h305
c-2 71 -55 131 -132 131zM414 532l-42 -18c-11 27 -38 42 -74 42s-65 -15 -84 -42l-38 18c28 44 73 68 128 68s94 -24 110 -68z" />
    <glyph glyph-name="uni020A" unicode="&#x20a;" horiz-adv-x="185" 
d="M165 700c-2 -19 -11 -85 -16 -120l-56 -460c-5 -35 -12 -101 -14 -120h-47c2 19 11 85 16 120l56 460c5 35 12 101 14 120h47zM258 797l-42 -18c-11 27 -38 42 -74 42s-65 -15 -84 -42l-38 18c28 44 73 68 128 68s94 -24 110 -68z" />
    <glyph glyph-name="uni020B" unicode="&#x20b;" horiz-adv-x="204" 
d="M141 435c-2 -19 -11 -85 -15 -120l-24 -195c-5 -35 -12 -101 -14 -120h-46c2 19 11 85 16 120l24 195c4 35 11 101 13 120h46zM250 532l-42 -18c-11 27 -38 42 -74 42s-65 -15 -84 -42l-38 18c28 44 73 68 128 68s94 -24 110 -68z" />
    <glyph glyph-name="uni020E" unicode="&#x20e;" horiz-adv-x="810" 
d="M456 720c189 0 328 -142 328 -325c0 -224 -200 -415 -418 -415c-189 0 -328 142 -328 325c0 224 199 415 418 415zM451 676c-192 0 -368 -168 -368 -366c0 -161 122 -286 288 -286c192 0 367 168 367 366c0 161 -122 286 -287 286zM569 797l-42 -18c-11 27 -38 42 -74 42
s-65 -15 -84 -42l-38 18c28 44 73 68 128 68s94 -24 110 -68z" />
    <glyph glyph-name="uni020F" unicode="&#x20f;" horiz-adv-x="540" 
d="M288 447c117 0 204 -88 204 -201c0 -140 -123 -258 -260 -258c-118 0 -204 88 -204 202c0 139 125 257 260 257zM283 404c-110 0 -211 -97 -211 -211c0 -91 70 -162 165 -162c110 0 211 96 211 209c0 92 -70 164 -165 164zM429 532l-42 -18c-11 27 -38 42 -74 42
s-65 -15 -84 -42l-38 18c28 44 73 68 128 68s94 -24 110 -68z" />
    <glyph glyph-name="uni0212" unicode="&#x212;" horiz-adv-x="420" 
d="M99 700h119c122 0 181 -68 181 -156c0 -84 -67 -200 -162 -200v-4c6 -2 10 -9 14 -21l73 -211c14 -41 39 -108 39 -108h-53c-7 22 -18 56 -29 89l-85 244c-7 -1 -14 -1 -21 -1h-76l-26 -212c-4 -35 -13 -101 -14 -120h-47c1 19 12 85 16 120zM139 656l-35 -280h72
c121 0 177 77 177 160c0 67 -46 120 -134 120h-80zM379 797l-42 -18c-11 27 -38 42 -74 42s-65 -15 -84 -42l-38 18c28 44 73 68 128 68s94 -24 110 -68z" />
    <glyph glyph-name="uni0213" unicode="&#x213;" horiz-adv-x="300" 
d="M124 362c30 40 80 80 129 80c26 0 42 -12 52 -21l-30 -41c-9 9 -22 16 -37 16c-37 0 -114 -45 -124 -129l-18 -147c-5 -35 -12 -101 -14 -120h-46c2 19 11 85 16 120l24 195c4 35 11 101 13 120h45c-4 -26 -10 -65 -13 -71zM309 532l-42 -18c-11 27 -38 42 -74 42
s-65 -15 -84 -42l-38 18c28 44 73 68 128 68s94 -24 110 -68z" />
    <glyph glyph-name="uni0216" unicode="&#x216;" horiz-adv-x="597" 
d="M150 700c-2 -19 -11 -85 -15 -120l-44 -353c-2 -13 -2 -26 -2 -38c0 -99 50 -157 192 -157c101 0 160 33 191 63l60 485c4 35 11 101 13 120h47c-2 -19 -11 -85 -15 -120l-62 -498c-33 -42 -108 -94 -239 -94c-166 0 -233 75 -233 191c0 17 2 34 4 53l43 348
c4 35 11 101 13 120h47zM462 797l-42 -18c-11 27 -38 42 -74 42s-65 -15 -84 -42l-38 18c28 44 73 68 128 68s94 -24 110 -68z" />
    <glyph glyph-name="uni0217" unicode="&#x217;" horiz-adv-x="490" 
d="M342 62l31 253c4 35 12 101 14 120h46c-2 -19 -12 -85 -16 -120l-34 -276c-38 -30 -98 -51 -171 -51c-92 0 -156 31 -156 136c0 12 1 25 3 39l18 152c4 35 12 101 14 120h46c-2 -19 -12 -85 -16 -120l-17 -140c-2 -14 -3 -27 -3 -39c0 -77 38 -105 116 -105
c54 0 98 13 125 31zM394 532l-42 -18c-11 27 -38 42 -74 42s-65 -15 -84 -42l-38 18c28 44 73 68 128 68s94 -24 110 -68z" />
    <glyph glyph-name="Scommaaccent" unicode="&#x218;" horiz-adv-x="474" 
d="M433 631l-41 -30c-25 36 -56 67 -110 67c-71 0 -129 -54 -129 -120c0 -62 50 -102 116 -154c79 -62 140 -109 140 -202c0 -118 -95 -204 -213 -204c-88 0 -147 47 -184 107l40 27c31 -50 77 -90 149 -90c90 0 162 65 162 152c0 76 -56 120 -126 175
c-75 59 -130 103 -130 181c0 93 79 172 180 172c72 0 114 -37 146 -81zM138 -179l76 99l38 -32l-88 -88z" />
    <glyph glyph-name="scommaaccent" unicode="&#x219;" horiz-adv-x="350" 
d="M317 404l-32 -34c-17 16 -47 34 -88 34c-50 0 -83 -31 -83 -68c0 -38 37 -58 78 -81c52 -29 110 -61 110 -132c0 -72 -70 -135 -163 -135c-66 0 -120 33 -148 69l38 28c20 -28 63 -54 115 -54c65 0 114 40 114 85c0 49 -45 74 -90 98c-49 27 -98 53 -98 115
c0 67 54 118 132 118c52 0 92 -23 115 -43zM90 -179l76 99l38 -32l-88 -88z" />
    <glyph glyph-name="uni021E" unicode="&#x21e;" horiz-adv-x="610" 
d="M145 700c-2 -19 -11 -85 -16 -120l-21 -176h420l21 176c5 35 12 101 14 120h47c-2 -19 -11 -85 -16 -120l-56 -460c-5 -35 -12 -101 -14 -120h-47c2 19 11 85 16 120l29 240h-420l-29 -240c-5 -35 -12 -101 -14 -120h-47c2 19 11 85 16 120l56 460c5 35 12 101 14 120h47
zM353 817l87 83l26 -28l-121 -115l-93 115l34 28z" />
    <glyph glyph-name="uni021F" unicode="&#x21f;" horiz-adv-x="474" 
d="M140 795h46c-2 -19 -12 -85 -16 -120l-28 -230c-4 -33 -11 -67 -15 -75l4 -2c35 41 80 79 147 79c74 0 127 -51 127 -129c0 -8 -1 -17 -2 -25l-21 -173c-4 -35 -11 -101 -13 -120h-46c2 19 10 85 15 120l21 166c1 7 1 14 1 21c0 62 -36 97 -87 97
c-74 0 -145 -73 -154 -144l-17 -140c-4 -35 -11 -101 -13 -120h-46c2 19 11 85 15 120l68 555c4 35 12 101 14 120zM285 817l87 83l26 -28l-121 -115l-93 115l34 28z" />
    <glyph glyph-name="uni0226" unicode="&#x226;" 
d="M352 738l178 -627c10 -35 33 -111 33 -111h-51s-14 53 -26 94l-8 28h-394l-13 -27c-24 -46 -48 -95 -48 -95h-50s34 66 58 112zM341 625h-4c-3 -12 -11 -32 -34 -75l-184 -360c-6 -13 -17 -24 -20 -26l1 -4c3 2 18 6 36 6h299c19 0 32 -4 34 -6l3 4c-3 2 -9 11 -13 26
l-103 360c-12 43 -16 63 -15 75zM367 855c17 0 30 -13 30 -30c0 -21 -18 -40 -39 -40c-18 0 -31 14 -31 31c0 21 21 39 40 39z" />
    <glyph glyph-name="uni0227" unicode="&#x227;" horiz-adv-x="486" 
d="M233 316c54 0 108 -25 130 -63l4 2c-3 7 -2 16 -1 24l1 10c1 9 2 18 2 22c0 55 -54 93 -126 93c-37 0 -76 -11 -103 -28l-20 35c36 21 83 36 128 36c94 0 165 -53 165 -131c0 -6 -1 -19 -2 -25l-29 -238c-35 -28 -104 -65 -186 -65c-96 0 -164 64 -164 148
c0 97 80 180 201 180zM228 273c-91 0 -151 -62 -151 -132c0 -62 51 -110 124 -110c62 0 112 22 139 41l17 132c-27 32 -67 69 -129 69zM274 590c17 0 30 -13 30 -30c0 -21 -18 -40 -39 -40c-18 0 -31 14 -31 31c0 21 21 39 40 39z" />
    <glyph glyph-name="uni0228" unicode="&#x228;" horiz-adv-x="402" 
d="M99 700h182c35 0 101 1 120 1l-6 -46c-19 0 -84 1 -119 1h-137l-31 -250h85c35 0 101 1 120 1l-6 -46c-19 0 -85 1 -120 1h-85l-39 -318h157c35 0 102 1 121 1l-6 -46c-19 0 -85 1 -120 1h-202zM103 -179l76 99l38 -32l-88 -88z" />
    <glyph glyph-name="uni0229" unicode="&#x229;" horiz-adv-x="505" 
d="M274 447c104 0 174 -83 174 -180c0 -12 -1 -25 -3 -37h-360c-2 -15 -2 -26 -2 -36c0 -96 57 -163 154 -163c63 0 119 35 148 63l24 -34c-37 -33 -101 -72 -177 -72c-121 0 -193 82 -193 200c0 133 96 259 235 259zM269 404c-82 0 -146 -59 -173 -131h305
c-2 71 -55 131 -132 131zM166 -179l76 99l38 -32l-88 -88z" />
    <glyph glyph-name="uni022E" unicode="&#x22e;" horiz-adv-x="810" 
d="M456 720c189 0 328 -142 328 -325c0 -224 -200 -415 -418 -415c-189 0 -328 142 -328 325c0 224 199 415 418 415zM451 676c-192 0 -368 -168 -368 -366c0 -161 122 -286 288 -286c192 0 367 168 367 366c0 161 -122 286 -287 286zM479 855c17 0 30 -13 30 -30
c0 -21 -18 -40 -39 -40c-18 0 -31 14 -31 31c0 21 21 39 40 39z" />
    <glyph glyph-name="uni022F" unicode="&#x22f;" horiz-adv-x="540" 
d="M288 447c117 0 204 -88 204 -201c0 -140 -123 -258 -260 -258c-118 0 -204 88 -204 202c0 139 125 257 260 257zM283 404c-110 0 -211 -97 -211 -211c0 -91 70 -162 165 -162c110 0 211 96 211 209c0 92 -70 164 -165 164zM318 590c17 0 30 -13 30 -30
c0 -21 -18 -40 -39 -40c-18 0 -31 14 -31 31c0 21 21 39 40 39z" />
    <glyph glyph-name="uni0232" unicode="&#x232;" horiz-adv-x="534" 
d="M496 597l-204 -288l-23 -189c-5 -35 -12 -101 -14 -120h-47c2 19 11 85 16 120l23 190l-136 288c-18 39 -50 102 -50 102h55s23 -51 36 -79l96 -203c15 -30 23 -66 24 -71h4c0 5 17 37 41 71l143 202c22 30 45 64 56 80h55s-52 -71 -75 -103zM217 842c9 0 43 -1 60 -1h90
c17 0 51 1 60 1l-5 -46c-9 0 -43 1 -60 1h-90c-17 0 -51 -1 -60 -1z" />
    <glyph glyph-name="uni0233" unicode="&#x233;" horiz-adv-x="486" 
d="M40 435h53c6 -21 17 -58 28 -91l64 -202c22 -70 26 -92 26 -99h4c1 8 14 37 49 99l164 293h50c-21 -36 -42 -73 -62 -109l-256 -454c-18 -32 -42 -75 -52 -92h-50s45 75 64 110l60 107l-105 329c-11 32 -31 92 -37 109zM184 577c9 0 43 -1 60 -1h90c17 0 51 1 60 1
l-5 -46c-9 0 -43 1 -60 1h-90c-17 0 -51 -1 -60 -1z" />
    <glyph glyph-name="dotlessj" unicode="&#x237;" horiz-adv-x="229" 
d="M187 435c-3 -19 -12 -85 -16 -120l-42 -344c-16 -127 -55 -203 -160 -203l5 43c69 0 97 48 110 150l43 354c4 35 11 101 14 120h46z" />
    <glyph glyph-name="uni0245" unicode="&#x245;" 
d="M352 738l178 -627c10 -35 33 -111 33 -111h-51s-14 53 -26 94l-130 456c-12 43 -16 63 -15 75h-4c-3 -12 -11 -32 -34 -75l-232 -455c-24 -46 -48 -95 -48 -95h-50s34 66 58 112z" />
    <glyph glyph-name="apostrophe" unicode="&#x2bc;" horiz-adv-x="252" 
d="M145 743l7 52h52l-6 -44c-3 -30 -25 -50 -38 -65l-19 14c7 8 23 24 25 37v6h-21z" />
    <glyph glyph-name="circumflex" unicode="&#x2c6;" horiz-adv-x="370" 
d="M286 492l-67 83l-87 -83l-26 28l121 115l93 -115z" />
    <glyph glyph-name="caron" unicode="&#x2c7;" horiz-adv-x="370" 
d="M216 552l87 83l26 -28l-121 -115l-93 115l34 28z" />
    <glyph glyph-name="breve" unicode="&#x2d8;" horiz-adv-x="390" 
d="M222 524c-55 0 -94 24 -110 68l42 18c12 -27 38 -42 74 -42s66 15 84 42l38 -18c-28 -44 -73 -68 -128 -68z" />
    <glyph glyph-name="dotaccent" unicode="&#x2d9;" horiz-adv-x="390" 
d="M231 590c17 0 30 -13 30 -30c0 -21 -18 -40 -39 -40c-18 0 -31 14 -31 31c0 21 21 39 40 39z" />
    <glyph glyph-name="ring" unicode="&#x2da;" horiz-adv-x="400" 
d="M249 700c51 0 88 -38 88 -87c0 -61 -53 -113 -113 -113c-51 0 -89 39 -89 89c0 60 56 111 114 111zM244 660c-34 0 -67 -31 -67 -68c0 -29 22 -52 52 -52c34 0 65 31 65 68c0 29 -21 52 -50 52z" />
    <glyph glyph-name="ogonek" unicode="&#x2db;" horiz-adv-x="450" 
d="M190 27l31 -28c-3 -3 -20 -34 -20 -61c0 -21 9 -40 45 -40c9 0 21 2 37 5l3 -44c-17 -3 -31 -5 -46 -5c-66 0 -85 36 -85 76s26 87 35 97z" />
    <glyph glyph-name="tilde" unicode="&#x2dc;" horiz-adv-x="512" 
d="M183 516l-39 6c13 44 64 76 108 69l87 -13c24 -4 51 12 58 35l39 -6c-13 -44 -64 -76 -108 -69l-86 13c-25 4 -52 -12 -59 -35z" />
    <glyph glyph-name="hungarumlaut" unicode="&#x2dd;" horiz-adv-x="410" 
d="M140 523l-20 21l122 130l30 -31zM246 523l-20 21l122 130l30 -31z" />
    <glyph glyph-name="uni0311" unicode="&#x311;" horiz-adv-x="390" 
d="M342 532l-42 -18c-11 27 -38 42 -74 42s-65 -15 -84 -42l-38 18c28 44 73 68 128 68s94 -24 110 -68z" />
    <glyph glyph-name="delta" unicode="&#x3b4;" horiz-adv-x="539" 
d="M299 447c11 0 23 -1 34 -3c33 -7 60 -22 68 -27l2 3c-5 7 -19 31 -45 91l-69 162c-21 49 -39 90 -45 105l43 22c6 -17 23 -57 44 -106l159 -374c10 -26 15 -66 11 -103c-16 -127 -131 -229 -258 -229s-217 102 -201 229s130 230 257 230zM294 404
c-103 0 -195 -84 -208 -187s59 -186 162 -186s196 83 209 186s-60 187 -163 187z" />
    <glyph glyph-name="pi" unicode="&#x3c0;" horiz-adv-x="565" 
d="M375 392h-162l-34 -272c-4 -35 -11 -101 -13 -120h-46c2 19 11 85 15 120l34 272c-35 0 -101 -1 -120 -1l5 45c19 0 85 -1 120 -1h250c35 0 101 1 120 1l-5 -45c-19 0 -85 1 -120 1l-34 -272c-4 -35 -11 -101 -13 -120h-46c2 19 11 85 15 120z" />
    <glyph glyph-name="uni1E02" unicode="&#x1e02;" horiz-adv-x="446" 
d="M99 700h126c133 0 179 -69 179 -147c0 -69 -44 -158 -121 -184v-4c60 -16 110 -75 110 -148c0 -133 -87 -217 -242 -217h-138c2 19 10 85 86 700zM100 340l-37 -296h103c117 0 183 71 183 170c0 69 -57 126 -138 126h-111zM139 656l-34 -272h95c95 0 159 83 159 161
c0 60 -34 111 -129 111h-91zM256 855c17 0 30 -13 30 -30c0 -21 -18 -40 -39 -40c-18 0 -31 14 -31 31c0 21 21 39 40 39z" />
    <glyph glyph-name="uni1E03" unicode="&#x1e03;" horiz-adv-x="514" 
d="M135 795h46c-2 -19 -12 -85 -16 -120l-32 -265c-2 -19 -6 -35 -9 -40l4 -1c35 48 102 78 162 78c105 0 177 -62 177 -185c0 -155 -114 -274 -258 -274c-67 0 -118 23 -165 58l77 629c5 35 12 101 14 120zM285 404c-66 0 -135 -44 -166 -106l-28 -229
c31 -21 74 -38 126 -38c115 0 206 98 206 223c0 99 -57 150 -138 150zM311 590c17 0 30 -13 30 -30c0 -21 -18 -40 -39 -40c-18 0 -31 14 -31 31c0 21 21 39 40 39z" />
    <glyph glyph-name="uni1E08" unicode="&#x1e08;" horiz-adv-x="695" 
d="M694 612l-38 -32c-49 59 -120 96 -205 96c-192 0 -368 -168 -368 -366c0 -161 122 -286 288 -286c87 0 170 37 234 96l29 -32c-73 -67 -169 -108 -268 -108c-189 0 -328 142 -328 325c0 224 199 415 418 415c98 0 182 -41 238 -108zM312 -179l76 99l38 -32l-88 -88z
M429 788l-20 21l122 130l30 -31z" />
    <glyph glyph-name="uni1E09" unicode="&#x1e09;" horiz-adv-x="460" 
d="M271 447c63 0 117 -30 151 -76l-40 -28c-26 38 -66 61 -116 61c-111 0 -195 -93 -195 -215c0 -90 58 -158 154 -158c53 0 103 26 140 65l28 -32c-46 -47 -108 -76 -173 -76c-117 0 -193 84 -193 196c0 146 112 263 244 263zM143 -179l76 99l38 -32l-88 -88zM245 523
l-20 21l122 130l30 -31z" />
    <glyph glyph-name="uni1E0A" unicode="&#x1e0a;" horiz-adv-x="605" 
d="M99 700h165c178 0 310 -134 310 -307c0 -212 -190 -393 -396 -393h-165zM139 656l-76 -612h120c180 0 345 158 345 344c0 151 -114 268 -269 268h-120zM355 855c17 0 30 -13 30 -30c0 -21 -18 -40 -39 -40c-18 0 -31 14 -31 31c0 21 21 39 40 39z" />
    <glyph glyph-name="uni1E0B" unicode="&#x1e0b;" horiz-adv-x="514" 
d="M455 795h46c-2 -19 -12 -85 -16 -120l-75 -615c-44 -42 -112 -72 -186 -72c-116 0 -195 79 -195 197c0 170 125 262 237 262c53 0 116 -20 141 -67l4 2c0 3 -1 8 -1 14c0 15 2 38 5 63l26 216c4 35 12 101 14 120zM398 319c-15 50 -71 85 -137 85
c-90 0 -188 -74 -188 -213c0 -95 64 -160 156 -160c59 0 110 23 140 51zM275 590c17 0 30 -13 30 -30c0 -21 -18 -40 -39 -40c-18 0 -31 14 -31 31c0 21 21 39 40 39z" />
    <glyph glyph-name="Wgrave" unicode="&#x1e80;" horiz-adv-x="1050" 
d="M302 193l282 547l136 -547c8 -28 19 -92 19 -100h4c2 10 14 42 41 100l195 409c17 36 38 86 44 98h51c-5 -10 -42 -84 -55 -113l-292 -614l-138 551c-10 40 -20 88 -20 100h-4c-2 -12 -22 -55 -46 -101l-284 -552l-135 616c-7 29 -24 100 -26 113h50c2 -12 12 -67 19 -99
l91 -408c10 -44 19 -86 18 -100h4c3 12 24 56 46 100zM588 809l-26 -21l-102 120l38 31z" />
    <glyph glyph-name="wgrave" unicode="&#x1e81;" horiz-adv-x="736" 
d="M38 435h49c9 -30 17 -62 26 -94l48 -163c11 -39 24 -83 24 -100h5c2 11 24 55 49 100l154 277l74 -272c18 -68 23 -90 22 -101h4c3 11 24 52 51 101l89 160l51 92h50c-9 -18 -44 -78 -62 -110l-195 -349l-75 276c-18 66 -21 92 -20 101h-5c-2 -9 -14 -35 -51 -101
l-153 -276l-102 348c-10 33 -28 93 -33 111zM407 544l-26 -21l-102 120l38 31z" />
    <glyph glyph-name="Wacute" unicode="&#x1e82;" horiz-adv-x="1050" 
d="M302 193l282 547l136 -547c8 -28 19 -92 19 -100h4c2 10 14 42 41 100l195 409c17 36 38 86 44 98h51c-5 -10 -42 -84 -55 -113l-292 -614l-138 551c-10 40 -20 88 -20 100h-4c-2 -12 -22 -55 -46 -101l-284 -552l-135 616c-7 29 -24 100 -26 113h50c2 -12 12 -67 19 -99
l91 -408c10 -44 19 -86 18 -100h4c3 12 24 56 46 100zM563 788l-20 21l122 130l30 -31z" />
    <glyph glyph-name="wacute" unicode="&#x1e83;" horiz-adv-x="736" 
d="M38 435h49c9 -30 17 -62 26 -94l48 -163c11 -39 24 -83 24 -100h5c2 11 24 55 49 100l154 277l74 -272c18 -68 23 -90 22 -101h4c3 11 24 52 51 101l89 160l51 92h50c-9 -18 -44 -78 -62 -110l-195 -349l-75 276c-18 66 -21 92 -20 101h-5c-2 -9 -14 -35 -51 -101
l-153 -276l-102 348c-10 33 -28 93 -33 111zM380 523l-20 21l122 130l30 -31z" />
    <glyph glyph-name="Wdieresis" unicode="&#x1e84;" horiz-adv-x="1050" 
d="M302 193l282 547l136 -547c8 -28 19 -92 19 -100h4c2 10 14 42 41 100l195 409c17 36 38 86 44 98h51c-5 -10 -42 -84 -55 -113l-292 -614l-138 551c-10 40 -20 88 -20 100h-4c-2 -12 -22 -55 -46 -101l-284 -552l-135 616c-7 29 -24 100 -26 113h50c2 -12 12 -67 19 -99
l91 -408c10 -44 19 -86 18 -100h4c3 12 24 56 46 100zM498 855c17 0 30 -13 30 -30c0 -21 -18 -40 -39 -40c-18 0 -31 14 -31 31c0 21 21 39 40 39zM638 855c17 0 30 -13 30 -30c0 -21 -18 -40 -39 -40c-18 0 -31 14 -31 31c0 21 21 39 40 39z" />
    <glyph glyph-name="wdieresis" unicode="&#x1e85;" horiz-adv-x="736" 
d="M38 435h49c9 -30 17 -62 26 -94l48 -163c11 -39 24 -83 24 -100h5c2 11 24 55 49 100l154 277l74 -272c18 -68 23 -90 22 -101h4c3 11 24 52 51 101l89 160l51 92h50c-9 -18 -44 -78 -62 -110l-195 -349l-75 276c-18 66 -21 92 -20 101h-5c-2 -9 -14 -35 -51 -101
l-153 -276l-102 348c-10 33 -28 93 -33 111zM317 590c17 0 30 -13 30 -30c0 -21 -18 -40 -39 -40c-18 0 -31 14 -31 31c0 21 21 39 40 39zM457 590c17 0 30 -13 30 -30c0 -21 -18 -40 -39 -40c-18 0 -31 14 -31 31c0 21 21 39 40 39z" />
    <glyph glyph-name="uni1E86" unicode="&#x1e86;" horiz-adv-x="1050" 
d="M302 193l282 547l136 -547c8 -28 19 -92 19 -100h4c2 10 14 42 41 100l195 409c17 36 38 86 44 98h51c-5 -10 -42 -84 -55 -113l-292 -614l-138 551c-10 40 -20 88 -20 100h-4c-2 -12 -22 -55 -46 -101l-284 -552l-135 616c-7 29 -24 100 -26 113h50c2 -12 12 -67 19 -99
l91 -408c10 -44 19 -86 18 -100h4c3 12 24 56 46 100zM591 855c17 0 30 -13 30 -30c0 -21 -18 -40 -39 -40c-18 0 -31 14 -31 31c0 21 21 39 40 39z" />
    <glyph glyph-name="uni1E87" unicode="&#x1e87;" horiz-adv-x="736" 
d="M38 435h49c9 -30 17 -62 26 -94l48 -163c11 -39 24 -83 24 -100h5c2 11 24 55 49 100l154 277l74 -272c18 -68 23 -90 22 -101h4c3 11 24 52 51 101l89 160l51 92h50c-9 -18 -44 -78 -62 -110l-195 -349l-75 276c-18 66 -21 92 -20 101h-5c-2 -9 -14 -35 -51 -101
l-153 -276l-102 348c-10 33 -28 93 -33 111zM404 590c17 0 30 -13 30 -30c0 -21 -18 -40 -39 -40c-18 0 -31 14 -31 31c0 21 21 39 40 39z" />
    <glyph glyph-name="uni1E8A" unicode="&#x1e8a;" horiz-adv-x="485" 
d="M171 615l61 -150c12 -27 21 -64 22 -69h4c0 5 17 38 38 69l99 151c20 31 43 67 54 84h54s-41 -60 -71 -105l-156 -238l103 -252c18 -45 44 -105 44 -105h-52l-34 84l-69 169c-11 26 -21 60 -20 66h-4c-2 -6 -18 -38 -37 -66l-111 -169c-20 -31 -43 -67 -54 -84h-54
s43 62 71 105l166 252l-97 237c-12 31 -37 89 -44 106h54s17 -47 33 -85zM303 855c17 0 30 -13 30 -30c0 -21 -18 -40 -39 -40c-18 0 -31 14 -31 31c0 21 21 39 40 39z" />
    <glyph glyph-name="uni1E8B" unicode="&#x1e8b;" horiz-adv-x="448" 
d="M48 435h59c10 -15 24 -39 41 -66l40 -59c15 -22 27 -48 27 -52h5c0 4 21 31 39 52l52 58c18 19 47 53 60 67h58c-15 -16 -64 -70 -86 -94l-101 -112l91 -135c23 -34 47 -68 63 -94h-58c-10 14 -25 39 -43 66l-55 84c-12 18 -28 46 -27 52h-5c-1 -6 -18 -31 -37 -52
l-76 -83c-24 -27 -46 -52 -60 -67h-57c13 15 61 67 86 94l122 135l-75 113c-19 29 -63 93 -63 93zM250 590c17 0 30 -13 30 -30c0 -21 -18 -40 -39 -40c-18 0 -31 14 -31 31c0 21 21 39 40 39z" />
    <glyph glyph-name="uni1E8C" unicode="&#x1e8c;" horiz-adv-x="485" 
d="M171 615l61 -150c12 -27 21 -64 22 -69h4c0 5 17 38 38 69l99 151c20 31 43 67 54 84h54s-41 -60 -71 -105l-156 -238l103 -252c18 -45 44 -105 44 -105h-52l-34 84l-69 169c-11 26 -21 60 -20 66h-4c-2 -6 -18 -38 -37 -66l-111 -169c-20 -31 -43 -67 -54 -84h-54
s43 62 71 105l166 252l-97 237c-12 31 -37 89 -44 106h54s17 -47 33 -85zM234 855c17 0 30 -13 30 -30c0 -21 -18 -40 -39 -40c-18 0 -31 14 -31 31c0 21 21 39 40 39zM374 855c17 0 30 -13 30 -30c0 -21 -18 -40 -39 -40c-18 0 -31 14 -31 31c0 21 21 39 40 39z" />
    <glyph glyph-name="uni1E8D" unicode="&#x1e8d;" horiz-adv-x="448" 
d="M48 435h59c10 -15 24 -39 41 -66l40 -59c15 -22 27 -48 27 -52h5c0 4 21 31 39 52l52 58c18 19 47 53 60 67h58c-15 -16 -64 -70 -86 -94l-101 -112l91 -135c23 -34 47 -68 63 -94h-58c-10 14 -25 39 -43 66l-55 84c-12 18 -28 46 -27 52h-5c-1 -6 -18 -31 -37 -52
l-76 -83c-24 -27 -46 -52 -60 -67h-57c13 15 61 67 86 94l122 135l-75 113c-19 29 -63 93 -63 93zM181 590c17 0 30 -13 30 -30c0 -21 -18 -40 -39 -40c-18 0 -31 14 -31 31c0 21 21 39 40 39zM321 590c17 0 30 -13 30 -30c0 -21 -18 -40 -39 -40c-18 0 -31 14 -31 31
c0 21 21 39 40 39z" />
    <glyph glyph-name="uni1E8E" unicode="&#x1e8e;" horiz-adv-x="534" 
d="M496 597l-204 -288l-23 -189c-5 -35 -12 -101 -14 -120h-47c2 19 11 85 16 120l23 190l-136 288c-18 39 -50 102 -50 102h55s23 -51 36 -79l96 -203c15 -30 23 -66 24 -71h4c0 5 17 37 41 71l143 202c22 30 45 64 56 80h55s-52 -71 -75 -103zM318 855c17 0 30 -13 30 -30
c0 -21 -18 -40 -39 -40c-18 0 -31 14 -31 31c0 21 21 39 40 39z" />
    <glyph glyph-name="uni1E8F" unicode="&#x1e8f;" horiz-adv-x="486" 
d="M40 435h53c6 -21 17 -58 28 -91l64 -202c22 -70 26 -92 26 -99h4c1 8 14 37 49 99l164 293h50c-21 -36 -42 -73 -62 -109l-256 -454c-18 -32 -42 -75 -52 -92h-50s45 75 64 110l60 107l-105 329c-11 32 -31 92 -37 109zM276 590c17 0 30 -13 30 -30
c0 -21 -18 -40 -39 -40c-18 0 -31 14 -31 31c0 21 21 39 40 39z" />
    <glyph glyph-name="uni1E90" unicode="&#x1e90;" horiz-adv-x="550" 
d="M170 44h191c35 0 102 1 121 1l-6 -46c-19 0 -85 1 -120 1h-372l439 573c40 52 65 81 74 85l-2 4c-9 -4 -36 -6 -107 -6h-148c-35 0 -102 -1 -121 -1l6 46c19 0 85 -1 120 -1h330l-439 -573c-30 -38 -65 -81 -75 -85l2 -4c11 5 56 6 107 6zM401 757l-67 83l-87 -83l-26 28
l121 115l93 -115z" />
    <glyph glyph-name="uni1E91" unicode="&#x1e91;" horiz-adv-x="483" 
d="M92 436c19 0 85 -1 120 -1h274l-326 -317c-45 -43 -78 -73 -86 -76l1 -4c9 3 64 5 107 5h121c35 0 102 1 121 1l-6 -45c-19 0 -85 1 -120 1h-319l326 317c48 46 77 72 85 76v4c-9 -3 -47 -5 -108 -5h-76c-35 0 -101 -1 -120 -1zM362 492l-67 83l-87 -83l-26 28l121 115
l93 -115z" />
    <glyph glyph-name="uni1E9E" unicode="&#x1e9e;" horiz-adv-x="650" 
d="M576 670l-152 -182c-21 -25 -46 -53 -59 -60l1 -3c8 2 20 4 34 4c115 0 205 -71 205 -190c0 -135 -118 -251 -254 -251c-78 0 -138 36 -168 83l35 34c23 -39 69 -73 138 -73c109 0 202 93 202 201c0 90 -65 154 -169 154c-44 0 -99 -12 -137 -37l253 302
c-37 16 -76 24 -144 24c-145 0 -229 -73 -245 -206l-43 -350c-4 -35 -11 -101 -13 -120h-47c2 19 11 85 15 120l43 350c20 161 119 250 295 250c113 0 162 -23 210 -50z" />
    <glyph glyph-name="Ygrave" unicode="&#x1ef2;" horiz-adv-x="534" 
d="M496 597l-204 -288l-23 -189c-5 -35 -12 -101 -14 -120h-47c2 19 11 85 16 120l23 190l-136 288c-18 39 -50 102 -50 102h55s23 -51 36 -79l96 -203c15 -30 23 -66 24 -71h4c0 5 17 37 41 71l143 202c22 30 45 64 56 80h55s-52 -71 -75 -103zM354 809l-26 -21l-102 120
l38 31z" />
    <glyph glyph-name="ygrave" unicode="&#x1ef3;" horiz-adv-x="486" 
d="M40 435h53c6 -21 17 -58 28 -91l64 -202c22 -70 26 -92 26 -99h4c1 8 14 37 49 99l164 293h50c-21 -36 -42 -73 -62 -109l-256 -454c-18 -32 -42 -75 -52 -92h-50s45 75 64 110l60 107l-105 329c-11 32 -31 92 -37 109zM295 544l-26 -21l-102 120l38 31z" />
    <glyph glyph-name="uni1EF8" unicode="&#x1ef8;" horiz-adv-x="534" 
d="M496 597l-204 -288l-23 -189c-5 -35 -12 -101 -14 -120h-47c2 19 11 85 16 120l23 190l-136 288c-18 39 -50 102 -50 102h55s23 -51 36 -79l96 -203c15 -30 23 -66 24 -71h4c0 5 17 37 41 71l143 202c22 30 45 64 56 80h55s-52 -71 -75 -103zM211 781l-39 6
c13 44 64 76 108 69l87 -13c24 -4 51 12 58 35l39 -6c-13 -44 -64 -76 -108 -69l-86 13c-25 4 -52 -12 -59 -35z" />
    <glyph glyph-name="uni1EF9" unicode="&#x1ef9;" horiz-adv-x="486" 
d="M40 435h53c6 -21 17 -58 28 -91l64 -202c22 -70 26 -92 26 -99h4c1 8 14 37 49 99l164 293h50c-21 -36 -42 -73 -62 -109l-256 -454c-18 -32 -42 -75 -52 -92h-50s45 75 64 110l60 107l-105 329c-11 32 -31 92 -37 109zM160 516l-39 6c13 44 64 76 108 69l87 -13
c24 -4 51 12 58 35l39 -6c-13 -44 -64 -76 -108 -69l-86 13c-25 4 -52 -12 -59 -35z" />
    <glyph glyph-name="endash" unicode="&#x2013;" horiz-adv-x="1110" 
d="M320 348h470c35 0 101 1 120 1v-46c-19 0 -85 1 -120 1h-470c-35 0 -101 -1 -120 -1v46c19 0 85 -1 120 -1z" />
    <glyph glyph-name="emdash" unicode="&#x2014;" horiz-adv-x="1350" 
d="M320 348h710c35 0 101 1 120 1v-46c-19 0 -85 1 -120 1h-710c-35 0 -101 -1 -120 -1v46c19 0 85 -1 120 -1z" />
    <glyph glyph-name="quoteleft" unicode="&#x2018;" horiz-adv-x="252" 
d="M197 743l-6 -52h-52l5 44c4 30 25 50 38 65l19 -14c-7 -8 -23 -24 -24 -37l-1 -6h21z" />
    <glyph glyph-name="quoteright" unicode="&#x2019;" horiz-adv-x="252" 
d="M145 743l7 52h52l-6 -44c-3 -30 -25 -50 -38 -65l-19 14c7 8 23 24 25 37v6h-21z" />
    <glyph glyph-name="quotesinglbase" unicode="&#x201a;" horiz-adv-x="252" 
d="M100 0l6 52h52l-5 -44c-4 -30 -26 -50 -38 -65l-20 14c7 8 23 24 25 37l1 6h-21z" />
    <glyph glyph-name="quotedblleft" unicode="&#x201c;" horiz-adv-x="535" 
d="M478 694l-137 -229l-37 22l153 219zM323 709l-145 -224l-37 23l162 214z" />
    <glyph glyph-name="quotedblright" unicode="&#x201d;" horiz-adv-x="535" 
d="M234 465l-81 229l25 12l99 -219zM403 485l-91 224l24 13l108 -214z" />
    <glyph glyph-name="quotedblbase" unicode="&#x201e;" horiz-adv-x="535" 
d="M197 -135l-81 229l25 12l99 -219zM366 -115l-91 224l24 13l109 -214z" />
    <glyph glyph-name="dagger" unicode="&#x2020;" horiz-adv-x="585" 
d="M289 460l27 215c4 35 11 101 13 120h47c-2 -19 -11 -85 -15 -120l-27 -215h85c35 0 101 1 120 1l-5 -47c-19 0 -85 1 -120 1h-85l-63 -515c-5 -35 -12 -101 -14 -120h-47c2 19 11 85 16 120l63 515h-85c-35 0 -101 -1 -120 -1l5 47c19 0 85 -1 120 -1h85z" />
    <glyph glyph-name="daggerdbl" unicode="&#x2021;" horiz-adv-x="585" 
d="M289 460l27 215c4 35 11 101 13 120h47c-2 -19 -11 -85 -15 -120l-27 -215h85c35 0 101 1 120 1l-5 -47c-19 0 -85 1 -120 1h-85l-31 -255h85c35 0 101 1 120 1l-6 -47c-19 0 -85 1 -120 1h-85l-26 -215c-5 -35 -12 -101 -14 -120h-47c2 19 11 85 16 120l26 215h-85
c-35 0 -101 -1 -120 -1l6 47c19 0 85 -1 120 -1h85l31 255h-85c-35 0 -101 -1 -120 -1l5 47c19 0 85 -1 120 -1h85z" />
    <glyph glyph-name="bullet" unicode="&#x2022;" horiz-adv-x="460" 
d="M240 380c51 0 88 -39 88 -89c0 -60 -55 -111 -113 -111c-51 0 -88 38 -88 87c0 61 53 113 113 113z" />
    <glyph glyph-name="ellipsis" unicode="&#x2026;" horiz-adv-x="570" 
d="M85 58c18 0 31 -14 31 -32c0 -20 -19 -38 -39 -38c-18 0 -31 14 -31 31c0 21 19 39 39 39zM275 58c18 0 31 -14 31 -32c0 -20 -19 -38 -39 -38c-18 0 -31 14 -31 31c0 21 19 39 39 39zM465 58c18 0 31 -14 31 -32c0 -20 -19 -38 -39 -38c-18 0 -31 14 -31 31
c0 21 19 39 39 39z" />
    <glyph glyph-name="perthousand" unicode="&#x2030;" horiz-adv-x="796" 
d="M231 730c63 0 110 -48 110 -109c0 -76 -66 -141 -141 -141c-64 0 -111 48 -111 110c0 76 69 140 142 140zM226 690c-49 0 -95 -43 -95 -95c0 -42 31 -75 74 -75c50 0 94 44 94 96c0 42 -31 74 -73 74zM338 220c64 0 111 -48 111 -110c0 -76 -69 -140 -142 -140
c-64 0 -110 47 -110 109c0 76 66 141 141 141zM333 180c-50 0 -94 -44 -94 -96c0 -42 31 -74 73 -74c48 0 94 43 94 94c0 43 -30 76 -73 76zM638 220c64 0 111 -48 111 -110c0 -76 -69 -140 -142 -140c-64 0 -110 47 -110 109c0 76 66 141 141 141zM633 180
c-50 0 -94 -44 -94 -96c0 -42 31 -74 73 -74c48 0 94 43 94 94c0 43 -30 76 -73 76zM488 625l-401 -572c-21 -31 -62 -88 -72 -104l-37 23c12 15 51 73 72 103l401 572c21 30 61 88 72 104l38 -23c-13 -16 -52 -74 -73 -103z" />
    <glyph glyph-name="guilsinglleft" unicode="&#x2039;" horiz-adv-x="330" 
d="M62 206l109 128c24 28 69 82 82 97l33 -27c-12 -17 -62 -71 -83 -96l-86 -102l56 -94c20 -31 60 -96 60 -96l-41 -27c-9 15 -40 69 -58 97z" />
    <glyph glyph-name="guilsinglright" unicode="&#x203a;" horiz-adv-x="330" 
d="M262 206l-102 -120c-24 -28 -69 -82 -82 -97l-33 27s56 65 82 96l80 94l-62 102c-15 25 -51 79 -59 96l41 27c9 -15 40 -69 58 -97z" />
    <glyph glyph-name="zerosuperior" unicode="&#x2070;" horiz-adv-x="300" 
d="M207 766c72 0 118 -65 118 -151c0 -113 -75 -211 -163 -211c-73 0 -117 65 -117 150c0 113 73 212 162 212zM202 728c-66 0 -117 -80 -117 -172c0 -65 30 -114 82 -114c64 0 118 79 118 169c0 67 -31 117 -83 117z" />
    <glyph glyph-name="foursuperior" unicode="&#x2074;" horiz-adv-x="300" 
d="M35 469l254 302l-32 -264c18 0 34 1 42 1l-5 -40c-8 0 -24 1 -42 1l-1 -9c-2 -18 -4 -41 -5 -50h-42c1 9 5 32 7 50l1 9h-177zM117 507h100l17 139z" />
    <glyph glyph-name="fivesuperior" unicode="&#x2075;" horiz-adv-x="300" 
d="M269 722h-63l-22 -47c-6 -12 -13 -19 -18 -22l1 -2c4 2 13 6 22 6c67 0 117 -49 117 -111c0 -77 -67 -142 -153 -142c-58 0 -96 32 -117 77l39 18c14 -33 40 -57 82 -57c61 0 109 46 109 99c0 43 -34 77 -84 77c-20 0 -52 -6 -78 -22l78 164h91c17 0 50 1 60 1l-4 -40
c-10 0 -43 1 -60 1z" />
    <glyph glyph-name="sixsuperior" unicode="&#x2076;" horiz-adv-x="300" 
d="M195 658c69 0 120 -49 120 -112c0 -77 -70 -142 -151 -142c-70 0 -121 49 -121 113c0 29 11 53 27 76l85 123c10 14 30 44 30 44h47c-1 0 -32 -46 -43 -63l-18 -26c-6 -9 -11 -15 -17 -19l1 -2c7 3 21 8 40 8zM190 619c-56 0 -107 -44 -107 -98c0 -44 37 -79 85 -79
c55 0 106 45 106 99c0 44 -36 78 -84 78z" />
    <glyph glyph-name="sevensuperior" unicode="&#x2077;" horiz-adv-x="300" 
d="M136 760h221l-261 -311c-16 -19 -37 -43 -46 -54l-30 21c15 17 29 36 45 55l195 232c6 7 13 14 20 21v1c-8 -2 -20 -3 -29 -3h-120c-17 0 -50 -1 -60 -1l5 40c10 0 43 -1 60 -1z" />
    <glyph glyph-name="eightsuperior" unicode="&#x2078;" horiz-adv-x="300" 
d="M207 766c58 0 95 -38 95 -88c0 -40 -24 -73 -54 -89c25 -15 40 -43 40 -73c0 -61 -59 -112 -126 -112c-59 0 -100 39 -100 89c0 38 24 77 60 96c-21 13 -35 36 -35 65c0 61 52 112 120 112zM183 569c-45 0 -81 -34 -81 -72c0 -31 27 -55 65 -55c43 0 80 32 80 70
c0 31 -26 57 -64 57zM202 728c-41 0 -75 -31 -75 -68c0 -30 24 -53 60 -53c42 0 75 31 75 67c0 30 -24 54 -60 54z" />
    <glyph glyph-name="ninesuperior" unicode="&#x2079;" horiz-adv-x="300" 
d="M176 511c-68 0 -118 49 -118 113c0 77 72 142 149 142c67 0 117 -49 117 -112c0 -32 -12 -63 -32 -87l-123 -148c-4 -6 -9 -12 -14 -19l-34 22c4 5 11 12 16 18l40 48c10 12 17 21 27 28l-1 1c-4 -3 -14 -6 -27 -6zM99 638c-1 -4 -1 -7 -1 -11c0 -44 35 -77 82 -77
c53 0 103 45 103 99c0 44 -35 79 -81 79c-51 0 -97 -40 -103 -90z" />
    <glyph glyph-name="zeroinferior" unicode="&#x2080;" horiz-adv-x="300" 
d="M145 266c72 0 118 -65 118 -151c0 -113 -75 -211 -163 -211c-73 0 -117 65 -117 150c0 113 73 212 162 212zM140 228c-66 0 -117 -80 -117 -172c0 -65 30 -114 82 -114c64 0 118 79 118 169c0 67 -31 117 -83 117z" />
    <glyph glyph-name="oneinferior" unicode="&#x2081;" horiz-adv-x="300" 
d="M73 222l23 38h72l-36 -290c-2 -18 -5 -51 -6 -60h-42c1 9 6 42 8 60l31 252h-50z" />
    <glyph glyph-name="twoinferior" unicode="&#x2082;" horiz-adv-x="300" 
d="M162 -90h-192l208 189c21 19 33 41 33 64c0 36 -29 65 -69 65s-77 -29 -91 -78l-39 5c19 70 74 111 134 111c61 0 106 -44 106 -99c0 -36 -18 -67 -46 -92l-116 -105c-12 -11 -21 -18 -30 -22l1 -2c7 1 20 2 34 2h71c17 0 50 1 60 1l-4 -40c-10 0 -43 1 -60 1z" />
    <glyph glyph-name="threeinferior" unicode="&#x2083;" horiz-adv-x="300" 
d="M71 167h-41c10 55 61 99 115 99c53 0 91 -37 91 -86c0 -37 -20 -69 -50 -85c27 -12 43 -41 43 -74c0 -63 -58 -117 -125 -117c-57 0 -99 44 -99 101h41c1 -36 28 -63 63 -63c41 0 79 33 79 72c0 34 -27 60 -63 60h-13l5 38c43 0 79 29 79 64c0 30 -24 52 -56 52
s-62 -28 -69 -61z" />
    <glyph glyph-name="fourinferior" unicode="&#x2084;" horiz-adv-x="300" 
d="M-27 -31l254 302l-32 -264c18 0 34 1 42 1l-5 -40c-8 0 -24 1 -42 1l-1 -9c-2 -18 -4 -41 -5 -50h-42c1 9 5 32 7 50l1 9h-177zM55 7h100l17 139z" />
    <glyph glyph-name="fiveinferior" unicode="&#x2085;" horiz-adv-x="300" 
d="M207 222h-63l-22 -47c-6 -12 -13 -19 -18 -22l1 -2c4 2 13 6 22 6c67 0 117 -49 117 -111c0 -77 -67 -142 -153 -142c-58 0 -96 32 -117 77l39 18c14 -33 40 -57 82 -57c61 0 109 46 109 99c0 43 -34 77 -84 77c-20 0 -52 -6 -78 -22l78 164h91c17 0 50 1 60 1l-4 -40
c-10 0 -43 1 -60 1z" />
    <glyph glyph-name="sixinferior" unicode="&#x2086;" horiz-adv-x="300" 
d="M133 158c69 0 120 -49 120 -112c0 -77 -70 -142 -151 -142c-70 0 -121 49 -121 113c0 29 11 53 27 76l85 123c10 14 30 44 30 44h47c-1 0 -32 -46 -43 -63l-18 -26c-6 -9 -11 -15 -17 -19l1 -2c7 3 21 8 40 8zM128 119c-56 0 -107 -44 -107 -98c0 -44 37 -79 85 -79
c55 0 106 45 106 99c0 44 -36 78 -84 78z" />
    <glyph glyph-name="seveninferior" unicode="&#x2087;" horiz-adv-x="300" 
d="M74 260h221l-261 -311c-16 -19 -37 -43 -46 -54l-30 21c15 17 29 36 45 55l195 232c6 7 13 14 20 21v1c-8 -2 -20 -3 -29 -3h-120c-17 0 -50 -1 -60 -1l5 40c10 0 43 -1 60 -1z" />
    <glyph glyph-name="eightinferior" unicode="&#x2088;" horiz-adv-x="300" 
d="M145 266c58 0 95 -38 95 -88c0 -40 -24 -73 -54 -89c25 -15 40 -43 40 -73c0 -61 -59 -112 -126 -112c-59 0 -100 39 -100 89c0 38 24 77 60 96c-21 13 -35 36 -35 65c0 61 52 112 120 112zM121 69c-45 0 -81 -34 -81 -72c0 -31 27 -55 65 -55c43 0 80 32 80 70
c0 31 -26 57 -64 57zM140 228c-41 0 -75 -31 -75 -68c0 -30 24 -53 60 -53c42 0 75 31 75 67c0 30 -24 54 -60 54z" />
    <glyph glyph-name="nineinferior" unicode="&#x2089;" horiz-adv-x="300" 
d="M114 11c-68 0 -118 49 -118 113c0 77 72 142 149 142c67 0 117 -49 117 -112c0 -32 -12 -63 -32 -87l-123 -148c-4 -6 -9 -12 -14 -19l-34 22c4 5 11 12 16 18l40 48c10 12 17 21 27 28l-1 1c-4 -3 -14 -6 -27 -6zM37 138c-1 -4 -1 -7 -1 -11c0 -44 35 -77 82 -77
c53 0 103 45 103 99c0 44 -35 79 -81 79c-51 0 -97 -40 -103 -90z" />
    <glyph glyph-name="lira" unicode="&#x20a4;" horiz-adv-x="535" 
d="M176 430h56c35 0 101 1 120 1l-6 -46c-19 0 -84 1 -119 1h-51c8 -31 14 -62 15 -96h24c35 0 101 1 120 1l-6 -46c-19 0 -85 1 -120 1h-21c-8 -54 -41 -148 -88 -183l2 -3c5 2 27 10 54 10c85 0 118 -38 176 -38c48 0 87 20 107 31l17 -38c-24 -13 -70 -37 -129 -37
c-68 0 -100 38 -177 38c-51 0 -80 -13 -132 -41l-17 38c76 42 131 144 142 223c-37 0 -93 -1 -110 -1l6 46c17 0 70 -1 106 -1c-1 33 -8 64 -16 96c-33 -1 -66 -1 -79 -1l6 46c10 0 35 -1 61 -1c-5 23 -9 47 -9 72c0 148 121 210 213 210c117 0 164 -66 169 -148l-46 -8
c-3 62 -39 112 -129 112c-72 0 -162 -47 -162 -161c0 -25 5 -51 12 -77h11z" />
    <glyph glyph-name="Euro" unicode="&#x20ac;" horiz-adv-x="755" 
d="M138 320h178c35 0 101 1 120 1l-48 -46c-19 0 -85 1 -120 1h-128c16 -145 132 -252 286 -252c87 0 170 37 234 96l29 -32c-73 -67 -169 -108 -268 -108c-179 0 -313 127 -327 296c-28 -1 -55 -1 -67 -1l5 46c11 0 35 -1 61 -1l3 30c3 22 7 44 14 66c-28 -1 -55 -1 -66 -1
l6 46c13 0 45 -1 76 -1c66 150 219 260 385 260c98 0 182 -41 238 -108l-36 -34c-49 59 -120 98 -207 98c-141 0 -272 -90 -333 -216h293c35 0 102 1 121 1l-48 -46c-19 0 -85 1 -120 1h-264c-7 -22 -11 -44 -14 -66z" />
    <glyph glyph-name="trademark" unicode="&#x2122;" horiz-adv-x="650" 
d="M420 337l-90 239c-7 18 -11 39 -13 49l-2 -1c1 -5 -2 -27 -7 -46l-38 -170c-5 -19 -9 -39 -14 -58h-31c6 20 12 41 16 61l71 306l101 -274c10 -27 13 -46 13 -51h2c1 6 10 27 24 51l165 274l-1 -308c-1 -19 0 -38 -1 -59h-31c1 18 1 37 1 57l1 160c0 24 2 49 4 55h-2
c-3 -6 -10 -25 -23 -47zM263 701l-4 -32c-9 0 -42 1 -60 1h-28l-32 -260c-2 -18 -5 -51 -7 -60h-34c2 9 7 42 9 60l32 260h-28c-18 0 -51 -1 -60 -1l4 32c9 0 41 -1 59 -1h88c18 0 52 1 61 1z" />
    <glyph glyph-name="Ohm" unicode="&#x2126;" horiz-adv-x="810" 
d="M453 676c-191 0 -367 -165 -367 -359c0 -134 85 -239 204 -272l-5 -45h-160c-35 0 -102 -1 -121 -1l6 46c23 0 54 -1 78 -1c41 0 89 -1 103 -6l2 4c-15 5 -50 34 -72 57c-50 51 -81 128 -81 214c0 219 201 407 418 407c189 0 328 -140 328 -321
c0 -117 -60 -232 -143 -300c-28 -23 -71 -52 -86 -57v-4c19 5 60 6 103 6c26 0 55 1 80 1l-6 -46c-19 0 -84 1 -119 1h-160l5 45c150 39 280 181 280 349c0 159 -122 282 -287 282z" />
    <glyph glyph-name="uni2206" unicode="&#x2206;" horiz-adv-x="637" 
d="M579 0h-612s34 66 59 112l330 626l189 -627c11 -35 34 -111 34 -111zM347 634h-4c-2 -12 -11 -34 -33 -77l-258 -489c-7 -13 -17 -24 -21 -26l2 -4c2 2 18 6 36 6h417c19 0 31 -4 34 -6l2 4c-2 2 -8 11 -12 26l-147 489c-13 43 -16 65 -16 77z" />
    <glyph glyph-name="minus" unicode="&#x2212;" horiz-adv-x="536" 
d="M190 390h156c35 0 101 1 120 1v-46c-19 0 -85 1 -120 1h-156c-35 0 -101 -1 -120 -1v46c19 0 85 -1 120 -1z" />
    <glyph glyph-name="infinity" unicode="&#x221e;" horiz-adv-x="902" 
d="M240 531c92 0 145 -69 194 -148c52 86 113 168 216 168c100 0 182 -94 182 -211s-82 -211 -182 -211c-103 0 -164 81 -216 168c-49 -79 -102 -148 -194 -148c-95 0 -172 85 -172 191s77 191 172 191zM650 508c-87 0 -139 -84 -190 -168c51 -85 103 -168 190 -168
c76 0 138 75 138 168s-62 168 -138 168zM240 488c-71 0 -128 -66 -128 -148s57 -148 128 -148c73 0 123 72 169 148c-46 76 -96 148 -169 148z" />
    <glyph glyph-name="uni261A" unicode="&#x261a;" horiz-adv-x="1130" 
d="M867 493l153 11l38 -70l-43 -28l63 -100c-6 -8 -13 -18 -23 -27l40 -163c0 -3 -1 -6 -6 -5l-148 15l-38 73l-30 -4l-41 82l-16 -1c-47 -43 -98 -77 -152 -77c-43 0 -95 18 -148 18c-59 0 -125 -27 -187 -27c-43 0 -68 12 -86 28l-9 8c-4 4 -3 7 0 9s9 3 13 11
c18 37 61 43 111 45c38 2 71 0 98 -1c34 24 85 48 108 48c4 0 6 1 6 3c0 1 -2 3 -7 4c-32 7 -67 -12 -95 -39c-54 0 -109 -4 -169 -15l-15 25c-5 8 -2 16 3 21l37 42l34 1c7 0 10 -2 13 -4c13 -11 21 -23 29 -35l-15 -25c-3 -5 0 -8 6 -3l19 16c11 -5 21 -10 35 -14
c7 -2 7 2 3 6l-39 33c1 2 -4 7 4 5l43 -4c4 -8 11 -15 21 -23c8 -7 11 -6 6 3c-11 18 -21 39 -29 60c-6 15 -7 10 -7 -2c0 -9 0 -16 3 -24c2 -6 0 -5 -5 -4c-31 6 -60 16 -87 28c-35 -8 -94 -15 -121 -15c-21 0 -39 5 -60 5h-42c-43 0 -73 23 -87 46c-3 5 -4 7 -7 10
c-3 2 -9 2 -12 4c-4 3 0 6 5 7c24 4 47 4 72 5c12 0 12 -3 6 -9l-7 -7c-5 -5 0 -6 8 -3c12 4 22 12 29 20c52 5 101 12 148 20c21 -1 42 -2 63 -2c54 0 92 21 130 21c79 0 156 -39 297 -43l14 18l70 8zM888 455l-68 7c43 -83 63 -166 60 -251l61 -4c3 82 -8 164 -53 248z
M545 205c8 0 17 -1 25 -3c3 -1 6 -2 6 -7c0 -13 -10 -19 -22 -22c-2 -1 -4 0 -5 1c-2 4 -3 16 -6 24c-1 3 -4 7 2 7zM497 204l29 1c7 0 7 -7 8 -13c3 -15 -7 -34 -23 -34c-3 0 -5 0 -5 5c0 12 -5 23 -11 34c-3 5 -3 7 2 7zM485 197c7 -17 9 -33 4 -50c-1 -2 -2 -6 -7 -5
c-12 2 -75 21 -100 43c-4 4 -2 4 4 5c33 3 63 5 91 12c3 1 6 0 8 -5zM301 259c-5 0 -10 -1 -10 -3c0 -1 2 -2 6 -2c22 0 46 -15 46 -32c0 -7 -5 -13 -17 -19c-2 -1 -5 -8 4 -5c17 6 25 20 25 31c0 18 -13 30 -54 30z" />
    <glyph glyph-name="uni261B" unicode="&#x261b;" horiz-adv-x="1130" 
d="M110 504l153 -11l3 -15l70 -8l14 -18c141 4 218 43 297 43c38 0 76 -21 130 -21c21 0 42 1 63 2c47 -8 96 -15 148 -20c7 -8 17 -16 29 -20c8 -3 13 -2 8 3l-7 7c-6 6 -6 9 6 9c25 -1 48 -1 72 -5c5 -1 9 -4 5 -7c-3 -2 -9 -2 -12 -4c-3 -3 -4 -5 -7 -10
c-14 -23 -44 -46 -87 -46h-42c-21 0 -39 -5 -60 -5c-27 0 -86 7 -121 15c-27 -12 -56 -22 -87 -28c-5 -1 -7 -2 -5 4c3 8 3 15 3 24c0 12 -1 17 -7 2c-8 -21 -18 -42 -29 -60c-5 -9 -2 -10 6 -3c10 8 17 15 21 23l43 4c8 2 3 -3 4 -5l-39 -33c-4 -4 -4 -8 3 -6
c14 4 24 9 35 14l19 -16c6 -5 9 -2 6 3l-15 25c8 12 16 24 29 35c3 2 6 4 13 4l34 -1l37 -42c5 -5 8 -13 3 -21l-15 -25c-60 11 -115 15 -169 15c-28 27 -63 46 -95 39c-5 -1 -7 -3 -7 -4c0 -2 2 -3 6 -3c23 0 74 -24 108 -48c27 1 60 3 98 1c50 -2 93 -8 111 -45
c4 -8 10 -9 13 -11s4 -5 0 -9l-9 -8c-18 -16 -43 -28 -86 -28c-62 0 -128 27 -187 27c-53 0 -105 -18 -148 -18c-54 0 -105 34 -152 77l-16 1l-41 -82l-30 4l-38 -73l-148 -15c-5 -1 -6 2 -6 5l40 163c-10 9 -17 19 -23 27l63 100l-43 28zM310 462l-68 -7
c-45 -84 -56 -166 -53 -248l61 4c-3 85 17 168 60 251zM585 205c6 0 3 -4 2 -7c-3 -8 -4 -20 -6 -24c-1 -1 -3 -2 -5 -1c-12 3 -22 9 -22 22c0 5 3 6 6 7c8 2 17 3 25 3zM604 205l29 -1c5 0 5 -2 2 -7c-6 -11 -11 -22 -11 -34c0 -5 -2 -5 -5 -5c-16 0 -26 19 -23 34
c1 6 1 13 8 13zM645 197c2 5 5 6 8 5c28 -7 58 -9 91 -12c6 -1 8 -1 4 -5c-25 -22 -88 -41 -100 -43c-5 -1 -6 3 -7 5c-5 17 -3 33 4 50zM829 259c-41 0 -54 -12 -54 -30c0 -11 8 -25 25 -31c9 -3 6 4 4 5c-12 6 -17 12 -17 19c0 17 24 32 46 32c4 0 6 1 6 2c0 2 -5 3 -10 3
z" />
    <glyph glyph-name="uni261C" unicode="&#x261c;" horiz-adv-x="1130" 
d="M538 495c78 0 195 -49 297 -68l9 33h34c2 5 0 19 4 19c24 3 50 4 76 4c13 0 58 0 74 -3c4 -1 4 -3 4 -4c0 -3 -4 -4 -6 -4c-23 0 -98 -17 -115 -21c38 -78 55 -156 55 -235c0 -19 0 -39 -3 -58c37 -8 94 -15 118 -17c2 0 5 -2 5 -4c0 -1 0 -3 -4 -4
c-23 -4 -98 -8 -116 -8c-15 21 -27 42 -38 63l-42 5l-41 67c-60 -19 -107 -64 -169 -64c-26 0 -44 6 -66 8c0 -2 1 -4 1 -5c0 -12 -7 -16 -23 -16c-5 0 -11 0 -18 2c1 -5 4 -10 4 -14c0 -1 0 -4 -3 -4c-14 0 -32 7 -45 12c1 -5 1 -9 1 -14c0 -1 -1 -3 -3 -3
c-47 1 -107 20 -123 34c-55 1 -117 11 -142 31c-2 2 -3 5 -2 9c15 36 39 50 71 60c-8 6 -13 16 -13 28c0 17 16 38 30 54c-47 0 -88 7 -124 11c-29 2 -53 2 -75 7c-36 8 -59 24 -69 51c0 1 -10 2 -10 6c0 1 0 4 4 4c20 3 71 4 90 4c9 0 25 5 35 5s19 -1 30 0
c10 2 68 9 108 9c24 0 41 -2 77 -2c18 0 53 5 73 11c22 6 39 11 50 11zM892 207l40 -3c4 22 6 46 6 69c0 52 -13 113 -36 169c-16 2 -31 2 -45 0c31 -52 39 -109 39 -172c0 -20 -2 -42 -4 -63zM404 402c29 -14 58 -24 84 -31c2 10 -1 18 -3 25c-1 2 3 4 5 2
c19 -20 31 -44 43 -66c21 9 40 13 63 13c5 0 10 -1 10 -4c0 -4 -9 -5 -20 -9c-29 -9 -76 -30 -93 -40c-61 -1 -104 -1 -143 -9c-33 -7 -61 -20 -80 -46c11 -11 47 -19 76 -19c15 0 35 1 35 11c0 9 -11 19 -24 24c-3 1 -7 5 -7 7s5 2 8 2c16 0 34 -14 34 -31
c0 -6 -8 -15 -16 -21c7 -1 14 -1 21 -1c42 0 82 14 124 23c46 -6 90 -18 137 -18c84 0 137 54 205 63c6 21 7 43 7 62c0 23 -2 46 -8 72c-66 5 -139 22 -196 37c-45 12 -114 30 -137 30c-36 0 -76 -19 -108 -19c-11 0 -59 3 -83 3c-44 0 -83 -7 -125 -7c-6 0 -20 -1 -27 -1
c-14 -1 -13 -3 -17 -7c-3 -5 -7 -11 -15 -15c-2 -1 -4 0 -4 2c0 5 5 9 5 14c0 1 0 2 -2 2c-20 -1 -38 -2 -58 -3c19 -30 57 -42 102 -42c7 0 14 1 20 2c36 -5 81 -11 131 -11c23 0 42 2 56 6zM528 203c0 -9 14 -17 31 -18c4 0 6 2 6 5c0 11 -7 18 -23 18c-4 0 -14 1 -14 -5z
M457 186c12 -3 38 -7 58 -7c4 0 5 2 5 8c0 14 -16 20 -31 20c-19 0 -34 -13 -34 -19c0 -1 1 -2 2 -2zM488 359c-11 1 -24 2 -36 2c-3 0 -3 -1 -2 -4c5 -7 16 -17 28 -26c12 -10 22 -16 29 -16c3 0 6 1 7 9c-1 8 -9 21 -15 29c-2 3 -7 6 -11 6zM436 305l38 3c4 0 4 2 3 3
c-6 8 -15 13 -25 13c-8 0 -16 -4 -18 -14c0 -2 0 -5 2 -5zM425 323l10 11c-3 16 -20 41 -39 41c-14 0 -27 1 -34 -7c-14 -15 -26 -33 -26 -43c0 -8 4 -17 11 -26c9 3 20 4 32 5c11 1 29 0 37 1c3 0 4 5 4 6c-8 8 -22 14 -30 14c-3 0 -5 1 -5 3c0 3 5 5 12 5
c10 0 21 -5 28 -10z" />
    <glyph glyph-name="uni261D" unicode="&#x261d;" horiz-adv-x="520" 
d="M434 352c0 -78 -49 -195 -68 -297l33 -9v-34c5 -2 19 0 19 -4c3 -24 4 -50 4 -76c0 -13 0 -58 -3 -74c-1 -4 -3 -4 -4 -4c-3 0 -4 4 -4 6c0 23 -17 98 -21 115c-78 -38 -156 -55 -235 -55c-19 0 -39 0 -58 3c-8 -37 -15 -94 -17 -118c0 -2 -2 -5 -4 -5c-1 0 -3 0 -4 4
c-4 23 -8 98 -8 116c21 15 42 27 63 38l5 42l67 41c-19 60 -64 107 -64 169c0 26 6 44 8 66c-2 0 -4 -1 -5 -1c-12 0 -16 7 -16 23c0 5 0 11 2 18c-5 -1 -10 -4 -14 -4c-1 0 -4 0 -4 3c0 14 7 32 12 45c-5 -1 -9 -1 -14 -1c-1 0 -3 1 -3 3c1 47 20 107 34 123
c1 55 11 117 31 142c2 2 5 3 9 2c36 -15 50 -39 60 -71c6 8 16 13 28 13c17 0 38 -16 54 -30c0 47 7 88 11 124c2 29 2 53 7 75c8 36 24 59 51 69c1 0 2 10 6 10c1 0 4 0 4 -4c3 -20 4 -71 4 -90c0 -9 5 -25 5 -35s-1 -19 0 -30c2 -10 9 -68 9 -108c0 -24 -2 -41 -2 -77
c0 -18 5 -53 11 -73c6 -22 11 -39 11 -50zM146 -2l-3 -40c22 -4 46 -6 69 -6c52 0 113 13 169 36c2 16 2 31 0 45c-52 -31 -109 -39 -172 -39c-20 0 -42 2 -63 4zM341 486c-14 -29 -24 -58 -31 -84c10 -2 18 1 25 3c2 1 4 -3 2 -5c-20 -19 -44 -31 -66 -43
c9 -21 13 -40 13 -63c0 -5 -1 -10 -4 -10c-4 0 -5 9 -9 20c-9 29 -30 76 -40 93c-1 61 -1 104 -9 143c-7 33 -20 61 -46 80c-11 -11 -19 -47 -19 -76c0 -15 1 -35 11 -35c9 0 19 11 24 24c1 3 5 7 7 7s2 -5 2 -8c0 -16 -14 -34 -31 -34c-6 0 -15 8 -21 16
c-1 -7 -1 -14 -1 -21c0 -42 14 -82 23 -124c-6 -46 -18 -90 -18 -137c0 -84 54 -137 63 -205c21 -6 43 -7 62 -7c23 0 46 2 72 8c5 66 22 139 37 196c12 45 30 114 30 137c0 36 -19 76 -19 108c0 11 3 59 3 83c0 44 -7 83 -7 125c0 6 -1 20 -1 27c-1 14 -3 13 -7 17
c-5 3 -11 7 -15 15c-1 2 0 4 2 4c5 0 9 -5 14 -5c1 0 2 0 2 2c-1 20 -2 38 -3 58c-30 -19 -42 -57 -42 -102c0 -7 1 -14 2 -20c-5 -36 -11 -81 -11 -131c0 -23 2 -42 6 -56zM142 362c-9 0 -17 -14 -18 -31c0 -4 2 -6 5 -6c11 0 18 7 18 23c0 4 1 14 -5 14zM125 433
c-3 -12 -7 -38 -7 -58c0 -4 2 -5 8 -5c14 0 20 16 20 31c0 19 -13 34 -19 34c-1 0 -2 -1 -2 -2zM298 402c1 11 2 24 2 36c0 3 -1 3 -4 2c-7 -5 -17 -16 -26 -28c-10 -12 -16 -22 -16 -29c0 -3 1 -6 9 -7c8 1 21 9 29 15c3 2 6 7 6 11zM244 454l3 -38c0 -4 2 -4 3 -3
c8 6 13 15 13 25c0 8 -4 16 -14 18c-2 0 -5 0 -5 -2zM262 465l11 -10c16 3 41 20 41 39c0 14 1 27 -7 34c-15 14 -33 26 -43 26c-8 0 -17 -4 -26 -11c3 -9 4 -20 5 -32c1 -11 0 -29 1 -37c0 -3 5 -4 6 -4c8 8 14 22 14 30c0 3 1 5 3 5c3 0 5 -5 5 -12c0 -10 -5 -21 -10 -28z
" />
    <glyph glyph-name="uni261E" unicode="&#x261e;" horiz-adv-x="1130" 
d="M592 495c11 0 28 -5 50 -11c20 -6 55 -11 73 -11c36 0 53 2 77 2c40 0 98 -7 108 -9c11 -1 20 0 30 0s26 -5 35 -5c19 0 70 -1 90 -4c4 0 4 -3 4 -4c0 -4 -10 -5 -10 -6c-10 -27 -33 -43 -69 -51c-22 -5 -46 -5 -75 -7c-36 -4 -77 -11 -124 -11c14 -16 30 -37 30 -54
c0 -12 -5 -22 -13 -28c32 -10 56 -24 71 -60c1 -4 0 -7 -2 -9c-25 -20 -87 -30 -142 -31c-16 -14 -76 -33 -123 -34c-2 0 -3 2 -3 3c0 5 0 9 1 14c-13 -5 -31 -12 -45 -12c-3 0 -3 3 -3 4c0 4 3 9 4 14c-7 -2 -13 -2 -18 -2c-16 0 -23 4 -23 16c0 1 1 3 1 5
c-22 -2 -40 -8 -66 -8c-62 0 -109 45 -169 64l-41 -67l-42 -5c-11 -21 -23 -42 -38 -63c-18 0 -93 4 -116 8c-4 1 -4 3 -4 4c0 2 3 4 5 4c24 2 81 9 118 17c-3 19 -3 39 -3 58c0 79 17 157 55 235c-17 4 -92 21 -115 21c-2 0 -6 1 -6 4c0 1 0 3 4 4c16 3 61 3 74 3
c26 0 52 -1 76 -4c4 0 2 -14 4 -19h34l9 -33c102 19 219 68 297 68zM198 204l40 3c-2 21 -4 43 -4 63c0 63 8 120 39 172c-14 2 -29 2 -45 0c-23 -56 -36 -117 -36 -169c0 -23 2 -47 6 -69zM726 402c14 -4 33 -6 56 -6c50 0 95 6 131 11c6 -1 13 -2 20 -2c45 0 83 12 102 42
c-20 1 -38 2 -58 3c-2 0 -2 -1 -2 -2c0 -5 5 -9 5 -14c0 -2 -2 -3 -4 -2c-8 4 -12 10 -15 15c-4 4 -3 6 -17 7c-7 0 -21 1 -27 1c-42 0 -81 7 -125 7c-24 0 -72 -3 -83 -3c-32 0 -72 19 -108 19c-23 0 -92 -18 -137 -30c-57 -15 -130 -32 -196 -37c-6 -26 -8 -49 -8 -72
c0 -19 1 -41 7 -62c68 -9 121 -63 205 -63c47 0 91 12 137 18c42 -9 82 -23 124 -23c7 0 14 0 21 1c-8 6 -16 15 -16 21c0 17 18 31 34 31c3 0 8 0 8 -2s-4 -6 -7 -7c-13 -5 -24 -15 -24 -24c0 -10 20 -11 35 -11c29 0 65 8 76 19c-19 26 -47 39 -80 46c-39 8 -82 8 -143 9
c-17 10 -64 31 -93 40c-11 4 -20 5 -20 9c0 3 5 4 10 4c23 0 42 -4 63 -13c12 22 24 46 43 66c2 2 6 0 5 -2c-2 -7 -5 -15 -3 -25c26 7 55 17 84 31zM602 203c0 6 -10 5 -14 5c-16 0 -23 -7 -23 -18c0 -3 2 -5 6 -5c17 1 31 9 31 18zM673 186c1 0 2 1 2 2c0 6 -15 19 -34 19
c-15 0 -31 -6 -31 -20c0 -6 1 -8 5 -8c20 0 46 4 58 7zM642 359c-4 0 -9 -3 -11 -6c-6 -8 -14 -21 -15 -29c1 -8 4 -9 7 -9c7 0 17 6 29 16c12 9 23 19 28 26c1 3 1 4 -2 4c-12 0 -25 -1 -36 -2zM656 308l38 -3c2 0 2 3 2 5c-2 10 -10 14 -18 14c-10 0 -19 -5 -25 -13
c-1 -1 -1 -3 3 -3zM695 334l10 -11c7 5 18 10 28 10c7 0 12 -2 12 -5c0 -2 -2 -3 -5 -3c-8 0 -22 -6 -30 -14c0 -1 1 -6 4 -6c8 -1 26 0 37 -1c12 -1 23 -2 32 -5c7 9 11 18 11 26c0 10 -12 28 -26 43c-7 8 -20 7 -34 7c-19 0 -36 -25 -39 -41z" />
    <glyph glyph-name="uni261F" unicode="&#x261f;" horiz-adv-x="520" 
d="M420 267c0 -11 -5 -28 -11 -50c-6 -20 -11 -55 -11 -73c0 -36 2 -53 2 -77c0 -40 -7 -98 -9 -108c-1 -11 0 -20 0 -30s-5 -26 -5 -35c0 -19 -1 -70 -4 -90c0 -4 -3 -4 -4 -4c-4 0 -5 10 -6 10c-27 10 -43 33 -51 69c-5 22 -5 46 -7 75c-4 36 -11 77 -11 124
c-16 -14 -37 -30 -54 -30c-12 0 -22 5 -28 13c-10 -32 -24 -56 -60 -71c-4 -1 -7 0 -9 2c-20 25 -30 87 -31 142c-14 16 -33 76 -34 123c0 2 2 3 3 3c5 0 9 0 14 -1c-5 13 -12 31 -12 45c0 3 3 3 4 3c4 0 9 -3 14 -4c-2 7 -2 13 -2 18c0 16 4 23 16 23c1 0 3 -1 5 -1
c-2 22 -8 40 -8 66c0 62 45 109 64 169l-67 41l-5 42c-21 11 -42 23 -63 38c0 18 4 93 8 116c1 4 3 4 4 4c2 0 4 -3 4 -5c2 -24 9 -81 17 -118c19 3 39 3 58 3c79 0 157 -17 235 -55c4 17 21 92 21 115c0 2 1 6 4 6c1 0 3 0 4 -4c3 -16 3 -61 3 -74c0 -26 -1 -52 -4 -76
c0 -4 -14 -2 -19 -4v-34l-33 -9c19 -102 68 -219 68 -297zM129 661l3 -40c21 2 43 4 63 4c63 0 120 -8 172 -39c2 14 2 29 0 45c-56 23 -117 36 -169 36c-23 0 -47 -2 -69 -6zM327 133c-4 -14 -6 -33 -6 -56c0 -50 6 -95 11 -131c-1 -6 -2 -13 -2 -20c0 -45 12 -83 42 -102
c1 20 2 38 3 58c0 2 -1 2 -2 2c-5 0 -9 -5 -14 -5c-2 0 -3 2 -2 4c4 8 10 12 15 15c4 4 6 3 7 17c0 7 1 21 1 27c0 42 7 81 7 125c0 24 -3 72 -3 83c0 32 19 72 19 108c0 23 -18 92 -30 137c-15 57 -32 130 -37 196c-26 6 -49 8 -72 8c-19 0 -41 -1 -62 -7
c-9 -68 -63 -121 -63 -205c0 -47 12 -91 18 -137c-9 -42 -23 -82 -23 -124c0 -7 0 -14 1 -21c6 8 15 16 21 16c17 0 31 -18 31 -34c0 -3 0 -8 -2 -8s-6 4 -7 7c-5 13 -15 24 -24 24c-10 0 -11 -20 -11 -35c0 -29 8 -65 19 -76c26 19 39 47 46 80c8 39 8 82 9 143
c10 17 31 64 40 93c4 11 5 20 9 20c3 0 4 -5 4 -10c0 -23 -4 -42 -13 -63c22 -12 46 -24 66 -43c2 -2 0 -6 -2 -5c-7 2 -15 5 -25 3c7 -26 17 -55 31 -84zM128 257c6 0 5 10 5 14c0 16 -7 23 -18 23c-3 0 -5 -2 -5 -6c1 -17 9 -31 18 -31zM111 186c0 -1 1 -2 2 -2
c6 0 19 15 19 34c0 15 -6 31 -20 31c-6 0 -8 -1 -8 -5c0 -20 4 -46 7 -58zM284 217c0 4 -3 9 -6 11c-8 6 -21 14 -29 15c-8 -1 -9 -4 -9 -7c0 -7 6 -17 16 -29c9 -12 19 -23 26 -28c3 -1 4 -1 4 2c0 12 -1 25 -2 36zM233 203l-3 -38c0 -2 3 -2 5 -2c10 2 14 10 14 18
c0 10 -5 19 -13 25c-1 1 -3 1 -3 -3zM259 164l-11 -10c5 -7 10 -18 10 -28c0 -7 -2 -12 -5 -12c-2 0 -3 2 -3 5c0 8 -6 22 -14 30c-1 0 -6 -1 -6 -4c-1 -8 0 -26 -1 -37c-1 -12 -2 -23 -5 -32c9 -7 18 -11 26 -11c10 0 28 12 43 26c8 7 7 20 7 34c0 19 -25 36 -41 39z" />
    <glyph glyph-name="uni2720" unicode="&#x2720;" horiz-adv-x="831" 
d="M174 745h484c-95 -99 -181 -247 -207 -361c113 26 251 113 350 207v-483c-99 94 -236 180 -350 206c26 -113 113 -260 207 -359h-484c94 99 180 246 206 360c-114 -26 -251 -112 -350 -206v482c99 -95 237 -182 351 -207c-26 114 -113 261 -207 361z" />
    <glyph glyph-name="u1F31A" unicode="&#x1f31a;" horiz-adv-x="830" 
d="M415 745c220 0 398 -177 398 -395s-178 -395 -398 -395s-398 177 -398 395s178 395 398 395zM415 711c-201 0 -364 -162 -364 -361s163 -361 364 -361s364 162 364 361s-163 361 -364 361zM428 0v76h-3c-6 0 -14 0 -23 -1v-75h-14v73c-9 -2 -17 -4 -26 -7v-63
c-5 0 -10 1 -14 2v55c-9 -5 -18 -10 -26 -17v-32c-5 2 -10 3 -14 4v138c-9 -8 -17 -17 -26 -26v-103l-14 6v84l-9 -6c-5 -4 -11 -7 -17 -10v-55l-14 9v41c-10 -3 -19 -6 -26 -6v-18l-14 12v352c-2 0 -3 -1 -4 -1c-12 -4 -18 -6 -22 -6v-321l-14 15v359h-2
c-8 -1 -16 -3 -24 -6v-320c-5 7 -10 14 -14 22v294c-2 -1 -3 -2 -4 -2c-3 -1 -7 -1 -8 0c-3 4 1 10 12 17v41l14 22v-54l26 13v74l14 15v-83c9 4 17 9 26 12v74c-3 1 -4 1 -4 3s1 4 4 5v13c4 4 9 8 14 11v-19c5 2 10 3 17 4c2 0 5 1 9 1v32c4 3 9 6 14 8v-38c8 0 17 1 25 1
h1v50l14 6v-17c1 3 10 7 26 10v16c4 2 9 3 14 4v-18h2c8 1 16 1 24 1v23l14 3v-28c4 0 8 -1 13 -1l13 -2v34h14v-35h26v35h14v-35c7 0 15 1 26 1v31l14 -3v-27c11 1 19 1 26 1v20c4 -1 9 -2 14 -4v-17c1 0 2 -1 3 -1c6 -2 10 -4 10 -5c0 -3 -6 -4 -13 -5v-39c9 1 17 1 26 1
v57l14 -6v-51c9 0 18 0 26 -1v39c5 -2 9 -5 14 -8v-32l20 -4c3 -1 5 -2 6 -2v20c5 -3 9 -7 14 -11v-105c8 -3 17 -8 26 -12v93l14 -15v-85l23 -14l3 -3v69l14 -22v-350l-14 -22v316c-2 0 -5 0 -6 1l-20 6v-356l-14 -15v375l-26 5v-40v-2v-345c12 -5 13 -11 2 -11h-2v-6
l-14 -12v20c-8 2 -18 5 -26 8v-45l-14 -9v59c-3 1 -5 3 -6 4c-8 4 -14 10 -20 16v-92l-14 -6v113c-9 10 -16 21 -21 28c-1 0 -4 -1 -5 -1v-105l8 -9c5 -6 -3 -12 -7 -8c-1 0 -1 0 -1 1v-28c-5 -1 -10 -2 -14 -4v42c-8 5 -17 9 -26 13v-61c-5 -1 -9 -2 -14 -2v68
c-8 2 -17 3 -26 4v-75h-14zM202 98c9 2 17 6 26 11v332c-8 -1 -17 -2 -26 -4v-339zM602 122c8 -7 17 -13 26 -18v334c-1 0 -2 1 -2 1c-9 2 -16 4 -24 5v-322zM417 260c4 -5 7 -8 11 -10v323c-9 -1 -18 -1 -26 -1v-301c4 -2 8 -5 15 -11zM376 263c3 3 7 6 12 7v302
c-8 1 -16 3 -24 5h-2v-52c4 -2 8 -4 10 -6c5 -6 -1 -22 -10 -34v-37c5 -5 7 -10 7 -16c0 -7 -3 -12 -7 -14v-109c7 -1 7 -6 7 -9c0 -4 -3 -6 -6 -10l-1 -1v-32c4 0 9 1 14 6zM562 163c8 -10 16 -20 26 -29v311h-10v-4c0 -14 -6 -26 -16 -34v-244zM242 119c9 8 18 17 26 27
v252c-11 3 -21 10 -26 19v-298zM346 302l2 2v115c-4 2 -6 7 -10 11c-5 5 -11 7 -13 8h-2c0 -3 -1 -6 -1 -9v-244l20 4h6v52c-9 9 -15 22 -14 36c1 9 6 20 12 25zM485 253l-3 -6v-54c8 2 17 3 26 2v211c-10 7 -16 18 -17 31l-9 -2v-96c12 -40 13 -65 3 -86zM282 168
c10 19 20 43 26 63v177c-7 -6 -17 -11 -26 -11v-229zM528 230c4 -16 11 -31 20 -46v216c-5 -2 -9 -2 -14 -2c-4 0 -8 0 -12 1v-154c2 -2 4 -8 6 -15zM68 421c3 16 8 32 14 48v-239c-6 16 -11 32 -14 49v142zM762 279c-4 -17 -8 -33 -14 -49v239c6 -16 10 -32 14 -48v-142z
M449 365l-7 25v-143c16 1 24 15 26 39v7c0 11 -3 26 -6 37c-3 10 -10 25 -13 35zM348 149c-10 3 -18 5 -26 6v-96c7 7 15 15 26 22v68zM602 529c8 -3 16 -5 26 -9v87c-3 -1 -12 -2 -25 -1h-1v-77zM508 160l-26 -9v-61c9 -5 18 -11 26 -17v87zM562 538c10 -1 17 -2 26 -5v72
c-8 0 -17 -1 -26 -2v-65zM202 528c9 3 17 5 26 7v65h-6c-7 0 -14 -1 -20 -1v-71zM242 538c8 1 17 2 26 2v58c-8 1 -17 2 -26 2v-62zM542 539h6v61c-8 -1 -17 -3 -26 -6v-55h20zM282 540c8 0 17 -1 26 -2v54l-26 5v-57zM404 234l-2 -2v-50c9 -2 17 -2 26 -2v48l-3 2
c-12 6 -16 8 -21 4zM327 535c8 -2 15 -3 21 -5v51l-19 5c-3 0 -5 1 -7 2v-52c1 -1 3 -1 5 -1zM453 527c3 2 8 4 15 6v47c-9 -2 -18 -4 -26 -5v-64c3 7 6 12 11 16zM482 536c7 1 15 2 26 2v53l-14 -4l-12 -3v-48zM388 140c-9 1 -18 4 -26 6v-58c8 4 17 8 26 11v41zM468 147
c-9 -3 -18 -5 -26 -7v-38c9 -1 17 -3 26 -6v51zM464 231c-9 -4 -16 -6 -22 -6v-43c7 1 16 3 26 6v44c-1 0 -3 -1 -4 -1zM367 230c-2 0 -4 1 -5 1v-42c8 -1 17 -4 26 -5v44c-7 -1 -15 0 -21 2zM362 611c9 -1 17 -2 26 -2v40c-10 1 -19 3 -26 4v-42zM339 614c3 -1 6 -1 9 -1
v41c-10 1 -18 1 -26 1v-39c5 -1 11 -2 17 -2zM488 614c6 1 13 2 20 2v39l-26 -4v-38c2 0 4 0 6 1zM442 609l26 2v39h-2c-8 -1 -16 -3 -24 -3v-38zM428 646c-10 0 -19 0 -26 1v-38c8 0 17 -1 26 0v37zM282 619l26 -2v38c-16 -1 -26 -1 -26 2v-38zM186 488
c-11 -4 -15 -5 -24 -7v-39c5 5 14 10 26 14v32h-2zM418 137c-5 0 -11 0 -16 1v-36c7 1 14 2 21 2h5v33h-10zM453 461c0 -29 3 -41 15 -78v52c-7 1 -11 4 -11 10s5 10 11 13v26h-1c-12 -6 -14 -9 -14 -23zM228 493l-26 -2v-31l10 2c5 1 10 2 16 2v29zM628 487l-26 3v-25
c10 -1 18 -4 26 -7v29zM268 493h-26v-27l26 2v25zM572 492h-10v-24c8 0 17 -1 26 -1v24c-6 1 -11 1 -16 1zM505 490l-23 -2v-25c7 2 17 3 26 4v23h-3zM548 492c-9 0 -18 0 -26 -1v-24c9 1 18 1 26 1v24zM284 468c9 0 17 -1 24 -1v22h-2l-24 3v-24h2zM334 480
c-2 1 -7 4 -12 5v-20c10 -1 16 -3 21 -5l5 -3v18c-5 0 -9 2 -14 5z" />
    <glyph glyph-name="u1F31B" unicode="&#x1f31b;" horiz-adv-x="830" 
d="M96 637l-19 29c63 43 155 79 269 79c236 0 428 -177 428 -395s-192 -395 -428 -395c-114 0 -213 47 -272 94l19 26c39 -29 92 -56 144 -71c45 -13 89 -8 100 -3c19 8 34 20 39 39c7 23 11 30 31 45c26 20 27 33 7 60c-13 16 -14 31 0 43c4 3 8 5 13 6l-9 7
c-10 8 -10 14 -7 23c6 14 10 35 9 39c-2 2 -5 6 -23 2c-36 -6 -56 5 -65 29c-6 15 -2 39 8 58c4 8 16 28 29 46c13 19 26 40 30 48c13 26 8 49 -18 76c-20 23 -23 26 -21 61c4 57 -17 89 -57 106c-26 11 -60 11 -80 5c-46 -13 -90 -35 -127 -57zM346 711
c-10 0 -20 -1 -30 -1c3 -2 5 -3 9 -4c20 -8 35 -24 45 -42c12 -22 13 -34 15 -74c1 -12 0 -27 2 -35c2 -9 23 -31 33 -49c11 -20 10 -51 -2 -72c-3 -6 -16 -25 -28 -43c-38 -53 -42 -75 -33 -94c7 -14 20 -12 29 2c12 18 35 14 51 -5c8 -11 12 -13 25 -7c12 6 14 17 12 47
c-1 14 -1 23 2 29c2 4 5 6 8 1c2 -4 3 -7 3 -12c0 -25 21 -75 47 -106c19 -22 46 -44 78 -65c10 -7 8 -11 2 -11c-12 0 -57 22 -78 38c-13 10 -33 35 -40 50c-6 12 -8 17 -18 10c-4 -3 -13 -4 -18 -4s-10 0 -13 -2c-3 -3 -3 -9 -6 -18c-6 -22 -6 -23 12 -29
c9 -3 23 -8 31 -13c20 -10 43 -34 43 -42s-5 -8 -26 1c-11 4 -24 10 -41 11s-27 0 -29 -4c-2 -3 4 -9 10 -20c11 -19 12 -37 5 -51c-3 -6 -14 -18 -24 -29c-17 -17 -18 -20 -21 -35c-3 -14 -4 -17 -17 -28c-7 -7 -12 -12 -14 -15c183 13 327 169 327 360
c0 199 -157 361 -351 361zM428 524c3 0 10 -2 18 -4c10 -1 26 -4 34 -6c22 -4 46 -15 68 -29c10 -6 21 -15 28 -18c13 -6 11 -8 7 -17c-3 -4 -7 -5 -25 -4c-22 2 -61 -6 -74 -12c-3 -2 -13 -4 -22 -7c-12 -4 -18 1 -16 7c1 3 7 6 7 6s9 6 21 11c20 9 37 15 70 15
c-13 13 -44 22 -62 23c-2 -3 0 -8 -2 -17c-5 -15 -13 -22 -19 -17c-9 7 -10 23 -13 35c-1 7 -3 12 -12 20c-7 7 -14 10 -11 13c1 1 1 1 3 1zM402 570c0 21 26 24 54 24c30 -2 59 -27 96 -64c23 -23 46 -36 75 -48c3 -1 12 -5 9 -8c-3 -5 -22 -2 -40 6c-9 4 -32 18 -52 32
c-46 33 -73 46 -109 43c-25 -2 -33 0 -33 15z" />
    <glyph glyph-name="u1F31C" unicode="&#x1f31c;" horiz-adv-x="830" 
d="M753 666l-19 -29c-37 22 -81 44 -127 57c-20 6 -54 6 -80 -5c-40 -17 -61 -49 -57 -106c2 -35 -1 -38 -21 -61c-26 -27 -31 -50 -18 -76c4 -8 17 -29 30 -48c13 -18 25 -38 29 -46c10 -19 14 -43 8 -58c-9 -24 -29 -35 -65 -29c-18 4 -21 0 -23 -2c-1 -4 3 -25 9 -39
c3 -9 3 -15 -7 -23l-9 -7c5 -1 9 -3 13 -6c14 -12 13 -27 0 -43c-20 -27 -19 -40 7 -60c20 -15 24 -22 31 -45c5 -19 20 -31 39 -39c11 -5 55 -10 100 3c52 15 105 42 144 71l19 -26c-59 -47 -158 -94 -272 -94c-236 0 -428 177 -428 395s192 395 428 395
c114 0 206 -36 269 -79zM484 711c-194 0 -351 -162 -351 -361c0 -191 144 -347 327 -360c-2 3 -7 8 -14 15c-13 11 -14 14 -17 28c-3 15 -4 18 -21 35c-10 11 -21 23 -24 29c-7 14 -6 32 5 51c6 11 12 17 10 20c-2 4 -12 5 -29 4s-30 -7 -41 -11c-21 -9 -26 -9 -26 -1
s23 32 43 42c8 5 22 10 31 13c18 6 18 7 12 29c-3 9 -3 15 -6 18c-3 2 -8 2 -13 2s-14 1 -18 4c-10 7 -12 2 -18 -10c-7 -15 -27 -40 -40 -50c-21 -16 -66 -38 -78 -38c-6 0 -8 4 2 11c32 21 59 43 78 65c26 31 47 81 47 106c0 5 1 8 3 12c3 5 6 3 8 -1c3 -6 3 -15 2 -29
c-2 -30 0 -41 12 -47c13 -6 17 -4 25 7c16 19 39 23 51 5c9 -14 22 -16 29 -2c9 19 5 41 -33 94c-12 18 -25 37 -28 43c-12 21 -13 52 -2 72c10 18 31 40 33 49c2 8 1 23 2 35c2 40 3 52 15 74c10 18 25 34 45 42c4 1 6 2 9 4c-10 0 -20 1 -30 1zM402 524c2 0 2 0 3 -1
c3 -3 -4 -6 -11 -13c-9 -8 -11 -13 -12 -20c-3 -12 -4 -28 -13 -35c-6 -5 -14 2 -19 17c-2 9 0 14 -2 17c-18 -1 -49 -10 -62 -23c33 0 50 -6 70 -15c12 -5 21 -11 21 -11s6 -3 7 -6c2 -6 -4 -11 -16 -7c-9 3 -19 5 -22 7c-13 6 -52 14 -74 12c-18 -1 -22 0 -25 4
c-4 9 -6 11 7 17c7 3 18 12 28 18c22 14 46 25 68 29c8 2 24 5 34 6c8 2 15 4 18 4zM428 570c0 -15 -8 -17 -33 -15c-36 3 -63 -10 -109 -43c-20 -14 -43 -28 -52 -32c-18 -8 -37 -11 -40 -6c-3 3 6 7 9 8c29 12 52 25 75 48c37 37 66 62 96 64c28 0 54 -3 54 -24z" />
    <glyph glyph-name="u1F31D" unicode="&#x1f31d;" horiz-adv-x="830" 
d="M415 745c220 0 398 -177 398 -395s-178 -395 -398 -395s-398 177 -398 395s178 395 398 395zM415 711c-201 0 -364 -162 -364 -361s163 -361 364 -361s364 162 364 361s-163 361 -364 361zM542 539c25 0 36 -3 53 -8c31 -8 84 -31 110 -50c4 -3 7 -8 7 -10
c0 -3 -7 -2 -10 -1l-23 7c-33 9 -71 14 -107 15c-22 0 -45 0 -67 -2c-16 -1 -31 -3 -38 -6c-12 -6 -14 -9 -14 -23c0 -38 6 -47 29 -122c12 -40 13 -65 3 -86c-6 -11 -10 -17 -21 -22c-16 -7 -25 -7 -39 -1c-12 6 -16 8 -21 4c-8 -7 -25 -7 -37 -4c-20 6 -34 26 -33 47
c1 9 6 20 12 25c3 3 9 7 14 7c9 0 9 -6 9 -9c0 -4 -3 -6 -6 -10c-8 -10 -12 -24 -7 -29s12 -5 20 2c5 5 13 9 19 9c7 0 12 -2 22 -12c9 -9 14 -13 22 -13c19 0 29 17 29 46c0 11 -3 26 -6 37c-3 10 -10 25 -13 35c-11 41 -15 47 -15 87c0 43 7 65 19 75c10 7 33 12 89 12z
M317 258h1c4 -3 5 -46 2 -63l-2 -10l24 4c14 2 31 -2 48 -5c31 -5 45 -6 86 7c14 6 32 5 45 3c0 2 -2 10 -4 20c-2 12 -1 25 0 28c5 8 8 0 11 -12c16 -55 62 -110 114 -132c12 -5 13 -11 2 -11c-14 0 -50 11 -62 19c-27 17 -44 45 -55 59c-13 -2 -79 -28 -109 -28
c-38 0 -82 19 -107 19c-17 -15 -32 -34 -52 -48c-22 -16 -71 -28 -69 -17c0 2 5 5 12 7c24 7 47 24 66 48c16 21 37 70 44 101c1 6 2 11 5 11zM271 540c17 0 36 -1 56 -5c26 -5 39 -10 45 -16c5 -6 -1 -23 -11 -35c-10 -11 -17 -10 -27 -4c-4 3 -16 7 -28 9
c-28 6 -95 6 -120 -1c-16 -5 -17 -5 -40 -9c-14 -2 -33 -8 -42 -12c-3 -1 -7 -1 -8 0c-5 8 14 22 58 42c44 21 79 31 117 31zM267 619c22 0 47 -2 72 -5c51 -7 97 -7 149 0c49 7 104 6 134 -2c15 -4 5 -7 -19 -6c-29 0 -60 -5 -109 -19c-53 -15 -90 -20 -130 -10l-35 9
c-38 11 -65 15 -107 14c-20 0 -38 -4 -38 1c0 6 14 10 35 14c12 2 32 4 48 4zM284 468c40 -1 50 -4 59 -8c20 -9 26 -17 26 -28s-7 -15 -14 -15c-8 0 -11 7 -17 13c-5 5 -11 7 -13 8h-2c-1 -23 -21 -41 -44 -41c-24 0 -43 19 -43 43v2h-3c-15 -2 -32 -4 -49 -10
s-24 -7 -26 -4c-7 12 15 26 54 34c20 4 48 6 72 6zM554 468c28 0 59 -2 77 -11c9 -4 11 -8 11 -14s-8 -6 -16 -4c-16 4 -30 6 -48 6v-4c0 -24 -20 -43 -44 -43c-23 0 -41 17 -43 39c-5 -1 -10 -2 -15 -2c-11 -1 -19 2 -19 10c0 7 6 11 13 14c21 9 61 9 84 9zM311 44
c13 26 62 60 112 60c47 0 85 -25 107 -54c5 -6 -3 -12 -7 -8c-22 19 -54 34 -98 34c-21 0 -71 -2 -108 -37c-4 -4 -8 1 -6 5zM324 670c19 2 35 0 51 -2c41 -4 46 -4 102 -1c28 2 41 1 48 -1c6 -2 10 -4 10 -5c0 -4 -12 -5 -26 -6l-43 -5c-26 -4 -55 -5 -72 -2
c-39 6 -60 9 -84 7c-17 -1 -28 -1 -28 3c0 3 14 9 42 12z" />
    <glyph glyph-name="a.alt" horiz-adv-x="510" 
d="M469 389l-34 -281c-4 -35 -12 -101 -14 -120h-46c2 18 11 87 17 97l-4 1c-37 -60 -109 -98 -171 -98c-102 0 -171 60 -171 177c0 160 116 282 258 282c67 0 119 -23 165 -58zM422 366c-31 21 -74 38 -126 38c-113 0 -206 -102 -206 -232c0 -93 54 -141 132 -141
c69 0 142 52 175 126z" />
    <glyph glyph-name="agrave.alt" horiz-adv-x="510" 
d="M469 389l-34 -281c-4 -35 -12 -101 -14 -120h-46c2 18 11 87 17 97l-4 1c-37 -60 -109 -98 -171 -98c-102 0 -171 60 -171 177c0 160 116 282 258 282c67 0 119 -23 165 -58zM422 366c-31 21 -74 38 -126 38c-113 0 -206 -102 -206 -232c0 -93 54 -141 132 -141
c69 0 142 52 175 126zM340 544l-26 -21l-102 120l38 31z" />
    <glyph glyph-name="aacute.alt" horiz-adv-x="510" 
d="M469 389l-34 -281c-4 -35 -12 -101 -14 -120h-46c2 18 11 87 17 97l-4 1c-37 -60 -109 -98 -171 -98c-102 0 -171 60 -171 177c0 160 116 282 258 282c67 0 119 -23 165 -58zM422 366c-31 21 -74 38 -126 38c-113 0 -206 -102 -206 -232c0 -93 54 -141 132 -141
c69 0 142 52 175 126zM261 523l-20 21l122 130l30 -31z" />
    <glyph glyph-name="uni0203.alt" horiz-adv-x="510" 
d="M469 389l-34 -281c-4 -35 -12 -101 -14 -120h-46c2 18 11 87 17 97l-4 1c-37 -60 -109 -98 -171 -98c-102 0 -171 60 -171 177c0 160 116 282 258 282c67 0 119 -23 165 -58zM422 366c-31 21 -74 38 -126 38c-113 0 -206 -102 -206 -232c0 -93 54 -141 132 -141
c69 0 142 52 175 126zM432 532l-42 -18c-11 27 -38 42 -74 42s-65 -15 -84 -42l-38 18c28 44 73 68 128 68s94 -24 110 -68z" />
    <glyph glyph-name="atilde.alt" horiz-adv-x="510" 
d="M469 389l-34 -281c-4 -35 -12 -101 -14 -120h-46c2 18 11 87 17 97l-4 1c-37 -60 -109 -98 -171 -98c-102 0 -171 60 -171 177c0 160 116 282 258 282c67 0 119 -23 165 -58zM422 366c-31 21 -74 38 -126 38c-113 0 -206 -102 -206 -232c0 -93 54 -141 132 -141
c69 0 142 52 175 126zM213 516l-39 6c13 44 64 76 108 69l87 -13c24 -4 51 12 58 35l39 -6c-13 -44 -64 -76 -108 -69l-86 13c-25 4 -52 -12 -59 -35z" />
    <glyph glyph-name="adieresis.alt" horiz-adv-x="510" 
d="M469 389l-34 -281c-4 -35 -12 -101 -14 -120h-46c2 18 11 87 17 97l-4 1c-37 -60 -109 -98 -171 -98c-102 0 -171 60 -171 177c0 160 116 282 258 282c67 0 119 -23 165 -58zM422 366c-31 21 -74 38 -126 38c-113 0 -206 -102 -206 -232c0 -93 54 -141 132 -141
c69 0 142 52 175 126zM257 590c17 0 30 -13 30 -30c0 -21 -18 -40 -39 -40c-18 0 -31 14 -31 31c0 21 21 39 40 39zM397 590c17 0 30 -13 30 -30c0 -21 -18 -40 -39 -40c-18 0 -31 14 -31 31c0 21 21 39 40 39z" />
    <glyph glyph-name="aring.alt" horiz-adv-x="510" 
d="M469 389l-34 -281c-4 -35 -12 -101 -14 -120h-46c2 18 11 87 17 97l-4 1c-37 -60 -109 -98 -171 -98c-102 0 -171 60 -171 177c0 160 116 282 258 282c67 0 119 -23 165 -58zM422 366c-31 21 -74 38 -126 38c-113 0 -206 -102 -206 -232c0 -93 54 -141 132 -141
c69 0 142 52 175 126zM347 700c51 0 88 -38 88 -87c0 -61 -53 -113 -113 -113c-51 0 -89 39 -89 89c0 60 56 111 114 111zM342 660c-34 0 -67 -31 -67 -68c0 -29 22 -52 52 -52c34 0 65 31 65 68c0 29 -21 52 -50 52z" />
    <glyph glyph-name="amacron.alt" horiz-adv-x="510" 
d="M469 389l-34 -281c-4 -35 -12 -101 -14 -120h-46c2 18 11 87 17 97l-4 1c-37 -60 -109 -98 -171 -98c-102 0 -171 60 -171 177c0 160 116 282 258 282c67 0 119 -23 165 -58zM422 366c-31 21 -74 38 -126 38c-113 0 -206 -102 -206 -232c0 -93 54 -141 132 -141
c69 0 142 52 175 126zM217 577c9 0 43 -1 60 -1h90c17 0 51 1 60 1l-5 -46c-9 0 -43 1 -60 1h-90c-17 0 -51 -1 -60 -1z" />
    <glyph glyph-name="acircumflex.alt" horiz-adv-x="510" 
d="M469 389l-34 -281c-4 -35 -12 -101 -14 -120h-46c2 18 11 87 17 97l-4 1c-37 -60 -109 -98 -171 -98c-102 0 -171 60 -171 177c0 160 116 282 258 282c67 0 119 -23 165 -58zM422 366c-31 21 -74 38 -126 38c-113 0 -206 -102 -206 -232c0 -93 54 -141 132 -141
c69 0 142 52 175 126zM382 492l-67 83l-87 -83l-26 28l121 115l93 -115z" />
    <glyph glyph-name="aogonek.alt" horiz-adv-x="510" 
d="M469 389l-33 -269c-6 -48 -9 -81 -13 -120h-45l3 26c2 19 6 34 9 39l-4 1c-33 -45 -95 -74 -152 -77c-6 -12 -13 -33 -13 -51c0 -21 9 -40 45 -40c9 0 21 2 37 5l3 -44c-17 -3 -31 -5 -46 -5c-66 0 -85 36 -85 76c0 20 6 43 14 61c-86 11 -143 72 -143 180
c0 159 113 276 258 276c67 0 119 -23 165 -58zM423 366c-32 21 -75 38 -127 38c-116 0 -206 -99 -206 -225c0 -97 57 -148 138 -148c66 0 136 44 166 106z" />
    <glyph glyph-name="abreve.alt" horiz-adv-x="510" 
d="M469 389l-34 -281c-4 -35 -12 -101 -14 -120h-46c2 18 11 87 17 97l-4 1c-37 -60 -109 -98 -171 -98c-102 0 -171 60 -171 177c0 160 116 282 258 282c67 0 119 -23 165 -58zM422 366c-31 21 -74 38 -126 38c-113 0 -206 -102 -206 -232c0 -93 54 -141 132 -141
c69 0 142 52 175 126zM306 524c-55 0 -94 24 -110 68l42 18c12 -27 38 -42 74 -42s66 15 84 42l38 -18c-28 -44 -73 -68 -128 -68z" />
    <glyph glyph-name="acaron.alt" horiz-adv-x="510" 
d="M469 389l-34 -281c-4 -35 -12 -101 -14 -120h-46c2 18 11 87 17 97l-4 1c-37 -60 -109 -98 -171 -98c-102 0 -171 60 -171 177c0 160 116 282 258 282c67 0 119 -23 165 -58zM422 366c-31 21 -74 38 -126 38c-113 0 -206 -102 -206 -232c0 -93 54 -141 132 -141
c69 0 142 52 175 126zM318 552l87 83l26 -28l-121 -115l-93 115l34 28z" />
    <glyph glyph-name="uni0227.alt" horiz-adv-x="510" 
d="M469 389l-34 -281c-4 -35 -12 -101 -14 -120h-46c2 18 11 87 17 97l-4 1c-37 -60 -109 -98 -171 -98c-102 0 -171 60 -171 177c0 160 116 282 258 282c67 0 119 -23 165 -58zM422 366c-31 21 -74 38 -126 38c-113 0 -206 -102 -206 -232c0 -93 54 -141 132 -141
c69 0 142 52 175 126zM319 590c17 0 30 -13 30 -30c0 -21 -18 -40 -39 -40c-18 0 -31 14 -31 31c0 21 21 39 40 39z" />
    <glyph glyph-name="y.alt" horiz-adv-x="490" 
d="M344 79l29 236c5 40 9 80 14 120h46c-2 -19 -12 -85 -16 -120l-44 -360c-12 -102 -102 -187 -231 -187c-78 0 -127 30 -152 53l32 34c20 -19 65 -44 120 -44c116 0 179 68 188 149c4 36 10 59 17 71l-3 3c-23 -20 -72 -46 -136 -46c-99 0 -153 53 -153 133c0 8 0 16 1 24
l21 170c5 38 9 79 14 120h46c-1 -19 -12 -85 -16 -120l-19 -160c-1 -10 -2 -19 -2 -28c0 -56 36 -96 110 -96c63 0 113 31 134 48z" />
    <glyph glyph-name="yacute.alt" horiz-adv-x="490" 
d="M344 79l29 236c5 40 9 80 14 120h46c-2 -19 -12 -85 -16 -120l-44 -360c-12 -102 -102 -187 -231 -187c-78 0 -127 30 -152 53l32 34c20 -19 65 -44 120 -44c116 0 179 68 188 149c4 36 10 59 17 71l-3 3c-23 -20 -72 -46 -136 -46c-99 0 -153 53 -153 133c0 8 0 16 1 24
l21 170c5 38 9 79 14 120h46c-1 -19 -12 -85 -16 -120l-19 -160c-1 -10 -2 -19 -2 -28c0 -56 36 -96 110 -96c63 0 113 31 134 48zM240 523l-20 21l122 130l30 -31z" />
    <glyph glyph-name="ydieresis.alt" horiz-adv-x="490" 
d="M344 79l29 236c5 40 9 80 14 120h46c-2 -19 -12 -85 -16 -120l-44 -360c-12 -102 -102 -187 -231 -187c-78 0 -127 30 -152 53l32 34c20 -19 65 -44 120 -44c116 0 179 68 188 149c4 36 10 59 17 71l-3 3c-23 -20 -72 -46 -136 -46c-99 0 -153 53 -153 133c0 8 0 16 1 24
l21 170c5 38 9 79 14 120h46c-1 -19 -12 -85 -16 -120l-19 -160c-1 -10 -2 -19 -2 -28c0 -56 36 -96 110 -96c63 0 113 31 134 48zM209 590c17 0 30 -13 30 -30c0 -21 -18 -40 -39 -40c-18 0 -31 14 -31 31c0 21 21 39 40 39zM349 590c17 0 30 -13 30 -30
c0 -21 -18 -40 -39 -40c-18 0 -31 14 -31 31c0 21 21 39 40 39z" />
    <glyph glyph-name="ycircumflex.alt" horiz-adv-x="490" 
d="M344 79l29 236c5 40 9 80 14 120h46c-2 -19 -12 -85 -16 -120l-44 -360c-12 -102 -102 -187 -231 -187c-78 0 -127 30 -152 53l32 34c20 -19 65 -44 120 -44c116 0 179 68 188 149c4 36 10 59 17 71l-3 3c-23 -20 -72 -46 -136 -46c-99 0 -153 53 -153 133c0 8 0 16 1 24
l21 170c5 38 9 79 14 120h46c-1 -19 -12 -85 -16 -120l-19 -160c-1 -10 -2 -19 -2 -28c0 -56 36 -96 110 -96c63 0 113 31 134 48zM352 492l-67 83l-87 -83l-26 28l121 115l93 -115z" />
    <glyph glyph-name="uni0233.alt" horiz-adv-x="490" 
d="M344 79l29 236c5 40 9 80 14 120h46c-2 -19 -12 -85 -16 -120l-44 -360c-12 -102 -102 -187 -231 -187c-78 0 -127 30 -152 53l32 34c20 -19 65 -44 120 -44c116 0 179 68 188 149c4 36 10 59 17 71l-3 3c-23 -20 -72 -46 -136 -46c-99 0 -153 53 -153 133c0 8 0 16 1 24
l21 170c5 38 9 79 14 120h46c-1 -19 -12 -85 -16 -120l-19 -160c-1 -10 -2 -19 -2 -28c0 -56 36 -96 110 -96c63 0 113 31 134 48zM177 577c9 0 43 -1 60 -1h90c17 0 51 1 60 1l-5 -46c-9 0 -43 1 -60 1h-90c-17 0 -51 -1 -60 -1z" />
    <glyph glyph-name="uni1E8F.alt" horiz-adv-x="490" 
d="M344 79l29 236c5 40 9 80 14 120h46c-2 -19 -12 -85 -16 -120l-44 -360c-12 -102 -102 -187 -231 -187c-78 0 -127 30 -152 53l32 34c20 -19 65 -44 120 -44c116 0 179 68 188 149c4 36 10 59 17 71l-3 3c-23 -20 -72 -46 -136 -46c-99 0 -153 53 -153 133c0 8 0 16 1 24
l21 170c5 38 9 79 14 120h46c-1 -19 -12 -85 -16 -120l-19 -160c-1 -10 -2 -19 -2 -28c0 -56 36 -96 110 -96c63 0 113 31 134 48zM276 590c17 0 30 -13 30 -30c0 -21 -18 -40 -39 -40c-18 0 -31 14 -31 31c0 21 21 39 40 39z" />
    <glyph glyph-name="ygrave.alt" horiz-adv-x="490" 
d="M344 79l29 236c5 40 9 80 14 120h46c-2 -19 -12 -85 -16 -120l-44 -360c-12 -102 -102 -187 -231 -187c-78 0 -127 30 -152 53l32 34c20 -19 65 -44 120 -44c116 0 179 68 188 149c4 36 10 59 17 71l-3 3c-23 -20 -72 -46 -136 -46c-99 0 -153 53 -153 133c0 8 0 16 1 24
l21 170c5 38 9 79 14 120h46c-1 -19 -12 -85 -16 -120l-19 -160c-1 -10 -2 -19 -2 -28c0 -56 36 -96 110 -96c63 0 113 31 134 48zM300 544l-26 -21l-102 120l38 31z" />
    <glyph glyph-name="uni1EF9.alt" horiz-adv-x="490" 
d="M344 79l29 236c5 40 9 80 14 120h46c-2 -19 -12 -85 -16 -120l-44 -360c-12 -102 -102 -187 -231 -187c-78 0 -127 30 -152 53l32 34c20 -19 65 -44 120 -44c116 0 179 68 188 149c4 36 10 59 17 71l-3 3c-23 -20 -72 -46 -136 -46c-99 0 -153 53 -153 133c0 8 0 16 1 24
l21 170c5 38 9 79 14 120h46c-1 -19 -12 -85 -16 -120l-19 -160c-1 -10 -2 -19 -2 -28c0 -56 36 -96 110 -96c63 0 113 31 134 48zM167 516l-39 6c13 44 64 76 108 69l87 -13c24 -4 51 12 58 35l39 -6c-13 -44 -64 -76 -108 -69l-86 13c-25 4 -52 -12 -59 -35z" />
    <glyph glyph-name="A.swash" horiz-adv-x="1124" 
d="M331 209l-26 30c58 52 127 88 199 110l34 55c133 216 283 467 483 467h34c-87 -160 -155 -360 -181 -522c119 -40 204 -119 204 -225c0 -71 -37 -132 -120 -132c-74 0 -135 73 -135 228c0 31 3 65 7 101c-42 11 -90 17 -138 17c-53 0 -109 -8 -162 -23
c-109 -174 -222 -335 -355 -335c-88 0 -153 66 -165 147l40 6c9 -63 58 -114 125 -114c103 0 198 124 295 276c-50 -21 -98 -50 -139 -86zM572 384l-13 -21c44 10 89 14 133 14c50 0 98 -6 143 -17c24 152 81 330 153 471c-158 -29 -294 -249 -416 -447zM1038 124
c0 85 -69 151 -169 186c-4 -32 -6 -63 -6 -90c0 -127 43 -189 95 -189c55 0 80 44 80 93z" />
    <glyph glyph-name="B.swash" horiz-adv-x="900" 
d="M452 33l26 30c25 -21 71 -44 128 -44c94 0 170 69 170 182c0 74 -22 143 -58 200c-45 -31 -103 -47 -168 -47c-33 0 -64 4 -91 12c-61 -166 -140 -382 -323 -382c-56 0 -98 25 -123 50l28 28c19 -19 50 -39 94 -39c151 0 229 204 286 357c-55 24 -90 63 -90 108
c0 54 48 98 132 98c10 0 20 -1 30 -2c32 84 67 162 104 196l28 -30c-31 -29 -63 -97 -91 -172c75 -17 141 -59 190 -119c30 33 48 77 48 131c0 156 -156 301 -368 301c-88 0 -146 -30 -179 -66l-30 28c39 42 107 77 209 77c234 0 408 -164 408 -340c0 -69 -24 -124 -63 -163
c42 -64 67 -142 67 -226c0 -139 -94 -221 -210 -221c-66 0 -123 27 -154 53zM520 541c-8 -23 -17 -47 -25 -72c-8 -22 -15 -45 -23 -67c23 -6 50 -9 78 -9c56 0 106 14 144 40c-45 55 -105 94 -174 108zM479 546c-5 1 -11 1 -16 1c-58 0 -92 -27 -92 -59
c0 -29 24 -55 63 -73c8 23 16 45 23 66s14 43 22 65z" />
    <glyph glyph-name="C.swash" horiz-adv-x="740" 
d="M680 120l24 -32c-73 -56 -212 -108 -326 -108c-233 0 -337 145 -337 308c0 97 32 199 88 293c-52 18 -95 43 -132 76l26 30c35 -31 77 -55 127 -72c26 39 56 75 90 109c110 108 258 186 409 186c89 0 144 -38 144 -98c0 -94 -191 -260 -463 -260c-62 0 -116 6 -162 17
c-55 -89 -87 -188 -87 -281c0 -141 92 -269 297 -269c106 0 235 49 302 101zM268 696c-29 -29 -54 -59 -77 -92c40 -9 86 -13 139 -13c248 0 423 141 423 221c0 36 -39 59 -104 59c-141 0 -278 -74 -381 -175z" />
    <glyph glyph-name="D.swash" horiz-adv-x="1060" 
d="M175 174c62 0 120 -18 176 -42c51 66 88 154 115 234c17 51 35 106 56 160c-150 50 -245 151 -245 255c0 77 59 139 171 139c287 0 532 -288 532 -604c0 -241 -161 -336 -310 -336c-94 0 -176 39 -258 79l-51 24c-52 -58 -117 -97 -199 -97c-81 0 -136 42 -136 94
c0 53 54 94 149 94zM728 534v-39c-61 0 -117 7 -168 20c-21 -54 -40 -111 -56 -161c-27 -81 -65 -169 -117 -239l43 -20c78 -38 156 -76 240 -76c129 0 270 84 270 297c0 296 -227 565 -492 565c-86 0 -131 -45 -131 -100c0 -88 85 -175 219 -219c32 78 70 151 120 201
l28 -28c-43 -44 -79 -111 -109 -184c46 -11 98 -17 153 -17zM162 25c65 0 118 29 162 75c-49 20 -98 35 -149 35c-69 0 -109 -24 -109 -55c0 -30 39 -55 96 -55z" />
    </font>
</defs>
</svg>
